<?xml version="1.0" encoding="UTF-8"?>
<!DOCTYPE svg PUBLIC "-//W3C//DTD SVG 1.1//EN" "http://www.w3.org/Graphics/SVG/1.1/DTD/svg11.dtd">
<!-- Creator: CorelDRAW X7 -->
<svg xmlns="http://www.w3.org/2000/svg" xml:space="preserve" width="118.467mm" height="115.347mm" version="1.1" style="shape-rendering:geometricPrecision; text-rendering:geometricPrecision; image-rendering:optimizeQuality; fill-rule:evenodd; clip-rule:evenodd"
viewBox="0 0 11847 11535"
 xmlns:xlink="http://www.w3.org/1999/xlink">
 <defs>
  <style type="text/css">
   <![CDATA[
    .fil3 {fill:#0061F2}
    .fil8 {fill:#FB7306}
    .fil7 {fill:#FBF206}
    .fil5 {fill:#FEFEFE}
    .fil1 {fill:white}
    .fil6 {fill:#0061F2;fill-rule:nonzero}
    .fil2 {fill:#373435;fill-opacity:0.329412}
    .fil4 {fill:#373435;fill-rule:nonzero;fill-opacity:0.329412}
    .fil0 {fill:url(#id0)}
   ]]>
  </style>
  <linearGradient id="id0" gradientUnits="userSpaceOnUse" x1="1568.21" y1="8747.91" x2="10401.7" y2="2766.77">
   <stop offset="0" style="stop-opacity:1; stop-color:#1975FF"/>
   <stop offset="1" style="stop-opacity:1; stop-color:#0066FF"/>
  </linearGradient>
 </defs>
 <g id="Layer_x0020_1">
  <metadata id="CorelCorpID_0Corel-Layer"/>
  <polygon class="fil0" points="123,0 11847,0 11847,11515 123,11515 "/>
  <path class="fil1" d="M0 8891l0 -2920c5922,-985 7691,2150 11847,2228l0 3336 -11847 0 0 -2644z"/>
  <g id="_2241728314048">
   <path class="fil2" d="M4402 8386l-136 -6c-18,-1 -7,-10 -20,6 26,3 160,60 200,76 111,41 219,69 336,76 32,2 66,6 104,1 78,-8 128,-7 210,-22 21,-4 40,-4 59,-10 14,-4 2,-3 25,-6 14,-2 17,-3 32,-5 48,-9 207,-26 239,-36l113 -24c43,-7 99,-15 139,-27 131,-42 102,9 164,14l0 9c-38,9 -143,85 -190,108 -9,5 -7,3 -15,8l-83 45c-5,3 -10,4 -16,7 -7,2 -11,5 -19,8 -25,11 -42,25 -67,34 -38,14 -112,48 -150,51 -3,30 -11,42 18,65 68,53 120,-20 195,-66 24,-15 43,-27 66,-40l66 -40c23,-14 45,-24 67,-37 23,-14 44,-25 68,-38 16,-9 120,-70 139,-70 25,0 269,145 304,164l162 103c42,30 47,42 91,42 36,0 66,-36 63,-68 -1,-15 3,-9 -11,-16l-86 -28c-46,-16 -85,-39 -129,-59l-298 -164c-10,-6 -11,-6 -15,-18 66,-15 42,-48 140,-21l147 31c28,6 82,12 107,21l49 12c88,12 182,20 269,42 59,15 159,28 222,30 80,2 137,6 222,-7 94,-14 122,-26 202,-50l68 -24c11,-5 10,-6 22,-10 34,-11 59,-22 91,-32 19,-6 28,-13 45,-19 12,-5 37,-13 50,-14 -7,-9 -6,-7 -14,-6 0,0 -2,1 -2,1 -69,18 -259,9 -329,-2l-154 -20c-49,-7 -101,-14 -146,-28 -15,-5 -29,-7 -49,-11 -34,-7 -66,-13 -98,-21l-99 -22c-192,-43 -203,-36 -400,-33 -93,1 -119,25 -180,44l-123 39c-35,14 -69,26 -102,47 -10,7 -9,12 -20,12 -7,0 -72,-40 -95,-47l-197 -69c-82,-33 -157,-19 -251,-29 -86,-9 -190,12 -274,34 -2,1 -6,2 -8,2l-31 8c-66,16 -140,23 -205,43 -87,27 -173,33 -265,46l-217 16z"/>
   <path class="fil3" d="M4349 8294l-136 -7c-18,-1 -7,-10 -20,7 26,2 160,60 200,75 111,42 219,70 336,76 32,2 66,6 104,2 78,-9 128,-7 210,-22 21,-4 40,-5 59,-10 14,-5 2,-3 25,-7 14,-2 17,-2 32,-5 49,-8 207,-26 239,-35l113 -24c43,-7 100,-15 139,-28 131,-42 102,10 164,14l0 10c-38,9 -143,85 -190,108 -8,4 -7,3 -15,7l-83 46c-5,2 -10,3 -16,6 -7,3 -11,5 -19,8 -25,12 -42,25 -66,35 -39,14 -113,48 -151,50 -3,31 -11,42 18,65 68,53 120,-19 195,-66 24,-14 44,-27 66,-40l66 -39c23,-15 45,-25 67,-38 23,-14 44,-25 68,-38 16,-9 120,-69 139,-69 25,-1 269,144 304,163l162 103c42,31 47,42 91,42 36,0 67,-36 63,-68 -1,-14 3,-9 -11,-15l-86 -29c-46,-16 -85,-39 -129,-59l-298 -164c-10,-6 -11,-5 -15,-18 66,-15 42,-47 140,-20l147 31c28,5 82,12 108,21l48 11c88,13 182,20 269,42 59,16 159,28 222,30 80,2 137,7 222,-6 94,-15 122,-27 202,-51l68 -23c11,-6 10,-7 22,-11 34,-11 60,-21 92,-32 18,-5 27,-13 44,-19 12,-4 37,-12 51,-14 -8,-9 -6,-7 -15,-5 0,0 -1,0 -2,0 -69,18 -259,9 -329,-2l-154 -20c-49,-7 -101,-13 -146,-28 -15,-5 -29,-7 -48,-11 -35,-6 -67,-13 -99,-21l-98 -22c-193,-42 -204,-35 -401,-33 -93,1 -118,26 -180,44l-123 40c-35,14 -69,25 -102,47 -10,7 -9,11 -20,11 -7,0 -72,-40 -95,-47l-197 -68c-82,-33 -157,-19 -251,-29 -86,-9 -190,11 -273,33 -3,1 -7,2 -9,2l-31 8c-66,16 -140,23 -205,43 -87,27 -173,33 -264,47l-218 16z"/>
   <path class="fil2" d="M4402 8386l-136 -6c-18,-1 -7,-10 -20,6 26,3 160,60 200,76 111,41 219,69 336,76 32,2 66,6 104,1 78,-8 128,-7 210,-22 21,-4 40,-4 59,-10 14,-4 2,-3 25,-6 14,-2 17,-3 32,-5 48,-9 207,-26 239,-36l113 -24c43,-7 99,-15 139,-27 131,-42 102,9 164,14l0 9c-38,9 -143,85 -190,108 -9,5 -7,3 -15,8l-83 45c-5,3 -10,4 -16,7 -7,2 -11,5 -19,8 -25,11 -42,25 -67,34 -38,14 -112,48 -150,51 -3,30 -11,42 18,65 68,53 120,-20 195,-66 24,-15 43,-27 66,-40l66 -40c23,-14 45,-24 67,-37 23,-14 44,-25 68,-38 16,-9 120,-70 139,-70 25,0 269,145 304,164l162 103c42,30 47,42 91,42 36,0 66,-36 63,-68 -1,-15 3,-9 -11,-16l-86 -28c-46,-16 -85,-39 -129,-59l-298 -164c-10,-6 -11,-6 -15,-18 66,-15 42,-48 140,-21l147 31c28,6 82,12 107,21l49 12c88,12 182,20 269,42 59,15 159,28 222,30 80,2 137,6 222,-7 94,-14 122,-26 202,-50l68 -24c11,-5 10,-6 22,-10 34,-11 59,-22 91,-32 19,-6 28,-13 45,-19 12,-5 37,-13 50,-14 -7,-9 -6,-7 -14,-6 0,0 -2,1 -2,1 -69,18 -259,9 -329,-2l-154 -20c-49,-7 -101,-14 -146,-28 -15,-5 -29,-7 -49,-11 -34,-7 -66,-13 -98,-21l-99 -22c-192,-43 -203,-36 -400,-33 -93,1 -119,25 -180,44l-123 39c-35,14 -69,26 -102,47 -10,7 -9,12 -20,12 -7,0 -72,-40 -95,-47l-197 -69c-82,-33 -157,-19 -251,-29 -86,-9 -190,12 -274,34 -2,1 -6,2 -8,2l-31 8c-66,16 -140,23 -205,43 -87,27 -173,33 -265,46l-217 16z"/>
   <path class="fil3" d="M4349 8294l-136 -7c-18,-1 -7,-10 -20,7 26,2 160,60 200,75 111,42 219,70 336,76 32,2 66,6 104,2 78,-9 128,-7 210,-22 21,-4 40,-5 59,-10 14,-5 2,-3 25,-7 14,-2 17,-2 32,-5 49,-8 207,-26 239,-35l113 -24c43,-7 100,-15 139,-28 131,-42 102,10 164,14l0 10c-38,9 -143,85 -190,108 -8,4 -7,3 -15,7l-83 46c-5,2 -10,3 -16,6 -7,3 -11,5 -19,8 -25,12 -42,25 -66,35 -39,14 -113,48 -151,50 -3,31 -11,42 18,65 68,53 120,-19 195,-66 24,-14 44,-27 66,-40l66 -39c23,-15 45,-25 67,-38 23,-14 44,-25 68,-38 16,-9 120,-69 139,-69 25,-1 269,144 304,163l162 103c42,31 47,42 91,42 36,0 67,-36 63,-68 -1,-14 3,-9 -11,-15l-86 -29c-46,-16 -85,-39 -129,-59l-298 -164c-10,-6 -11,-5 -15,-18 66,-15 42,-47 140,-20l147 31c28,5 82,12 108,21l48 11c88,13 182,20 269,42 59,16 159,28 222,30 80,2 137,7 222,-6 94,-15 122,-27 202,-51l68 -23c11,-6 10,-7 22,-11 34,-11 60,-21 92,-32 18,-5 27,-13 44,-19 12,-4 37,-12 51,-14 -8,-9 -6,-7 -15,-5 0,0 -1,0 -2,0 -69,18 -259,9 -329,-2l-154 -20c-49,-7 -101,-13 -146,-28 -15,-5 -29,-7 -48,-11 -35,-6 -67,-13 -99,-21l-98 -22c-193,-42 -204,-35 -401,-33 -93,1 -118,26 -180,44l-123 40c-35,14 -69,25 -102,47 -10,7 -9,11 -20,11 -7,0 -72,-40 -95,-47l-197 -68c-82,-33 -157,-19 -251,-29 -86,-9 -190,11 -273,33 -3,1 -7,2 -9,2l-31 8c-66,16 -140,23 -205,43 -87,27 -173,33 -264,47l-218 16z"/>
   <g>
    <path class="fil2" d="M7142 8081l61 23c64,18 184,37 193,40 18,5 -8,6 26,6 14,0 10,-2 18,-2 20,2 -3,7 18,7l156 0c22,0 5,-3 24,-6 82,-13 168,-29 247,-57l41 -14c20,-6 31,-11 51,-18 12,-3 13,-4 23,-8 15,-7 12,-6 24,-13 5,-2 18,-8 23,-10 11,-4 12,-4 23,-8 42,-19 277,-144 299,-177 -14,-4 -23,-9 -39,-12l-180 -19 -319 32c-30,7 -58,10 -85,16 -20,5 -18,7 -40,11 -9,2 -29,7 -42,8 8,-14 11,-20 20,-35l72 -125c3,-5 6,-12 9,-18l86 -185c2,-5 2,-9 4,-13 22,-56 79,-212 79,-265l-133 69c-11,7 -19,12 -31,19 -12,7 -20,9 -34,16 -12,6 -20,14 -31,20 -57,34 -105,61 -159,102 -20,15 -37,28 -57,43 -49,36 -136,101 -161,151 -7,14 -9,20 -17,32 -49,68 -84,177 -100,207 -17,31 -43,121 -59,160l-10 23 0 0z"/>
    <path class="fil2" d="M4240 7880l-250 -48c-28,-4 -64,-10 -89,-11l-143 -9c-20,-2 -22,4 -44,4 -32,1 -65,1 -95,7 -30,5 -54,14 -79,21 3,12 5,11 14,17l145 89c56,37 222,109 273,125 17,6 34,9 49,15 13,6 8,5 22,10 38,16 167,37 194,45 49,14 125,10 209,10 24,0 4,-3 24,-6 10,-1 -4,0 10,0 26,0 189,-34 224,-47 26,-10 23,-12 58,-21 -6,-11 -9,-25 -13,-37l-12 -30c0,0 -1,-2 -1,-2l-24 -73c-5,-15 -9,-20 -15,-35 -5,-15 -7,-21 -14,-36 -13,-26 -22,-47 -32,-74 -18,-45 -82,-156 -117,-190l-298 -219c-12,-6 -18,-12 -31,-19 -16,-9 -17,-10 -31,-19 -25,-17 -46,-23 -69,-37l-98 -53c-12,-8 -22,-14 -37,-18 0,38 15,74 24,102l8 26c5,13 9,30 14,46 5,13 9,27 14,41 3,12 3,10 8,20 0,0 4,8 4,8 4,9 1,3 4,10l17 39c2,8 4,13 6,21l28 59c11,17 9,23 18,42l114 206c7,14 6,4 11,21l0 0z"/>
    <path class="fil2" d="M3073 6365c-2,-26 -22,-49 -30,-76 -10,-29 -19,-48 -33,-72l-39 -67c-28,-41 -62,-87 -97,-122l-52 -44c-34,-29 -96,-73 -138,-77 0,70 15,294 35,345 31,81 20,105 86,206 44,67 82,99 138,155 57,57 122,111 191,153 28,17 141,77 167,80 6,-24 16,-34 24,-55 7,-19 14,-37 22,-56 38,-85 111,-286 105,-374 -4,-58 -15,-285 -36,-340l-18 -63c-6,-20 -10,-42 -17,-62 -7,-21 -18,-39 -20,-62 -23,6 -101,143 -125,177 -10,12 -12,16 -21,30l-38 66c-8,13 -12,18 -19,32 -12,25 -24,48 -34,71 -10,23 -21,50 -27,73 -9,33 -13,74 -24,82l0 0z"/>
    <path class="fil2" d="M8602 6846c37,-3 155,-71 193,-97l82 -60c27,-19 46,-37 72,-60 101,-88 117,-122 181,-222 12,-19 19,-44 28,-67 11,-26 19,-50 26,-76 31,-118 32,-233 32,-357 -104,25 -224,151 -282,244l-57 99c-12,24 -34,103 -50,115 0,-32 -31,-117 -43,-154 -9,-24 -94,-171 -109,-193l-81 -120c-7,-11 -12,-20 -20,-31 -10,-14 -16,-15 -17,-33l-9 0c-3,10 -6,20 -9,28 -25,62 -32,87 -46,151 -3,13 -3,20 -8,33l-9 41c-12,48 -21,225 -25,278 -2,42 18,116 28,150l2 7c0,1 0,3 1,3l1 6c1,0 1,2 1,2l8 20c7,21 13,42 20,63l67 171c9,19 22,36 23,59l0 0z"/>
    <path class="fil2" d="M3503 7006l0 73c0,62 9,113 9,169 -22,-15 -42,-29 -63,-47l-133 -95c-12,-8 -17,-14 -32,-23l-71 -44c-50,-27 -97,-57 -152,-76 -20,-7 -27,-7 -44,-16 -22,-11 -72,-19 -95,-19 3,17 20,59 27,73l70 132c8,10 14,18 21,29l84 117c10,11 12,17 23,28l48 52c34,35 124,112 164,138 78,52 193,100 281,122 37,10 136,32 174,32l13 -69c3,-26 6,-53 9,-74 7,-53 2,-108 8,-162 2,-21 -3,-93 -7,-139 -2,-38 -1,-38 -16,-66l-36 -92c-4,-13 -7,-21 -11,-30 -6,-13 -9,-15 -14,-27 -32,-75 -41,-82 -71,-140 -9,-18 -112,-191 -140,-199 -4,41 -13,53 -20,77 -6,22 -9,60 -13,87 -8,55 -13,125 -13,189l0 0z"/>
    <path class="fil2" d="M8090 7651c29,0 65,-5 88,-12 26,-7 57,-14 82,-19 50,-11 178,-56 219,-83 14,-9 17,-11 33,-18 26,-12 37,-25 59,-41l86 -71c9,-9 15,-15 24,-25 5,-4 7,-6 12,-11l10 -8c106,-102 192,-228 252,-362l32 -73c-54,0 -167,38 -216,68l-74 40c-16,9 -21,14 -36,23 -83,50 -98,66 -168,116 -12,8 -21,17 -33,26 -25,19 -40,33 -68,47 0,-19 2,-25 3,-37 3,-16 1,-29 2,-45 12,-158 2,-283 -23,-439 -12,-70 -15,-31 -14,-78 -21,5 -63,75 -76,93 -34,48 -122,200 -137,243 -14,41 -30,65 -38,90l-36 97c0,0 -1,1 -1,2 -13,40 -11,127 -9,175 0,27 -2,56 0,83l4 59c3,23 5,7 5,29 1,10 0,8 1,19 5,33 16,78 17,112z"/>
    <path class="fil2" d="M3031 5870c16,-10 21,-20 33,-35l7 -8c0,0 1,-1 2,-2 0,-1 1,-2 2,-3 1,0 1,-1 2,-2 1,-1 3,-4 4,-5 48,-57 166,-225 183,-284 5,-19 9,-36 13,-56l38 -172c10,-36 13,-75 18,-115l8 -97c1,-63 -3,-56 -3,-104l-74 67c-90,80 -179,183 -250,282 -14,20 -20,50 -37,63 0,-40 -11,-122 -21,-153l-10 -32c-3,-16 -6,-23 -10,-35 -8,-25 -11,-42 -22,-66 -24,-54 -93,-183 -153,-199 -18,39 -27,124 -37,173 -7,34 -17,56 -18,110 -1,93 -6,94 6,187 0,1 3,14 3,15l7 21c0,1 1,2 1,4l2 7c16,78 36,104 71,167 6,12 7,16 14,27l53 75c39,43 26,35 80,89l88 81 0 0z"/>
    <path class="fil2" d="M8928 5394c-13,-8 -14,-13 -16,-17 -72,-117 -48,-81 -148,-199l-146 -142c-18,-15 -29,-38 -52,-45 0,31 -5,41 -5,69 1,32 11,165 19,192l14 59c18,75 33,190 64,257 2,4 3,7 6,13l43 70c6,11 5,13 13,24 6,11 9,14 17,24 25,33 74,103 100,129 31,31 13,27 36,42l65 -58c8,-9 14,-14 23,-23l48 -52c38,-44 71,-80 100,-138 27,-54 63,-112 76,-180 4,-23 9,-51 11,-69 9,-85 3,-226 -22,-308l-4 -20c-7,-29 -23,-86 -23,-108 -34,3 -89,77 -108,107 -52,82 -73,158 -93,255 -8,39 -18,49 -18,118z"/>
    <path class="fil2" d="M8351 3710c-14,-4 -40,-21 -55,-28 -48,-21 -144,-51 -194,-62 -61,-13 -174,-27 -217,-40 -16,-4 -57,-11 -74,-12l26 52c10,16 23,30 36,46 57,73 136,132 206,192 138,116 113,120 286,195l58 24c23,9 101,36 125,36 22,-95 50,-131 50,-266 0,-82 1,-155 -37,-228 -31,-59 -11,-44 -66,-127 -45,-68 -55,-94 -125,-163 -14,-14 -31,-40 -51,-45 -31,59 -32,162 -28,220 4,58 17,108 40,157 6,13 17,37 20,49z"/>
    <path class="fil2" d="M3306 3769c0,105 -1,168 26,257l9 29c6,22 12,45 20,62l120 -40c39,-16 74,-31 113,-47l103 -58c23,-14 85,-77 127,-110 9,-7 13,-13 21,-21 10,-8 13,-8 23,-18 41,-38 220,-189 226,-255l-334 65c-9,3 -6,2 -18,5 -58,15 -75,20 -129,44l-60 28c2,-25 13,-17 26,-57 38,-113 25,-120 39,-174 6,-23 4,-26 1,-44l-3 -18c-6,-23 -4,-77 -31,-133 -22,6 -78,73 -94,93 -78,97 -185,265 -185,392l0 0z"/>
    <path class="fil2" d="M2903 4538c0,128 16,113 36,185 11,40 34,90 54,128 15,28 33,50 48,76 35,-8 266,-175 301,-239l125 -186c59,-81 109,-156 132,-256l-110 45c-51,26 -77,32 -140,66l-31 14c-35,16 -143,87 -166,109 -11,10 -13,14 -25,22 0,-37 20,-87 12,-164 -8,-70 -8,-92 -36,-155 -8,-16 -14,-28 -21,-43 -13,-26 -19,-26 -23,-41 -13,3 -13,7 -19,17 -41,65 -39,76 -65,123 -13,23 -13,31 -22,56l-30 97c-13,48 -20,90 -20,146l0 0z"/>
    <path class="fil2" d="M8781 4506c-27,-18 -32,-39 -123,-92l-182 -97c-17,-8 -27,-8 -43,-17l-107 -49c-14,-8 -11,-12 -17,-6 -6,6 14,61 17,67 60,126 53,106 128,215l103 149c15,27 32,47 56,67 46,39 212,181 255,184 5,-17 52,-88 64,-114l49 -130c27,-108 28,-159 4,-280 -2,-10 -4,-24 -6,-30l-10 -28c-20,-52 -22,-74 -50,-128 -13,-26 -16,-40 -38,-76 -14,-23 -17,-37 -36,-42 0,7 -37,65 -56,118 -4,10 -1,2 -5,13 -7,17 -9,32 -13,51 -13,76 -6,154 10,225l0 0z"/>
    <path class="fil2" d="M7975 3348l-51 -117c-25,-51 -62,-113 -101,-152 -9,-9 -11,-13 -19,-22 -30,-32 -85,-74 -128,-91 -23,-10 -35,-16 -59,-23 -93,-31 -188,-42 -284,-60l-209 -52 177 161c16,16 28,23 44,39l46 41c10,9 12,9 22,19l170 132c116,70 89,43 176,80 34,15 31,12 68,20l109 19c16,4 21,6 39,6l0 0z"/>
    <path class="fil2" d="M4780 2831l-64 18c-23,6 -48,8 -71,16 -14,6 0,2 -13,5l-58 12c-23,4 -48,9 -73,13 -21,5 -48,10 -70,13l-51 13c-99,27 -162,31 -253,112 -11,10 -14,9 -23,19 -10,10 -11,14 -21,25 -29,31 -52,61 -71,99 -19,40 -19,33 -32,55 -13,25 -22,58 -39,89 -4,9 -14,23 -8,28 10,11 -1,3 9,0 8,-1 3,-1 19,-4 80,-14 168,-27 242,-60 123,-54 97,-51 188,-110l368 -318c2,-1 5,-3 5,-4l16 -21 0 0z"/>
    <path class="fil2" d="M5797 3338c206,-24 537,8 734,68 188,57 441,179 593,281l234 169c208,163 370,413 495,644 47,87 130,274 162,374 91,282 90,684 50,977 -22,158 -56,275 -117,417 -108,248 -241,463 -409,667 -120,144 -325,291 -489,390 -125,76 -371,190 -502,231 -117,37 -329,71 -463,72 -46,0 -87,5 -133,4 -124,-1 -253,-9 -375,-27 -214,-31 -226,-34 -419,-116 -146,-62 -356,-169 -482,-264 -82,-61 -99,-66 -186,-144 -25,-23 -48,-43 -72,-66 -68,-64 -72,-79 -125,-144 -175,-215 -344,-519 -425,-779 -85,-269 -95,-695 -53,-976 33,-220 47,-229 120,-416 80,-206 215,-421 347,-596l126 -144c65,-63 144,-131 219,-184 276,-194 582,-364 926,-414 93,-14 163,-15 244,-24l0 0zm-445 -45c-90,-7 -100,-32 -233,-32 -119,0 -205,6 -316,46l-96 46c-86,47 -164,121 -218,203l-99 180c-20,40 -34,99 -53,135 -7,14 -12,13 -27,19 -44,16 -88,30 -129,50 -11,5 -17,10 -30,15l-61 30c-117,66 -222,159 -286,277 -33,61 -46,100 -64,169 0,1 -1,4 -1,5 0,1 -1,2 -1,3l-2 5c-2,6 -1,2 -5,16 -6,28 -5,53 -9,86 -12,91 -4,193 11,275l5 32c4,19 8,3 8,42 0,13 -69,86 -81,103l-50 73c-10,16 -16,26 -25,40 -5,8 -5,7 -10,17 -4,8 -6,11 -11,21l-57 130c-14,41 -39,168 -36,211 9,102 31,206 77,298 3,7 6,12 10,19l164 242c38,47 22,30 10,87l-14 115c-2,47 -9,105 -3,149l33 182c6,20 13,45 20,62 4,9 8,20 13,28 4,6 3,3 7,11 42,70 38,72 93,136 32,38 68,73 109,102 11,7 15,10 25,17l76 47c45,27 120,60 170,77 65,23 68,13 93,77 29,78 58,156 105,225 7,11 9,14 14,26 21,43 65,79 94,117 20,25 61,58 88,76l138 74 95 28c101,31 285,29 386,7 22,-5 62,-23 81,-12l35 30c60,53 130,98 200,138 154,89 369,120 544,64 38,-13 110,-43 144,-62l211 -147c5,-6 8,-8 13,-14 13,-12 7,1 13,-15 18,1 47,7 68,10 20,3 40,11 65,13 105,8 231,18 330,-12l97 -27c61,-21 120,-58 169,-97l5 -4c1,0 2,-1 3,-2l5 -4c33,-29 65,-60 93,-94 82,-102 139,-224 179,-348 7,-23 27,-26 48,-35 38,-16 81,-26 118,-46l107 -57c39,-23 78,-49 111,-77l10 -8c89,-71 149,-167 192,-271 8,-21 37,-143 38,-168 1,-15 -2,-9 0,-17 2,-16 5,6 5,-15 0,-49 3,-150 -6,-195l-15 -86c-3,-23 -9,-43 -11,-62 24,-16 39,-40 55,-64l12 -16c11,-16 20,-25 32,-41 12,-17 19,-28 31,-46 11,-16 22,-28 30,-44 5,-10 5,-14 11,-25l49 -98c3,-8 3,-7 4,-13l2 -4c40,-104 62,-257 29,-384 -15,-56 -32,-106 -58,-158 -40,-79 -88,-156 -148,-223 -8,-9 -9,-10 -16,-20 -26,-35 -31,-31 -22,-80l16 -112c5,-59 14,-74 6,-147 -3,-23 1,-47 -3,-70 -17,-118 -52,-229 -121,-324 -29,-41 -64,-88 -106,-118 -90,-65 -177,-127 -283,-165l-93 -35c-8,-5 -4,-2 -10,-9 -12,-15 -15,-34 -20,-52 -17,-54 -45,-106 -69,-156 -23,-48 -53,-93 -86,-134l-17 -25c-32,-51 -88,-90 -136,-124 -14,-11 -26,-20 -43,-30 -71,-43 -155,-63 -233,-83l-49 -6c-73,-5 -157,-4 -229,4 -37,4 -82,19 -120,23 -22,1 -28,-11 -44,-24l-79 -63c-41,-31 -83,-60 -129,-85 -85,-46 -168,-80 -265,-92 -14,-2 -20,-1 -33,-4 -26,-7 -56,-6 -85,-6l-172 34c-27,9 -53,18 -75,30 -127,64 -90,46 -197,114 -30,19 -96,68 -115,96l0 0z"/>
    <path class="fil2" d="M5939 3323c1191,0 2156,966 2156,2156 0,1191 -965,2156 -2156,2156 -1191,0 -2156,-965 -2156,-2156 0,-1190 965,-2156 2156,-2156z"/>
    <path class="fil4" d="M5199 6918l48 -62 204 75c6,3 10,8 13,16 3,9 4,16 2,22l-90 241c-3,7 -7,14 -13,20 -6,5 -12,7 -18,5l-78 -30 28 -76 -53 67 -118 -44 56 -67 103 39c1,1 3,0 5,0 2,-1 4,-3 5,-5l52 -140c1,-4 0,-7 -5,-9l-141 -52 0 0zm-282 -280l92 62 -15 52 81 54 41 -34 87 59 -195 155 18 12 -71 49 -128 -87 90 -322 0 0zm53 186l-35 107 133 -122 -72 32 -26 -17zm-304 -363l69 -30 149 160 -174 163 19 20 -78 32 -71 -77 179 -167 -93 -101zm-158 -333c5,-4 13,-3 23,0 11,3 18,9 22,16l133 225 -206 121 13 23 -84 12 -49 -84 67 -40 -85 14 -67 -115c-3,-5 -3,-13 0,-23 4,-11 8,-17 14,-21l219 -128 0 0zm11 122l-123 73c-2,1 -4,2 -5,4 0,2 -1,4 0,5l32 55c1,1 3,2 5,2 3,1 5,0 6,0l194 -114 -77 9 -18 -32c-2,-2 -5,-3 -9,-3 -1,0 -3,0 -5,1l0 0zm-117 -651l19 100 -79 15 85 15 27 132c0,4 -1,8 -5,13 -3,4 -7,7 -11,8l-56 11 80 14 26 127c0,4 -1,9 -6,15 -4,6 -8,9 -12,10l-215 42 6 30 -80 -11 -20 -102 225 -44c2,0 5,-2 8,-4 3,-2 4,-5 3,-7l-11 -60c-1,-1 -2,-2 -5,-4 -2,-1 -4,-2 -5,-2l-230 46 -20 -102 224 -44c3,0 5,-2 8,-4 2,-2 3,-5 2,-8l-12 -64 -11 -4 -227 45 -20 -101 312 -62zm-69 -319l73 27 -1 234 -242 -1 0 25 -77 -30 1 -252 82 25 0 120 111 1 -69 -28 0 -113 73 24 0 117 49 0 0 -149 0 0zm70 -302l64 41 -48 213 -233 -52 -6 27 -70 -46 23 -102 240 54 30 -135 0 0zm132 -280l52 55 -98 195 -214 -107 -12 25 -57 -62 47 -94 220 111 62 -123 0 0zm449 -424l-82 76 -46 -27 -71 67 23 48 -76 71 -108 -224 -15 15 -32 -80 113 -106 294 160 0 0zm-193 10l-96 -58 88 157 -14 -78 22 -21zm479 -222c2,5 2,13 -2,23 -3,11 -9,18 -16,22l-229 126 -115 -209 -23 12 -9 -84 85 -47 38 68 -12 -85 117 -64c5,-3 13,-2 23,1 11,4 17,9 21,15l122 222 0 0zm-123 8l-69 -126c-1,-2 -3,-3 -4,-4 -3,-1 -4,-1 -6,0l-55 30c-2,1 -2,2 -3,5 0,2 0,4 1,6l108 197 -7 -77 32 -18c3,-1 4,-4 4,-8 0,-2 0,-3 -1,-5l0 0zm416 -407l-5 332 -129 39 -147 -206 -32 10 6 -84 93 -28 116 180 -9 -212 107 -31zm395 203l-20 74 -234 18 -18 -242 -25 2 23 -78 251 -19 -18 83 -119 9 8 111 22 -71 112 -8 -17 74 -117 9 4 49 148 -11 0 0zm349 121l-106 -16 32 -222c2,-7 -1,-10 -5,-11l-66 -10c-4,0 -6,2 -7,8l-33 223 -108 -16 35 -234 -26 -4 37 -76 102 15 -12 82 40 -77 133 19c7,1 13,7 18,17 5,10 7,18 6,27l-40 275zm414 -191l-46 67 -65 -24 -83 223 -101 -37 82 -222 -88 -33 57 -64 244 90 0 0zm35 387l-97 -55 118 -210 -25 -14 69 -53 93 52 -158 280zm271 186c-2,2 -6,4 -11,5 -6,1 -10,0 -13,-2l-67 -55 44 -53 -66 35 -125 -103 65 -36 115 94c1,2 3,2 5,1 2,0 4,-2 5,-3l21 -26c1,-1 2,-3 2,-5 0,-2 -1,-4 -2,-5l-111 -92c-3,-2 -6,-7 -6,-13 0,-7 1,-12 4,-15l98 -120c4,-4 9,-7 15,-8 7,-1 12,0 16,4l63 52 -53 65 73 -49 117 96 -71 46 -105 -86c-2,-2 -4,-2 -6,-2 -3,1 -4,3 -6,4l-19 24c-1,1 -2,3 -1,5 0,2 0,4 2,5l115 95c3,2 3,6 2,12 0,6 -2,11 -5,14l-95 116zm445 68l-74 33 -42 -55 -189 147 -66 -85 187 -145 -58 -75 82 -25 160 205 0 0zm-17 742l-34 -106 43 -31 -30 -93 -54 2 -32 -100 248 -3 -7 -21 87 5 48 148 -269 199 0 0zm72 -179l93 -64 -179 15 77 19 9 30 0 0zm22 480l-77 -18 -16 -218c0,-5 3,-11 9,-18 6,-6 13,-10 19,-10l257 -20c7,0 15,1 22,4 8,3 12,8 12,15l7 82 -82 7 84 19 9 127 -84 -23 -8 -111c0,-1 -1,-2 -2,-4 -2,-1 -4,-2 -7,-2l-149 12c-4,0 -6,2 -5,8l11 150 0 0zm-112 370l13 -110 52 -10 11 -96 -48 -22 12 -104 226 101 3 -21 76 41 -18 154 -327 67zm140 -131l111 -19 -169 -62 62 50 -4 31 0 0zm-240 478c-5,-3 -10,-9 -14,-19 -4,-11 -4,-19 -1,-27l98 -243 222 90 10 -24 60 60 -36 90 -73 -29 63 59 -50 123c-3,5 -9,10 -19,14 -10,3 -19,4 -25,1l-235 -95 0 0zm90 -84l133 54c2,1 4,1 6,1 2,-1 4,-2 5,-3l23 -59c1,-2 0,-3 -1,-5 -1,-3 -2,-4 -4,-5l-208 -84 54 55 -14 35c-1,2 -1,5 2,8 1,2 2,3 4,3l0 0zm-234 381l-46 -62 128 -196 203 134 14 -21 48 66 -139 211 -55 -66 66 -100 -93 -61 43 61 -62 94 -48 -60 64 -97 -41 -27 -82 124 0 0zm-443 311l78 -70 148 166c1,1 4,2 7,3 4,0 6,-1 7,-2l43 -38c2,-2 3,-5 3,-9 0,-1 -1,-3 -2,-4l-149 -166 79 -72 148 166c2,1 4,2 6,3 4,1 6,0 8,-1l41 -37c2,-2 3,-5 3,-8 0,-3 0,-5 -2,-8l-148 -165 78 -69 155 173 20 -18 34 83 -75 68 -50 -56 35 68 -100 91c-6,5 -13,6 -22,5 -8,-2 -15,-6 -21,-12l-27 -31 28 75 -90 81c-5,4 -12,5 -23,4 -11,-1 -19,-4 -23,-9l-189 -211 0 0zm-217 433l14 -223 -49 -109 103 -47 49 108 118 83 40 -18 7 79 -80 36 -103 -81 -4 129 -95 43 0 0z"/>
    <path class="fil2" d="M5539 7103c28,0 50,22 50,49 0,28 -22,50 -50,50 -27,0 -49,-22 -49,-50 0,-27 22,-49 49,-49z"/>
    <path class="fil2" d="M6357 7103c28,0 50,22 50,49 0,28 -22,50 -50,50 -27,0 -49,-22 -49,-50 0,-27 22,-49 49,-49z"/>
    <path class="fil4" d="M5675 7277l-60 -10 26 -148 -18 -3 25 -44 60 10 -33 195 0 0zm234 7c0,3 -2,6 -6,9 -3,3 -5,5 -7,5l-153 -12 19 -45 78 6c3,0 5,-2 5,-7l5 -67 -14 44 -73 -6c-3,0 -5,-1 -8,-5 -3,-3 -5,-6 -5,-9l8 -92c0,-2 2,-5 5,-9 4,-4 7,-6 9,-6l124 10c5,0 11,3 17,7 6,5 9,9 9,13l-13 164 0 0zm-58 -116l1 -17c0,-1 0,-2 -1,-3 -1,-1 -1,-2 -2,-2l-27 -2c-1,0 -2,1 -3,2 -1,1 -1,2 -2,3l-1 16c0,1 1,2 1,3 1,1 2,2 3,2l26 2c1,0 2,0 3,-1 1,-2 2,-2 2,-3zm265 -77l-14 47 -74 6 5 65 12 -40 60 -5c3,0 6,1 9,4 3,3 5,5 5,8l7 96c0,4 -1,7 -2,11 -2,4 -5,6 -8,6l-143 11 15 -49 66 -5c1,0 2,-1 4,-3 1,-1 2,-2 2,-4l-2 -25c0,0 -1,-1 -2,-2 -2,-1 -3,-2 -4,-2l-80 6 -8 -114 152 -11zm159 176l-59 10 -25 -148 -18 3 9 -50 60 -10 33 195 0 0z"/>
    <path class="fil2" d="M5939 4050c789,0 1429,639 1429,1429 0,790 -640,1430 -1429,1430 -790,0 -1430,-640 -1430,-1430 0,-790 640,-1429 1430,-1429zm0 -26c804,0 1455,651 1455,1455 0,804 -651,1456 -1455,1456 -804,0 -1456,-652 -1456,-1456 0,-804 652,-1455 1456,-1455z"/>
    <path class="fil2" d="M5520 5294c148,-61 285,-38 419,0 137,-36 268,-28 398,0l643 917c-379,-125 -730,-142 -1039,0 -212,-167 -522,-213 -1043,0l622 -917z"/>
    <path class="fil2" d="M5939 5136c135,-34 268,-27 403,2l5 1 7 5 657 936 -22 28 -17 -5c-333,-110 -693,-152 -1020,-1l-7 3 -13 -2 -6 -4c-115,-91 -246,-132 -391,-137 -210,-7 -435,62 -628,140l-17 7 -23 -28 634 -936 6 -4 3 -2c146,-60 283,-43 429,-3z"/>
    <path class="fil2" d="M5520 5162c148,-61 285,-38 419,0 137,-36 268,-27 398,0l643 917c-379,-125 -730,-142 -1039,0 -212,-167 -522,-213 -1043,0l622 -917z"/>
    <path class="fil2" d="M5904 4204c276,0 500,224 500,499 0,276 -224,500 -500,500 -275,0 -499,-224 -499,-500 0,-275 224,-499 499,-499z"/>
    <path class="fil2" d="M5904 4229c263,0 475,213 475,474 0,262 -212,475 -475,475 -261,0 -474,-212 -474,-475 0,-261 213,-474 474,-474z"/>
    <path class="fil2" d="M6582 6573c8,24 13,55 -7,76 -24,27 -66,17 -96,8l-1 -1 -4 -2 -1 -1c-121,-83 -237,-176 -338,-283 -129,-138 -228,-293 -294,-470 -76,-208 -99,-432 -88,-652l1 -10 14 -14 271 3 15 16 -1 10c-6,112 -8,225 0,337 6,93 18,185 40,276 37,152 98,288 193,413 81,108 181,199 288,281l2 3 5 6 1 4 0 0z"/>
    <path class="fil2" d="M5778 5249l250 2c-42,723 160,1041 530,1329 18,56 -4,74 -71,53 -421,-289 -744,-680 -709,-1384l0 0z"/>
    <path class="fil2" d="M5904 4576c40,102 119,292 119,404 0,111 -79,161 -119,263 -39,-102 -118,-152 -118,-263 0,-112 79,-302 118,-404z"/>
    <path class="fil2" d="M5753 5182l303 0c16,0 29,13 29,29l0 18c0,16 -13,29 -29,29l-303 0c-16,0 -29,-13 -29,-29l0 -18c0,-16 13,-29 29,-29z"/>
    <path class="fil3" d="M7089 7989l61 22c64,18 184,37 193,40 19,5 -8,7 26,7 14,0 10,-3 18,-2 20,2 -3,6 18,6l156 0c22,0 5,-2 24,-5 82,-13 169,-29 247,-57l41 -14c20,-7 31,-11 51,-18 12,-4 13,-4 23,-9 15,-6 12,-6 25,-12 4,-3 17,-9 22,-10 11,-5 12,-4 23,-9 42,-19 277,-144 299,-177 -14,-3 -23,-8 -39,-12l-180 -19 -319 33c-29,6 -58,10 -85,16 -20,4 -18,6 -39,11 -10,2 -30,6 -43,8 8,-15 11,-21 20,-35l72 -125c3,-6 6,-12 9,-19l86 -184c2,-6 2,-9 4,-14 22,-55 79,-211 79,-264l-132 68c-12,7 -20,12 -32,19 -12,7 -20,9 -34,16 -12,7 -20,14 -31,20 -56,34 -104,62 -159,102 -20,16 -37,28 -57,43 -49,36 -136,102 -161,151 -7,15 -9,20 -17,33 -49,68 -84,177 -100,207 -17,30 -43,120 -59,159l-10 24 0 0z"/>
    <path class="fil3" d="M4187 7788l-250 -48c-28,-4 -64,-11 -89,-12l-142 -8c-21,-2 -22,3 -45,4 -32,1 -65,1 -95,6 -30,5 -54,15 -79,21 3,12 5,12 14,18l145 88c56,37 222,109 273,126 17,6 34,9 49,15 13,5 8,4 22,10 38,15 167,36 194,44 49,15 125,10 209,10 24,0 4,-3 24,-5 10,-2 -4,0 10,-1 26,0 189,-34 224,-47 26,-10 23,-12 58,-20 -6,-12 -9,-26 -13,-38l-12 -29c0,-1 -1,-2 -1,-3l-24 -72c-5,-16 -9,-21 -15,-36 -5,-15 -7,-21 -14,-36 -13,-26 -22,-46 -32,-73 -18,-46 -82,-157 -117,-190l-298 -220c-11,-5 -18,-11 -31,-18 -16,-9 -17,-10 -31,-20 -25,-16 -45,-22 -69,-37l-97 -53c-13,-7 -23,-14 -38,-17 0,37 15,74 24,102l8 25c5,14 9,31 14,46 5,13 9,28 14,42 4,11 3,10 8,19 0,1 4,9 4,9 4,9 1,2 4,9l17 40c3,7 4,13 6,20l29 59c10,18 8,24 17,42l114 207c7,13 7,4 11,21l0 0z"/>
    <path class="fil3" d="M3020 6272c-2,-26 -22,-49 -30,-75 -10,-29 -19,-48 -33,-73l-39 -66c-28,-41 -61,-87 -97,-123l-52 -44c-33,-29 -96,-73 -138,-77 0,71 15,294 35,345 31,81 20,105 86,207 44,66 82,98 138,155 58,57 122,110 191,152 28,18 142,78 167,80 6,-24 16,-34 24,-55 7,-18 14,-37 22,-55 38,-86 111,-286 105,-375 -4,-57 -15,-284 -36,-339l-18 -64c-6,-20 -10,-41 -17,-62 -7,-20 -18,-39 -20,-62 -23,7 -101,143 -125,177 -10,13 -12,17 -21,30l-38 67c-8,12 -12,18 -19,31 -12,25 -24,48 -34,71 -10,23 -21,51 -27,74 -9,32 -13,73 -24,81l0 0z"/>
    <path class="fil3" d="M8550 6753c37,-3 154,-71 192,-96l82 -60c28,-19 46,-38 72,-61 101,-88 117,-122 181,-221 12,-20 19,-45 29,-68 10,-25 18,-49 25,-75 31,-118 32,-234 32,-358 -104,25 -224,151 -282,244l-57 100c-12,24 -34,102 -50,114 0,-31 -31,-116 -43,-153 -9,-25 -94,-171 -109,-194l-81 -120c-7,-11 -12,-20 -20,-31 -10,-14 -16,-15 -17,-33l-9 0c-3,10 -6,20 -9,28 -25,63 -32,87 -46,151 -3,13 -3,21 -7,34l-10 40c-12,48 -21,225 -25,279 -2,42 18,116 28,149l2 8c0,1 0,2 1,3l1 5c1,1 1,2 1,3l8 19c7,22 13,43 20,63l67 172c9,18 22,35 24,58l0 0z"/>
    <path class="fil3" d="M3450 6913l0 73c0,63 9,113 9,170 -22,-15 -42,-30 -63,-47l-133 -95c-12,-8 -17,-15 -32,-24l-71 -43c-50,-28 -97,-58 -152,-77 -20,-7 -27,-7 -44,-15 -22,-11 -72,-20 -95,-20 4,17 20,59 27,74l70 131c8,11 14,18 21,30l84 117c10,11 12,16 23,27l48 53c34,34 124,111 164,138 78,51 193,99 281,122 37,9 136,32 174,32l13 -70c3,-25 6,-52 9,-74 7,-52 2,-107 8,-161 2,-22 -3,-93 -6,-140 -3,-37 -2,-38 -17,-65l-36 -93c-4,-12 -7,-20 -11,-30 -6,-12 -9,-15 -14,-27 -32,-74 -41,-81 -71,-140 -9,-18 -112,-191 -140,-198 -3,40 -13,52 -20,77 -6,22 -9,59 -13,87 -8,54 -13,125 -13,188l0 0z"/>
    <path class="fil3" d="M8037 7559c29,0 65,-6 89,-12 25,-8 56,-15 81,-20 50,-10 178,-56 219,-83 14,-9 18,-11 33,-18 27,-12 38,-24 59,-41l86 -70c9,-9 15,-16 25,-25 5,-5 6,-7 11,-11l10 -9c106,-102 192,-227 252,-361l32 -74c-54,0 -167,38 -216,68l-74 40c-16,10 -21,15 -36,24 -83,50 -98,65 -168,116 -12,8 -21,16 -33,26 -25,18 -40,32 -68,47 0,-19 2,-26 4,-38 2,-16 0,-29 1,-44 12,-158 2,-284 -23,-440 -12,-70 -15,-30 -14,-78 -21,6 -63,76 -76,94 -34,48 -122,200 -137,243 -14,41 -30,65 -38,90l-36 96c0,0 0,2 -1,2 -13,41 -11,127 -9,175 0,27 -2,56 0,83l4 59c3,23 5,8 6,30 0,10 -1,7 0,19 5,32 16,77 17,112z"/>
    <path class="fil3" d="M2979 5778c16,-11 20,-21 32,-36l7 -7c0,-1 1,-2 2,-3 0,0 1,-2 2,-2 1,-1 1,-2 2,-3 1,-1 3,-4 4,-5 48,-57 166,-224 183,-284 5,-19 9,-35 13,-56l38 -172c10,-35 13,-75 18,-115l8 -96c1,-64 -3,-56 -3,-104l-74 67c-90,79 -179,183 -250,282 -13,19 -19,49 -37,62 0,-40 -11,-121 -21,-152l-9 -32c-4,-16 -7,-24 -11,-36 -8,-25 -11,-41 -22,-65 -24,-55 -93,-184 -152,-200 -19,40 -27,125 -38,173 -7,34 -17,56 -18,111 -1,92 -6,94 6,187 0,0 3,13 3,15l7 20c0,2 1,3 1,4l2 7c16,78 37,104 71,168 6,11 8,15 14,26l53 75c39,44 26,35 80,90l89 81 0 0z"/>
    <path class="fil3" d="M8875 5302c-13,-8 -14,-14 -16,-17 -71,-118 -48,-82 -148,-200l-146 -142c-18,-14 -29,-38 -52,-44 0,30 -5,41 -5,69 1,32 11,165 19,192l14 59c18,74 33,190 64,256 2,4 3,8 6,13l44 71c6,11 4,12 12,24 6,11 10,13 17,24 25,32 74,102 100,128 31,31 13,28 36,43l65 -58c9,-9 14,-15 23,-23l49 -52c37,-45 70,-81 99,-139 27,-53 63,-112 76,-180 4,-23 9,-51 11,-69 9,-85 3,-225 -22,-307l-4 -20c-7,-29 -22,-86 -22,-109 -35,3 -90,77 -109,107 -52,82 -73,158 -93,255 -8,39 -18,50 -18,119z"/>
    <path class="fil3" d="M8298 3617c-13,-3 -40,-20 -55,-27 -48,-21 -144,-51 -194,-62 -61,-14 -174,-27 -217,-40 -16,-5 -57,-11 -74,-13l26 52c10,17 24,31 36,46 57,73 136,133 206,192 138,117 113,120 286,195l58 24c23,10 101,36 125,36 22,-94 50,-131 50,-265 0,-83 1,-156 -37,-229 -31,-58 -11,-44 -65,-126 -46,-69 -56,-95 -126,-164 -14,-14 -31,-39 -51,-45 -31,59 -32,162 -28,220 4,58 17,109 40,158 6,12 17,36 20,48z"/>
    <path class="fil3" d="M3253 3677c0,105 -1,167 26,256l9 29c6,22 12,46 20,63l120 -41c39,-16 74,-30 113,-47l103 -57c23,-14 85,-78 127,-111 9,-7 13,-13 21,-20 10,-9 13,-9 23,-19 41,-38 220,-189 226,-255l-334 65c-9,3 -6,2 -18,5 -58,15 -74,20 -129,45l-60 27c2,-25 13,-16 26,-56 38,-113 25,-121 39,-174 6,-24 4,-26 2,-45l-4 -17c-6,-24 -4,-78 -31,-134 -22,7 -78,73 -94,94 -78,96 -185,265 -185,392l0 0z"/>
    <path class="fil3" d="M2850 4446c0,127 16,112 36,184 11,41 34,91 54,129 15,28 34,49 48,76 35,-8 267,-175 301,-239l125 -186c59,-82 109,-157 132,-257l-110 45c-51,26 -77,32 -140,66l-31 15c-35,16 -142,86 -166,108 -11,10 -13,15 -24,22 0,-37 19,-87 11,-163 -8,-71 -8,-92 -36,-155 -8,-17 -14,-29 -21,-43 -13,-27 -19,-26 -23,-42 -13,4 -13,7 -19,17 -40,66 -39,77 -65,123 -13,23 -13,32 -22,56l-30 98c-13,47 -20,90 -20,146l0 0z"/>
    <path class="fil3" d="M8728 4414c-27,-19 -32,-39 -123,-93l-182 -97c-17,-8 -27,-7 -43,-16l-107 -50c-14,-8 -11,-11 -17,-5 -6,5 14,60 17,66 60,126 54,107 128,215l103 149c15,27 32,47 56,68 46,38 212,180 255,184 5,-18 52,-88 64,-114l49 -131c27,-108 28,-159 4,-279 -2,-11 -4,-24 -6,-31l-10 -28c-20,-52 -22,-73 -49,-128 -14,-25 -17,-40 -39,-76 -14,-22 -17,-37 -36,-42 0,7 -37,65 -56,118 -4,10 -1,2 -5,13 -7,17 -9,32 -13,52 -13,75 -6,154 10,225l0 0z"/>
    <path class="fil3" d="M7922 3255l-51 -117c-25,-50 -62,-113 -101,-151 -9,-9 -11,-14 -19,-22 -30,-33 -85,-74 -128,-92 -23,-9 -35,-15 -59,-23 -93,-30 -188,-41 -284,-59l-209 -53 177 162c16,15 28,22 44,39l46 40c10,9 12,9 22,19l170 133c116,69 89,42 177,80 33,14 30,11 67,19l109 20c16,3 21,5 39,5l0 0z"/>
    <path class="fil3" d="M4727 2738l-64 18c-23,7 -48,9 -71,17 -14,5 0,2 -13,5l-57 11c-24,5 -49,9 -74,14 -21,4 -48,9 -69,12l-52 13c-99,27 -162,32 -253,113 -11,9 -14,9 -23,18 -10,10 -11,14 -21,25 -28,31 -52,61 -70,99 -20,41 -20,33 -32,55 -14,25 -23,58 -40,89 -4,9 -14,24 -8,29 10,10 -1,2 9,0 8,-2 3,-2 19,-5 80,-13 168,-26 242,-60 123,-54 97,-51 188,-109l369 -318c1,-2 4,-4 5,-5l15 -21 0 0z"/>
    <path class="fil3" d="M5744 3245c206,-24 537,8 734,68 188,57 441,180 593,282l234 168c208,163 370,414 495,645 47,86 130,273 162,374 91,281 90,683 50,977 -22,158 -56,275 -117,417 -108,248 -241,462 -409,666 -120,145 -325,291 -489,390 -125,76 -371,190 -502,231 -117,37 -329,71 -463,72 -46,1 -87,5 -133,4 -124,-1 -253,-9 -375,-27 -213,-31 -226,-33 -419,-116 -146,-62 -356,-169 -482,-264 -82,-61 -99,-66 -186,-144 -25,-23 -48,-42 -72,-65 -68,-65 -72,-80 -125,-145 -174,-214 -344,-519 -425,-779 -85,-269 -94,-695 -53,-976 33,-220 47,-229 120,-415 80,-207 215,-422 347,-597l126 -144c65,-63 144,-131 219,-183 276,-195 582,-364 926,-415 93,-14 163,-15 244,-24l0 0zm-445 -44c-90,-8 -100,-32 -233,-32 -119,0 -205,5 -316,45l-96 46c-86,48 -164,121 -218,204l-99 179c-20,40 -34,99 -53,135 -7,15 -12,14 -27,19 -43,17 -88,30 -128,50 -12,6 -18,10 -31,15l-61 31c-117,66 -222,158 -286,277 -33,60 -46,99 -64,168 0,1 -1,5 -1,6 0,0 -1,1 -1,2l-1 5c-3,7 -2,3 -5,16 -7,28 -6,54 -10,87 -12,90 -4,192 11,275l5 31c4,19 8,3 8,43 0,12 -69,85 -81,103l-50 73c-10,16 -16,25 -25,39 -5,8 -5,8 -10,17 -4,8 -6,12 -11,21l-57 131c-14,40 -39,168 -36,210 9,103 31,207 77,299 4,6 6,11 10,18l164 242c38,48 22,31 10,88l-14 114c-2,48 -9,106 -2,149l32 182c6,20 13,46 20,62 4,9 8,20 13,29 4,5 3,3 7,11 42,70 38,71 93,136 32,38 69,73 109,101 11,7 15,11 25,17l76 47c45,28 120,61 170,78 65,23 68,13 93,77 29,77 58,155 105,224 7,11 9,14 15,26 20,44 64,80 93,117 20,26 61,58 88,77l138 74 95 27c101,32 285,29 386,7 22,-5 62,-22 81,-11l35 29c60,53 130,98 200,138 154,89 369,120 544,64 38,-12 110,-42 144,-62l211 -147c5,-5 8,-7 13,-13 13,-12 7,0 13,-15 18,0 47,6 68,10 20,3 40,10 65,12 105,8 231,19 330,-12l97 -27c61,-21 120,-58 169,-96l5 -4c1,-1 2,-2 3,-2l5 -4c33,-30 65,-60 93,-95 82,-101 139,-224 179,-347 8,-24 27,-26 48,-35 38,-17 81,-26 118,-47l108 -57c38,-22 77,-48 111,-77l10 -8c88,-70 149,-166 191,-271 8,-20 37,-143 38,-168 1,-14 -1,-8 0,-16 2,-17 5,6 5,-15 0,-50 3,-150 -6,-196l-15 -86c-3,-22 -9,-42 -11,-62 24,-16 39,-40 55,-64l12 -15c12,-16 20,-25 32,-41 12,-18 19,-29 31,-47 11,-16 22,-28 30,-43 5,-10 5,-15 11,-26l49 -98c3,-7 3,-7 4,-12l2 -5c40,-103 62,-256 29,-384 -15,-56 -32,-106 -58,-157 -40,-80 -88,-157 -148,-223 -8,-10 -9,-11 -16,-21 -26,-35 -31,-31 -22,-80l16 -111c5,-59 15,-75 6,-147 -3,-24 1,-47 -2,-71 -18,-118 -52,-228 -121,-323 -30,-41 -65,-88 -107,-118 -89,-65 -177,-128 -283,-166l-93 -35c-8,-5 -4,-2 -10,-9 -12,-14 -15,-33 -20,-52 -17,-54 -45,-105 -69,-156 -23,-48 -53,-92 -86,-134l-16 -24c-33,-52 -89,-91 -137,-125 -14,-10 -26,-20 -43,-30 -71,-43 -155,-63 -233,-83l-49 -6c-73,-4 -157,-3 -229,5 -37,4 -82,19 -120,22 -22,2 -28,-11 -44,-23l-78 -63c-42,-32 -84,-61 -130,-86 -85,-46 -168,-79 -265,-92 -14,-1 -20,-1 -33,-4 -26,-6 -56,-6 -85,-6l-172 34c-27,9 -53,18 -75,30 -127,65 -90,47 -197,115 -29,19 -96,68 -115,96l0 0z"/>
    <path class="fil5" d="M5886 3231c1191,0 2156,965 2156,2156 0,1190 -965,2156 -2156,2156 -1191,0 -2156,-966 -2156,-2156 0,-1191 965,-2156 2156,-2156z"/>
    <path class="fil6" d="M5146 6825l48 -62 204 76c6,2 10,7 13,16 3,8 4,16 2,22l-90 241c-3,7 -7,13 -13,19 -6,6 -12,7 -18,5l-78 -29 29 -77 -53 68 -119 -44 56 -67 103 39c2,0 3,0 5,-1 2,-1 4,-2 5,-5l52 -140c1,-4 0,-7 -5,-9l-141 -52 0 0zm-282 -279l92 62 -15 51 81 55 41 -34 87 59 -194 154 17 12 -71 49 -128 -87 90 -321 0 0zm53 185l-35 107 133 -121 -72 32 -26 -18zm-304 -363l69 -29 149 159 -174 163 19 21 -78 32 -71 -77 180 -168 -94 -101zm-158 -333c5,-3 13,-3 24,0 10,4 17,9 22,16l132 226 -206 121 13 22 -84 12 -49 -84 67 -40 -85 14 -67 -115c-3,-5 -3,-13 0,-23 4,-10 8,-17 14,-21l219 -128 0 0zm11 122l-123 73c-2,1 -4,2 -5,5 0,2 -1,3 0,5l32 55c1,1 3,2 5,2 3,0 5,0 6,-1l194 -114 -77 10 -18 -33c-2,-2 -5,-3 -9,-3 -1,0 -3,0 -5,1l0 0zm-117 -650l19 99 -79 16 85 14 27 132c0,4 -1,9 -5,13 -3,5 -7,7 -11,8l-56 11 81 14 25 128c0,3 -1,8 -6,14 -4,6 -8,10 -12,10l-214 43 6 30 -81 -11 -20 -102 225 -44c3,-1 5,-2 8,-5 3,-2 4,-4 3,-6l-11 -60c-1,-2 -2,-3 -5,-4 -2,-2 -4,-2 -5,-2l-230 45 -20 -101 224 -44c3,-1 5,-2 8,-5 2,-2 3,-4 2,-7l-12 -65 -11 -4 -227 45 -20 -101 312 -61zm-69 -319l73 26 -1 234 -242 -1 0 25 -77 -29 1 -252 82 24 0 120 111 1 -69 -28 0 -112 73 23 0 117 49 0 0 -148 0 0zm70 -302l64 41 -48 213 -233 -53 -6 28 -70 -46 23 -103 240 54 30 -134 0 0zm132 -281l52 56 -98 194 -214 -107 -12 25 -57 -62 47 -94 220 111 62 -123 0 0zm449 -424l-81 76 -47 -26 -71 66 23 48 -76 72 -108 -224 -15 14 -32 -80 114 -106 293 160 0 0zm-192 10l-97 -58 88 157 -14 -77 23 -22zm478 -222c2,6 2,14 -1,24 -4,10 -10,18 -17,22l-229 125 -115 -209 -23 12 -9 -84 85 -47 38 69 -11 -85 116 -64c6,-3 13,-3 23,0 11,4 17,9 21,15l122 222 0 0zm-123 9l-69 -126c-1,-2 -3,-4 -4,-5 -3,-1 -4,-1 -6,0l-55 31c-2,0 -2,2 -3,4 0,3 0,5 1,6l108 197 -7 -76 32 -19c3,-1 4,-4 4,-7 0,-2 0,-4 -1,-5l0 0zm416 -408l-5 333 -129 38 -147 -206 -32 10 6 -84 93 -27 116 179 -9 -211 107 -32zm395 203l-20 75 -234 18 -18 -242 -25 2 23 -79 251 -19 -18 84 -119 9 8 110 22 -70 112 -9 -17 74 -117 9 4 49 148 -11 0 0zm349 121l-106 -16 33 -222c1,-6 -1,-10 -6,-11l-66 -9c-3,-1 -6,2 -7,7l-33 224 -108 -16 35 -235 -26 -4 37 -75 102 15 -12 81 40 -77 133 20c7,1 13,6 18,16 5,10 7,19 6,27l-40 275zm414 -191l-46 67 -65 -24 -83 224 -101 -38 83 -222 -89 -33 57 -64 244 90 0 0zm35 387l-97 -55 118 -209 -24 -14 69 -53 92 52 -158 279zm271 186c-2,3 -6,5 -11,6 -6,1 -10,0 -13,-3l-67 -55 44 -53 -66 35 -125 -103 65 -35 115 94c1,1 3,1 5,1 2,-1 4,-2 5,-4l21 -25c1,-2 2,-3 2,-6 0,-2 -1,-4 -2,-5l-111 -91c-3,-3 -6,-7 -6,-14 0,-6 1,-11 4,-15l99 -120c3,-4 8,-6 14,-7 7,-1 12,0 16,3l63 52 -53 66 73 -49 117 96 -71 45 -105 -86c-1,-2 -4,-2 -6,-1 -3,1 -4,2 -5,3l-20 25c-1,1 -2,2 -1,4 0,3 0,4 2,5l115 95c3,2 4,6 2,13 0,6 -2,10 -5,13l-95 116zm445 69l-73 33 -43 -55 -189 147 -66 -85 187 -146 -58 -75 82 -25 160 206 0 0zm-17 741l-34 -105 43 -32 -30 -92 -54 1 -32 -100 248 -3 -6 -20 86 5 48 147 -269 199 0 0zm72 -179l93 -63 -179 14 77 20 9 29 0 0zm22 480l-77 -18 -16 -217c0,-6 3,-12 9,-18 6,-7 13,-10 19,-11l257 -19c8,-1 15,0 22,4 8,2 12,7 13,14l6 83 -82 6 84 20 9 126 -84 -23 -8 -110c0,-1 -1,-3 -2,-4 -2,-2 -4,-3 -7,-2l-149 11c-4,0 -6,3 -5,8l11 150 0 0zm-112 371l13 -110 52 -10 11 -97 -48 -21 12 -105 226 102 3 -21 76 40 -18 154 -327 68zm140 -132l111 -19 -169 -62 62 50 -4 31 0 0zm-240 478c-5,-2 -10,-8 -14,-19 -3,-10 -4,-19 -1,-27l99 -242 221 90 10 -24 60 59 -36 90 -73 -29 63 59 -50 123c-3,6 -9,11 -19,14 -10,4 -19,4 -25,2l-235 -96 0 0zm90 -83l133 54c2,1 4,1 6,0 3,0 4,-1 5,-3l24 -59c0,-1 0,-3 -2,-5 -1,-2 -2,-4 -4,-4l-208 -85 54 55 -14 35c-1,2 0,5 2,9 1,1 3,2 4,3l0 0zm-234 380l-46 -61 128 -196 203 133 14 -21 48 66 -139 211 -55 -65 66 -100 -92 -61 42 60 -62 94 -48 -59 64 -98 -41 -27 -82 124 0 0zm-443 312l78 -70 148 165c1,2 4,3 7,3 4,0 6,0 8,-2l42 -38c2,-1 3,-4 3,-8 0,-2 -1,-3 -2,-5l-149 -166 79 -71 148 165c2,2 4,3 7,3 3,1 5,1 7,-1l41 -37c2,-2 3,-4 4,-7 0,-4 -1,-6 -3,-8l-148 -165 78 -70 155 174 20 -19 34 84 -75 67 -50 -56 35 69 -100 90c-6,5 -13,7 -22,5 -8,-2 -15,-6 -21,-12l-27 -31 28 75 -90 82c-5,3 -12,5 -23,3 -11,-1 -19,-4 -23,-8l-189 -211 0 0zm-217 432l14 -222 -49 -110 103 -46 49 107 118 83 40 -18 7 79 -80 36 -103 -80 -4 128 -95 43 0 0z"/>
    <path class="fil3" d="M5486 7010c28,0 50,22 50,50 0,27 -22,49 -50,49 -27,0 -49,-22 -49,-49 0,-28 22,-50 49,-50z"/>
    <path class="fil3" d="M6304 7010c28,0 50,22 50,50 0,27 -22,49 -50,49 -27,0 -49,-22 -49,-49 0,-28 22,-50 49,-50z"/>
    <path class="fil6" d="M5622 7184l-60 -10 26 -148 -18 -3 25 -44 60 10 -33 195 0 0zm234 8c0,3 -2,5 -6,9 -3,3 -5,5 -7,4l-153 -11 19 -45 79 5c2,1 4,-2 5,-7l4 -67 -14 44 -73 -5c-3,0 -5,-2 -8,-5 -3,-3 -4,-7 -4,-9l7 -93c0,-2 2,-5 5,-9 4,-4 7,-5 9,-5l124 9c5,0 11,3 17,8 6,4 9,8 9,12l-13 165 0 0zm-58 -117l1 -17c0,-1 0,-2 -1,-3 -1,-1 -1,-1 -2,-1l-27 -2c-1,0 -2,0 -3,1 -1,1 -1,2 -2,3l-1 17c0,1 1,2 1,3 1,1 2,2 3,2l26 2c1,0 2,-1 3,-2 1,-1 2,-2 2,-3zm265 -77l-14 48 -74 6 5 65 12 -41 61 -4c2,-1 5,1 8,3 3,3 5,5 5,8l7 97c1,3 -1,7 -2,11 -2,4 -5,5 -7,6l-144 10 15 -49 66 -5c1,0 2,0 4,-2 1,-2 2,-3 2,-4l-2 -25c0,-1 -1,-2 -2,-3 -2,-1 -3,-2 -3,-1l-81 5 -8 -113 152 -12zm159 176l-59 10 -25 -148 -18 3 9 -50 60 -10 33 195 0 0z"/>
    <path class="fil3" d="M5886 3957c789,0 1429,640 1429,1430 0,789 -640,1429 -1429,1429 -790,0 -1430,-640 -1430,-1429 0,-790 640,-1430 1430,-1430zm0 -26c804,0 1455,652 1455,1456 0,803 -651,1455 -1455,1455 -804,0 -1456,-652 -1456,-1455 0,-804 652,-1456 1456,-1456z"/>
    <path class="fil3" d="M5467 5201c148,-61 285,-38 419,0 137,-36 268,-27 398,0l643 918c-379,-125 -730,-143 -1038,0 -212,-167 -523,-214 -1044,0l622 -918z"/>
    <path class="fil3" d="M5886 5044c135,-35 268,-27 403,1l5 1 8 5 656 936 -22 29 -17 -6c-333,-109 -693,-152 -1020,-1l-7 3 -13 -2 -6 -4c-115,-91 -246,-132 -391,-137 -210,-7 -435,62 -628,141l-17 7 -23 -29 634 -935 6 -5 3 -2c146,-60 283,-43 429,-2z"/>
    <path class="fil5" d="M5467 5069c148,-61 285,-37 419,0 137,-36 268,-27 398,0l643 918c-379,-125 -730,-143 -1038,0 -212,-167 -523,-213 -1044,0l622 -918z"/>
    <path class="fil3" d="M5852 4111c275,0 499,224 499,500 0,275 -224,499 -499,499 -276,0 -500,-224 -500,-499 0,-276 224,-500 500,-500z"/>
    <path class="fil7" d="M5852 4136c262,0 474,213 474,475 0,262 -212,474 -474,474 -262,0 -475,-212 -475,-474 0,-262 213,-475 475,-475z"/>
    <path class="fil3" d="M6529 6480c8,25 13,56 -7,77 -23,26 -66,17 -96,7l-1 -1 -4 -1 -1 -1c-121,-84 -237,-176 -338,-284 -129,-137 -228,-293 -294,-470 -76,-208 -99,-432 -88,-652l1 -10 14 -14 271 3 15 16 -1 11c-6,112 -8,225 0,337 6,92 18,185 40,275 37,152 98,289 193,414 81,107 181,198 288,281l2 2 5 6 1 4 0 0z"/>
    <path class="fil5" d="M5725 5156l250 3c-42,723 160,1041 530,1328 18,56 -4,75 -71,53 -421,-289 -744,-680 -709,-1384l0 0z"/>
    <path class="fil8" d="M5852 4483c39,102 118,292 118,404 0,112 -79,161 -118,263 -40,-102 -119,-151 -119,-263 0,-112 79,-302 119,-404z"/>
    <path class="fil3" d="M5700 5089l303 0c16,0 29,13 29,29l0 18c0,16 -13,30 -29,30l-303 0c-16,0 -29,-14 -29,-30l0 -18c0,-16 13,-29 29,-29z"/>
    <path class="fil2" d="M7142 8081l61 23c64,18 184,37 193,40 18,5 -8,6 26,6 14,0 10,-2 18,-2 20,2 -3,7 18,7l156 0c22,0 5,-3 24,-6 82,-13 168,-29 247,-57l41 -14c20,-6 31,-11 51,-18 12,-3 13,-4 23,-8 15,-7 12,-6 24,-13 5,-2 18,-8 23,-10 11,-4 12,-4 23,-8 42,-19 277,-144 299,-177 -14,-4 -23,-9 -39,-12l-180 -19 -319 32c-30,7 -58,10 -85,16 -20,5 -18,7 -40,11 -9,2 -29,7 -42,8 8,-14 11,-20 20,-35l72 -125c3,-5 6,-12 9,-18l86 -185c2,-5 2,-9 4,-13 22,-56 79,-212 79,-265l-133 69c-11,7 -19,12 -31,19 -12,7 -20,9 -34,16 -12,6 -20,14 -31,20 -57,34 -105,61 -159,102 -20,15 -37,28 -57,43 -49,36 -136,101 -161,151 -7,14 -9,20 -17,32 -49,68 -84,177 -100,207 -17,31 -43,121 -59,160l-10 23 0 0z"/>
    <path class="fil2" d="M4240 7880l-250 -48c-28,-4 -64,-10 -89,-11l-143 -9c-20,-2 -22,4 -44,4 -32,1 -65,1 -95,7 -30,5 -54,14 -79,21 3,12 5,11 14,17l145 89c56,37 222,109 273,125 17,6 34,9 49,15 13,6 8,5 22,10 38,16 167,37 194,45 49,14 125,10 209,10 24,0 4,-3 24,-6 10,-1 -4,0 10,0 26,0 189,-34 224,-47 26,-10 23,-12 58,-21 -6,-11 -9,-25 -13,-37l-12 -30c0,0 -1,-2 -1,-2l-24 -73c-5,-15 -9,-20 -15,-35 -5,-15 -7,-21 -14,-36 -13,-26 -22,-47 -32,-74 -18,-45 -82,-156 -117,-190l-298 -219c-12,-6 -18,-12 -31,-19 -16,-9 -17,-10 -31,-19 -25,-17 -46,-23 -69,-37l-98 -53c-12,-8 -22,-14 -37,-18 0,38 15,74 24,102l8 26c5,13 9,30 14,46 5,13 9,27 14,41 3,12 3,10 8,20 0,0 4,8 4,8 4,9 1,3 4,10l17 39c2,8 4,13 6,21l28 59c11,17 9,23 18,42l114 206c7,14 6,4 11,21l0 0z"/>
    <path class="fil2" d="M3073 6365c-2,-26 -22,-49 -30,-76 -10,-29 -19,-48 -33,-72l-39 -67c-28,-41 -62,-87 -97,-122l-52 -44c-34,-29 -96,-73 -138,-77 0,70 15,294 35,345 31,81 20,105 86,206 44,67 82,99 138,155 57,57 122,111 191,153 28,17 141,77 167,80 6,-24 16,-34 24,-55 7,-19 14,-37 22,-56 38,-85 111,-286 105,-374 -4,-58 -15,-285 -36,-340l-18 -63c-6,-20 -10,-42 -17,-62 -7,-21 -18,-39 -20,-62 -23,6 -101,143 -125,177 -10,12 -12,16 -21,30l-38 66c-8,13 -12,18 -19,32 -12,25 -24,48 -34,71 -10,23 -21,50 -27,73 -9,33 -13,74 -24,82l0 0z"/>
    <path class="fil2" d="M8602 6846c37,-3 155,-71 193,-97l82 -60c27,-19 46,-37 72,-60 101,-88 117,-122 181,-222 12,-19 19,-44 28,-67 11,-26 19,-50 26,-76 31,-118 32,-233 32,-357 -104,25 -224,151 -282,244l-57 99c-12,24 -34,103 -50,115 0,-32 -31,-117 -43,-154 -9,-24 -94,-171 -109,-193l-81 -120c-7,-11 -12,-20 -20,-31 -10,-14 -16,-15 -17,-33l-9 0c-3,10 -6,20 -9,28 -25,62 -32,87 -46,151 -3,13 -3,20 -8,33l-9 41c-12,48 -21,225 -25,278 -2,42 18,116 28,150l2 7c0,1 0,3 1,3l1 6c1,0 1,2 1,2l8 20c7,21 13,42 20,63l67 171c9,19 22,36 23,59l0 0z"/>
    <path class="fil2" d="M3503 7006l0 73c0,62 9,113 9,169 -22,-15 -42,-29 -63,-47l-133 -95c-12,-8 -17,-14 -32,-23l-71 -44c-50,-27 -97,-57 -152,-76 -20,-7 -27,-7 -44,-16 -22,-11 -72,-19 -95,-19 3,17 20,59 27,73l70 132c8,10 14,18 21,29l84 117c10,11 12,17 23,28l48 52c34,35 124,112 164,138 78,52 193,100 281,122 37,10 136,32 174,32l13 -69c3,-26 6,-53 9,-74 7,-53 2,-108 8,-162 2,-21 -3,-93 -7,-139 -2,-38 -1,-38 -16,-66l-36 -92c-4,-13 -7,-21 -11,-30 -6,-13 -9,-15 -14,-27 -32,-75 -41,-82 -71,-140 -9,-18 -112,-191 -140,-199 -4,41 -13,53 -20,77 -6,22 -9,60 -13,87 -8,55 -13,125 -13,189l0 0z"/>
    <path class="fil2" d="M8090 7651c29,0 65,-5 88,-12 26,-7 57,-14 82,-19 50,-11 178,-56 219,-83 14,-9 17,-11 33,-18 26,-12 37,-25 59,-41l86 -71c9,-9 15,-15 24,-25 5,-4 7,-6 12,-11l10 -8c106,-102 192,-228 252,-362l32 -73c-54,0 -167,38 -216,68l-74 40c-16,9 -21,14 -36,23 -83,50 -98,66 -168,116 -12,8 -21,17 -33,26 -25,19 -40,33 -68,47 0,-19 2,-25 3,-37 3,-16 1,-29 2,-45 12,-158 2,-283 -23,-439 -12,-70 -15,-31 -14,-78 -21,5 -63,75 -76,93 -34,48 -122,200 -137,243 -14,41 -30,65 -38,90l-36 97c0,0 -1,1 -1,2 -13,40 -11,127 -9,175 0,27 -2,56 0,83l4 59c3,23 5,7 5,29 1,10 0,8 1,19 5,33 16,78 17,112z"/>
    <path class="fil2" d="M3031 5870c16,-10 21,-20 33,-35l7 -8c0,0 1,-1 2,-2 0,-1 1,-2 2,-3 1,0 1,-1 2,-2 1,-1 3,-4 4,-5 48,-57 166,-225 183,-284 5,-19 9,-36 13,-56l38 -172c10,-36 13,-75 18,-115l8 -97c1,-63 -3,-56 -3,-104l-74 67c-90,80 -179,183 -250,282 -14,20 -20,50 -37,63 0,-40 -11,-122 -21,-153l-10 -32c-3,-16 -6,-23 -10,-35 -8,-25 -11,-42 -22,-66 -24,-54 -93,-183 -153,-199 -18,39 -27,124 -37,173 -7,34 -17,56 -18,110 -1,93 -6,94 6,187 0,1 3,14 3,15l7 21c0,1 1,2 1,4l2 7c16,78 36,104 71,167 6,12 7,16 14,27l53 75c39,43 26,35 80,89l88 81 0 0z"/>
    <path class="fil2" d="M8928 5394c-13,-8 -14,-13 -16,-17 -72,-117 -48,-81 -148,-199l-146 -142c-18,-15 -29,-38 -52,-45 0,31 -5,41 -5,69 1,32 11,165 19,192l14 59c18,75 33,190 64,257 2,4 3,7 6,13l43 70c6,11 5,13 13,24 6,11 9,14 17,24 25,33 74,103 100,129 31,31 13,27 36,42l65 -58c8,-9 14,-14 23,-23l48 -52c38,-44 71,-80 100,-138 27,-54 63,-112 76,-180 4,-23 9,-51 11,-69 9,-85 3,-226 -22,-308l-4 -20c-7,-29 -23,-86 -23,-108 -34,3 -89,77 -108,107 -52,82 -73,158 -93,255 -8,39 -18,49 -18,118z"/>
    <path class="fil2" d="M8351 3710c-14,-4 -40,-21 -55,-28 -48,-21 -144,-51 -194,-62 -61,-13 -174,-27 -217,-40 -16,-4 -57,-11 -74,-12l26 52c10,16 23,30 36,46 57,73 136,132 206,192 138,116 113,120 286,195l58 24c23,9 101,36 125,36 22,-95 50,-131 50,-266 0,-82 1,-155 -37,-228 -31,-59 -11,-44 -66,-127 -45,-68 -55,-94 -125,-163 -14,-14 -31,-40 -51,-45 -31,59 -32,162 -28,220 4,58 17,108 40,157 6,13 17,37 20,49z"/>
    <path class="fil2" d="M3306 3769c0,105 -1,168 26,257l9 29c6,22 12,45 20,62l120 -40c39,-16 74,-31 113,-47l103 -58c23,-14 85,-77 127,-110 9,-7 13,-13 21,-21 10,-8 13,-8 23,-18 41,-38 220,-189 226,-255l-334 65c-9,3 -6,2 -18,5 -58,15 -75,20 -129,44l-60 28c2,-25 13,-17 26,-57 38,-113 25,-120 39,-174 6,-23 4,-26 1,-44l-3 -18c-6,-23 -4,-77 -31,-133 -22,6 -78,73 -94,93 -78,97 -185,265 -185,392l0 0z"/>
    <path class="fil2" d="M2903 4538c0,128 16,113 36,185 11,40 34,90 54,128 15,28 33,50 48,76 35,-8 266,-175 301,-239l125 -186c59,-81 109,-156 132,-256l-110 45c-51,26 -77,32 -140,66l-31 14c-35,16 -143,87 -166,109 -11,10 -13,14 -25,22 0,-37 20,-87 12,-164 -8,-70 -8,-92 -36,-155 -8,-16 -14,-28 -21,-43 -13,-26 -19,-26 -23,-41 -13,3 -13,7 -19,17 -41,65 -39,76 -65,123 -13,23 -13,31 -22,56l-30 97c-13,48 -20,90 -20,146l0 0z"/>
    <path class="fil2" d="M8781 4506c-27,-18 -32,-39 -123,-92l-182 -97c-17,-8 -27,-8 -43,-17l-107 -49c-14,-8 -11,-12 -17,-6 -6,6 14,61 17,67 60,126 53,106 128,215l103 149c15,27 32,47 56,67 46,39 212,181 255,184 5,-17 52,-88 64,-114l49 -130c27,-108 28,-159 4,-280 -2,-10 -4,-24 -6,-30l-10 -28c-20,-52 -22,-74 -50,-128 -13,-26 -16,-40 -38,-76 -14,-23 -17,-37 -36,-42 0,7 -37,65 -56,118 -4,10 -1,2 -5,13 -7,17 -9,32 -13,51 -13,76 -6,154 10,225l0 0z"/>
    <path class="fil2" d="M7975 3348l-51 -117c-25,-51 -62,-113 -101,-152 -9,-9 -11,-13 -19,-22 -30,-32 -85,-74 -128,-91 -23,-10 -35,-16 -59,-23 -93,-31 -188,-42 -284,-60l-209 -52 177 161c16,16 28,23 44,39l46 41c10,9 12,9 22,19l170 132c116,70 89,43 176,80 34,15 31,12 68,20l109 19c16,4 21,6 39,6l0 0z"/>
    <path class="fil2" d="M4780 2831l-64 18c-23,6 -48,8 -71,16 -14,6 0,2 -13,5l-58 12c-23,4 -48,9 -73,13 -21,5 -48,10 -70,13l-51 13c-99,27 -162,31 -253,112 -11,10 -14,9 -23,19 -10,10 -11,14 -21,25 -29,31 -52,61 -71,99 -19,40 -19,33 -32,55 -13,25 -22,58 -39,89 -4,9 -14,23 -8,28 10,11 -1,3 9,0 8,-1 3,-1 19,-4 80,-14 168,-27 242,-60 123,-54 97,-51 188,-110l368 -318c2,-1 5,-3 5,-4l16 -21 0 0z"/>
    <path class="fil2" d="M5797 3338c206,-24 537,8 734,68 188,57 441,179 593,281l234 169c208,163 370,413 495,644 47,87 130,274 162,374 91,282 90,684 50,977 -22,158 -56,275 -117,417 -108,248 -241,463 -409,667 -120,144 -325,291 -489,390 -125,76 -371,190 -502,231 -117,37 -329,71 -463,72 -46,0 -87,5 -133,4 -124,-1 -253,-9 -375,-27 -214,-31 -226,-34 -419,-116 -146,-62 -356,-169 -482,-264 -82,-61 -99,-66 -186,-144 -25,-23 -48,-43 -72,-66 -68,-64 -72,-79 -125,-144 -175,-215 -344,-519 -425,-779 -85,-269 -95,-695 -53,-976 33,-220 47,-229 120,-416 80,-206 215,-421 347,-596l126 -144c65,-63 144,-131 219,-184 276,-194 582,-364 926,-414 93,-14 163,-15 244,-24l0 0zm-445 -45c-90,-7 -100,-32 -233,-32 -119,0 -205,6 -316,46l-96 46c-86,47 -164,121 -218,203l-99 180c-20,40 -34,99 -53,135 -7,14 -12,13 -27,19 -44,16 -88,30 -129,50 -11,5 -17,10 -30,15l-61 30c-117,66 -222,159 -286,277 -33,61 -46,100 -64,169 0,1 -1,4 -1,5 0,1 -1,2 -1,3l-2 5c-2,6 -1,2 -5,16 -6,28 -5,53 -9,86 -12,91 -4,193 11,275l5 32c4,19 8,3 8,42 0,13 -69,86 -81,103l-50 73c-10,16 -16,26 -25,40 -5,8 -5,7 -10,17 -4,8 -6,11 -11,21l-57 130c-14,41 -39,168 -36,211 9,102 31,206 77,298 3,7 6,12 10,19l164 242c38,47 22,30 10,87l-14 115c-2,47 -9,105 -3,149l33 182c6,20 13,45 20,62 4,9 8,20 13,28 4,6 3,3 7,11 42,70 38,72 93,136 32,38 68,73 109,102 11,7 15,10 25,17l76 47c45,27 120,60 170,77 65,23 68,13 93,77 29,78 58,156 105,225 7,11 9,14 14,26 21,43 65,79 94,117 20,25 61,58 88,76l138 74 95 28c101,31 285,29 386,7 22,-5 62,-23 81,-12l35 30c60,53 130,98 200,138 154,89 369,120 544,64 38,-13 110,-43 144,-62l211 -147c5,-6 8,-8 13,-14 13,-12 7,1 13,-15 18,1 47,7 68,10 20,3 40,11 65,13 105,8 231,18 330,-12l97 -27c61,-21 120,-58 169,-97l5 -4c1,0 2,-1 3,-2l5 -4c33,-29 65,-60 93,-94 82,-102 139,-224 179,-348 7,-23 27,-26 48,-35 38,-16 81,-26 118,-46l107 -57c39,-23 78,-49 111,-77l10 -8c89,-71 149,-167 192,-271 8,-21 37,-143 38,-168 1,-15 -2,-9 0,-17 2,-16 5,6 5,-15 0,-49 3,-150 -6,-195l-15 -86c-3,-23 -9,-43 -11,-62 24,-16 39,-40 55,-64l12 -16c11,-16 20,-25 32,-41 12,-17 19,-28 31,-46 11,-16 22,-28 30,-44 5,-10 5,-14 11,-25l49 -98c3,-8 3,-7 4,-13l2 -4c40,-104 62,-257 29,-384 -15,-56 -32,-106 -58,-158 -40,-79 -88,-156 -148,-223 -8,-9 -9,-10 -16,-20 -26,-35 -31,-31 -22,-80l16 -112c5,-59 14,-74 6,-147 -3,-23 1,-47 -3,-70 -17,-118 -52,-229 -121,-324 -29,-41 -64,-88 -106,-118 -90,-65 -177,-127 -283,-165l-93 -35c-8,-5 -4,-2 -10,-9 -12,-15 -15,-34 -20,-52 -17,-54 -45,-106 -69,-156 -23,-48 -53,-93 -86,-134l-17 -25c-32,-51 -88,-90 -136,-124 -14,-11 -26,-20 -43,-30 -71,-43 -155,-63 -233,-83l-49 -6c-73,-5 -157,-4 -229,4 -37,4 -82,19 -120,23 -22,1 -28,-11 -44,-24l-79 -63c-41,-31 -83,-60 -129,-85 -85,-46 -168,-80 -265,-92 -14,-2 -20,-1 -33,-4 -26,-7 -56,-6 -85,-6l-172 34c-27,9 -53,18 -75,30 -127,64 -90,46 -197,114 -30,19 -96,68 -115,96l0 0z"/>
    <path class="fil2" d="M5939 3323c1191,0 2156,966 2156,2156 0,1191 -965,2156 -2156,2156 -1191,0 -2156,-965 -2156,-2156 0,-1190 965,-2156 2156,-2156z"/>
    <path class="fil4" d="M5199 6918l48 -62 204 75c6,3 10,8 13,16 3,9 4,16 2,22l-90 241c-3,7 -7,14 -13,20 -6,5 -12,7 -18,5l-78 -30 28 -76 -53 67 -118 -44 56 -67 103 39c1,1 3,0 5,0 2,-1 4,-3 5,-5l52 -140c1,-4 0,-7 -5,-9l-141 -52 0 0zm-282 -280l92 62 -15 52 81 54 41 -34 87 59 -195 155 18 12 -71 49 -128 -87 90 -322 0 0zm53 186l-35 107 133 -122 -72 32 -26 -17zm-304 -363l69 -30 149 160 -174 163 19 20 -78 32 -71 -77 179 -167 -93 -101zm-158 -333c5,-4 13,-3 23,0 11,3 18,9 22,16l133 225 -206 121 13 23 -84 12 -49 -84 67 -40 -85 14 -67 -115c-3,-5 -3,-13 0,-23 4,-11 8,-17 14,-21l219 -128 0 0zm11 122l-123 73c-2,1 -4,2 -5,4 0,2 -1,4 0,5l32 55c1,1 3,2 5,2 3,1 5,0 6,0l194 -114 -77 9 -18 -32c-2,-2 -5,-3 -9,-3 -1,0 -3,0 -5,1l0 0zm-117 -651l19 100 -79 15 85 15 27 132c0,4 -1,8 -5,13 -3,4 -7,7 -11,8l-56 11 80 14 26 127c0,4 -1,9 -6,15 -4,6 -8,9 -12,10l-215 42 6 30 -80 -11 -20 -102 225 -44c2,0 5,-2 8,-4 3,-2 4,-5 3,-7l-11 -60c-1,-1 -2,-2 -5,-4 -2,-1 -4,-2 -5,-2l-230 46 -20 -102 224 -44c3,0 5,-2 8,-4 2,-2 3,-5 2,-8l-12 -64 -11 -4 -227 45 -20 -101 312 -62zm-69 -319l73 27 -1 234 -242 -1 0 25 -77 -30 1 -252 82 25 0 120 111 1 -69 -28 0 -113 73 24 0 117 49 0 0 -149 0 0zm70 -302l64 41 -48 213 -233 -52 -6 27 -70 -46 23 -102 240 54 30 -135 0 0zm132 -280l52 55 -98 195 -214 -107 -12 25 -57 -62 47 -94 220 111 62 -123 0 0zm449 -424l-82 76 -46 -27 -71 67 23 48 -76 71 -108 -224 -15 15 -32 -80 113 -106 294 160 0 0zm-193 10l-96 -58 88 157 -14 -78 22 -21zm479 -222c2,5 2,13 -2,23 -3,11 -9,18 -16,22l-229 126 -115 -209 -23 12 -9 -84 85 -47 38 68 -12 -85 117 -64c5,-3 13,-2 23,1 11,4 17,9 21,15l122 222 0 0zm-123 8l-69 -126c-1,-2 -3,-3 -4,-4 -3,-1 -4,-1 -6,0l-55 30c-2,1 -2,2 -3,5 0,2 0,4 1,6l108 197 -7 -77 32 -18c3,-1 4,-4 4,-8 0,-2 0,-3 -1,-5l0 0zm416 -407l-5 332 -129 39 -147 -206 -32 10 6 -84 93 -28 116 180 -9 -212 107 -31zm395 203l-20 74 -234 18 -18 -242 -25 2 23 -78 251 -19 -18 83 -119 9 8 111 22 -71 112 -8 -17 74 -117 9 4 49 148 -11 0 0zm349 121l-106 -16 32 -222c2,-7 -1,-10 -5,-11l-66 -10c-4,0 -6,2 -7,8l-33 223 -108 -16 35 -234 -26 -4 37 -76 102 15 -12 82 40 -77 133 19c7,1 13,7 18,17 5,10 7,18 6,27l-40 275zm414 -191l-46 67 -65 -24 -83 223 -101 -37 82 -222 -88 -33 57 -64 244 90 0 0zm35 387l-97 -55 118 -210 -25 -14 69 -53 93 52 -158 280zm271 186c-2,2 -6,4 -11,5 -6,1 -10,0 -13,-2l-67 -55 44 -53 -66 35 -125 -103 65 -36 115 94c1,2 3,2 5,1 2,0 4,-2 5,-3l21 -26c1,-1 2,-3 2,-5 0,-2 -1,-4 -2,-5l-111 -92c-3,-2 -6,-7 -6,-13 0,-7 1,-12 4,-15l98 -120c4,-4 9,-7 15,-8 7,-1 12,0 16,4l63 52 -53 65 73 -49 117 96 -71 46 -105 -86c-2,-2 -4,-2 -6,-2 -3,1 -4,3 -6,4l-19 24c-1,1 -2,3 -1,5 0,2 0,4 2,5l115 95c3,2 3,6 2,12 0,6 -2,11 -5,14l-95 116zm445 68l-74 33 -42 -55 -189 147 -66 -85 187 -145 -58 -75 82 -25 160 205 0 0zm-17 742l-34 -106 43 -31 -30 -93 -54 2 -32 -100 248 -3 -7 -21 87 5 48 148 -269 199 0 0zm72 -179l93 -64 -179 15 77 19 9 30 0 0zm22 480l-77 -18 -16 -218c0,-5 3,-11 9,-18 6,-6 13,-10 19,-10l257 -20c7,0 15,1 22,4 8,3 12,8 12,15l7 82 -82 7 84 19 9 127 -84 -23 -8 -111c0,-1 -1,-2 -2,-4 -2,-1 -4,-2 -7,-2l-149 12c-4,0 -6,2 -5,8l11 150 0 0zm-112 370l13 -110 52 -10 11 -96 -48 -22 12 -104 226 101 3 -21 76 41 -18 154 -327 67zm140 -131l111 -19 -169 -62 62 50 -4 31 0 0zm-240 478c-5,-3 -10,-9 -14,-19 -4,-11 -4,-19 -1,-27l98 -243 222 90 10 -24 60 60 -36 90 -73 -29 63 59 -50 123c-3,5 -9,10 -19,14 -10,3 -19,4 -25,1l-235 -95 0 0zm90 -84l133 54c2,1 4,1 6,1 2,-1 4,-2 5,-3l23 -59c1,-2 0,-3 -1,-5 -1,-3 -2,-4 -4,-5l-208 -84 54 55 -14 35c-1,2 -1,5 2,8 1,2 2,3 4,3l0 0zm-234 381l-46 -62 128 -196 203 134 14 -21 48 66 -139 211 -55 -66 66 -100 -93 -61 43 61 -62 94 -48 -60 64 -97 -41 -27 -82 124 0 0zm-443 311l78 -70 148 166c1,1 4,2 7,3 4,0 6,-1 7,-2l43 -38c2,-2 3,-5 3,-9 0,-1 -1,-3 -2,-4l-149 -166 79 -72 148 166c2,1 4,2 6,3 4,1 6,0 8,-1l41 -37c2,-2 3,-5 3,-8 0,-3 0,-5 -2,-8l-148 -165 78 -69 155 173 20 -18 34 83 -75 68 -50 -56 35 68 -100 91c-6,5 -13,6 -22,5 -8,-2 -15,-6 -21,-12l-27 -31 28 75 -90 81c-5,4 -12,5 -23,4 -11,-1 -19,-4 -23,-9l-189 -211 0 0zm-217 433l14 -223 -49 -109 103 -47 49 108 118 83 40 -18 7 79 -80 36 -103 -81 -4 129 -95 43 0 0z"/>
    <path class="fil2" d="M5539 7103c28,0 50,22 50,49 0,28 -22,50 -50,50 -27,0 -49,-22 -49,-50 0,-27 22,-49 49,-49z"/>
    <path class="fil2" d="M6357 7103c28,0 50,22 50,49 0,28 -22,50 -50,50 -27,0 -49,-22 -49,-50 0,-27 22,-49 49,-49z"/>
    <path class="fil4" d="M5675 7277l-60 -10 26 -148 -18 -3 25 -44 60 10 -33 195 0 0zm234 7c0,3 -2,6 -6,9 -3,3 -5,5 -7,5l-153 -12 19 -45 78 6c3,0 5,-2 5,-7l5 -67 -14 44 -73 -6c-3,0 -5,-1 -8,-5 -3,-3 -5,-6 -5,-9l8 -92c0,-2 2,-5 5,-9 4,-4 7,-6 9,-6l124 10c5,0 11,3 17,7 6,5 9,9 9,13l-13 164 0 0zm-58 -116l1 -17c0,-1 0,-2 -1,-3 -1,-1 -1,-2 -2,-2l-27 -2c-1,0 -2,1 -3,2 -1,1 -1,2 -2,3l-1 16c0,1 1,2 1,3 1,1 2,2 3,2l26 2c1,0 2,0 3,-1 1,-2 2,-2 2,-3zm265 -77l-14 47 -74 6 5 65 12 -40 60 -5c3,0 6,1 9,4 3,3 5,5 5,8l7 96c0,4 -1,7 -2,11 -2,4 -5,6 -8,6l-143 11 15 -49 66 -5c1,0 2,-1 4,-3 1,-1 2,-2 2,-4l-2 -25c0,0 -1,-1 -2,-2 -2,-1 -3,-2 -4,-2l-80 6 -8 -114 152 -11zm159 176l-59 10 -25 -148 -18 3 9 -50 60 -10 33 195 0 0z"/>
    <path class="fil2" d="M5939 4050c789,0 1429,639 1429,1429 0,790 -640,1430 -1429,1430 -790,0 -1430,-640 -1430,-1430 0,-790 640,-1429 1430,-1429zm0 -26c804,0 1455,651 1455,1455 0,804 -651,1456 -1455,1456 -804,0 -1456,-652 -1456,-1456 0,-804 652,-1455 1456,-1455z"/>
    <path class="fil2" d="M5520 5294c148,-61 285,-38 419,0 137,-36 268,-28 398,0l643 917c-379,-125 -730,-142 -1039,0 -212,-167 -522,-213 -1043,0l622 -917z"/>
    <path class="fil2" d="M5939 5136c135,-34 268,-27 403,2l5 1 7 5 657 936 -22 28 -17 -5c-333,-110 -693,-152 -1020,-1l-7 3 -13 -2 -6 -4c-115,-91 -246,-132 -391,-137 -210,-7 -435,62 -628,140l-17 7 -23 -28 634 -936 6 -4 3 -2c146,-60 283,-43 429,-3z"/>
    <path class="fil2" d="M5520 5162c148,-61 285,-38 419,0 137,-36 268,-27 398,0l643 917c-379,-125 -730,-142 -1039,0 -212,-167 -522,-213 -1043,0l622 -917z"/>
    <path class="fil2" d="M5904 4204c276,0 500,224 500,499 0,276 -224,500 -500,500 -275,0 -499,-224 -499,-500 0,-275 224,-499 499,-499z"/>
    <path class="fil2" d="M5904 4229c263,0 475,213 475,474 0,262 -212,475 -475,475 -261,0 -474,-212 -474,-475 0,-261 213,-474 474,-474z"/>
    <path class="fil2" d="M6582 6573c8,24 13,55 -7,76 -24,27 -66,17 -96,8l-1 -1 -4 -2 -1 -1c-121,-83 -237,-176 -338,-283 -129,-138 -228,-293 -294,-470 -76,-208 -99,-432 -88,-652l1 -10 14 -14 271 3 15 16 -1 10c-6,112 -8,225 0,337 6,93 18,185 40,276 37,152 98,288 193,413 81,108 181,199 288,281l2 3 5 6 1 4 0 0z"/>
    <path class="fil2" d="M5778 5249l250 2c-42,723 160,1041 530,1329 18,56 -4,74 -71,53 -421,-289 -744,-680 -709,-1384l0 0z"/>
    <path class="fil2" d="M5904 4576c40,102 119,292 119,404 0,111 -79,161 -119,263 -39,-102 -118,-152 -118,-263 0,-112 79,-302 118,-404z"/>
    <path class="fil2" d="M5753 5182l303 0c16,0 29,13 29,29l0 18c0,16 -13,29 -29,29l-303 0c-16,0 -29,-13 -29,-29l0 -18c0,-16 13,-29 29,-29z"/>
    <path class="fil3" d="M7089 7989l61 22c64,18 184,37 193,40 19,5 -8,7 26,7 14,0 10,-3 18,-2 20,2 -3,6 18,6l156 0c22,0 5,-2 24,-5 82,-13 169,-29 247,-57l41 -14c20,-7 31,-11 51,-18 12,-4 13,-4 23,-9 15,-6 12,-6 25,-12 4,-3 17,-9 22,-10 11,-5 12,-4 23,-9 42,-19 277,-144 299,-177 -14,-3 -23,-8 -39,-12l-180 -19 -319 33c-29,6 -58,10 -85,16 -20,4 -18,6 -39,11 -10,2 -30,6 -43,8 8,-15 11,-21 20,-35l72 -125c3,-6 6,-12 9,-19l86 -184c2,-6 2,-9 4,-14 22,-55 79,-211 79,-264l-132 68c-12,7 -20,12 -32,19 -12,7 -20,9 -34,16 -12,7 -20,14 -31,20 -56,34 -104,62 -159,102 -20,16 -37,28 -57,43 -49,36 -136,102 -161,151 -7,15 -9,20 -17,33 -49,68 -84,177 -100,207 -17,30 -43,120 -59,159l-10 24 0 0z"/>
    <path class="fil3" d="M4187 7788l-250 -48c-28,-4 -64,-11 -89,-12l-142 -8c-21,-2 -22,3 -45,4 -32,1 -65,1 -95,6 -30,5 -54,15 -79,21 3,12 5,12 14,18l145 88c56,37 222,109 273,126 17,6 34,9 49,15 13,5 8,4 22,10 38,15 167,36 194,44 49,15 125,10 209,10 24,0 4,-3 24,-5 10,-2 -4,0 10,-1 26,0 189,-34 224,-47 26,-10 23,-12 58,-20 -6,-12 -9,-26 -13,-38l-12 -29c0,-1 -1,-2 -1,-3l-24 -72c-5,-16 -9,-21 -15,-36 -5,-15 -7,-21 -14,-36 -13,-26 -22,-46 -32,-73 -18,-46 -82,-157 -117,-190l-298 -220c-11,-5 -18,-11 -31,-18 -16,-9 -17,-10 -31,-20 -25,-16 -45,-22 -69,-37l-97 -53c-13,-7 -23,-14 -38,-17 0,37 15,74 24,102l8 25c5,14 9,31 14,46 5,13 9,28 14,42 4,11 3,10 8,19 0,1 4,9 4,9 4,9 1,2 4,9l17 40c3,7 4,13 6,20l29 59c10,18 8,24 17,42l114 207c7,13 7,4 11,21l0 0z"/>
    <path class="fil3" d="M3020 6272c-2,-26 -22,-49 -30,-75 -10,-29 -19,-48 -33,-73l-39 -66c-28,-41 -61,-87 -97,-123l-52 -44c-33,-29 -96,-73 -138,-77 0,71 15,294 35,345 31,81 20,105 86,207 44,66 82,98 138,155 58,57 122,110 191,152 28,18 142,78 167,80 6,-24 16,-34 24,-55 7,-18 14,-37 22,-55 38,-86 111,-286 105,-375 -4,-57 -15,-284 -36,-339l-18 -64c-6,-20 -10,-41 -17,-62 -7,-20 -18,-39 -20,-62 -23,7 -101,143 -125,177 -10,13 -12,17 -21,30l-38 67c-8,12 -12,18 -19,31 -12,25 -24,48 -34,71 -10,23 -21,51 -27,74 -9,32 -13,73 -24,81l0 0z"/>
    <path class="fil3" d="M8550 6753c37,-3 154,-71 192,-96l82 -60c28,-19 46,-38 72,-61 101,-88 117,-122 181,-221 12,-20 19,-45 29,-68 10,-25 18,-49 25,-75 31,-118 32,-234 32,-358 -104,25 -224,151 -282,244l-57 100c-12,24 -34,102 -50,114 0,-31 -31,-116 -43,-153 -9,-25 -94,-171 -109,-194l-81 -120c-7,-11 -12,-20 -20,-31 -10,-14 -16,-15 -17,-33l-9 0c-3,10 -6,20 -9,28 -25,63 -32,87 -46,151 -3,13 -3,21 -7,34l-10 40c-12,48 -21,225 -25,279 -2,42 18,116 28,149l2 8c0,1 0,2 1,3l1 5c1,1 1,2 1,3l8 19c7,22 13,43 20,63l67 172c9,18 22,35 24,58l0 0z"/>
    <path class="fil3" d="M3450 6913l0 73c0,63 9,113 9,170 -22,-15 -42,-30 -63,-47l-133 -95c-12,-8 -17,-15 -32,-24l-71 -43c-50,-28 -97,-58 -152,-77 -20,-7 -27,-7 -44,-15 -22,-11 -72,-20 -95,-20 4,17 20,59 27,74l70 131c8,11 14,18 21,30l84 117c10,11 12,16 23,27l48 53c34,34 124,111 164,138 78,51 193,99 281,122 37,9 136,32 174,32l13 -70c3,-25 6,-52 9,-74 7,-52 2,-107 8,-161 2,-22 -3,-93 -6,-140 -3,-37 -2,-38 -17,-65l-36 -93c-4,-12 -7,-20 -11,-30 -6,-12 -9,-15 -14,-27 -32,-74 -41,-81 -71,-140 -9,-18 -112,-191 -140,-198 -3,40 -13,52 -20,77 -6,22 -9,59 -13,87 -8,54 -13,125 -13,188l0 0z"/>
    <path class="fil3" d="M8037 7559c29,0 65,-6 89,-12 25,-8 56,-15 81,-20 50,-10 178,-56 219,-83 14,-9 18,-11 33,-18 27,-12 38,-24 59,-41l86 -70c9,-9 15,-16 25,-25 5,-5 6,-7 11,-11l10 -9c106,-102 192,-227 252,-361l32 -74c-54,0 -167,38 -216,68l-74 40c-16,10 -21,15 -36,24 -83,50 -98,65 -168,116 -12,8 -21,16 -33,26 -25,18 -40,32 -68,47 0,-19 2,-26 4,-38 2,-16 0,-29 1,-44 12,-158 2,-284 -23,-440 -12,-70 -15,-30 -14,-78 -21,6 -63,76 -76,94 -34,48 -122,200 -137,243 -14,41 -30,65 -38,90l-36 96c0,0 0,2 -1,2 -13,41 -11,127 -9,175 0,27 -2,56 0,83l4 59c3,23 5,8 6,30 0,10 -1,7 0,19 5,32 16,77 17,112z"/>
    <path class="fil3" d="M2979 5778c16,-11 20,-21 32,-36l7 -7c0,-1 1,-2 2,-3 0,0 1,-2 2,-2 1,-1 1,-2 2,-3 1,-1 3,-4 4,-5 48,-57 166,-224 183,-284 5,-19 9,-35 13,-56l38 -172c10,-35 13,-75 18,-115l8 -96c1,-64 -3,-56 -3,-104l-74 67c-90,79 -179,183 -250,282 -13,19 -19,49 -37,62 0,-40 -11,-121 -21,-152l-9 -32c-4,-16 -7,-24 -11,-36 -8,-25 -11,-41 -22,-65 -24,-55 -93,-184 -152,-200 -19,40 -27,125 -38,173 -7,34 -17,56 -18,111 -1,92 -6,94 6,187 0,0 3,13 3,15l7 20c0,2 1,3 1,4l2 7c16,78 37,104 71,168 6,11 8,15 14,26l53 75c39,44 26,35 80,90l89 81 0 0z"/>
    <path class="fil3" d="M8875 5302c-13,-8 -14,-14 -16,-17 -71,-118 -48,-82 -148,-200l-146 -142c-18,-14 -29,-38 -52,-44 0,30 -5,41 -5,69 1,32 11,165 19,192l14 59c18,74 33,190 64,256 2,4 3,8 6,13l44 71c6,11 4,12 12,24 6,11 10,13 17,24 25,32 74,102 100,128 31,31 13,28 36,43l65 -58c9,-9 14,-15 23,-23l49 -52c37,-45 70,-81 99,-139 27,-53 63,-112 76,-180 4,-23 9,-51 11,-69 9,-85 3,-225 -22,-307l-4 -20c-7,-29 -22,-86 -22,-109 -35,3 -90,77 -109,107 -52,82 -73,158 -93,255 -8,39 -18,50 -18,119z"/>
    <path class="fil3" d="M8298 3617c-13,-3 -40,-20 -55,-27 -48,-21 -144,-51 -194,-62 -61,-14 -174,-27 -217,-40 -16,-5 -57,-11 -74,-13l26 52c10,17 24,31 36,46 57,73 136,133 206,192 138,117 113,120 286,195l58 24c23,10 101,36 125,36 22,-94 50,-131 50,-265 0,-83 1,-156 -37,-229 -31,-58 -11,-44 -65,-126 -46,-69 -56,-95 -126,-164 -14,-14 -31,-39 -51,-45 -31,59 -32,162 -28,220 4,58 17,109 40,158 6,12 17,36 20,48z"/>
    <path class="fil3" d="M3253 3677c0,105 -1,167 26,256l9 29c6,22 12,46 20,63l120 -41c39,-16 74,-30 113,-47l103 -57c23,-14 85,-78 127,-111 9,-7 13,-13 21,-20 10,-9 13,-9 23,-19 41,-38 220,-189 226,-255l-334 65c-9,3 -6,2 -18,5 -58,15 -74,20 -129,45l-60 27c2,-25 13,-16 26,-56 38,-113 25,-121 39,-174 6,-24 4,-26 2,-45l-4 -17c-6,-24 -4,-78 -31,-134 -22,7 -78,73 -94,94 -78,96 -185,265 -185,392l0 0z"/>
    <path class="fil3" d="M2850 4446c0,127 16,112 36,184 11,41 34,91 54,129 15,28 34,49 48,76 35,-8 267,-175 301,-239l125 -186c59,-82 109,-157 132,-257l-110 45c-51,26 -77,32 -140,66l-31 15c-35,16 -142,86 -166,108 -11,10 -13,15 -24,22 0,-37 19,-87 11,-163 -8,-71 -8,-92 -36,-155 -8,-17 -14,-29 -21,-43 -13,-27 -19,-26 -23,-42 -13,4 -13,7 -19,17 -40,66 -39,77 -65,123 -13,23 -13,32 -22,56l-30 98c-13,47 -20,90 -20,146l0 0z"/>
    <path class="fil3" d="M8728 4414c-27,-19 -32,-39 -123,-93l-182 -97c-17,-8 -27,-7 -43,-16l-107 -50c-14,-8 -11,-11 -17,-5 -6,5 14,60 17,66 60,126 54,107 128,215l103 149c15,27 32,47 56,68 46,38 212,180 255,184 5,-18 52,-88 64,-114l49 -131c27,-108 28,-159 4,-279 -2,-11 -4,-24 -6,-31l-10 -28c-20,-52 -22,-73 -49,-128 -14,-25 -17,-40 -39,-76 -14,-22 -17,-37 -36,-42 0,7 -37,65 -56,118 -4,10 -1,2 -5,13 -7,17 -9,32 -13,52 -13,75 -6,154 10,225l0 0z"/>
    <path class="fil3" d="M7922 3255l-51 -117c-25,-50 -62,-113 -101,-151 -9,-9 -11,-14 -19,-22 -30,-33 -85,-74 -128,-92 -23,-9 -35,-15 -59,-23 -93,-30 -188,-41 -284,-59l-209 -53 177 162c16,15 28,22 44,39l46 40c10,9 12,9 22,19l170 133c116,69 89,42 177,80 33,14 30,11 67,19l109 20c16,3 21,5 39,5l0 0z"/>
    <path class="fil3" d="M4727 2738l-64 18c-23,7 -48,9 -71,17 -14,5 0,2 -13,5l-57 11c-24,5 -49,9 -74,14 -21,4 -48,9 -69,12l-52 13c-99,27 -162,32 -253,113 -11,9 -14,9 -23,18 -10,10 -11,14 -21,25 -28,31 -52,61 -70,99 -20,41 -20,33 -32,55 -14,25 -23,58 -40,89 -4,9 -14,24 -8,29 10,10 -1,2 9,0 8,-2 3,-2 19,-5 80,-13 168,-26 242,-60 123,-54 97,-51 188,-109l369 -318c1,-2 4,-4 5,-5l15 -21 0 0z"/>
    <path class="fil3" d="M5744 3245c206,-24 537,8 734,68 188,57 441,180 593,282l234 168c208,163 370,414 495,645 47,86 130,273 162,374 91,281 90,683 50,977 -22,158 -56,275 -117,417 -108,248 -241,462 -409,666 -120,145 -325,291 -489,390 -125,76 -371,190 -502,231 -117,37 -329,71 -463,72 -46,1 -87,5 -133,4 -124,-1 -253,-9 -375,-27 -213,-31 -226,-33 -419,-116 -146,-62 -356,-169 -482,-264 -82,-61 -99,-66 -186,-144 -25,-23 -48,-42 -72,-65 -68,-65 -72,-80 -125,-145 -174,-214 -344,-519 -425,-779 -85,-269 -94,-695 -53,-976 33,-220 47,-229 120,-415 80,-207 215,-422 347,-597l126 -144c65,-63 144,-131 219,-183 276,-195 582,-364 926,-415 93,-14 163,-15 244,-24l0 0zm-445 -44c-90,-8 -100,-32 -233,-32 -119,0 -205,5 -316,45l-96 46c-86,48 -164,121 -218,204l-99 179c-20,40 -34,99 -53,135 -7,15 -12,14 -27,19 -43,17 -88,30 -128,50 -12,6 -18,10 -31,15l-61 31c-117,66 -222,158 -286,277 -33,60 -46,99 -64,168 0,1 -1,5 -1,6 0,0 -1,1 -1,2l-1 5c-3,7 -2,3 -5,16 -7,28 -6,54 -10,87 -12,90 -4,192 11,275l5 31c4,19 8,3 8,43 0,12 -69,85 -81,103l-50 73c-10,16 -16,25 -25,39 -5,8 -5,8 -10,17 -4,8 -6,12 -11,21l-57 131c-14,40 -39,168 -36,210 9,103 31,207 77,299 4,6 6,11 10,18l164 242c38,48 22,31 10,88l-14 114c-2,48 -9,106 -2,149l32 182c6,20 13,46 20,62 4,9 8,20 13,29 4,5 3,3 7,11 42,70 38,71 93,136 32,38 69,73 109,101 11,7 15,11 25,17l76 47c45,28 120,61 170,78 65,23 68,13 93,77 29,77 58,155 105,224 7,11 9,14 15,26 20,44 64,80 93,117 20,26 61,58 88,77l138 74 95 27c101,32 285,29 386,7 22,-5 62,-22 81,-11l35 29c60,53 130,98 200,138 154,89 369,120 544,64 38,-12 110,-42 144,-62l211 -147c5,-5 8,-7 13,-13 13,-12 7,0 13,-15 18,0 47,6 68,10 20,3 40,10 65,12 105,8 231,19 330,-12l97 -27c61,-21 120,-58 169,-96l5 -4c1,-1 2,-2 3,-2l5 -4c33,-30 65,-60 93,-95 82,-101 139,-224 179,-347 8,-24 27,-26 48,-35 38,-17 81,-26 118,-47l108 -57c38,-22 77,-48 111,-77l10 -8c88,-70 149,-166 191,-271 8,-20 37,-143 38,-168 1,-14 -1,-8 0,-16 2,-17 5,6 5,-15 0,-50 3,-150 -6,-196l-15 -86c-3,-22 -9,-42 -11,-62 24,-16 39,-40 55,-64l12 -15c12,-16 20,-25 32,-41 12,-18 19,-29 31,-47 11,-16 22,-28 30,-43 5,-10 5,-15 11,-26l49 -98c3,-7 3,-7 4,-12l2 -5c40,-103 62,-256 29,-384 -15,-56 -32,-106 -58,-157 -40,-80 -88,-157 -148,-223 -8,-10 -9,-11 -16,-21 -26,-35 -31,-31 -22,-80l16 -111c5,-59 15,-75 6,-147 -3,-24 1,-47 -2,-71 -18,-118 -52,-228 -121,-323 -30,-41 -65,-88 -107,-118 -89,-65 -177,-128 -283,-166l-93 -35c-8,-5 -4,-2 -10,-9 -12,-14 -15,-33 -20,-52 -17,-54 -45,-105 -69,-156 -23,-48 -53,-92 -86,-134l-16 -24c-33,-52 -89,-91 -137,-125 -14,-10 -26,-20 -43,-30 -71,-43 -155,-63 -233,-83l-49 -6c-73,-4 -157,-3 -229,5 -37,4 -82,19 -120,22 -22,2 -28,-11 -44,-23l-78 -63c-42,-32 -84,-61 -130,-86 -85,-46 -168,-79 -265,-92 -14,-1 -20,-1 -33,-4 -26,-6 -56,-6 -85,-6l-172 34c-27,9 -53,18 -75,30 -127,65 -90,47 -197,115 -29,19 -96,68 -115,96l0 0z"/>
    <path class="fil5" d="M5886 3231c1191,0 2156,965 2156,2156 0,1190 -965,2156 -2156,2156 -1191,0 -2156,-966 -2156,-2156 0,-1191 965,-2156 2156,-2156z"/>
    <path class="fil6" d="M5146 6825l48 -62 204 76c6,2 10,7 13,16 3,8 4,16 2,22l-90 241c-3,7 -7,13 -13,19 -6,6 -12,7 -18,5l-78 -29 29 -77 -53 68 -119 -44 56 -67 103 39c2,0 3,0 5,-1 2,-1 4,-2 5,-5l52 -140c1,-4 0,-7 -5,-9l-141 -52 0 0zm-282 -279l92 62 -15 51 81 55 41 -34 87 59 -194 154 17 12 -71 49 -128 -87 90 -321 0 0zm53 185l-35 107 133 -121 -72 32 -26 -18zm-304 -363l69 -29 149 159 -174 163 19 21 -78 32 -71 -77 180 -168 -94 -101zm-158 -333c5,-3 13,-3 24,0 10,4 17,9 22,16l132 226 -206 121 13 22 -84 12 -49 -84 67 -40 -85 14 -67 -115c-3,-5 -3,-13 0,-23 4,-10 8,-17 14,-21l219 -128 0 0zm11 122l-123 73c-2,1 -4,2 -5,5 0,2 -1,3 0,5l32 55c1,1 3,2 5,2 3,0 5,0 6,-1l194 -114 -77 10 -18 -33c-2,-2 -5,-3 -9,-3 -1,0 -3,0 -5,1l0 0zm-117 -650l19 99 -79 16 85 14 27 132c0,4 -1,9 -5,13 -3,5 -7,7 -11,8l-56 11 81 14 25 128c0,3 -1,8 -6,14 -4,6 -8,10 -12,10l-214 43 6 30 -81 -11 -20 -102 225 -44c3,-1 5,-2 8,-5 3,-2 4,-4 3,-6l-11 -60c-1,-2 -2,-3 -5,-4 -2,-2 -4,-2 -5,-2l-230 45 -20 -101 224 -44c3,-1 5,-2 8,-5 2,-2 3,-4 2,-7l-12 -65 -11 -4 -227 45 -20 -101 312 -61zm-69 -319l73 26 -1 234 -242 -1 0 25 -77 -29 1 -252 82 24 0 120 111 1 -69 -28 0 -112 73 23 0 117 49 0 0 -148 0 0zm70 -302l64 41 -48 213 -233 -53 -6 28 -70 -46 23 -103 240 54 30 -134 0 0zm132 -281l52 56 -98 194 -214 -107 -12 25 -57 -62 47 -94 220 111 62 -123 0 0zm449 -424l-81 76 -47 -26 -71 66 23 48 -76 72 -108 -224 -15 14 -32 -80 114 -106 293 160 0 0zm-192 10l-97 -58 88 157 -14 -77 23 -22zm478 -222c2,6 2,14 -1,24 -4,10 -10,18 -17,22l-229 125 -115 -209 -23 12 -9 -84 85 -47 38 69 -11 -85 116 -64c6,-3 13,-3 23,0 11,4 17,9 21,15l122 222 0 0zm-123 9l-69 -126c-1,-2 -3,-4 -4,-5 -3,-1 -4,-1 -6,0l-55 31c-2,0 -2,2 -3,4 0,3 0,5 1,6l108 197 -7 -76 32 -19c3,-1 4,-4 4,-7 0,-2 0,-4 -1,-5l0 0zm416 -408l-5 333 -129 38 -147 -206 -32 10 6 -84 93 -27 116 179 -9 -211 107 -32zm395 203l-20 75 -234 18 -18 -242 -25 2 23 -79 251 -19 -18 84 -119 9 8 110 22 -70 112 -9 -17 74 -117 9 4 49 148 -11 0 0zm349 121l-106 -16 33 -222c1,-6 -1,-10 -6,-11l-66 -9c-3,-1 -6,2 -7,7l-33 224 -108 -16 35 -235 -26 -4 37 -75 102 15 -12 81 40 -77 133 20c7,1 13,6 18,16 5,10 7,19 6,27l-40 275zm414 -191l-46 67 -65 -24 -83 224 -101 -38 83 -222 -89 -33 57 -64 244 90 0 0zm35 387l-97 -55 118 -209 -24 -14 69 -53 92 52 -158 279zm271 186c-2,3 -6,5 -11,6 -6,1 -10,0 -13,-3l-67 -55 44 -53 -66 35 -125 -103 65 -35 115 94c1,1 3,1 5,1 2,-1 4,-2 5,-4l21 -25c1,-2 2,-3 2,-6 0,-2 -1,-4 -2,-5l-111 -91c-3,-3 -6,-7 -6,-14 0,-6 1,-11 4,-15l99 -120c3,-4 8,-6 14,-7 7,-1 12,0 16,3l63 52 -53 66 73 -49 117 96 -71 45 -105 -86c-1,-2 -4,-2 -6,-1 -3,1 -4,2 -5,3l-20 25c-1,1 -2,2 -1,4 0,3 0,4 2,5l115 95c3,2 4,6 2,13 0,6 -2,10 -5,13l-95 116zm445 69l-73 33 -43 -55 -189 147 -66 -85 187 -146 -58 -75 82 -25 160 206 0 0zm-17 741l-34 -105 43 -32 -30 -92 -54 1 -32 -100 248 -3 -6 -20 86 5 48 147 -269 199 0 0zm72 -179l93 -63 -179 14 77 20 9 29 0 0zm22 480l-77 -18 -16 -217c0,-6 3,-12 9,-18 6,-7 13,-10 19,-11l257 -19c8,-1 15,0 22,4 8,2 12,7 13,14l6 83 -82 6 84 20 9 126 -84 -23 -8 -110c0,-1 -1,-3 -2,-4 -2,-2 -4,-3 -7,-2l-149 11c-4,0 -6,3 -5,8l11 150 0 0zm-112 371l13 -110 52 -10 11 -97 -48 -21 12 -105 226 102 3 -21 76 40 -18 154 -327 68zm140 -132l111 -19 -169 -62 62 50 -4 31 0 0zm-240 478c-5,-2 -10,-8 -14,-19 -3,-10 -4,-19 -1,-27l99 -242 221 90 10 -24 60 59 -36 90 -73 -29 63 59 -50 123c-3,6 -9,11 -19,14 -10,4 -19,4 -25,2l-235 -96 0 0zm90 -83l133 54c2,1 4,1 6,0 3,0 4,-1 5,-3l24 -59c0,-1 0,-3 -2,-5 -1,-2 -2,-4 -4,-4l-208 -85 54 55 -14 35c-1,2 0,5 2,9 1,1 3,2 4,3l0 0zm-234 380l-46 -61 128 -196 203 133 14 -21 48 66 -139 211 -55 -65 66 -100 -92 -61 42 60 -62 94 -48 -59 64 -98 -41 -27 -82 124 0 0zm-443 312l78 -70 148 165c1,2 4,3 7,3 4,0 6,0 8,-2l42 -38c2,-1 3,-4 3,-8 0,-2 -1,-3 -2,-5l-149 -166 79 -71 148 165c2,2 4,3 7,3 3,1 5,1 7,-1l41 -37c2,-2 3,-4 4,-7 0,-4 -1,-6 -3,-8l-148 -165 78 -70 155 174 20 -19 34 84 -75 67 -50 -56 35 69 -100 90c-6,5 -13,7 -22,5 -8,-2 -15,-6 -21,-12l-27 -31 28 75 -90 82c-5,3 -12,5 -23,3 -11,-1 -19,-4 -23,-8l-189 -211 0 0zm-217 432l14 -222 -49 -110 103 -46 49 107 118 83 40 -18 7 79 -80 36 -103 -80 -4 128 -95 43 0 0z"/>
    <path class="fil3" d="M5486 7010c28,0 50,22 50,50 0,27 -22,49 -50,49 -27,0 -49,-22 -49,-49 0,-28 22,-50 49,-50z"/>
    <path class="fil3" d="M6304 7010c28,0 50,22 50,50 0,27 -22,49 -50,49 -27,0 -49,-22 -49,-49 0,-28 22,-50 49,-50z"/>
    <path class="fil6" d="M5622 7184l-60 -10 26 -148 -18 -3 25 -44 60 10 -33 195 0 0zm234 8c0,3 -2,5 -6,9 -3,3 -5,5 -7,4l-153 -11 19 -45 79 5c2,1 4,-2 5,-7l4 -67 -14 44 -73 -5c-3,0 -5,-2 -8,-5 -3,-3 -4,-7 -4,-9l7 -93c0,-2 2,-5 5,-9 4,-4 7,-5 9,-5l124 9c5,0 11,3 17,8 6,4 9,8 9,12l-13 165 0 0zm-58 -117l1 -17c0,-1 0,-2 -1,-3 -1,-1 -1,-1 -2,-1l-27 -2c-1,0 -2,0 -3,1 -1,1 -1,2 -2,3l-1 17c0,1 1,2 1,3 1,1 2,2 3,2l26 2c1,0 2,-1 3,-2 1,-1 2,-2 2,-3zm265 -77l-14 48 -74 6 5 65 12 -41 61 -4c2,-1 5,1 8,3 3,3 5,5 5,8l7 97c1,3 -1,7 -2,11 -2,4 -5,5 -7,6l-144 10 15 -49 66 -5c1,0 2,0 4,-2 1,-2 2,-3 2,-4l-2 -25c0,-1 -1,-2 -2,-3 -2,-1 -3,-2 -3,-1l-81 5 -8 -113 152 -12zm159 176l-59 10 -25 -148 -18 3 9 -50 60 -10 33 195 0 0z"/>
    <path class="fil3" d="M5886 3957c789,0 1429,640 1429,1430 0,789 -640,1429 -1429,1429 -790,0 -1430,-640 -1430,-1429 0,-790 640,-1430 1430,-1430zm0 -26c804,0 1455,652 1455,1456 0,803 -651,1455 -1455,1455 -804,0 -1456,-652 -1456,-1455 0,-804 652,-1456 1456,-1456z"/>
    <path class="fil3" d="M5467 5201c148,-61 285,-38 419,0 137,-36 268,-27 398,0l643 918c-379,-125 -730,-143 -1038,0 -212,-167 -523,-214 -1044,0l622 -918z"/>
    <path class="fil3" d="M5886 5044c135,-35 268,-27 403,1l5 1 8 5 656 936 -22 29 -17 -6c-333,-109 -693,-152 -1020,-1l-7 3 -13 -2 -6 -4c-115,-91 -246,-132 -391,-137 -210,-7 -435,62 -628,141l-17 7 -23 -29 634 -935 6 -5 3 -2c146,-60 283,-43 429,-2z"/>
    <path class="fil5" d="M5467 5069c148,-61 285,-37 419,0 137,-36 268,-27 398,0l643 918c-379,-125 -730,-143 -1038,0 -212,-167 -523,-213 -1044,0l622 -918z"/>
    <path class="fil3" d="M5852 4111c275,0 499,224 499,500 0,275 -224,499 -499,499 -276,0 -500,-224 -500,-499 0,-276 224,-500 500,-500z"/>
    <path class="fil7" d="M5852 4136c262,0 474,213 474,475 0,262 -212,474 -474,474 -262,0 -475,-212 -475,-474 0,-262 213,-475 475,-475z"/>
    <path class="fil3" d="M6529 6480c8,25 13,56 -7,77 -23,26 -66,17 -96,7l-1 -1 -4 -1 -1 -1c-121,-84 -237,-176 -338,-284 -129,-137 -228,-293 -294,-470 -76,-208 -99,-432 -88,-652l1 -10 14 -14 271 3 15 16 -1 11c-6,112 -8,225 0,337 6,92 18,185 40,275 37,152 98,289 193,414 81,107 181,198 288,281l2 2 5 6 1 4 0 0z"/>
    <path class="fil5" d="M5725 5156l250 3c-42,723 160,1041 530,1328 18,56 -4,75 -71,53 -421,-289 -744,-680 -709,-1384l0 0z"/>
    <path class="fil8" d="M5852 4483c39,102 118,292 118,404 0,112 -79,161 -118,263 -40,-102 -119,-151 -119,-263 0,-112 79,-302 119,-404z"/>
    <path class="fil3" d="M5700 5089l303 0c16,0 29,13 29,29l0 18c0,16 -13,30 -29,30l-303 0c-16,0 -29,-14 -29,-30l0 -18c0,-16 13,-29 29,-29z"/>
   </g>
  </g>
 </g>
</svg>
