<?xml version="1.0" encoding="UTF-8"?>
<!DOCTYPE svg PUBLIC "-//W3C//DTD SVG 1.1//EN" "http://www.w3.org/Graphics/SVG/1.1/DTD/svg11.dtd">
<!-- Creator: CorelDRAW X7 -->
<svg xmlns="http://www.w3.org/2000/svg" xml:space="preserve" width="147.145mm" height="85.5581mm" version="1.1" style="shape-rendering:geometricPrecision; text-rendering:geometricPrecision; image-rendering:optimizeQuality; fill-rule:evenodd; clip-rule:evenodd"
viewBox="0 0 2311 1344"
 xmlns:xlink="http://www.w3.org/1999/xlink">
 <defs>
  <style type="text/css">
   <![CDATA[
    .str0 {stroke:#373435;stroke-width:3.14063}
    .fil15 {fill:#E6E7E8}
    .fil13 {fill:#E6E7E8}
    .fil14 {fill:#BDBFC1}
    .fil12 {fill:#BDBFC1}
    .fil4 {fill:#848688}
    .fil3 {fill:#727376}
    .fil18 {fill:#4B4B4D}
    .fil17 {fill:#4B4B4D}
    .fil16 {fill:#002A70}
    .fil1 {fill:#002A70}
    .fil9 {fill:#003674}
    .fil19 {fill:#009DF8}
    .fil11 {fill:#2D7EC1}
    .fil7 {fill:#2E6AC0}
    .fil6 {fill:url(#id0)}
    .fil8 {fill:url(#id1)}
    .fil10 {fill:url(#id2)}
    .fil2 {fill:url(#id3)}
    .fil5 {fill:url(#id4)}
    .fil0 {fill:url(#id5)}
   ]]>
  </style>
  <linearGradient id="id0" gradientUnits="userSpaceOnUse" x1="968.082" y1="1011.44" x2="2053.81" y2="1090.17">
   <stop offset="0" style="stop-opacity:1; stop-color:#0052CE"/>
   <stop offset="1" style="stop-opacity:1; stop-color:#002A70"/>
  </linearGradient>
  <linearGradient id="id1" gradientUnits="userSpaceOnUse" x1="21.8132" y1="696.768" x2="395.853" y2="701.199">
   <stop offset="0" style="stop-opacity:1; stop-color:#1975FF"/>
   <stop offset="1" style="stop-opacity:1; stop-color:#002A70"/>
  </linearGradient>
  <linearGradient id="id2" gradientUnits="userSpaceOnUse" x1="458.267" y1="144.744" x2="2222.21" y2="441.409">
   <stop offset="0" style="stop-opacity:1; stop-color:#2E6AC0"/>
   <stop offset="1" style="stop-opacity:1; stop-color:#002A70"/>
  </linearGradient>
  <linearGradient id="id3" gradientUnits="userSpaceOnUse" x1="1519.49" y1="442.389" x2="1473.51" y2="616.532">
   <stop offset="0" style="stop-opacity:0.529412; stop-color:#4B4B4D"/>
   <stop offset="1" style="stop-opacity:1; stop-color:#FEFEFE"/>
  </linearGradient>
  <linearGradient id="id4" gradientUnits="userSpaceOnUse" xlink:href="#id0" x1="834.12" y1="587.268" x2="2191.4" y2="973.947">
  </linearGradient>
  <linearGradient id="id5" gradientUnits="userSpaceOnUse" x1="624.957" y1="855.844" x2="1888.04" y2="855.844">
   <stop offset="0" style="stop-opacity:1; stop-color:#0061F2"/>
   <stop offset="1" style="stop-opacity:1; stop-color:#00002C"/>
  </linearGradient>
 </defs>
 <g id="Layer_x0020_1">
  <metadata id="CorelCorpID_0Corel-Layer"/>
  <g id="_2218968661056">
   <path class="fil0 str0" d="M241 444l-37 898 2095 0c6,-20 10,-41 10,-62l0 -897 -2078 -13c0,0 2,72 10,74z"/>
   <polygon class="fil1" points="1330,1342 1330,1226 1212,1226 1212,1342 "/>
   <polygon class="fil1" points="1793,1342 1793,1218 1675,1218 1675,1342 "/>
   <polygon class="fil1" points="1941,1342 1941,1212 1823,1212 1823,1342 "/>
   <polygon class="fil1" points="702,1342 702,1113 393,1107 385,1342 "/>
   <path class="fil2" d="M684 434l70 147 1555 44 0 -152c-406,-10 -1626,-40 -1625,-39z"/>
   <g>
    <polygon class="fil3" points="930,586 981,587 990,440 940,439 "/>
    <polygon class="fil3" points="1101,591 1150,592 1175,445 1127,444 "/>
    <polygon class="fil3" points="1451,601 1499,602 1544,454 1496,453 "/>
    <polygon class="fil3" points="1619,605 1668,607 1732,458 1683,457 "/>
    <polygon class="fil3" points="1968,616 2029,617 2150,469 2088,467 "/>
    <polygon class="fil3" points="2131,620 2200,622 2309,513 2309,473 2279,472 "/>
   </g>
   <g>
    <polygon class="fil4" points="939,587 990,589 1000,442 949,441 "/>
    <polygon class="fil4" points="1110,592 1159,594 1184,447 1136,445 "/>
    <polygon class="fil4" points="1460,602 1508,604 1553,456 1505,454 "/>
    <polygon class="fil4" points="1628,607 1677,609 1741,460 1692,459 "/>
    <polygon class="fil4" points="1977,617 2038,619 2159,470 2097,469 "/>
    <polygon class="fil4" points="2140,622 2209,624 2309,524 2309,474 2288,474 "/>
   </g>
   <path class="fil5" d="M725 714l1503 39 81 -18 0 112 -1546 -10 -47 -1c0,0 8,-124 9,-122z"/>
   <path class="fil6" d="M716 990l-3 122 1596 -7 0 -106c-402,-2 -1596,-8 -1593,-9z"/>
   <path class="fil7" d="M1250 572l3 770 41 0 7 -774c0,0 -49,4 -51,4z"/>
   <path class="fil4" d="M1292 489l-38 240 -4 111 47 -2 38 -350c0,0 -40,0 -43,1z"/>
   <path class="fil7" d="M763 73l-21 1269 -48 0 17 -1268c0,0 52,-1 52,-1z"/>
   <path class="fil8" d="M91 62l-62 1280 312 0 47 -1286c0,0 -297,4 -297,6z"/>
   <polygon class="fil9" points="858,753 1179,759 1176,841 857,839 "/>
   <polygon class="fil9" points="861,1027 1178,1030 1175,1112 856,1110 "/>
   <polygon class="fil9" points="1368,761 1688,766 1686,848 1367,847 "/>
   <polygon class="fil9" points="1368,1027 1688,1030 1686,1112 1367,1110 "/>
   <polygon class="fil9" points="1850,773 2168,777 2168,848 1848,847 "/>
   <polygon class="fil9" points="1855,1024 2171,1032 2168,1108 1850,1109 "/>
   <path class="fil10" d="M391 62l-20 383 1938 79 0 -337c-752,-49 -1925,-125 -1918,-125z"/>
   <path class="fil11" d="M10 12l125 5 87 -17 1622 101 465 36 0 27c-922,-60 -2299,-151 -2299,-152z"/>
   <path class="fil9" d="M0 8l19 49 1789 98 501 38 0 -35c-851,-55 -2309,-150 -2309,-150z"/>
   <g>
    <polygon class="fil12" points="652,190 646,284 383,273 394,95 658,105 "/>
    <polygon class="fil13" points="399,100 483,103 478,188 393,184 "/>
    <polygon class="fil13" points="388,269 473,272 478,188 393,184 "/>
    <polygon class="fil13" points="568,107 483,103 478,188 563,191 "/>
    <polygon class="fil13" points="557,275 473,272 478,188 563,191 "/>
    <polygon class="fil13" points="568,107 653,110 647,194 563,191 "/>
    <polygon class="fil13" points="557,275 642,279 647,194 563,191 "/>
    <g>
     <polygon class="fil1" points="566,229 639,232 641,200 568,197 "/>
     <polygon class="fil1" points="563,270 636,273 641,200 568,197 "/>
     <polygon class="fil1" points="574,113 646,116 642,188 569,185 "/>
     <polygon class="fil1" points="554,228 556,197 484,194 481,225 "/>
     <polygon class="fil1" points="552,269 556,197 484,194 479,266 "/>
     <polygon class="fil1" points="562,112 489,110 484,182 557,185 "/>
     <polygon class="fil1" points="397,222 470,225 472,193 399,191 "/>
     <polygon class="fil1" points="394,263 467,266 472,193 399,191 "/>
     <polygon class="fil1" points="404,106 477,109 472,182 400,179 "/>
    </g>
    <g>
     <polygon class="fil13" points="391,228 475,231 478,188 393,184 "/>
     <polygon class="fil13" points="560,235 475,231 478,188 563,191 "/>
     <polygon class="fil13" points="560,235 644,238 647,194 563,191 "/>
    </g>
    <g>
     <polygon class="fil1" points="566,229 639,232 641,200 568,197 "/>
     <polygon class="fil1" points="554,228 556,197 484,194 481,225 "/>
     <polygon class="fil1" points="397,222 470,225 472,193 399,191 "/>
    </g>
   </g>
   <g>
    <g>
     <path class="fil14" d="M936 207c-2,32 -4,63 -6,95 -88,-4 -176,-7 -264,-11 4,-59 8,-119 12,-178 88,3 176,7 264,10 -2,28 -4,56 -6,84z"/>
     <path class="fil15" d="M682 118c29,1 57,2 85,3 -2,28 -4,56 -5,84 -29,-1 -57,-2 -85,-3 2,-28 4,-56 5,-84z"/>
     <path class="fil15" d="M672 286c28,2 56,3 84,4 2,-28 4,-56 6,-85 -29,-1 -57,-2 -85,-3 -2,28 -4,56 -5,84z"/>
     <path class="fil15" d="M852 125c-29,-2 -57,-3 -85,-4 -2,28 -4,56 -5,84 28,2 56,3 84,4 2,-28 4,-56 6,-84z"/>
     <path class="fil15" d="M841 293c-28,-1 -57,-2 -85,-3 2,-28 4,-56 6,-85 28,2 56,3 84,4 -2,28 -3,56 -5,84z"/>
     <path class="fil15" d="M852 125c28,1 56,2 84,3 -2,28 -3,56 -5,84 -28,-1 -57,-2 -85,-3 2,-28 4,-56 6,-84z"/>
     <path class="fil15" d="M841 293c28,1 56,2 84,4 2,-29 4,-57 6,-85 -28,-1 -57,-2 -85,-3 -2,28 -3,56 -5,84z"/>
     <path class="fil16" d="M850 247c24,1 48,2 72,2 1,-10 2,-21 2,-31 -24,-1 -48,-2 -72,-3 -1,11 -2,21 -2,32z"/>
     <path class="fil16" d="M847 287c24,1 49,2 73,3 1,-24 3,-48 4,-72 -24,-1 -48,-2 -72,-3 -2,24 -3,48 -5,72z"/>
     <path class="fil16" d="M857 131c24,1 49,2 73,3 -2,24 -3,48 -5,72 -24,-1 -48,-2 -72,-3 1,-24 3,-48 4,-72z"/>
     <path class="fil16" d="M838 246c0,-10 1,-21 2,-31 -24,-1 -49,-2 -73,-3 -1,10 -1,21 -2,31 24,1 49,2 73,3z"/>
     <path class="fil16" d="M835 287c2,-24 3,-48 5,-72 -24,-1 -49,-2 -73,-3 -1,24 -3,48 -5,72 25,1 49,2 73,3z"/>
     <path class="fil16" d="M845 130c-24,-1 -48,-2 -72,-3 -2,24 -4,49 -5,73 24,1 48,2 73,3 1,-24 3,-49 4,-73z"/>
     <path class="fil16" d="M681 240c24,1 48,2 72,3 1,-11 2,-21 2,-32 -24,-1 -48,-2 -72,-3 -1,11 -2,21 -2,32z"/>
     <path class="fil16" d="M678 281c24,1 48,2 73,3 1,-25 3,-49 4,-73 -24,-1 -48,-2 -72,-3 -2,24 -4,49 -5,73z"/>
     <path class="fil16" d="M688 124c24,1 48,2 73,3 -2,24 -3,48 -5,72 -24,-1 -48,-2 -73,-3 2,-24 3,-48 5,-72z"/>
     <path class="fil15" d="M674 246c28,1 57,2 85,3 1,-15 2,-29 3,-44 -29,-1 -57,-2 -85,-3 -1,15 -2,29 -3,44z"/>
     <path class="fil15" d="M843 252c-28,-1 -56,-2 -84,-3 1,-15 2,-29 3,-44 28,2 56,3 84,4 -1,14 -2,29 -3,43z"/>
     <path class="fil15" d="M843 252c29,1 57,3 85,4 1,-15 2,-29 3,-44 -28,-1 -57,-2 -85,-3 -1,14 -2,29 -3,43z"/>
     <path class="fil16" d="M850 247c24,1 48,2 72,2 1,-10 2,-21 2,-31 -24,-1 -48,-2 -72,-3 -1,11 -2,21 -2,32z"/>
     <path class="fil16" d="M838 246c0,-10 1,-21 2,-31 -24,-1 -49,-2 -73,-3 -1,10 -1,21 -2,31 24,1 49,2 73,3z"/>
     <path class="fil16" d="M681 240c24,1 48,2 72,3 1,-11 2,-21 2,-32 -24,-1 -48,-2 -72,-3 -1,11 -2,21 -2,32z"/>
    </g>
    <g>
     <path class="fil14" d="M1220 225c-2,32 -4,63 -6,94 -88,-3 -176,-7 -264,-10 4,-60 8,-119 11,-179 88,4 176,7 264,11 -2,28 -3,56 -5,84z"/>
     <path class="fil15" d="M966 136c28,1 56,2 85,3 -2,28 -4,56 -6,84 -28,-1 -56,-2 -84,-3 1,-28 3,-56 5,-84z"/>
     <path class="fil15" d="M955 304c28,1 57,2 85,4 2,-29 3,-57 5,-85 -28,-1 -56,-2 -84,-3 -2,28 -4,56 -6,84z"/>
     <path class="fil15" d="M1135 142c-28,-1 -56,-2 -84,-3 -2,28 -4,56 -6,84 28,1 57,2 85,4 2,-29 3,-57 5,-85z"/>
     <path class="fil15" d="M1124 311c-28,-1 -56,-2 -84,-3 2,-29 3,-57 5,-85 28,1 57,2 85,4 -2,28 -4,56 -6,84z"/>
     <path class="fil15" d="M1135 142c28,1 57,3 85,4 -2,28 -4,56 -6,84 -28,-1 -56,-2 -84,-3 2,-29 3,-57 5,-85z"/>
     <path class="fil15" d="M1124 311c29,1 57,2 85,3 2,-28 4,-56 5,-84 -28,-1 -56,-2 -84,-3 -2,28 -4,56 -6,84z"/>
     <path class="fil16" d="M1133 264c25,1 49,2 73,3 1,-10 1,-21 2,-31 -24,-1 -48,-2 -73,-3 0,10 -1,21 -2,31z"/>
     <path class="fil16" d="M1131 305c24,1 48,2 72,3 2,-24 3,-48 5,-72 -24,-1 -48,-2 -73,-3 -1,24 -3,48 -4,72z"/>
     <path class="fil16" d="M1141 148c24,1 48,2 72,3 -1,24 -3,49 -4,73 -24,-1 -49,-2 -73,-3 2,-24 3,-48 5,-73z"/>
     <path class="fil16" d="M1121 264c1,-11 2,-21 2,-32 -24,-1 -48,-2 -72,-3 -1,11 -2,21 -2,32 24,1 48,2 72,3z"/>
     <path class="fil16" d="M1119 305c1,-24 3,-49 4,-73 -24,-1 -48,-2 -72,-3 -2,25 -3,49 -5,73 24,1 49,2 73,3z"/>
     <path class="fil16" d="M1129 148c-24,-1 -49,-2 -73,-3 -1,24 -3,48 -4,73 24,0 48,1 72,2 2,-24 3,-48 5,-72z"/>
     <path class="fil16" d="M964 258c24,1 49,2 73,3 0,-11 1,-22 2,-32 -24,-1 -49,-2 -73,-3 0,11 -1,21 -2,32z"/>
     <path class="fil16" d="M962 299c24,0 48,1 72,2 2,-24 3,-48 5,-72 -24,-1 -49,-2 -73,-3 -1,24 -3,48 -4,73z"/>
     <path class="fil16" d="M972 142c24,1 48,2 72,3 -1,24 -3,48 -4,72 -25,-1 -49,-2 -73,-3 2,-24 3,-48 5,-72z"/>
     <path class="fil15" d="M958 263c28,1 56,3 84,4 1,-15 2,-29 3,-44 -28,-1 -56,-2 -84,-3 -1,14 -2,29 -3,43z"/>
     <path class="fil15" d="M1127 270c-28,-1 -56,-2 -85,-3 1,-15 2,-29 3,-44 28,1 57,2 85,4 -1,14 -2,29 -3,43z"/>
     <path class="fil15" d="M1127 270c28,1 56,2 85,3 1,-14 1,-29 2,-43 -28,-1 -56,-2 -84,-3 -1,14 -2,29 -3,43z"/>
     <path class="fil16" d="M1133 264c25,1 49,2 73,3 1,-10 1,-21 2,-31 -24,-1 -48,-2 -73,-3 0,10 -1,21 -2,31z"/>
     <path class="fil16" d="M1121 264c1,-11 2,-21 2,-32 -24,-1 -48,-2 -72,-3 -1,11 -2,21 -2,32 24,1 48,2 72,3z"/>
     <path class="fil16" d="M964 258c24,1 49,2 73,3 0,-11 1,-22 2,-32 -24,-1 -49,-2 -73,-3 0,11 -1,21 -2,32z"/>
    </g>
    <g>
     <path class="fil14" d="M1503 243c-2,31 -4,63 -6,94 -88,-3 -176,-7 -264,-10 4,-60 8,-119 12,-179 88,4 176,7 264,11 -2,28 -4,56 -6,84z"/>
     <path class="fil15" d="M1250 153c28,1 56,3 84,4 -2,28 -3,56 -5,84 -28,-1 -57,-2 -85,-3 2,-28 4,-57 6,-85z"/>
     <path class="fil15" d="M1239 322c28,1 56,2 84,3 2,-28 4,-56 6,-84 -28,-1 -57,-2 -85,-3 -2,28 -3,56 -5,84z"/>
     <path class="fil15" d="M1419 160c-28,-1 -57,-2 -85,-3 -2,28 -3,56 -5,84 28,1 56,2 84,3 2,-28 4,-56 6,-84z"/>
     <path class="fil15" d="M1408 329c-28,-1 -56,-3 -85,-4 2,-28 4,-56 6,-84 28,1 56,2 84,3 -1,28 -3,57 -5,85z"/>
     <path class="fil15" d="M1419 160c28,1 56,2 84,3 -1,29 -3,57 -5,85 -28,-1 -56,-3 -85,-4 2,-28 4,-56 6,-84z"/>
     <path class="fil15" d="M1408 329c28,1 56,2 85,3 1,-28 3,-56 5,-84 -28,-1 -56,-3 -85,-4 -1,28 -3,57 -5,85z"/>
     <path class="fil16" d="M1417 282c24,1 48,2 73,3 0,-11 1,-21 2,-32 -25,-1 -49,-1 -73,-2 -1,10 -1,21 -2,31z"/>
     <path class="fil16" d="M1414 323c25,1 49,2 73,3 2,-24 3,-48 5,-73 -25,-1 -49,-1 -73,-2 -2,24 -3,48 -5,72z"/>
     <path class="fil16" d="M1424 166c25,1 49,2 73,3 -1,24 -3,48 -5,73 -24,-1 -48,-2 -72,-3 1,-24 3,-49 4,-73z"/>
     <path class="fil16" d="M1405 282c1,-11 1,-21 2,-32 -24,-1 -48,-2 -73,-3 0,11 -1,21 -2,32 25,1 49,2 73,3z"/>
     <path class="fil16" d="M1402 323c2,-25 4,-49 5,-73 -24,-1 -48,-2 -73,-3 -1,24 -3,48 -4,73 24,1 48,2 72,3z"/>
     <path class="fil16" d="M1413 166c-25,-1 -49,-2 -73,-3 -2,24 -3,48 -5,72 24,1 49,2 73,3 1,-24 3,-48 5,-72z"/>
     <path class="fil16" d="M1248 275c24,1 48,2 72,3 1,-10 2,-21 2,-31 -24,-1 -48,-2 -72,-3 -1,10 -2,21 -2,31z"/>
     <path class="fil16" d="M1245 316c24,1 49,2 73,3 1,-24 3,-48 4,-72 -24,-1 -48,-2 -72,-3 -2,24 -3,48 -5,72z"/>
     <path class="fil16" d="M1255 160c24,0 49,1 73,2 -2,25 -3,49 -5,73 -24,-1 -48,-2 -72,-3 1,-24 3,-48 4,-72z"/>
     <path class="fil15" d="M1241 281c29,1 57,2 85,3 1,-14 2,-28 3,-43 -28,-1 -57,-2 -85,-3 -1,14 -2,29 -3,43z"/>
     <path class="fil15" d="M1411 288c-29,-1 -57,-2 -85,-4 1,-14 2,-28 3,-43 28,1 56,2 84,3 0,15 -1,29 -2,44z"/>
     <path class="fil15" d="M1411 288c28,1 56,2 84,3 1,-14 2,-29 3,-43 -28,-1 -56,-3 -85,-4 0,15 -1,29 -2,44z"/>
     <path class="fil16" d="M1417 282c24,1 48,2 73,3 0,-11 1,-21 2,-32 -25,-1 -49,-1 -73,-2 -1,10 -1,21 -2,31z"/>
     <path class="fil16" d="M1405 282c1,-11 1,-21 2,-32 -24,-1 -48,-2 -73,-3 0,11 -1,21 -2,32 25,1 49,2 73,3z"/>
     <path class="fil16" d="M1248 275c24,1 48,2 72,3 1,-10 2,-21 2,-31 -24,-1 -48,-2 -72,-3 -1,10 -2,21 -2,31z"/>
    </g>
    <g>
     <path class="fil14" d="M1787 261c-2,31 -4,63 -6,94 -88,-4 -176,-7 -264,-10 4,-60 8,-120 12,-179 88,3 175,7 263,10 -1,28 -3,57 -5,85z"/>
     <path class="fil15" d="M1533 171c29,1 57,2 85,3 -2,29 -4,57 -6,85 -28,-1 -56,-2 -84,-4 2,-28 4,-56 5,-84z"/>
     <path class="fil15" d="M1522 340c29,1 57,2 85,3 2,-28 4,-56 5,-84 -28,-1 -56,-2 -84,-4 -2,29 -4,57 -6,85z"/>
     <path class="fil15" d="M1703 178c-29,-1 -57,-2 -85,-4 -2,29 -4,57 -6,85 29,1 57,2 85,3 2,-28 4,-56 6,-84z"/>
     <path class="fil15" d="M1692 346c-29,-1 -57,-2 -85,-3 2,-28 4,-56 5,-84 29,1 57,2 85,3 -2,28 -4,56 -5,84z"/>
     <path class="fil15" d="M1703 178c28,1 56,2 84,3 -2,28 -4,56 -5,84 -29,-1 -57,-2 -85,-3 2,-28 4,-56 6,-84z"/>
     <path class="fil15" d="M1692 346c28,2 56,3 84,4 2,-28 4,-56 6,-85 -29,-1 -57,-2 -85,-3 -2,28 -4,56 -5,84z"/>
     <path class="fil16" d="M1701 300c24,1 48,2 72,3 1,-11 2,-21 2,-32 -24,-1 -48,-2 -72,-3 -1,11 -2,21 -2,32z"/>
     <path class="fil16" d="M1698 341c24,1 48,2 73,3 1,-25 3,-49 4,-73 -24,-1 -48,-2 -72,-3 -2,24 -3,49 -5,73z"/>
     <path class="fil16" d="M1708 184c24,1 49,2 73,3 -2,24 -3,48 -5,72 -24,-1 -48,-2 -73,-3 2,-24 4,-48 5,-72z"/>
     <path class="fil16" d="M1689 299c0,-10 1,-21 2,-31 -25,-1 -49,-2 -73,-3 -1,10 -1,21 -2,32 24,1 48,1 73,2z"/>
     <path class="fil16" d="M1686 340c2,-24 3,-48 5,-72 -25,-1 -49,-2 -73,-3 -2,24 -3,48 -5,72 25,1 49,2 73,3z"/>
     <path class="fil16" d="M1696 184c-24,-1 -48,-2 -73,-3 -1,24 -3,48 -4,72 24,1 48,2 72,3 2,-24 4,-48 5,-72z"/>
     <path class="fil16" d="M1531 293c25,1 49,2 73,3 1,-10 1,-21 2,-32 -24,0 -48,-1 -73,-2 0,10 -1,21 -2,31z"/>
     <path class="fil16" d="M1529 334c24,1 48,2 72,3 2,-24 4,-48 5,-73 -24,0 -48,-1 -73,-2 -1,24 -3,48 -4,72z"/>
     <path class="fil16" d="M1539 177c24,1 48,2 73,3 -2,24 -4,48 -5,73 -24,-1 -49,-2 -73,-3 2,-24 3,-49 5,-73z"/>
     <path class="fil15" d="M1525 299c28,1 56,2 85,3 1,-14 2,-29 2,-43 -28,-1 -56,-2 -84,-4 -1,15 -2,29 -3,44z"/>
     <path class="fil15" d="M1694 306c-28,-2 -56,-3 -84,-4 1,-14 2,-29 2,-43 29,1 57,2 85,3 -1,15 -2,29 -3,44z"/>
     <path class="fil15" d="M1694 306c28,1 57,2 85,3 1,-15 2,-29 3,-44 -29,-1 -57,-2 -85,-3 -1,15 -2,29 -3,44z"/>
     <path class="fil16" d="M1701 300c24,1 48,2 72,3 1,-11 2,-21 2,-32 -24,-1 -48,-2 -72,-3 -1,11 -2,21 -2,32z"/>
     <path class="fil16" d="M1689 299c0,-10 1,-21 2,-31 -25,-1 -49,-2 -73,-3 -1,10 -1,21 -2,32 24,1 48,1 73,2z"/>
     <path class="fil16" d="M1531 293c25,1 49,2 73,3 1,-10 1,-21 2,-32 -24,0 -48,-1 -73,-2 0,10 -1,21 -2,31z"/>
    </g>
    <g>
     <path class="fil14" d="M2071 278c-2,32 -4,63 -6,95 -88,-4 -176,-7 -264,-11 4,-59 7,-119 11,-178 88,3 176,7 264,10 -2,28 -4,56 -5,84z"/>
     <path class="fil15" d="M1817 189c28,1 56,2 85,3 -2,28 -4,56 -6,85 -28,-2 -56,-3 -84,-4 1,-28 3,-56 5,-84z"/>
     <path class="fil15" d="M1806 358c28,1 56,2 85,3 1,-28 3,-56 5,-84 -28,-2 -56,-3 -84,-4 -2,28 -4,56 -6,85z"/>
     <path class="fil15" d="M1986 196c-28,-2 -56,-3 -84,-4 -2,28 -4,56 -6,85 28,1 56,2 85,3 2,-28 3,-56 5,-84z"/>
     <path class="fil15" d="M1975 364c-28,-1 -56,-2 -84,-3 1,-28 3,-56 5,-84 28,1 56,2 85,3 -2,28 -4,56 -6,84z"/>
     <path class="fil15" d="M1986 196c28,1 57,2 85,3 -2,28 -4,56 -6,84 -28,-1 -56,-2 -84,-3 2,-28 3,-56 5,-84z"/>
     <path class="fil15" d="M1975 364c28,1 57,2 85,4 2,-29 3,-57 5,-85 -28,-1 -56,-2 -84,-3 -2,28 -4,56 -6,84z"/>
     <path class="fil16" d="M1984 318c24,1 49,2 73,3 1,-11 1,-22 2,-32 -24,-1 -49,-2 -73,-3 0,11 -1,21 -2,32z"/>
     <path class="fil16" d="M1982 359c24,0 48,1 72,2 2,-24 3,-48 5,-72 -24,-1 -49,-2 -73,-3 -1,24 -3,48 -4,73z"/>
     <path class="fil16" d="M1992 202c24,1 48,2 72,3 -1,24 -3,48 -4,72 -25,-1 -49,-2 -73,-3 2,-24 3,-48 5,-72z"/>
     <path class="fil16" d="M1972 317c1,-10 2,-21 2,-31 -24,-1 -48,-2 -72,-3 -1,10 -2,21 -2,31 24,1 48,2 72,3z"/>
     <path class="fil16" d="M1970 358c1,-24 3,-48 4,-72 -24,-1 -48,-2 -72,-3 -2,24 -3,48 -5,72 24,1 48,2 73,3z"/>
     <path class="fil16" d="M1980 201c-24,-1 -49,-2 -73,-3 -1,25 -3,49 -5,73 25,1 49,2 73,3 2,-24 3,-49 5,-73z"/>
     <path class="fil16" d="M1815 311c24,1 48,2 73,3 0,-11 1,-21 2,-32 -24,-1 -49,-2 -73,-3 -1,11 -1,21 -2,32z"/>
     <path class="fil16" d="M1812 352c25,1 49,2 73,3 2,-24 3,-49 5,-73 -24,-1 -49,-2 -73,-3 -1,25 -3,49 -5,73z"/>
     <path class="fil16" d="M1823 195c24,1 48,2 72,3 -1,24 -3,48 -4,72 -25,-1 -49,-2 -73,-3 1,-24 3,-48 5,-72z"/>
     <path class="fil15" d="M1809 317c28,1 56,2 84,3 1,-14 2,-29 3,-43 -28,-2 -56,-3 -84,-4 -1,15 -2,29 -3,44z"/>
     <path class="fil15" d="M1978 323c-28,-1 -57,-2 -85,-3 1,-14 2,-29 3,-43 28,1 56,2 85,3 -1,14 -2,29 -3,43z"/>
     <path class="fil15" d="M1978 323c28,1 56,3 84,4 1,-15 2,-29 3,-44 -28,-1 -56,-2 -84,-3 -1,14 -2,29 -3,43z"/>
     <path class="fil16" d="M1984 318c24,1 49,2 73,3 1,-11 1,-22 2,-32 -24,-1 -49,-2 -73,-3 0,11 -1,21 -2,32z"/>
     <path class="fil16" d="M1972 317c1,-10 2,-21 2,-31 -24,-1 -48,-2 -72,-3 -1,10 -2,21 -2,31 24,1 48,2 72,3z"/>
     <path class="fil16" d="M1815 311c24,1 48,2 73,3 0,-11 1,-21 2,-32 -24,-1 -49,-2 -73,-3 -1,11 -1,21 -2,32z"/>
    </g>
    <g>
     <path class="fil14" d="M2309 389l-225 -9c4,-59 8,-119 12,-179l213 9 0 179z"/>
     <path class="fil15" d="M2101 207c28,1 56,2 84,3 -2,28 -3,56 -5,84 -28,-1 -57,-2 -85,-3 2,-28 4,-56 6,-84z"/>
     <path class="fil15" d="M2090 375c28,1 56,3 84,4 2,-28 4,-57 6,-85 -28,-1 -57,-2 -85,-3 -2,28 -3,56 -5,84z"/>
     <path class="fil15" d="M2270 213c-28,-1 -57,-2 -85,-3 -2,28 -3,56 -5,84 28,1 56,3 84,4 2,-28 4,-57 6,-85z"/>
     <path class="fil15" d="M2259 382c-28,-1 -57,-2 -85,-3 2,-28 4,-57 6,-85 28,1 56,3 84,4 -1,28 -3,56 -5,84z"/>
     <path class="fil15" d="M2270 213l39 2 0 84 -45 -1c2,-28 4,-57 6,-85z"/>
     <path class="fil15" d="M2259 382l50 2 0 -85 -45 -1c-1,28 -3,56 -5,84z"/>
     <path class="fil16" d="M2268 335l41 2 0 -32 -39 -1c-1,10 -1,21 -2,31z"/>
     <path class="fil16" d="M2265 376l44 2 0 -73 -39 -1c-2,24 -3,48 -5,72z"/>
     <path class="fil16" d="M2275 220l34 1 0 72 -38 -1c1,-24 3,-48 4,-72z"/>
     <path class="fil16" d="M2256 335c1,-11 1,-21 2,-32 -24,-1 -48,-2 -73,-3 0,11 -1,22 -2,32 25,1 49,2 73,3z"/>
     <path class="fil16" d="M2253 376c2,-24 3,-48 5,-73 -24,-1 -48,-2 -73,-3 -1,25 -3,49 -4,73 24,1 48,2 72,3z"/>
     <path class="fil16" d="M2263 219c-24,-1 -48,-2 -72,-3 -2,24 -3,48 -5,73 24,1 49,2 73,2 1,-24 3,-48 4,-72z"/>
     <path class="fil16" d="M2099 329c24,1 48,2 72,3 1,-11 2,-21 2,-32 -24,-1 -48,-2 -72,-3 -1,11 -2,21 -2,32z"/>
     <path class="fil16" d="M2096 370c24,1 48,1 73,2 1,-24 3,-48 4,-72 -24,-1 -48,-2 -72,-3 -2,24 -3,48 -5,73z"/>
     <path class="fil16" d="M2106 213c24,1 49,2 73,3 -2,24 -3,48 -5,72 -24,-1 -48,-2 -73,-3 2,-24 4,-48 5,-72z"/>
     <path class="fil15" d="M2092 334c29,2 57,3 85,4 1,-15 2,-29 3,-44 -28,-1 -57,-2 -85,-3 -1,14 -2,29 -3,43z"/>
     <path class="fil15" d="M2262 341c-29,-1 -57,-2 -85,-3 1,-15 2,-29 3,-44 28,1 56,3 84,4 -1,14 -2,29 -2,43z"/>
     <path class="fil15" d="M2262 341l47 2 0 -44 -45 -1c-1,14 -2,29 -2,43z"/>
     <path class="fil16" d="M2268 335l41 2 0 -32 -39 -1c-1,10 -1,21 -2,31z"/>
     <path class="fil16" d="M2256 335c1,-11 1,-21 2,-32 -24,-1 -48,-2 -73,-3 0,11 -1,22 -2,32 25,1 49,2 73,3z"/>
     <path class="fil16" d="M2099 329c24,1 48,2 72,3 1,-11 2,-21 2,-32 -24,-1 -48,-2 -72,-3 -1,11 -2,21 -2,32z"/>
    </g>
   </g>
   <g>
    <g>
     <polygon class="fil17" points="434,445 504,447 500,516 431,514 "/>
     <polygon class="fil17" points="428,583 497,585 500,516 431,514 "/>
     <polygon class="fil17" points="428,583 497,585 494,654 425,652 "/>
     <polygon class="fil17" points="711,453 642,451 639,520 708,522 "/>
     <polygon class="fil17" points="704,590 635,589 639,520 708,522 "/>
     <polygon class="fil17" points="704,590 635,589 632,658 701,659 "/>
     <polygon class="fil17" points="573,449 504,447 500,516 569,518 "/>
     <polygon class="fil17" points="566,587 497,585 500,516 569,518 "/>
     <polygon class="fil17" points="566,587 497,585 494,654 563,656 "/>
     <polygon class="fil17" points="573,449 642,451 639,520 569,518 "/>
     <polygon class="fil17" points="566,587 635,589 639,520 569,518 "/>
     <polygon class="fil17" points="566,587 635,589 632,658 563,656 "/>
    </g>
    <g>
     <polygon class="fil1" points="573,594 628,595 626,651 570,649 "/>
     <polygon class="fil1" points="573,580 629,582 631,526 576,525 "/>
     <polygon class="fil1" points="579,456 635,457 632,513 577,511 "/>
     <polygon class="fil1" points="559,594 504,592 501,648 557,649 "/>
     <polygon class="fil1" points="560,580 562,525 507,523 504,579 "/>
     <polygon class="fil1" points="565,456 510,454 507,510 563,511 "/>
     <polygon class="fil1" points="697,597 642,596 639,651 695,653 "/>
     <polygon class="fil1" points="698,584 700,528 645,527 642,582 "/>
     <polygon class="fil1" points="704,459 648,458 646,513 701,515 "/>
     <polygon class="fil1" points="435,590 490,592 488,647 432,646 "/>
     <polygon class="fil1" points="435,577 491,578 493,523 438,521 "/>
     <polygon class="fil1" points="441,452 496,454 494,509 438,508 "/>
    </g>
   </g>
   <g>
    <g>
     <polygon class="fil17" points="433,759 502,761 499,830 430,828 "/>
     <polygon class="fil17" points="427,897 496,899 499,830 430,828 "/>
     <polygon class="fil17" points="427,897 496,899 493,968 424,966 "/>
     <polygon class="fil17" points="709,766 640,764 637,833 706,835 "/>
     <polygon class="fil17" points="703,904 634,902 637,833 706,835 "/>
     <polygon class="fil17" points="703,904 634,902 631,971 700,973 "/>
     <polygon class="fil17" points="571,763 502,761 499,830 568,832 "/>
     <polygon class="fil17" points="565,901 496,899 499,830 568,832 "/>
     <polygon class="fil17" points="565,901 496,899 493,968 562,970 "/>
     <polygon class="fil17" points="571,763 640,764 637,833 568,832 "/>
     <polygon class="fil17" points="565,901 634,902 637,833 568,832 "/>
     <polygon class="fil17" points="565,901 634,902 631,971 562,970 "/>
    </g>
    <g>
     <polygon class="fil1" points="571,907 627,909 624,964 569,963 "/>
     <polygon class="fil1" points="572,894 628,895 630,840 575,839 "/>
     <polygon class="fil1" points="578,770 633,771 631,826 575,825 "/>
     <polygon class="fil1" points="558,907 502,906 500,961 555,963 "/>
     <polygon class="fil1" points="559,894 561,838 506,837 503,892 "/>
     <polygon class="fil1" points="564,769 509,768 506,823 562,825 "/>
     <polygon class="fil1" points="696,911 641,909 638,965 693,966 "/>
     <polygon class="fil1" points="697,897 699,842 644,840 641,896 "/>
     <polygon class="fil1" points="702,773 647,771 644,827 700,828 "/>
     <polygon class="fil1" points="433,904 489,905 486,961 431,959 "/>
     <polygon class="fil1" points="434,890 489,892 492,836 436,835 "/>
     <polygon class="fil1" points="440,766 495,767 493,823 437,821 "/>
    </g>
   </g>
   <g>
    <g>
     <polygon class="fil18" points="968,617 1036,619 1033,655 965,654 "/>
     <polygon class="fil18" points="963,690 1030,691 1033,655 965,654 "/>
     <polygon class="fil18" points="1103,620 1036,619 1033,655 1101,656 "/>
     <polygon class="fil18" points="1098,693 1030,691 1033,655 1101,656 "/>
    </g>
    <g>
     <polygon class="fil1" points="1091,685 1093,663 1040,662 1038,684 "/>
     <polygon class="fil1" points="1096,627 1042,626 1041,648 1094,649 "/>
     <polygon class="fil1" points="970,683 1024,684 1025,662 972,661 "/>
     <polygon class="fil1" points="975,624 973,647 1026,648 1028,626 "/>
    </g>
   </g>
   <g>
    <g>
     <polygon class="fil18" points="968,882 1036,884 1033,920 965,919 "/>
     <polygon class="fil18" points="963,955 1030,956 1033,920 965,919 "/>
     <polygon class="fil18" points="1103,885 1036,884 1033,920 1101,921 "/>
     <polygon class="fil18" points="1098,958 1030,956 1033,920 1101,921 "/>
    </g>
    <g>
     <polygon class="fil1" points="1091,950 1093,928 1040,927 1038,949 "/>
     <polygon class="fil1" points="1096,892 1042,891 1041,913 1094,914 "/>
     <polygon class="fil1" points="970,948 1024,949 1025,927 972,926 "/>
     <polygon class="fil1" points="975,889 973,912 1026,913 1028,891 "/>
    </g>
   </g>
   <g>
    <g>
     <polygon class="fil18" points="968,1142 1036,1143 1033,1179 965,1179 "/>
     <polygon class="fil18" points="963,1215 1030,1215 1033,1179 965,1179 "/>
     <polygon class="fil18" points="1103,1143 1036,1143 1033,1179 1101,1179 "/>
     <polygon class="fil18" points="1098,1216 1030,1215 1033,1179 1101,1179 "/>
    </g>
    <g>
     <polygon class="fil1" points="1091,1209 1093,1186 1040,1186 1038,1208 "/>
     <polygon class="fil1" points="1096,1150 1042,1150 1041,1172 1094,1172 "/>
     <polygon class="fil1" points="970,1208 1024,1208 1025,1186 972,1186 "/>
     <polygon class="fil1" points="975,1149 973,1172 1026,1172 1028,1150 "/>
    </g>
   </g>
   <g>
    <g>
     <polygon class="fil18" points="1322,624 1390,626 1387,663 1319,661 "/>
     <polygon class="fil18" points="1317,697 1384,699 1387,663 1319,661 "/>
     <polygon class="fil18" points="1457,628 1390,626 1387,663 1455,665 "/>
     <polygon class="fil18" points="1452,701 1384,699 1387,663 1455,665 "/>
    </g>
    <g>
     <polygon class="fil1" points="1445,694 1447,672 1394,670 1392,692 "/>
     <polygon class="fil1" points="1450,635 1396,634 1395,656 1448,657 "/>
     <polygon class="fil1" points="1325,690 1378,692 1379,670 1326,668 "/>
     <polygon class="fil1" points="1329,632 1327,654 1380,656 1382,633 "/>
    </g>
   </g>
   <g>
    <g>
     <polygon class="fil18" points="1322,878 1390,879 1387,915 1319,915 "/>
     <polygon class="fil18" points="1317,951 1384,952 1387,915 1319,915 "/>
     <polygon class="fil18" points="1457,879 1390,879 1387,915 1455,916 "/>
     <polygon class="fil18" points="1452,952 1384,952 1387,915 1455,916 "/>
    </g>
    <g>
     <polygon class="fil1" points="1445,945 1447,923 1394,922 1392,945 "/>
     <polygon class="fil1" points="1450,887 1396,886 1395,908 1448,909 "/>
     <polygon class="fil1" points="1325,944 1378,945 1379,922 1326,922 "/>
     <polygon class="fil1" points="1329,886 1327,908 1380,908 1382,886 "/>
    </g>
   </g>
   <g>
    <g>
     <polygon class="fil18" points="1322,1134 1390,1134 1387,1171 1319,1170 "/>
     <polygon class="fil18" points="1317,1206 1384,1207 1387,1171 1319,1170 "/>
     <polygon class="fil18" points="1457,1135 1390,1134 1387,1171 1455,1171 "/>
     <polygon class="fil18" points="1452,1208 1384,1207 1387,1171 1455,1171 "/>
    </g>
    <g>
     <polygon class="fil1" points="1445,1200 1447,1178 1394,1178 1392,1200 "/>
     <polygon class="fil1" points="1450,1142 1396,1141 1395,1164 1448,1164 "/>
     <polygon class="fil1" points="1325,1199 1378,1200 1379,1178 1326,1177 "/>
     <polygon class="fil1" points="1329,1141 1327,1163 1380,1164 1382,1141 "/>
    </g>
   </g>
   <g>
    <g>
     <polygon class="fil18" points="797,611 865,611 862,648 794,647 "/>
     <polygon class="fil18" points="792,684 859,684 862,648 794,647 "/>
     <polygon class="fil18" points="932,611 865,611 862,648 930,648 "/>
     <polygon class="fil18" points="927,684 859,684 862,648 930,648 "/>
    </g>
    <g>
     <polygon class="fil1" points="920,677 922,655 869,655 867,677 "/>
     <polygon class="fil1" points="924,618 871,618 870,640 923,641 "/>
     <polygon class="fil1" points="799,677 853,677 854,655 801,655 "/>
     <polygon class="fil1" points="804,618 802,640 855,640 857,618 "/>
    </g>
   </g>
   <g>
    <g>
     <polygon class="fil18" points="797,876 865,876 862,913 794,912 "/>
     <polygon class="fil18" points="792,949 859,949 862,913 794,912 "/>
     <polygon class="fil18" points="932,876 865,876 862,913 930,913 "/>
     <polygon class="fil18" points="927,949 859,949 862,913 930,913 "/>
    </g>
    <g>
     <polygon class="fil1" points="920,942 922,920 869,920 867,942 "/>
     <polygon class="fil1" points="924,883 871,883 870,905 923,906 "/>
     <polygon class="fil1" points="799,942 853,942 854,920 801,920 "/>
     <polygon class="fil1" points="804,883 802,905 855,905 857,883 "/>
    </g>
   </g>
   <g>
    <g>
     <polygon class="fil18" points="797,1136 865,1136 862,1173 794,1173 "/>
     <polygon class="fil18" points="792,1209 859,1209 862,1173 794,1173 "/>
     <polygon class="fil18" points="932,1136 865,1136 862,1173 930,1173 "/>
     <polygon class="fil18" points="927,1209 859,1209 862,1173 930,1173 "/>
    </g>
    <g>
     <polygon class="fil1" points="920,1202 922,1180 869,1180 867,1202 "/>
     <polygon class="fil1" points="924,1143 871,1143 870,1166 923,1166 "/>
     <polygon class="fil1" points="799,1202 853,1202 854,1180 801,1180 "/>
     <polygon class="fil1" points="804,1143 802,1166 855,1166 857,1143 "/>
    </g>
   </g>
   <g>
    <g>
     <polygon class="fil18" points="1095,619 1162,620 1160,657 1092,655 "/>
     <polygon class="fil18" points="1090,691 1157,693 1160,657 1092,655 "/>
     <polygon class="fil18" points="1230,622 1162,620 1160,657 1227,658 "/>
     <polygon class="fil18" points="1225,694 1157,693 1160,657 1227,658 "/>
    </g>
    <g>
     <polygon class="fil1" points="1218,687 1220,665 1166,664 1165,686 "/>
     <polygon class="fil1" points="1222,629 1169,627 1167,650 1221,651 "/>
     <polygon class="fil1" points="1097,685 1150,686 1152,663 1099,662 "/>
     <polygon class="fil1" points="1101,626 1100,648 1153,649 1155,627 "/>
    </g>
   </g>
   <g>
    <g>
     <polygon class="fil18" points="1095,884 1162,885 1160,922 1092,920 "/>
     <polygon class="fil18" points="1090,956 1157,958 1160,922 1092,920 "/>
     <polygon class="fil18" points="1230,887 1162,885 1160,922 1227,923 "/>
     <polygon class="fil18" points="1225,959 1157,958 1160,922 1227,923 "/>
    </g>
    <g>
     <polygon class="fil1" points="1218,952 1220,930 1166,929 1165,951 "/>
     <polygon class="fil1" points="1222,894 1169,892 1167,915 1221,916 "/>
     <polygon class="fil1" points="1097,949 1150,951 1152,928 1099,927 "/>
     <polygon class="fil1" points="1101,891 1100,913 1153,914 1155,892 "/>
    </g>
   </g>
   <g>
    <g>
     <polygon class="fil18" points="1095,1142 1162,1142 1160,1179 1092,1178 "/>
     <polygon class="fil18" points="1090,1215 1157,1215 1160,1179 1092,1178 "/>
     <polygon class="fil18" points="1230,1143 1162,1142 1160,1179 1227,1179 "/>
     <polygon class="fil18" points="1225,1215 1157,1215 1160,1179 1227,1179 "/>
    </g>
    <g>
     <polygon class="fil1" points="1218,1208 1220,1186 1166,1186 1165,1208 "/>
     <polygon class="fil1" points="1222,1150 1169,1149 1167,1172 1221,1172 "/>
     <polygon class="fil1" points="1097,1208 1150,1208 1152,1186 1099,1185 "/>
     <polygon class="fil1" points="1101,1149 1100,1171 1153,1172 1155,1149 "/>
    </g>
   </g>
   <g>
    <g>
     <polygon class="fil18" points="1449,627 1516,629 1514,665 1446,663 "/>
     <polygon class="fil18" points="1444,700 1511,702 1514,665 1446,663 "/>
     <polygon class="fil18" points="1584,631 1516,629 1514,665 1581,667 "/>
     <polygon class="fil18" points="1579,704 1511,702 1514,665 1581,667 "/>
    </g>
    <g>
     <polygon class="fil1" points="1572,696 1574,674 1520,673 1519,695 "/>
     <polygon class="fil1" points="1576,638 1523,636 1521,659 1575,660 "/>
     <polygon class="fil1" points="1451,693 1505,694 1506,672 1453,671 "/>
     <polygon class="fil1" points="1455,634 1454,657 1507,658 1509,636 "/>
    </g>
   </g>
   <g>
    <g>
     <polygon class="fil18" points="1449,880 1516,881 1514,917 1446,917 "/>
     <polygon class="fil18" points="1444,953 1511,953 1514,917 1446,917 "/>
     <polygon class="fil18" points="1584,881 1516,881 1514,917 1581,918 "/>
     <polygon class="fil18" points="1579,954 1511,953 1514,917 1581,918 "/>
    </g>
    <g>
     <polygon class="fil1" points="1572,947 1574,925 1520,924 1519,946 "/>
     <polygon class="fil1" points="1576,888 1523,888 1521,910 1575,910 "/>
     <polygon class="fil1" points="1451,946 1505,946 1506,924 1453,924 "/>
     <polygon class="fil1" points="1455,887 1454,909 1507,910 1509,888 "/>
    </g>
   </g>
   <g>
    <g>
     <polygon class="fil18" points="1449,1135 1516,1136 1514,1172 1446,1172 "/>
     <polygon class="fil18" points="1444,1208 1511,1209 1514,1172 1446,1172 "/>
     <polygon class="fil18" points="1584,1137 1516,1136 1514,1172 1581,1173 "/>
     <polygon class="fil18" points="1579,1209 1511,1209 1514,1172 1581,1173 "/>
    </g>
    <g>
     <polygon class="fil1" points="1572,1202 1574,1180 1520,1180 1519,1202 "/>
     <polygon class="fil1" points="1576,1144 1523,1143 1521,1165 1575,1166 "/>
     <polygon class="fil1" points="1451,1201 1505,1202 1506,1179 1453,1179 "/>
     <polygon class="fil1" points="1455,1143 1454,1165 1507,1165 1509,1143 "/>
    </g>
   </g>
   <g>
    <g>
     <polygon class="fil18" points="1610,630 1678,632 1675,668 1608,666 "/>
     <polygon class="fil18" points="1605,702 1673,704 1675,668 1608,666 "/>
     <polygon class="fil18" points="1745,634 1678,632 1675,668 1743,670 "/>
     <polygon class="fil18" points="1740,706 1673,704 1675,668 1743,670 "/>
    </g>
    <g>
     <polygon class="fil1" points="1734,699 1735,677 1682,675 1680,697 "/>
     <polygon class="fil1" points="1738,640 1684,639 1683,661 1736,663 "/>
     <polygon class="fil1" points="1613,695 1666,697 1668,675 1614,673 "/>
     <polygon class="fil1" points="1617,637 1615,659 1669,661 1670,638 "/>
    </g>
   </g>
   <g>
    <g>
     <polygon class="fil18" points="1610,882 1678,883 1675,919 1608,918 "/>
     <polygon class="fil18" points="1605,955 1673,955 1675,919 1608,918 "/>
     <polygon class="fil18" points="1745,883 1678,883 1675,919 1743,920 "/>
     <polygon class="fil18" points="1740,956 1673,955 1675,919 1743,920 "/>
    </g>
    <g>
     <polygon class="fil1" points="1734,949 1735,927 1682,926 1680,948 "/>
     <polygon class="fil1" points="1738,890 1684,890 1683,912 1736,912 "/>
     <polygon class="fil1" points="1613,948 1666,948 1668,926 1614,926 "/>
     <polygon class="fil1" points="1617,889 1615,911 1669,912 1670,890 "/>
    </g>
   </g>
   <g>
    <g>
     <polygon class="fil18" points="1610,1137 1678,1138 1675,1174 1608,1174 "/>
     <polygon class="fil18" points="1605,1210 1673,1211 1675,1174 1608,1174 "/>
     <polygon class="fil18" points="1745,1138 1678,1138 1675,1174 1743,1175 "/>
     <polygon class="fil18" points="1740,1211 1673,1211 1675,1174 1743,1175 "/>
    </g>
    <g>
     <polygon class="fil1" points="1734,1204 1735,1182 1682,1181 1680,1204 "/>
     <polygon class="fil1" points="1738,1146 1684,1145 1683,1167 1736,1168 "/>
     <polygon class="fil1" points="1613,1203 1666,1204 1668,1181 1614,1181 "/>
     <polygon class="fil1" points="1617,1145 1615,1167 1669,1167 1670,1145 "/>
    </g>
   </g>
   <g>
    <g>
     <polygon class="fil18" points="1861,639 1928,641 1926,677 1858,675 "/>
     <polygon class="fil18" points="1855,712 1923,714 1926,677 1858,675 "/>
     <polygon class="fil18" points="1996,643 1928,641 1926,677 1993,679 "/>
     <polygon class="fil18" points="1991,716 1923,714 1926,677 1993,679 "/>
    </g>
    <g>
     <polygon class="fil1" points="1984,708 1986,686 1932,685 1931,707 "/>
     <polygon class="fil1" points="1988,650 1935,648 1933,671 1987,672 "/>
     <polygon class="fil1" points="1863,705 1916,706 1918,684 1865,683 "/>
     <polygon class="fil1" points="1867,646 1866,669 1919,670 1921,648 "/>
    </g>
   </g>
   <g>
    <g>
     <polygon class="fil18" points="1861,881 1928,883 1926,919 1858,917 "/>
     <polygon class="fil18" points="1855,953 1923,955 1926,919 1858,917 "/>
     <polygon class="fil18" points="1996,885 1928,883 1926,919 1993,921 "/>
     <polygon class="fil18" points="1991,957 1923,955 1926,919 1993,921 "/>
    </g>
    <g>
     <polygon class="fil1" points="1984,950 1986,928 1932,926 1931,948 "/>
     <polygon class="fil1" points="1988,892 1935,890 1933,912 1987,914 "/>
     <polygon class="fil1" points="1863,946 1916,948 1918,926 1865,924 "/>
     <polygon class="fil1" points="1867,888 1866,910 1919,912 1921,890 "/>
    </g>
   </g>
   <g>
    <g>
     <polygon class="fil18" points="1861,1126 1928,1128 1926,1165 1858,1163 "/>
     <polygon class="fil18" points="1855,1199 1923,1201 1926,1165 1858,1163 "/>
     <polygon class="fil18" points="1996,1130 1928,1128 1926,1165 1993,1167 "/>
     <polygon class="fil18" points="1991,1203 1923,1201 1926,1165 1993,1167 "/>
    </g>
    <g>
     <polygon class="fil1" points="1984,1196 1986,1174 1932,1172 1931,1194 "/>
     <polygon class="fil1" points="1988,1137 1935,1136 1933,1158 1987,1159 "/>
     <polygon class="fil1" points="1863,1192 1916,1194 1918,1172 1865,1170 "/>
     <polygon class="fil1" points="1867,1134 1866,1156 1919,1157 1921,1135 "/>
    </g>
   </g>
   <g>
    <g>
     <polygon class="fil18" points="2036,642 2104,644 2101,680 2034,678 "/>
     <polygon class="fil18" points="2031,714 2099,716 2101,680 2034,678 "/>
     <polygon class="fil18" points="2172,646 2104,644 2101,680 2169,682 "/>
     <polygon class="fil18" points="2166,718 2099,716 2101,680 2169,682 "/>
    </g>
    <g>
     <polygon class="fil1" points="2160,711 2161,689 2108,687 2107,709 "/>
     <polygon class="fil1" points="2164,652 2111,651 2109,673 2162,675 "/>
     <polygon class="fil1" points="2039,707 2092,709 2094,687 2041,685 "/>
     <polygon class="fil1" points="2043,649 2042,671 2095,673 2096,650 "/>
    </g>
   </g>
   <g>
    <g>
     <polygon class="fil18" points="2036,883 2104,885 2101,921 2034,919 "/>
     <polygon class="fil18" points="2031,956 2099,958 2101,921 2034,919 "/>
     <polygon class="fil18" points="2172,887 2104,885 2101,921 2169,923 "/>
     <polygon class="fil18" points="2166,960 2099,958 2101,921 2169,923 "/>
    </g>
    <g>
     <polygon class="fil1" points="2160,952 2161,930 2108,929 2107,951 "/>
     <polygon class="fil1" points="2164,894 2111,892 2109,915 2162,916 "/>
     <polygon class="fil1" points="2039,949 2092,950 2094,928 2041,927 "/>
     <polygon class="fil1" points="2043,890 2042,913 2095,914 2096,892 "/>
    </g>
   </g>
   <g>
    <g>
     <polygon class="fil18" points="2036,1129 2104,1131 2101,1167 2034,1165 "/>
     <polygon class="fil18" points="2031,1201 2099,1203 2101,1167 2034,1165 "/>
     <polygon class="fil18" points="2172,1133 2104,1131 2101,1167 2169,1169 "/>
     <polygon class="fil18" points="2166,1205 2099,1203 2101,1167 2169,1169 "/>
    </g>
    <g>
     <polygon class="fil1" points="2160,1198 2161,1176 2108,1174 2107,1197 "/>
     <polygon class="fil1" points="2164,1140 2111,1138 2109,1160 2162,1162 "/>
     <polygon class="fil1" points="2039,1195 2092,1196 2094,1174 2041,1172 "/>
     <polygon class="fil1" points="2043,1136 2042,1158 2095,1160 2096,1138 "/>
    </g>
   </g>
   <g>
    <g>
     <polygon class="fil18" points="2168,645 2236,647 2233,683 2166,681 "/>
     <polygon class="fil18" points="2163,717 2231,719 2233,683 2166,681 "/>
     <polygon class="fil18" points="2303,649 2236,647 2233,683 2301,685 "/>
     <polygon class="fil18" points="2298,721 2231,719 2233,683 2301,685 "/>
    </g>
    <g>
     <polygon class="fil1" points="2292,714 2293,692 2240,690 2238,712 "/>
     <polygon class="fil1" points="2296,655 2243,654 2241,676 2294,678 "/>
     <polygon class="fil1" points="2171,710 2224,712 2226,690 2172,688 "/>
     <polygon class="fil1" points="2175,652 2173,674 2227,676 2228,653 "/>
    </g>
   </g>
   <g>
    <g>
     <polygon class="fil18" points="2168,886 2236,888 2233,924 2166,922 "/>
     <polygon class="fil18" points="2163,959 2231,961 2233,924 2166,922 "/>
     <polygon class="fil18" points="2303,890 2236,888 2233,924 2301,926 "/>
     <polygon class="fil18" points="2298,963 2231,961 2233,924 2301,926 "/>
    </g>
    <g>
     <polygon class="fil1" points="2292,955 2293,933 2240,932 2238,954 "/>
     <polygon class="fil1" points="2296,897 2243,895 2241,918 2294,919 "/>
     <polygon class="fil1" points="2171,952 2224,953 2226,931 2172,930 "/>
     <polygon class="fil1" points="2175,893 2173,916 2227,917 2228,895 "/>
    </g>
   </g>
   <g>
    <g>
     <polygon class="fil18" points="2168,1132 2236,1134 2233,1170 2166,1168 "/>
     <polygon class="fil18" points="2163,1204 2231,1206 2233,1170 2166,1168 "/>
     <polygon class="fil18" points="2303,1136 2236,1134 2233,1170 2301,1172 "/>
     <polygon class="fil18" points="2298,1208 2231,1206 2233,1170 2301,1172 "/>
    </g>
    <g>
     <polygon class="fil1" points="2292,1201 2293,1179 2240,1177 2238,1200 "/>
     <polygon class="fil1" points="2296,1143 2243,1141 2241,1163 2294,1165 "/>
     <polygon class="fil1" points="2171,1198 2224,1199 2226,1177 2172,1175 "/>
     <polygon class="fil1" points="2175,1139 2173,1161 2227,1163 2228,1141 "/>
    </g>
   </g>
   <path class="fil7" d="M1739 582l26 760 45 0 -20 -762c0,0 -51,4 -51,2z"/>
   <path class="fil4" d="M1826 517l-68 233 4 89 35 2 83 -324c0,0 -50,1 -54,0z"/>
   <path class="fil3" d="M1824 523l-66 227 4 88c0,1 0,1 0,1l64 -322 0 0 -2 6z"/>
   <polygon class="fil3" points="1291,496 1254,729 1250,834 1293,489 1293,489 "/>
   <path class="fil9" d="M717 386l10 4c-1,6 -4,10 -7,12 -4,3 -9,4 -14,4 -7,-1 -13,-3 -17,-8 -5,-5 -7,-12 -7,-20 0,-8 2,-15 7,-20 4,-4 10,-6 17,-6 7,0 12,2 16,6 2,3 4,6 5,10l-10 2c-1,-2 -2,-5 -4,-6 -2,-2 -4,-3 -7,-3 -4,0 -7,1 -9,4 -3,2 -4,7 -4,13 0,6 1,11 4,14 2,3 5,5 9,5 3,0 5,-1 7,-3 2,-1 3,-4 4,-8zm66 23l-11 -1 -5 -12 -20 -1 -5 12 -11 -1 20 -51 11 1 21 53zm-19 -22l-7 -19 -7 18 14 1zm25 22l0 -52 11 1 0 43 26 1 0 9 -37 -2zm44 -50l19 1c5,0 8,1 10,2 3,1 6,2 8,5 2,2 4,5 5,8 1,4 2,8 2,13 0,4 -1,8 -2,11 -1,4 -3,7 -5,9 -2,1 -5,3 -8,4 -2,0 -5,0 -9,0l-20 -1 0 -52zm11 10l0 34 8 0c2,0 5,0 6,0 2,0 3,-1 4,-2 1,-1 2,-2 3,-5 1,-2 1,-5 1,-9 0,-4 0,-7 -1,-9 -1,-3 -2,-4 -3,-6 -1,-1 -3,-2 -5,-2 -1,-1 -4,-1 -9,-1l-4 0zm49 45l-12 -52 10 0 8 36 10 -35 12 1 9 36 8 -36 11 1 -13 51 -11 0 -10 -40 -11 39 -11 -1zm61 3l0 -52 39 2 0 9 -28 -1 0 11 26 1 0 9 -26 -1 0 14 29 1 0 9 -40 -2zm49 3l0 -52 10 1 0 42 26 2 0 8 -36 -1zm44 2l0 -52 11 1 0 43 26 1 0 9 -37 -2zm188 9l-11 -1 -5 -12 -21 -1 -4 12 -11 -1 20 -50 11 0 21 53zm-19 -22l-8 -19 -7 19 15 0zm25 -30l19 1c4,1 7,1 10,2 3,1 5,3 7,5 3,2 4,5 5,9 1,3 2,7 2,12 0,4 -1,8 -2,11 -1,4 -3,7 -5,9 -2,2 -4,3 -7,4 -3,0 -6,1 -10,0l-19 -1 0 -52zm10 10l0 34 8 0c3,1 5,1 6,0 2,0 3,-1 4,-2 2,-1 2,-2 3,-5 1,-2 1,-5 1,-9 0,-4 0,-7 -1,-9 -1,-3 -2,-4 -3,-6 -1,-1 -3,-2 -5,-2 -1,-1 -4,-1 -8,-1l-5 0zm55 46l-18 -53 11 0 13 39 13 -37 11 0 -18 51 -12 0zm35 1l0 -52 39 2 0 9 -28 -1 0 11 26 1 0 9 -26 -1 0 14 29 1 0 9 -40 -2zm49 3l0 -52 10 0 21 36 0 -35 10 1 0 52 -10 -1 -21 -35 0 34 -10 0zm64 3l0 -43 -15 -1 0 -9 41 2 0 9 -16 -1 0 43 -10 0zm32 1l0 -51 11 0 0 52 -11 -1zm18 -15l10 -1c1,3 2,6 4,8 2,1 4,2 8,3 3,0 5,-1 7,-2 2,-2 3,-3 3,-5 0,-1 -1,-2 -1,-3 -1,-1 -2,-2 -4,-3 -1,0 -4,-1 -9,-2 -5,-2 -9,-4 -11,-6 -3,-3 -5,-7 -5,-11 0,-3 1,-5 2,-7 2,-3 4,-4 7,-5 2,-1 6,-2 10,-2 6,1 11,2 15,6 3,3 5,7 5,11l-11 0c0,-3 -1,-4 -3,-6 -1,-1 -3,-2 -6,-2 -3,0 -6,1 -7,2 -1,0 -2,2 -2,3 0,1 0,2 2,3 1,1 4,3 9,4 5,2 9,3 11,4 3,2 5,4 6,6 2,2 2,5 2,8 0,3 -1,6 -2,9 -2,2 -4,4 -7,5 -3,1 -7,2 -12,1 -6,0 -11,-2 -15,-5 -3,-3 -5,-8 -6,-13zm63 19l0 -43 -16 0 0 -9 42 2 0 9 -16 -1 0 43 -10 -1zm177 9l-11 0 -4 -12 -21 -1 -5 11 -11 0 21 -51 11 0 20 53zm-19 -21l-7 -20 -7 19 14 1zm58 4l10 4c-1,5 -4,9 -7,12 -4,3 -9,4 -14,3 -7,0 -13,-3 -17,-7 -5,-5 -7,-12 -7,-20 0,-9 2,-15 7,-20 4,-5 10,-7 17,-6 7,0 12,2 16,6 2,2 4,6 5,10l-10 2c-1,-3 -2,-5 -4,-7 -2,-1 -4,-2 -7,-2 -4,0 -7,1 -9,3 -3,3 -4,7 -4,14 0,6 1,11 4,14 2,3 5,4 9,4 3,1 5,0 7,-2 2,-2 3,-4 4,-8zm66 22l-11 0 -5 -12 -20 -1 -5 11 -11 0 20 -51 11 0 21 53zm-19 -21l-7 -20 -7 19 14 1zm25 -30l19 1c4,0 8,0 10,1 3,1 6,3 8,5 2,3 4,6 5,9 1,3 1,7 1,12 0,5 0,8 -1,11 -2,4 -3,7 -6,9 -2,2 -4,3 -7,4 -2,1 -6,1 -9,1l-20 -1 0 -52zm10 9l0 34 8 1c3,0 5,0 7,0 1,-1 3,-1 4,-2 1,-1 2,-3 3,-5 0,-2 1,-6 1,-10 0,-4 -1,-7 -1,-9 -1,-2 -2,-4 -3,-5 -2,-1 -3,-2 -5,-3 -2,0 -5,-1 -9,-1l-5 0zm42 45l0 -52 39 2 0 9 -28 -1 0 11 26 1 0 9 -26 -1 0 14 29 1 0 9 -40 -2zm49 3l0 -52 15 0 10 36 9 -35 16 1 0 52 -10 0 0 -41 -10 40 -10 0 -11 -42 0 41 -9 0zm74 3l0 -22 -19 -31 12 1 12 21 12 -20 12 1 -19 29 0 22 -10 -1z"/>
   <path class="fil19" d="M720 384l10 4c-1,5 -4,9 -7,12 -4,3 -9,4 -14,3 -7,0 -13,-3 -17,-8 -5,-4 -7,-11 -7,-19 0,-9 2,-15 7,-20 4,-5 10,-7 17,-6 7,0 12,2 16,6 2,2 4,6 5,10l-10 2c-1,-3 -2,-5 -4,-7 -2,-1 -4,-2 -7,-2 -4,-1 -7,1 -9,3 -3,3 -4,7 -4,14 0,6 1,11 4,14 2,3 5,4 9,4 3,1 5,0 7,-2 2,-2 3,-4 4,-8zm66 22l-11 0 -5 -12 -20 -1 -5 11 -11 0 20 -51 11 0 21 53zm-19 -21l-7 -20 -7 19 14 1zm25 22l0 -52 11 1 0 42 26 2 0 8 -37 -1zm44 -50l19 1c5,0 8,0 10,1 3,1 6,3 8,5 2,3 4,6 5,9 1,3 2,8 2,12 0,5 -1,8 -2,11 -1,4 -3,7 -5,9 -2,2 -5,3 -8,4 -2,1 -5,1 -9,1l-20 -1 0 -52zm11 9l0 35 8 0c2,0 5,0 6,0 2,-1 3,-1 4,-2 1,-1 2,-3 3,-5 1,-2 1,-6 1,-10 0,-4 0,-7 -1,-9 -1,-2 -2,-4 -3,-5 -1,-1 -3,-2 -5,-3 -1,0 -4,0 -9,-1l-4 0zm49 46l-12 -53 10 1 8 36 10 -35 12 0 9 37 8 -36 11 1 -13 51 -11 -1 -10 -39 -11 38 -11 0zm61 3l0 -52 39 2 0 9 -28 -2 0 12 26 1 0 9 -26 -2 0 15 29 1 0 9 -40 -2zm49 2l0 -51 10 0 0 43 26 1 0 9 -36 -2zm44 2l0 -51 11 0 0 43 26 1 0 9 -37 -2zm188 10l-11 -1 -5 -12 -21 -1 -4 12 -11 -1 20 -51 11 1 21 53zm-19 -22l-8 -19 -7 18 15 1zm25 -30l19 1c4,0 7,1 10,1 3,1 5,3 7,6 3,2 4,5 5,8 1,4 2,8 2,13 0,4 -1,8 -2,11 -1,3 -3,6 -5,9 -2,1 -4,2 -7,3 -3,1 -6,1 -10,1l-19 -1 0 -52zm10 9l0 35 8 0c3,0 5,0 6,0 2,0 3,-1 4,-2 2,-1 2,-3 3,-5 1,-2 1,-5 1,-9 0,-4 0,-8 -1,-10 -1,-2 -2,-4 -3,-5 -1,-1 -3,-2 -5,-3 -1,0 -4,0 -8,0l-5 -1zm55 46l-18 -53 11 1 13 39 13 -38 11 1 -18 51 -12 -1zm35 2l0 -52 39 2 0 9 -28 -2 0 12 26 1 0 9 -26 -1 0 14 29 1 0 9 -40 -2zm49 2l0 -52 10 1 21 36 0 -35 10 0 0 52 -10 0 -21 -35 0 34 -10 -1zm64 4l0 -44 -15 0 0 -9 41 2 0 9 -16 -1 0 43 -10 0zm32 1l0 -52 11 1 0 52 -11 -1zm18 -16l10 0c1,3 2,6 4,7 2,2 4,3 8,3 3,0 5,0 7,-2 2,-1 3,-3 3,-5 0,-1 -1,-2 -1,-3 -1,-1 -2,-1 -4,-2 -1,-1 -4,-2 -9,-3 -5,-2 -9,-3 -11,-6 -3,-3 -5,-6 -5,-10 0,-3 1,-5 2,-8 2,-2 4,-4 7,-5 2,-1 6,-1 10,-1 6,0 11,2 15,5 3,3 5,7 5,12l-11 0c0,-3 -1,-5 -3,-6 -1,-1 -3,-2 -6,-2 -3,0 -6,0 -7,1 -1,1 -2,2 -2,3 0,2 0,3 2,4 1,1 4,2 9,4 5,1 9,3 11,4 3,1 5,3 6,6 2,2 2,5 2,8 0,3 -1,6 -2,8 -2,3 -4,5 -7,6 -3,1 -7,1 -12,1 -6,0 -11,-2 -15,-5 -3,-4 -5,-8 -6,-14zm63 20l0 -43 -16 -1 0 -9 42 2 0 9 -16 -1 0 44 -10 -1zm177 9l-11 -1 -4 -12 -21 -1 -5 12 -11 -1 21 -51 11 1 20 53zm-19 -22l-7 -19 -7 19 14 0zm58 5l10 3c-1,6 -4,10 -7,13 -4,2 -9,3 -14,3 -7,0 -13,-3 -17,-8 -5,-5 -7,-11 -7,-20 0,-8 2,-15 7,-19 4,-5 10,-7 17,-7 7,1 12,3 16,7 2,2 4,5 5,10l-10 2c-1,-3 -2,-5 -4,-7 -2,-2 -4,-3 -7,-3 -4,0 -7,1 -9,4 -3,3 -4,7 -4,13 0,7 1,12 4,14 2,3 5,5 9,5 3,0 5,-1 7,-2 2,-2 3,-5 4,-8zm66 22l-11 -1 -5 -12 -20 -1 -5 12 -11 -1 20 -51 11 1 21 53zm-19 -22l-7 -19 -7 19 14 0zm25 -30l19 1c4,1 8,1 10,2 3,1 6,3 8,5 2,2 4,5 5,9 1,3 1,7 1,12 0,4 0,8 -1,11 -2,4 -3,7 -6,9 -2,2 -4,3 -7,4 -2,0 -6,0 -9,0l-20 -1 0 -52zm10 10l0 34 8 0c3,1 5,1 7,0 1,0 3,-1 4,-2 1,-1 2,-2 3,-5 0,-2 1,-5 1,-9 0,-4 -1,-7 -1,-9 -1,-3 -2,-4 -3,-6 -2,-1 -3,-2 -5,-2 -2,-1 -5,-1 -9,-1l-5 0zm42 45l0 -52 39 2 0 9 -28 -2 0 12 26 1 0 9 -26 -1 0 14 29 1 0 9 -40 -2zm49 2l0 -52 15 1 10 36 9 -35 16 1 0 52 -10 -1 0 -41 -10 41 -10 -1 -11 -41 0 41 -9 -1zm74 4l0 -22 -19 -31 12 1 12 21 12 -20 12 0 -19 30 0 21 -10 0z"/>
  </g>
 </g>
</svg>
