<?xml version="1.0" encoding="UTF-8"?>
<!DOCTYPE svg PUBLIC "-//W3C//DTD SVG 1.1//EN" "http://www.w3.org/Graphics/SVG/1.1/DTD/svg11.dtd">
<!-- Creator: CorelDRAW X7 -->
<svg xmlns="http://www.w3.org/2000/svg" xml:space="preserve" width="183.648mm" height="165.649mm" version="1.1" style="shape-rendering:geometricPrecision; text-rendering:geometricPrecision; image-rendering:optimizeQuality; fill-rule:evenodd; clip-rule:evenodd"
viewBox="0 0 18365 16565"
 xmlns:xlink="http://www.w3.org/1999/xlink">
 <defs>
  <style type="text/css">
   <![CDATA[
    .fil3 {fill:#FEFEFE}
    .fil1 {fill:#FEFEFE}
    .fil0 {fill:#0061F2}
    .fil5 {fill:#FB7306}
    .fil4 {fill:#FBF206}
    .fil2 {fill:#0061F2;fill-rule:nonzero}
   ]]>
  </style>
 </defs>
 <g id="Layer_x0020_1">
  <metadata id="CorelCorpID_0Corel-Layer"/>
  <g id="_1737113028928">
   <path class="fil0" d="M4852 15469l-384 -18c-50,-3 -19,-29 -54,18 72,6 448,168 562,211 310,117 615,196 944,215 90,5 186,16 292,4 220,-24 360,-20 590,-62 59,-11 113,-12 166,-28 41,-13 7,-9 70,-19 39,-6 48,-7 90,-14 137,-23 582,-72 673,-99l318 -68c120,-20 279,-42 391,-78 368,-117 286,27 460,41l0 26c-106,25 -401,239 -533,304 -25,12 -20,8 -43,20l-233 128c-15,7 -28,11 -46,18 -18,8 -31,14 -53,24 -71,32 -117,70 -187,96 -108,40 -317,135 -424,143 -7,85 -30,118 51,182 191,149 339,-55 550,-186 66,-40 121,-75 184,-112l185 -111c66,-40 128,-69 189,-106 64,-39 124,-69 191,-106 46,-25 339,-196 390,-196 71,-1 758,407 856,460l456 289c117,86 131,118 256,118 101,0 186,-101 177,-191 -4,-40 8,-25 -32,-43l-242 -81c-128,-44 -238,-109 -363,-165l-838 -461c-26,-17 -31,-16 -40,-50 185,-43 118,-134 393,-58l414 87c77,15 230,34 301,59l136 32c247,35 512,56 756,119 167,43 447,78 625,83 224,6 384,19 625,-18 263,-41 343,-75 567,-141l191 -67c31,-16 28,-18 61,-29 96,-32 168,-61 258,-90 51,-16 77,-37 125,-54 33,-12 103,-35 142,-39 -20,-26 -17,-20 -40,-16 -1,0 -5,2 -7,2 -193,50 -727,26 -924,-6l-433 -56c-139,-19 -283,-38 -411,-78 -43,-14 -82,-21 -136,-31 -96,-19 -186,-38 -276,-59l-278 -63c-541,-119 -571,-99 -1125,-92 -261,3 -334,71 -506,124l-346 111c-98,39 -195,72 -287,132 -29,19 -25,32 -57,32 -19,0 -201,-113 -266,-133l-554 -192c-232,-93 -443,-53 -706,-81 -242,-26 -534,32 -769,94 -7,2 -18,5 -25,6l-87 22c-184,45 -393,65 -575,121 -246,76 -486,92 -744,131l-611 45z"/>
   <path class="fil0" d="M12535 14761l170 62c181,52 519,105 543,113 52,15 -22,18 72,18 40,0 30,-7 51,-5 57,5 -7,18 52,18l437 0c63,0 15,-7 68,-15 232,-37 474,-82 696,-161l115 -39c55,-19 87,-31 143,-50 32,-11 36,-12 65,-25 42,-18 32,-17 68,-35 13,-6 50,-23 62,-28 31,-12 36,-11 66,-24 119,-53 778,-404 841,-498 -41,-9 -66,-23 -109,-33l-508 -54 -896 92c-83,18 -163,28 -239,45 -55,13 -50,18 -111,31 -28,6 -84,19 -119,22 21,-40 30,-58 57,-98l202 -351c8,-16 15,-34 24,-53l241 -518c6,-15 8,-25 13,-38 61,-156 222,-595 222,-744l-373 193c-33,19 -56,34 -89,53 -34,20 -57,26 -95,46 -34,18 -57,38 -87,55 -159,96 -294,174 -446,288 -58,43 -104,78 -162,121 -136,101 -382,285 -451,424 -20,40 -26,56 -50,91 -137,191 -234,498 -281,582 -48,86 -120,338 -164,448l-28 67z"/>
   <path class="fil0" d="M4376 14195l-702 -134c-80,-12 -180,-30 -251,-33l-401 -24c-58,-5 -62,10 -126,11 -90,3 -181,3 -266,18 -84,15 -152,42 -223,59 9,35 14,33 40,50l407 249c159,103 624,307 767,353 50,16 97,25 138,42 38,15 24,13 62,28 107,44 470,102 546,125 139,41 351,28 588,28 67,0 12,-9 67,-15 27,-4 -10,0 27,-1 74,-1 533,-96 631,-133 73,-28 65,-34 163,-57 -16,-32 -26,-73 -36,-106l-34 -83c0,-2 -2,-5 -2,-7l-68 -204c-15,-43 -27,-57 -42,-100 -15,-41 -21,-58 -41,-100 -35,-73 -60,-131 -90,-207 -50,-129 -229,-440 -327,-535l-838 -616c-33,-16 -51,-33 -88,-53 -45,-25 -48,-28 -87,-55 -69,-46 -128,-63 -193,-103l-275 -150c-35,-21 -63,-39 -106,-49 0,105 42,208 67,287l24 72c14,38 25,86 40,129 12,37 23,77 37,117 11,33 10,28 23,55 1,1 12,24 12,24 11,25 3,7 11,27l47 110c8,21 11,37 19,58l79 166c29,49 24,66 49,118l320 580c21,39 19,12 32,59z"/>
   <path class="fil0" d="M1094 9935c-6,-73 -60,-137 -84,-212 -27,-82 -52,-135 -92,-204l-109 -187c-80,-115 -174,-245 -273,-344l-146 -125c-95,-80 -271,-205 -390,-215 0,198 44,826 99,969 88,228 57,295 243,581 122,187 230,277 388,435 161,161 342,312 536,430 80,48 398,217 471,224 16,-68 43,-95 66,-154 21,-52 40,-104 63,-156 105,-241 311,-804 295,-1053 -11,-162 -43,-800 -101,-955l-52 -179c-16,-55 -27,-116 -47,-173 -20,-58 -51,-111 -56,-175 -65,18 -284,402 -353,497 -27,36 -33,47 -57,85l-109 187c-21,35 -33,51 -52,89 -35,69 -67,135 -96,200 -29,64 -60,141 -77,206 -25,91 -35,206 -67,229z"/>
   <path class="fil0" d="M16640 11287c104,-9 433,-199 541,-271l230 -169c78,-53 129,-106 203,-170 283,-248 330,-343 509,-623 34,-54 53,-125 80,-190 29,-71 53,-139 72,-212 87,-331 90,-656 90,-1004 -294,69 -631,424 -794,686l-159 279c-34,67 -95,288 -141,322 0,-89 -86,-328 -122,-432 -23,-68 -264,-480 -305,-543l-229 -338c-19,-31 -32,-56 -54,-87 -29,-40 -45,-42 -49,-93l-26 0c-7,29 -15,56 -24,79 -71,175 -90,244 -130,424 -8,37 -9,58 -21,95l-26 114c-34,134 -61,632 -70,782 -7,118 49,326 78,421l5 21c1,2 1,6 2,8l5 15c1,2 2,6 3,8l22 55c20,60 37,119 55,177l188 482c25,52 62,99 67,164z"/>
   <path class="fil0" d="M2304 11737l0 206c0,175 25,317 25,476 -62,-42 -117,-83 -177,-132l-375 -267c-34,-23 -48,-42 -88,-67l-200 -122c-142,-78 -274,-162 -429,-215 -54,-19 -75,-19 -123,-43 -61,-31 -202,-55 -268,-55 11,47 57,166 77,206l197 370c22,30 38,51 58,83l237 329c28,31 33,46 65,77l135 148c95,97 349,314 461,388 219,145 543,279 790,343 103,26 381,90 490,90l36 -196c9,-71 17,-147 25,-207 19,-148 5,-303 21,-455 6,-60 -6,-261 -17,-392 -8,-105 -5,-106 -47,-184l-100 -260c-13,-35 -20,-58 -32,-84 -17,-36 -24,-43 -39,-77 -89,-209 -116,-229 -199,-393 -26,-51 -315,-537 -395,-558 -9,113 -35,147 -54,216 -17,62 -27,167 -38,245 -23,154 -36,351 -36,530z"/>
   <path class="fil0" d="M15199 13552c81,0 182,-15 249,-34 72,-22 158,-41 228,-55 142,-29 502,-158 617,-233 38,-25 49,-31 92,-50 75,-34 106,-70 167,-116l240 -198c26,-26 44,-44 70,-71 14,-13 19,-18 33,-31l27 -24c299,-286 540,-639 709,-1016l90 -206c-152,0 -470,107 -607,191l-209 112c-45,27 -59,41 -101,66 -233,141 -274,184 -473,326 -32,23 -57,47 -93,74 -70,51 -112,91 -190,132 0,-54 5,-72 10,-106 6,-44 1,-82 4,-125 35,-444 6,-797 -65,-1236 -32,-197 -42,-85 -39,-219 -58,16 -178,213 -213,263 -95,135 -344,562 -386,683 -40,116 -85,183 -107,253l-100 271c-1,1 -2,5 -3,6 -38,114 -31,357 -27,492 2,76 -4,158 0,233l13 167c7,64 14,20 15,82 1,28 -2,22 2,54 13,91 45,218 47,315z"/>
   <path class="fil0" d="M978 8545c45,-30 58,-58 92,-100l18 -21c2,-2 4,-5 6,-7 2,-2 4,-5 6,-7 2,-2 4,-5 6,-7 2,-3 9,-11 11,-14 134,-161 466,-632 514,-799 16,-54 27,-100 37,-157l108 -483c26,-101 36,-212 49,-324l22 -271c5,-178 -7,-158 -7,-293l-209 189c-253,224 -503,514 -701,792 -39,55 -56,140 -106,177 0,-113 -29,-342 -59,-430l-26 -90c-11,-45 -19,-66 -30,-100 -22,-70 -31,-116 -61,-183 -69,-153 -262,-517 -429,-561 -53,111 -76,350 -105,486 -20,95 -48,158 -50,311 -3,260 -18,264 17,525 0,2 6,38 7,43l20 58c1,3 2,6 3,10l5 21c46,219 103,291 199,470 18,33 22,44 41,75l149 211c110,122 72,98 225,251l248 228z"/>
   <path class="fil0" d="M17554 7207c-35,-23 -38,-39 -43,-48 -202,-331 -137,-229 -416,-561l-412 -399c-50,-41 -81,-107 -146,-125 0,86 -15,115 -13,194 2,89 31,463 53,539l40 166c50,210 92,534 179,722 5,10 8,20 16,35l123 199c17,31 14,35 34,68 19,30 28,38 50,67 70,92 206,288 281,362 87,87 36,77 100,119l184 -163c23,-26 39,-41 63,-65l137 -146c106,-125 198,-227 281,-389 76,-151 176,-315 213,-507 12,-64 24,-143 30,-193 26,-240 9,-635 -61,-865l-11 -56c-20,-82 -64,-242 -64,-305 -97,8 -252,216 -305,300 -147,231 -204,444 -261,717 -23,110 -52,139 -52,334z"/>
   <path class="fil0" d="M15932 2471c-37,-10 -112,-58 -154,-77 -135,-60 -404,-144 -546,-175 -170,-38 -489,-76 -609,-112 -46,-13 -160,-31 -209,-35l73 146c28,46 67,86 101,130 160,205 384,372 581,539 387,327 317,337 802,549l165 67c64,26 282,100 350,100 62,-265 141,-367 141,-746 0,-232 3,-436 -104,-642 -86,-164 -30,-123 -184,-356 -127,-193 -156,-265 -352,-459 -40,-40 -89,-111 -145,-126 -87,165 -89,454 -78,618 11,163 49,305 113,442 17,36 48,103 55,137z"/>
   <path class="fil0" d="M1750 2638c0,295 -2,471 72,721l26 82c16,62 34,128 57,175l336 -114c110,-44 209,-85 319,-132l288 -161c66,-39 241,-218 358,-311 25,-20 36,-36 60,-57 27,-24 36,-25 64,-52 116,-107 618,-532 634,-717l-938 182c-24,9 -17,6 -50,15 -163,42 -210,56 -364,125l-167 77c6,-70 35,-46 73,-159 106,-318 70,-339 109,-489 18,-67 10,-73 4,-126l-9 -48c-17,-67 -12,-219 -87,-375 -62,17 -220,205 -266,262 -219,272 -519,745 -519,1102z"/>
   <path class="fil0" d="M618 4800c0,359 45,316 100,518 31,115 96,255 153,362 42,79 93,139 133,214 98,-23 750,-492 847,-672l351 -523c165,-229 306,-440 372,-722l-311 127c-141,74 -214,90 -392,186l-88 41c-98,44 -400,242 -467,305 -29,27 -36,40 -68,61 0,-103 55,-244 32,-459 -21,-199 -21,-259 -101,-436 -22,-47 -39,-80 -59,-121 -37,-75 -53,-73 -65,-116 -35,9 -37,19 -54,48 -113,183 -109,214 -183,345 -35,64 -36,89 -60,158l-85 274c-37,133 -55,253 -55,410z"/>
   <path class="fil0" d="M17142 4710c-77,-52 -89,-110 -345,-260l-512 -272c-49,-23 -77,-22 -121,-47l-301 -139c-41,-23 -32,-33 -49,-16 -15,15 39,170 48,187 168,354 151,300 361,604l288 420c44,75 92,131 159,189 128,109 595,508 717,518 13,-50 146,-248 180,-321l136 -366c76,-304 80,-448 13,-787 -6,-29 -13,-67 -18,-86l-28 -78c-55,-146 -61,-207 -139,-359 -37,-73 -47,-113 -108,-214 -39,-64 -47,-104 -101,-118 -1,19 -105,182 -158,331 -10,28 -3,5 -15,36 -18,48 -25,91 -35,146 -36,211 -18,433 28,632z"/>
   <path class="fil0" d="M14877 1454l-145 -330c-71,-142 -173,-318 -283,-426 -25,-25 -32,-37 -54,-61 -84,-92 -240,-209 -360,-258 -64,-27 -97,-43 -166,-65 -260,-85 -528,-116 -799,-167l-587 -147 499 454c45,44 78,63 122,109l130 115c28,24 35,25 63,52l477 373c326,196 250,120 496,225 94,40 86,32 190,55l305 55c46,9 61,16 112,16z"/>
   <path class="fil0" d="M5894 0l-181 50c-65,19 -135,24 -198,47 -39,15 -2,5 -37,14l-162 32c-66,13 -137,25 -206,38 -60,12 -136,26 -196,36l-144 36c-279,76 -457,88 -713,316 -29,26 -38,25 -65,52 -27,28 -29,40 -57,71 -81,87 -146,170 -199,277 -56,115 -56,93 -90,155 -39,70 -62,163 -110,250 -13,25 -40,66 -24,81 29,29 -3,6 25,0 24,-5 9,-5 53,-13 226,-38 473,-75 682,-168 346,-153 273,-145 528,-309l1036 -894c3,-3 12,-9 14,-12l44 -59z"/>
   <path class="fil0" d="M8752 1425c579,-67 1510,23 2065,191 529,160 1238,505 1666,792l658 474c584,458 1041,1162 1393,1811 131,243 364,769 455,1052 255,791 252,1922 139,2746 -61,445 -156,773 -329,1173 -302,697 -676,1299 -1150,1874 -336,406 -912,817 -1374,1096 -351,213 -1043,534 -1412,650 -327,103 -925,198 -1301,202 -128,1 -245,13 -373,11 -350,-3 -713,-26 -1055,-76 -600,-87 -635,-94 -1178,-326 -409,-175 -1000,-476 -1355,-743 -229,-171 -278,-185 -522,-404 -72,-64 -136,-120 -203,-184 -191,-181 -203,-224 -352,-407 -490,-603 -966,-1458 -1195,-2189 -237,-756 -265,-1954 -147,-2744 92,-619 130,-645 335,-1169 227,-580 605,-1184 976,-1676l354 -405c183,-178 406,-368 616,-516 777,-547 1636,-1024 2605,-1166 261,-38 456,-41 684,-67zm-1249 -125c-255,-21 -282,-90 -656,-90 -335,0 -577,15 -889,128l-269 130c-242,133 -462,339 -613,571l-280 505c-55,112 -95,279 -147,380 -20,40 -34,37 -76,53 -123,46 -248,84 -362,141 -32,15 -48,27 -85,42l-173 85c-327,186 -623,446 -804,779 -92,170 -129,280 -179,474 0,3 -2,12 -3,15 -1,2 -2,5 -2,7l-5 14c-6,19 -5,7 -14,45 -19,79 -16,151 -28,243 -33,255 -9,542 32,774l15 88c11,53 21,9 21,120 0,34 -193,240 -226,289l-142 206c-27,44 -45,71 -70,110 -15,23 -14,22 -28,49 -11,21 -18,32 -32,58l-160 367c-39,114 -110,473 -100,592 24,288 87,581 217,839 9,18 17,33 26,52l463 681c105,133 62,85 28,246l-41 321c-4,134 -25,297 -6,420l92 511c17,57 35,128 56,175 11,25 23,55 37,79 10,16 7,9 20,31 117,197 107,202 261,383 89,106 192,205 307,285 29,20 42,29 68,48l215 132c127,77 336,170 477,218 184,64 192,36 261,216 83,218 163,438 295,631 21,31 26,39 42,74 57,122 181,223 263,328 57,72 171,164 248,216l386 207 269 78c283,88 800,82 1084,20 63,-14 176,-64 228,-33l98 83c170,149 367,275 564,388 433,250 1037,337 1529,180 107,-35 309,-119 405,-175l591 -412c16,-16 23,-22 39,-38 36,-34 19,1 35,-43 52,1 132,18 191,28 57,9 113,30 183,35 295,23 649,53 928,-34l273 -75c171,-59 336,-164 476,-271l14 -12c2,-1 5,-4 7,-5l14 -12c94,-82 182,-168 262,-266 231,-284 391,-629 503,-976 21,-66 77,-73 135,-98 108,-47 227,-74 331,-131l303 -161c107,-63 218,-136 312,-216l28 -23c250,-198 419,-468 539,-761 23,-58 104,-403 106,-472 2,-41 -4,-24 0,-47 7,-47 15,17 15,-42 0,-140 9,-422 -17,-550l-42 -241c-10,-64 -27,-120 -31,-174 67,-45 110,-114 155,-180l32 -44c33,-45 58,-71 90,-116 35,-49 55,-80 89,-131 30,-44 61,-78 84,-122 14,-28 14,-40 31,-71l137 -276c8,-21 7,-19 12,-35l5 -13c111,-291 173,-721 80,-1079 -40,-158 -90,-299 -162,-443 -112,-224 -248,-440 -415,-627 -24,-27 -25,-29 -46,-57 -74,-99 -86,-88 -63,-226l45 -313c16,-166 42,-209 18,-413 -8,-66 3,-132 -7,-199 -49,-331 -146,-642 -340,-909 -84,-115 -181,-247 -299,-332 -252,-182 -498,-358 -796,-465l-262 -98c-21,-15 -11,-5 -27,-25 -34,-41 -43,-95 -58,-147 -46,-151 -125,-296 -193,-438 -65,-136 -149,-260 -241,-377l-47 -69c-92,-144 -250,-255 -383,-350 -41,-29 -74,-56 -121,-85 -200,-120 -436,-176 -656,-232l-137 -17c-206,-13 -442,-10 -644,12 -104,11 -231,54 -338,63 -62,5 -79,-30 -122,-65l-222 -178c-117,-88 -234,-169 -364,-240 -239,-129 -473,-223 -746,-258 -39,-5 -56,-3 -91,-12 -74,-18 -159,-17 -240,-17l-483 96c-76,25 -148,51 -212,84 -355,181 -251,131 -553,322 -83,53 -269,191 -322,270z"/>
   <g>
    <path class="fil1" d="M9151 1384c3348,0 6062,2714 6062,6061 0,3348 -2714,6062 -6062,6062 -3348,0 -6061,-2714 -6061,-6062 0,-3347 2713,-6061 6061,-6061z"/>
    <path class="fil2" d="M7071 11489l135 -174 575 213c15,6 27,21 36,45 9,23 11,44 4,61l-252 678c-7,20 -19,38 -36,54 -17,16 -34,20 -52,14l-218 -82 80 -216 -149 191 -334 -124 157 -188 292 109c3,1 8,0 14,-2 5,-2 10,-6 12,-13l147 -394c4,-12 -1,-20 -14,-25l-397 -147zm-791 -785l258 174 -43 145 227 153 116 -95 245 165 -547 435 50 34 -200 137 -361 -244 255 -904zm148 521l-99 301 374 -341 -203 89 -72 -49zm-856 -1020l196 -83 419 449 -491 458 54 57 -218 90 -201 -216 505 -472 -264 -283zm-443 -937c14,-9 36,-8 66,1 29,10 50,25 62,45l372 634 -579 340 37 63 -236 33 -139 -236 190 -112 -239 39 -189 -322c-9,-15 -9,-37 1,-66 9,-29 22,-48 39,-58l615 -361zm32 344l-348 204c-5,3 -9,7 -12,13 -2,6 -3,11 0,15l90 154c2,3 7,6 14,6 7,1 13,0 17,-2l545 -320 -216 27 -53 -91c-4,-6 -12,-10 -23,-10 -5,0 -9,1 -14,4zm-331 -1829l55 279 -223 44 240 41 74 371c2,12 -2,24 -12,37 -9,12 -21,19 -33,22l-157 31 227 40 71 358c2,10 -3,24 -15,40 -12,17 -24,27 -36,29l-602 119 17 84 -226 -30 -56 -287 632 -124c7,-2 14,-6 22,-12 8,-6 11,-13 10,-19l-33 -168c-1,-4 -5,-8 -12,-12 -6,-4 -12,-5 -15,-5l-646 128 -57 -286 630 -124c7,-1 14,-5 21,-12 7,-6 10,-13 8,-21l-36 -182 -30 -10 -637 126 -56 -285 875 -172zm-192 -897l205 74 -3 659 -682 -4 0 71 -215 -83 3 -708 231 69 -2 337 312 2 -194 -78 2 -316 205 66 -2 328 138 1 2 -418zm196 -849l179 115 -134 599 -655 -147 -17 77 -197 -130 64 -287 676 151 84 -378zm372 -788l145 155 -276 548 -600 -302 -35 70 -159 -174 132 -263 618 311 175 -345zm1260 -1192l-228 213 -130 -74 -201 187 66 135 -215 201 -302 -630 -44 41 -89 -226 319 -297 824 450zm-540 28l-272 -163 248 441 -40 -218 64 -60zm1344 -624c8,15 7,37 -3,66 -10,29 -26,50 -47,61l-644 354 -323 -589 -64 35 -26 -237 240 -132 106 193 -32 -239 327 -180c16,-9 38,-8 66,2 29,11 48,24 57,42l343 624zm-344 23l-195 -354c-2,-5 -7,-10 -12,-12 -6,-3 -11,-3 -15,-1l-156 86c-4,2 -6,6 -7,13 -1,7 -1,13 2,17l304 554 -21 -216 92 -51c7,-4 10,-11 11,-22 0,-5 -1,-10 -3,-14zm1168 -1146l-14 935 -363 108 -411 -578 -92 27 19 -236 261 -77 325 505 -24 -595 299 -89zm1112 571l-57 210 -657 50 -51 -680 -71 6 66 -221 705 -54 -50 235 -336 26 23 310 63 -198 315 -24 -50 209 -327 25 11 138 416 -32zm980 340l-298 -44 92 -625c3,-18 -3,-28 -16,-30l-185 -27c-10,-2 -17,5 -19,21l-93 628 -304 -45 97 -659 -72 -11 105 -212 287 42 -34 229 111 -217 375 55c18,3 35,18 50,46 15,28 21,53 18,76l-114 773zm1164 -536l-128 188 -184 -68 -234 629 -283 -105 232 -625 -250 -93 161 -180 686 254zm98 1087l-272 -154 333 -589 -70 -39 194 -149 259 146 -444 785zm762 524c-6,7 -16,12 -31,15 -15,3 -27,0 -36,-7l-188 -155 123 -149 -184 99 -353 -290 183 -100 323 265c4,4 9,4 15,2 6,-1 10,-5 14,-9l60 -72c2,-4 4,-9 4,-15 0,-7 -2,-12 -5,-14l-313 -258c-9,-7 -15,-20 -16,-38 -1,-18 3,-32 11,-42l277 -337c9,-12 23,-19 42,-21 19,-3 33,0 44,9l178 147 -151 184 207 -138 329 270 -200 128 -295 -242c-5,-5 -11,-6 -18,-4 -7,3 -12,6 -15,10l-56 68c-3,3 -4,8 -3,14 0,6 2,10 6,13l324 267c8,6 10,18 7,35 -2,17 -7,30 -15,39l-268 326zm1253 192l-208 93 -120 -155 -530 413 -186 -239 526 -409 -164 -211 232 -69 450 577zm-48 2084l-97 -296 122 -88 -86 -260 -150 3 -92 -280 699 -9 -19 -57 242 14 136 414 -755 559zm202 -503l262 -178 -504 41 215 55 27 82zm61 1350l-215 -50 -46 -612c-1,-16 7,-33 25,-51 18,-18 36,-28 54,-29l722 -55c21,-2 42,2 63,11 22,8 33,22 34,41l18 232 -230 18 236 55 26 355 -236 -64 -23 -311c-1,-3 -3,-7 -7,-11 -4,-5 -10,-7 -18,-6l-419 32c-12,1 -17,8 -16,23l32 422zm-315 1042l36 -310 148 -28 31 -272 -137 -60 34 -293 637 285 7 -59 214 114 -50 433 -920 190zm394 -371l313 -52 -475 -175 172 140 -10 87zm-675 1345c-15,-7 -29,-24 -39,-53 -10,-30 -11,-55 -2,-77l276 -681 623 253 27 -68 170 167 -103 254 -204 -82 176 165 -140 346c-7,16 -25,30 -53,40 -29,10 -52,11 -70,4l-661 -268zm253 -235l374 152c6,2 12,3 18,1 6,-1 10,-4 12,-9l67 -165c1,-4 0,-9 -3,-15 -4,-6 -8,-10 -13,-12l-585 -237 153 154 -40 98c-3,7 -1,15 6,24 3,4 7,7 11,9zm-657 1070l-131 -173 361 -551 570 375 39 -59 135 186 -389 592 -155 -184 185 -281 -260 -171 119 170 -174 265 -135 -168 180 -274 -116 -76 -229 349zm-1246 875l219 -196 416 464c4,5 12,8 21,9 10,0 16,-1 20,-5l119 -107c6,-5 9,-13 8,-24 0,-5 -2,-9 -5,-13l-419 -467 223 -200 415 464c5,5 11,8 19,10 9,2 16,1 21,-4l116 -104c5,-5 8,-12 9,-21 0,-9 -2,-16 -7,-22l-416 -464 218 -195 436 487 58 -52 95 235 -212 190 -140 -157 100 192 -283 254c-15,14 -35,19 -60,14 -24,-5 -44,-16 -59,-33l-78 -87 80 211 -254 228c-13,11 -34,15 -65,11 -30,-3 -52,-12 -64,-25l-531 -593zm-610 1217l40 -626 -139 -308 291 -131 137 303 331 233 114 -51 19 222 -224 101 -290 -226 -11 362 -268 121z"/>
    <path class="fil0" d="M8028 12010c77,0 139,62 139,139 0,77 -62,139 -139,139 -77,0 -139,-62 -139,-139 0,-77 62,-139 139,-139z"/>
    <path class="fil0" d="M10328 12010c77,0 139,62 139,139 0,77 -62,139 -139,139 -77,0 -139,-62 -139,-139 0,-77 62,-139 139,-139z"/>
    <path class="fil2" d="M8409 12499l-167 -28 71 -416 -49 -8 69 -125 170 29 -94 548zm659 21c-1,8 -6,16 -16,25 -9,9 -16,14 -22,13l-429 -32 54 -127 220 16c8,1 13,-6 14,-20l14 -189 -41 125 -206 -16c-6,0 -14,-5 -22,-14 -8,-9 -12,-18 -12,-26l20 -259c0,-6 6,-15 16,-26 10,-11 18,-16 24,-16l350 27c14,1 30,8 47,21 17,13 24,25 24,36l-35 462zm-164 -327l4 -48c0,-3 -1,-6 -3,-9 -2,-2 -4,-4 -7,-4l-75 -6c-2,0 -5,1 -8,4 -3,3 -4,6 -5,9l-3 46c0,3 1,6 3,9 3,3 5,5 8,5l73 6c2,0 5,-1 8,-5 3,-3 5,-5 5,-7zm746 -217l-39 134 -208 16 13 183 34 -114 170 -13c7,-1 15,3 24,10 9,8 13,15 14,23l20 271c1,10 -2,20 -7,31 -5,11 -12,16 -20,17l-403 30 41 -138 185 -14c4,0 8,-2 12,-7 4,-4 6,-8 6,-12l-6 -70c0,-2 -2,-4 -6,-7 -4,-3 -7,-5 -9,-4l-225 16 -24 -320 428 -32zm447 495l-167 28 -70 -416 -49 8 24 -140 170 -29 92 549z"/>
   </g>
   <path class="fil0" d="M9151 3426c2220,0 4019,1799 4019,4019 0,2220 -1799,4019 -4019,4019 -2220,0 -4019,-1799 -4019,-4019 0,-2220 1799,-4019 4019,-4019zm0 -73c2260,0 4092,1832 4092,4092 0,2260 -1832,4092 -4092,4092 -2260,0 -4092,-1832 -4092,-4092 0,-2260 1832,-4092 4092,-4092z"/>
   <g>
    <path class="fil0" d="M7973 6924c418,-171 801,-106 1179,0 384,-101 754,-77 1118,0l1808 2579c-1065,-351 -2051,-401 -2919,0 -596,-469 -1469,-599 -2934,0l1748 -2579z"/>
    <path class="fil0" d="M9152 6481c380,-96 753,-76 1133,4l13 3 22 14 1845 2631 -61 81 -48 -15c-937,-309 -1947,-428 -2868,-3l-18 8 -39 -5 -15 -12c-324,-255 -691,-371 -1100,-385 -591,-20 -1224,174 -1765,395l-48 20 -65 -81 1783 -2630 16 -13 10 -4c410,-169 794,-122 1205,-8z"/>
    <path class="fil3" d="M7973 6553c418,-171 801,-106 1179,0 384,-101 754,-76 1118,0l1808 2579c-1065,-351 -2051,-400 -2919,0 -596,-469 -1469,-598 -2934,0l1748 -2579z"/>
    <path class="fil0" d="M9055 3860c775,0 1404,629 1404,1404 0,775 -629,1404 -1404,1404 -775,0 -1404,-629 -1404,-1404 0,-775 629,-1404 1404,-1404z"/>
    <path class="fil4" d="M9055 3930c737,0 1334,598 1334,1334 0,737 -597,1334 -1334,1334 -736,0 -1334,-597 -1334,-1334 0,-736 598,-1334 1334,-1334z"/>
    <path class="fil0" d="M10960 10519c22,69 36,157 -19,216 -67,74 -187,47 -270,20l-5 -2 -9 -4 -4 -3c-341,-234 -665,-495 -949,-797 -363,-387 -643,-823 -827,-1321 -215,-585 -279,-1214 -247,-1834l1 -28 41 -38 762 8 41 44 -2 30c-18,315 -22,633 -1,948 17,260 52,520 113,774 103,428 276,811 542,1162 229,303 510,558 809,791l8 6 12 18 4 10z"/>
    <path class="fil1" d="M8700 6798l703 7c-120,2032 449,2926 1490,3735 50,156 -13,209 -200,148 -1185,-812 -2093,-1912 -1993,-3890z"/>
    <path class="fil5" d="M9055 4905c111,287 333,821 333,1136 0,314 -222,453 -333,740 -111,-287 -333,-426 -333,-740 0,-315 222,-849 333,-1136z"/>
    <path class="fil0" d="M8629 6609l852 0c45,0 82,37 82,82l0 51c0,45 -37,82 -82,82l-852 0c-45,0 -81,-37 -81,-82l0 -51c0,-45 36,-82 81,-82z"/>
   </g>
  </g>
 </g>
</svg>
