<?xml version="1.0" encoding="UTF-8"?>
<!DOCTYPE svg PUBLIC "-//W3C//DTD SVG 1.1//EN" "http://www.w3.org/Graphics/SVG/1.1/DTD/svg11.dtd">
<!-- Creator: CorelDRAW X7 -->
<svg xmlns="http://www.w3.org/2000/svg" xml:space="preserve" width="186.648mm" height="168.652mm" version="1.1" style="shape-rendering:geometricPrecision; text-rendering:geometricPrecision; image-rendering:optimizeQuality; fill-rule:evenodd; clip-rule:evenodd"
viewBox="0 0 18665 16865"
 xmlns:xlink="http://www.w3.org/1999/xlink">
 <defs>
  <style type="text/css">
   <![CDATA[
    .fil2 {fill:#FEFEFE}
    .fil4 {fill:#FEFEFE}
    .fil1 {fill:#0061F2}
    .fil6 {fill:#FB7306}
    .fil5 {fill:#FBF206}
    .fil0 {fill:white}
    .fil3 {fill:#0061F2;fill-rule:nonzero}
   ]]>
  </style>
 </defs>
 <g id="Layer_x0020_1">
  <metadata id="CorelCorpID_0Corel-Layer"/>
  <g id="_1912065285696">
   <path class="fil0" d="M5314 13355c-90,-107 -190,-188 -254,-325 -10,-22 -17,-32 -30,-52 -139,-205 -224,-433 -312,-663 -6,-17 -23,-63 -35,-82 -9,-5 -23,-8 -31,-11 -34,-11 -69,-22 -103,-34 -163,-56 -360,-142 -506,-232l-216 -132c-4,-2 -7,-5 -11,-7 -21,-16 -42,-31 -63,-46 -126,-87 -238,-194 -337,-311 -55,-65 -111,-132 -157,-204 -42,-64 -79,-133 -118,-199 -1,-2 -2,-5 -4,-7 -6,-8 -11,-16 -16,-25 -18,-31 -32,-62 -45,-94 -27,-62 -44,-129 -63,-193 -2,-5 -3,-10 -4,-16l-92 -512c0,-1 0,-2 -1,-3 -22,-146 1,-301 5,-448 1,-5 1,-9 1,-14l41 -320c0,-4 1,-8 2,-12 7,-35 16,-62 26,-92 -9,-11 -18,-22 -25,-31 -2,-2 -4,-5 -6,-8l-464 -682c-5,-7 -9,-14 -12,-23 -7,-15 -15,-30 -23,-45 -140,-277 -207,-587 -233,-895 -8,-99 17,-239 34,-339 19,-100 41,-216 74,-312 1,-5 2,-8 4,-12l161 -367c1,-4 3,-8 5,-11 10,-19 21,-38 32,-58 11,-21 21,-39 34,-60 23,-36 46,-71 68,-107 1,-3 3,-5 4,-7l142 -206c35,-50 84,-102 124,-149 21,-24 53,-60 75,-91 -8,-17 -13,-34 -17,-54 0,-1 0,-2 0,-4l-16 -87c-46,-263 -68,-554 -33,-820 11,-87 10,-171 31,-258 5,-21 10,-39 18,-58 0,0 0,0 0,0l4 -12c0,0 0,0 0,0l0 0c1,-5 2,-9 3,-13 49,-193 97,-334 192,-509 195,-359 510,-638 862,-838 3,-2 5,-3 8,-4l173 -85c3,-1 6,-3 9,-4 26,-11 50,-26 75,-38 121,-61 250,-100 377,-147 1,-1 3,-1 4,-2 25,-53 43,-114 62,-167 22,-64 44,-130 74,-190 1,-3 2,-5 4,-7l280 -505c2,-3 3,-5 5,-8 164,-253 403,-476 667,-621 2,-2 5,-3 7,-4l270 -130c4,-2 8,-4 13,-5 327,-120 596,-138 940,-138 168,0 298,14 461,54 46,11 89,21 134,28 88,-89 221,-186 303,-238 84,-53 167,-110 251,-162 100,-61 210,-114 314,-168 74,-37 153,-66 232,-92 7,-3 12,-4 19,-5l483 -96c10,-2 19,-3 29,-3 92,0 186,-1 276,22 23,6 50,6 74,9 289,37 543,136 798,275 135,73 261,159 384,252 1,1 2,1 3,2l222 178c1,0 1,1 2,1 11,9 21,20 32,30 104,-12 209,-49 316,-61 218,-23 450,-26 669,-13 3,0 6,1 10,1l137 18c6,0 12,1 18,3 241,62 481,119 696,249 46,28 87,60 131,91 155,111 316,227 422,390l43 63c97,125 186,257 255,401 72,152 152,297 200,459 5,15 16,64 26,86l228 86c312,112 569,293 834,485 134,96 236,233 332,365 210,290 315,624 367,975 11,71 0,137 8,204 11,94 15,181 4,276 -7,56 -16,112 -21,168 -1,3 -1,5 -1,7l-45 314c-1,1 -1,2 -1,4 -2,14 -7,37 -8,55 12,18 31,40 43,56 13,17 24,30 38,46 176,197 319,424 437,660 77,152 131,308 174,472 94,366 47,821 -85,1169l-5 13c-4,11 -7,22 -11,32 -2,7 -4,12 -7,18l-137 276c-1,2 -2,3 -3,5 -12,21 -19,46 -30,68 -27,52 -61,89 -92,136 -30,46 -60,91 -92,135 -28,40 -61,77 -90,117l-31 43c-39,55 -73,107 -117,152 6,31 13,61 18,90l42 239c19,96 20,211 20,309 1,90 -1,179 -1,268 0,29 -5,58 -15,84 0,4 0,7 0,11 -3,77 -31,188 -48,265 -18,77 -40,185 -69,258 -129,316 -313,606 -583,820l-26 22c-103,87 -217,162 -333,231 -2,1 -3,2 -6,3l-300 159c-112,62 -230,88 -344,138 -15,7 -40,14 -57,22 -118,360 -284,714 -525,1009 -84,104 -179,197 -280,285l-14 12c-1,0 -1,0 -2,1 -3,2 -6,5 -9,7l-14 12c-1,1 -2,2 -3,2 -156,119 -332,229 -518,294 -3,1 -6,2 -9,2l-270 75c-306,95 -667,65 -983,40 -71,-5 -128,-26 -195,-37 -32,-5 -68,-13 -104,-19 -11,11 -22,21 -33,32 -6,6 -11,10 -18,15l-592 412c-3,3 -6,5 -10,7 -68,40 -144,74 -217,105 -70,30 -144,59 -217,83 -526,168 -1174,82 -1650,-192 -206,-119 -409,-249 -586,-404l-65 -55c-39,7 -103,30 -133,37 -316,69 -850,72 -1157,-23l-269 -78c-11,-3 -20,-7 -29,-12l-386 -206c-5,-3 -9,-5 -13,-8 -18,-13 -37,-26 -57,-41 102,144 210,342 254,455 26,66 54,131 85,196 18,38 33,74 47,114 12,34 30,65 42,99 1,2 1,3 2,5l66 201c0,0 0,0 0,0 0,0 0,0 0,0l34 84c2,5 4,9 5,14 8,26 15,60 27,84 20,42 20,87 0,129 -20,43 -55,71 -101,82 -62,14 -85,28 -143,50 -44,17 -95,29 -140,40 -63,16 -127,30 -191,44 -68,14 -136,28 -205,40 -45,8 -100,19 -146,20 0,0 -1,0 -1,0 -28,12 -61,16 -96,16 -190,0 -451,18 -631,-35 -30,-9 -67,-15 -98,-22 -57,-11 -115,-22 -172,-34 -90,-18 -206,-39 -290,-74 -22,-8 -40,-20 -61,-28 -39,-16 -87,-25 -128,-38 -138,-45 -287,-113 -419,-173 -124,-57 -267,-122 -381,-196l-406 -248c-3,-1 -4,-2 -6,-4 -58,-39 -82,-64 -101,-135 -11,-41 -6,-80 16,-116 22,-36 54,-59 95,-69 78,-18 150,-46 231,-61 95,-17 192,-17 288,-19 17,-1 27,-3 43,-7 34,-6 64,-8 98,-5l397 24c88,5 178,22 265,34 2,1 4,1 7,2l389 74 -199 -359c-1,-3 -3,-5 -4,-9 -13,-26 -21,-51 -30,-78 -3,-10 -6,-17 -12,-26 -3,-5 -5,-9 -7,-14l-79 -166c-1,-4 -3,-7 -4,-11 -7,-18 -12,-37 -18,-55l-46 -106c-1,-2 -1,-4 -2,-6 -2,-5 -4,-11 -6,-16 0,0 0,0 0,-1 -4,-7 -8,-15 -11,-22 -13,-26 -22,-45 -31,-73 -13,-39 -24,-78 -37,-117 -14,-41 -24,-85 -39,-125 0,-1 0,-2 -1,-3l-24 -71c-1,-2 -1,-4 -2,-5 -35,-113 -73,-209 -73,-331 0,-48 20,-88 57,-118 37,-29 81,-39 127,-28 58,13 98,35 147,65l272 147c2,2 5,3 7,5 64,39 132,62 198,106 26,18 47,32 75,48 27,14 54,36 81,49 9,4 16,8 24,14l710 523zm-672 2098l358 16 596 -44c239,-36 485,-53 717,-125 191,-59 390,-76 583,-123l87 -22c2,0 4,-1 5,-1 6,-1 12,-3 18,-5 256,-67 558,-126 823,-98 263,28 486,-12 743,89l548 191c50,15 105,46 150,71 20,11 41,23 62,35 95,-59 192,-92 295,-134 3,-2 7,-3 10,-4l346 -111c1,0 1,0 2,0 52,-16 101,-37 152,-56 136,-53 250,-73 396,-75 191,-2 391,-13 582,-2 194,12 388,55 578,98l279 63c0,0 1,0 1,0 90,21 180,40 270,58 52,10 102,19 153,35 122,39 258,56 385,72l433 56c1,0 3,1 4,1 139,22 298,29 439,32 115,3 305,6 418,-21 9,-3 17,-5 25,-7 82,-17 137,10 186,76 33,45 39,100 15,151 -23,51 -68,82 -123,87 -27,3 -78,20 -103,30 -46,16 -83,41 -132,57 -86,27 -170,60 -256,89 -2,1 -5,1 -7,2 -11,6 -22,12 -33,18 -6,3 -12,6 -19,8l-191 67c-2,1 -4,1 -7,2 -82,24 -165,51 -248,74 -112,31 -223,53 -338,71 -230,36 -423,26 -652,20 -202,-5 -463,-37 -658,-88 -241,-61 -495,-81 -740,-115 -4,-1 -8,-2 -13,-3l-136 -31c-6,-2 -11,-3 -16,-5 -37,-14 -88,-21 -127,-28 -51,-8 -102,-16 -153,-25 0,0 -1,-1 -2,-1l-317 -66 486 267c115,52 227,117 344,157l241 81c4,2 8,3 12,5 41,17 66,24 95,67 26,38 23,58 27,98 19,184 -143,356 -326,356 -171,0 -215,-51 -341,-144l-447 -284c-140,-75 -277,-159 -416,-237 -83,-47 -166,-94 -251,-138 -30,-16 -76,-41 -113,-57 -42,17 -96,48 -129,66 -64,34 -126,70 -189,105 -62,34 -125,66 -185,102 -62,38 -128,69 -190,107l-185 111c-61,36 -122,74 -182,111 -149,92 -288,249 -473,260 -93,5 -176,-27 -248,-84 -57,-45 -101,-98 -113,-171 -10,-52 1,-91 5,-141 6,-73 63,-131 137,-137 91,-7 291,-100 383,-134 60,-22 118,-65 178,-92 19,-9 39,-18 58,-26 13,-5 26,-10 38,-15l225 -124c1,0 1,0 2,-1 16,-8 32,-15 48,-23 45,-22 91,-50 136,-78 -116,31 -242,48 -360,68l-310 66c-47,13 -102,21 -150,28 -71,11 -143,20 -214,30 -106,14 -215,26 -320,43 -31,6 -61,10 -92,14 -5,1 -11,2 -17,3 -10,4 -21,8 -32,11 -62,20 -120,21 -182,33 -204,37 -398,41 -602,64 -109,11 -208,2 -317,-4 -344,-20 -667,-103 -988,-224 -91,-34 -181,-73 -270,-109 -55,-22 -110,-44 -165,-64 -26,-9 -63,-24 -90,-29 -54,-6 -98,-38 -120,-87 -23,-51 -18,-106 15,-151 36,-49 61,-86 136,-90 22,0 43,4 63,12zm7933 -666c26,-66 48,-138 71,-206 27,-81 59,-184 101,-258 22,-41 43,-101 61,-145 34,-84 70,-169 110,-250 34,-70 73,-138 118,-201 16,-23 25,-46 38,-71 86,-172 339,-361 496,-477 54,-40 107,-81 161,-121 147,-111 302,-201 459,-296 32,-19 59,-41 93,-59 30,-16 63,-27 91,-44 31,-18 61,-37 93,-54 1,-1 1,-1 2,-2l373 -193c48,-24 101,-23 147,5 46,28 72,75 72,129 0,124 -62,314 -101,433 -40,122 -84,244 -131,364 -5,13 -8,26 -13,39 -2,3 -3,6 -4,8l-241 519c0,0 -1,1 -1,2 -8,17 -15,35 -23,52 -2,4 -4,7 -6,11l-89 154c46,-8 92,-16 138,-25 6,-1 10,-2 15,-2l897 -93c11,-1 20,-1 31,0l508 54c7,1 12,2 18,3 38,9 73,25 109,33 49,12 87,44 105,91 19,48 14,97 -14,139 -67,99 -355,257 -463,319 -88,49 -177,97 -266,144 -57,30 -117,62 -176,88 -24,11 -48,18 -72,27 -16,6 -34,15 -49,22 -26,14 -48,27 -76,39 -26,11 -49,20 -76,29 -48,17 -96,33 -144,50l-113 38c-228,82 -470,127 -709,166 -31,16 -65,20 -105,20l-437 0c-28,0 -56,-5 -80,-14 -8,0 -15,1 -23,1 -17,0 -35,0 -52,-1 -31,-2 -61,-12 -85,-29 -28,-5 -57,-9 -85,-14 -70,-13 -141,-26 -212,-41 -74,-15 -150,-31 -223,-52 -3,-1 -6,-2 -10,-4l-170 -62c-40,-14 -69,-42 -86,-81 -17,-39 -17,-79 0,-118l28 -66zm-10222 -5715c24,67 35,151 45,220 12,97 22,194 30,291 13,161 22,321 32,481 20,286 -189,854 -307,1124 -22,50 -40,101 -61,151 -16,42 -49,90 -59,132 -17,73 -83,122 -158,115 -112,-9 -429,-180 -536,-245 -206,-124 -395,-281 -565,-451 -155,-156 -286,-272 -408,-460 -84,-130 -146,-247 -190,-396 -21,-72 -39,-141 -67,-212 -26,-68 -39,-159 -49,-231 -15,-102 -25,-205 -34,-307 -13,-159 -26,-326 -26,-485 0,-44 16,-81 48,-111 32,-29 71,-43 114,-39 159,13 356,148 476,250l145 125c3,3 6,5 9,8 108,109 203,239 290,365 3,3 5,6 7,10l109 187c10,17 19,34 28,51 8,-19 17,-38 25,-57 32,-69 65,-138 99,-205 18,-35 37,-65 57,-98l109 -187c1,-1 1,-2 2,-3 20,-33 40,-63 63,-94 53,-74 103,-162 152,-239 60,-93 171,-284 283,-314 44,-12 87,-4 125,22 38,26 59,64 63,110 3,37 36,102 49,138 21,60 31,120 49,180l51 174zm13986 1594l-20 -51c-2,-4 -4,-8 -5,-12 -1,-2 -1,-4 -2,-6l-5 -15c0,-1 -1,-2 -1,-3 -1,-4 -2,-9 -3,-13l-5 -19c-41,-134 -91,-333 -82,-470 7,-130 15,-260 24,-390 6,-79 13,-158 22,-237 6,-59 13,-123 27,-180l25 -112c1,-5 2,-10 4,-14 9,-26 12,-54 18,-80 16,-75 33,-150 55,-223 23,-77 51,-152 82,-226 7,-18 12,-38 17,-56 16,-69 75,-116 146,-116l26 0c74,0 136,54 148,126 8,10 16,19 23,30 21,30 38,60 58,91l227 336c1,0 1,1 1,1 58,88 112,185 164,276 32,58 65,115 96,174 21,39 48,86 62,128 5,13 10,27 15,42l135 -237c1,-1 2,-3 3,-5 181,-290 545,-673 887,-753 46,-10 90,0 127,29 37,30 57,70 57,118 0,353 -4,697 -95,1042 -21,78 -47,154 -78,229 -30,74 -49,147 -93,215 -66,104 -131,213 -206,312 -96,129 -209,237 -331,343 -72,63 -135,125 -215,180l-227 167c-2,2 -4,3 -6,5 -129,85 -467,282 -611,294 -83,7 -155,-54 -162,-137 -2,-24 -41,-85 -54,-112 -1,-3 -3,-6 -4,-10l-188 -481c-2,-3 -3,-7 -4,-10 -17,-57 -33,-114 -52,-170zm-14028 1593c-4,-55 -7,-110 -7,-166l0 -206c0,-182 11,-372 38,-551 12,-87 18,-181 41,-264 20,-72 43,-110 50,-188 4,-46 25,-84 63,-110 38,-27 81,-34 125,-23 115,31 240,233 303,329 41,63 81,126 120,190 22,37 47,77 67,116 27,54 56,105 85,157 44,80 82,161 118,245 11,25 26,48 37,74 14,30 25,62 36,94l97 250c49,94 51,126 60,234 4,50 7,99 10,149 5,82 14,190 6,271 -16,153 -1,306 -22,459 -9,68 -16,137 -24,206 0,3 -1,6 -1,9l-37 195c-13,72 -74,123 -147,123 -87,0 -191,-21 -276,-38 -84,-17 -168,-35 -251,-57 -272,-70 -601,-207 -835,-363 -87,-57 -173,-130 -252,-197 -79,-66 -161,-136 -233,-210 -2,-1 -3,-3 -5,-4l-133 -146c-26,-27 -44,-54 -67,-81 -4,-4 -7,-7 -10,-12l-237 -329c-2,-3 -4,-5 -5,-7 -17,-26 -35,-51 -53,-76 -5,-6 -8,-11 -11,-17l-197 -370c-1,-1 -1,-2 -2,-4 -32,-64 -73,-169 -89,-238 -11,-47 -1,-91 29,-128 29,-37 70,-57 117,-57 94,0 251,29 334,70 33,17 71,24 106,36 164,57 302,143 452,226 2,1 4,2 6,3l200 122c0,0 1,1 1,1 34,21 60,48 91,68 1,1 3,2 5,4l297 211zm12839 1077c-7,-22 -11,-44 -14,-68 0,-2 0,-3 0,-4l-14 -167c0,-2 0,-3 0,-5 -4,-79 2,-157 0,-236 -5,-156 -14,-400 35,-545 1,-2 2,-5 3,-7 0,-1 1,-2 1,-3l99 -269c29,-85 77,-165 108,-253 19,-56 51,-115 78,-168 38,-73 79,-145 120,-216 64,-111 132,-229 206,-335 71,-102 173,-288 298,-321 47,-13 93,-4 131,27 38,30 58,72 57,121 0,11 -1,24 -1,36 20,50 29,102 38,155 66,407 97,777 73,1183 8,-6 17,-13 26,-20 71,-50 140,-103 210,-154 88,-63 179,-121 272,-178 35,-21 67,-45 101,-66 3,-1 4,-2 7,-3l205 -111c160,-97 499,-211 682,-211 53,0 97,25 126,68 28,44 33,95 12,143l-91 205c-174,397 -429,765 -742,1064 -2,2 -3,3 -4,4l-26 23c-10,8 -18,17 -28,27 -23,23 -46,47 -70,70 -3,4 -7,7 -11,10l-239 198c-2,2 -4,3 -6,5 -71,53 -111,94 -196,132 -29,13 -45,22 -71,39 -141,92 -501,219 -669,254 -72,15 -145,30 -215,51 -89,27 -200,41 -292,41 -82,0 -148,-65 -150,-147 -2,-94 -32,-202 -45,-297 -4,-27 -3,-46 -4,-72zm-15034 -5860c0,0 0,0 0,0l-19 -56c-2,-4 -3,-8 -4,-12 -5,-18 -9,-41 -11,-60 -13,-94 -24,-188 -24,-283 0,-87 5,-176 6,-264 1,-99 13,-180 38,-276 5,-21 10,-42 15,-63 34,-162 46,-374 117,-521 31,-66 103,-99 173,-80 230,61 435,439 528,645 30,67 45,130 67,199 12,36 23,70 32,107l24 83c5,16 11,35 15,55 182,-237 389,-467 607,-659l209 -190c45,-41 107,-51 162,-26 56,24 89,76 89,137 0,36 2,71 4,108 5,63 5,125 3,189 0,3 0,6 0,9l-22 271c0,2 -1,4 -1,6 -14,114 -23,229 -52,341l-107 477c-10,57 -23,113 -40,169 -40,141 -178,346 -262,470 -86,128 -181,263 -280,383 -4,5 -8,10 -12,15 -3,2 -5,4 -7,7 -2,2 -4,5 -6,7 -2,2 -4,4 -5,7l-17 19c-43,54 -62,89 -124,130 -59,39 -134,33 -186,-14l-247 -229c-2,-1 -3,-2 -5,-4 -51,-51 -101,-102 -146,-158 -28,-33 -55,-66 -84,-98 -4,-5 -8,-9 -11,-14l-150 -211c-1,-3 -3,-5 -5,-8 -17,-28 -30,-55 -45,-83 -38,-71 -80,-141 -115,-213 -46,-96 -76,-192 -99,-296l-3 -16zm17500 -517c58,-270 123,-495 274,-734 84,-132 255,-355 419,-369 44,-3 82,10 114,40 32,29 49,66 49,110 0,34 17,98 25,132 12,47 24,93 35,139 0,1 0,3 1,4l10 50c76,255 92,655 64,917 -7,68 -19,138 -32,206 -40,204 -134,364 -227,546 -83,164 -182,280 -299,418 -2,2 -3,4 -5,6l-138 146c-1,1 -2,3 -4,4 -20,20 -39,38 -57,59 -4,4 -7,8 -12,11l-184 164c-52,46 -125,51 -183,12 -48,-32 -69,-55 -94,-107 -7,-9 -20,-22 -28,-30 -59,-59 -114,-134 -164,-201 -44,-59 -86,-119 -131,-178 -19,-26 -38,-48 -56,-76 -18,-27 -25,-49 -38,-75l-120 -193c-3,-4 -5,-8 -7,-13 -7,-13 -12,-26 -18,-39 -103,-222 -131,-511 -189,-750l-39 -163c-23,-83 -31,-210 -39,-296 -8,-91 -17,-186 -19,-278 -2,-69 13,-130 13,-196 0,-49 21,-90 59,-119 38,-30 84,-39 130,-26 31,8 60,22 87,40 35,25 61,54 89,86 8,9 17,21 27,29 3,2 5,4 8,7l412 399c4,3 7,7 11,11 80,96 172,195 247,295 3,4 6,8 9,12zm-1803 -4620c-26,-93 -42,-188 -49,-287 -14,-211 -4,-509 96,-698 33,-62 103,-93 171,-75 103,28 144,97 212,164 87,87 165,173 235,274 47,69 90,140 136,209 53,81 105,161 140,252 15,42 31,78 52,118 122,233 121,456 121,711 0,191 -19,348 -74,530 -24,84 -51,165 -71,251 -16,68 -76,116 -146,116 -97,0 -313,-73 -406,-112l-165 -67c-1,0 -2,-1 -4,-1 -160,-70 -332,-145 -471,-252 -53,-41 -103,-86 -152,-131 -71,-65 -142,-128 -215,-190 -210,-177 -433,-342 -603,-561 -38,-48 -78,-90 -111,-143 -3,-4 -5,-8 -7,-12l-72 -146c-25,-50 -21,-105 10,-151 31,-46 81,-70 136,-65 72,6 171,20 239,41 41,12 87,20 128,27 64,11 127,21 191,32 93,15 188,29 280,50 98,21 197,50 292,81 35,11 71,23 107,35zm-12952 1c10,-4 21,-7 31,-11 65,-22 131,-39 197,-55 8,-2 16,-4 24,-6 4,-2 8,-3 11,-5 8,-2 15,-4 24,-6l937 -182c48,-9 93,3 129,36 36,32 53,75 49,124 -21,254 -494,641 -681,815 -22,20 -45,34 -67,53 -22,21 -40,42 -65,62 -46,37 -91,78 -135,118 -67,62 -164,160 -240,205 -1,1 -2,1 -3,2l-289 161c-5,3 -10,5 -15,8 -107,45 -213,90 -321,133 -3,1 -5,2 -8,3l-336 114c-72,24 -151,-9 -184,-78 -29,-61 -48,-131 -65,-198l-25 -78c0,-1 -1,-2 -1,-4 -79,-268 -78,-486 -78,-763 0,-397 308,-893 552,-1196 76,-94 231,-282 345,-313 70,-18 142,15 174,80 40,84 63,172 78,263 6,42 9,101 19,140 1,3 1,6 2,10l9 47c0,4 1,8 1,12 9,75 13,101 -8,180 -8,32 -13,61 -17,93 -10,86 -24,161 -44,236zm-1512 1333c21,32 38,56 55,91 21,42 42,84 61,126 85,188 93,282 114,482 5,48 7,96 6,143 10,-7 20,-13 30,-20 77,-50 171,-112 256,-150l82 -39c84,-44 166,-82 253,-119 46,-21 92,-42 137,-66 4,-2 9,-4 13,-6l311 -127c53,-22 110,-13 154,25 44,37 62,92 49,148 -70,301 -217,528 -395,774l-347 516c-77,135 -298,310 -418,404 -102,79 -401,307 -522,336 -67,15 -134,-15 -167,-76 -39,-74 -93,-140 -133,-215 -64,-120 -129,-261 -165,-393 -14,-53 -33,-97 -53,-148 -50,-131 -52,-270 -52,-408 0,-158 18,-299 60,-451 1,-1 1,-3 2,-4l84 -274c1,-2 1,-3 2,-5 24,-68 34,-115 71,-181 22,-38 40,-76 59,-116 38,-83 79,-157 127,-235 39,-63 68,-95 144,-115 78,-21 160,25 182,103zm15747 842c-3,-105 3,-210 20,-312 11,-61 21,-116 43,-174 4,-10 8,-20 13,-30 0,-1 0,-2 1,-3 10,-28 21,-56 33,-83 24,-55 52,-109 80,-162 13,-25 30,-54 43,-80 9,-32 28,-58 57,-79 38,-26 81,-34 125,-22 114,31 137,98 190,186 33,53 59,104 85,161 9,21 18,41 29,62 35,69 65,137 90,211 19,55 36,110 56,165l28 77c2,4 3,8 4,12 8,31 14,65 20,97 68,340 70,517 -14,853 -1,5 -3,10 -5,16l-136 365c-2,4 -3,7 -5,11 -26,56 -63,114 -95,167 -23,37 -61,95 -78,135 -20,68 -84,112 -156,106 -132,-11 -362,-195 -467,-278 -113,-89 -224,-182 -334,-276 -77,-66 -137,-135 -189,-222l-285 -416c-64,-94 -134,-187 -195,-283 -68,-107 -123,-227 -178,-341 -15,-32 -29,-77 -39,-112 -25,-81 -49,-175 21,-245 32,-33 68,-52 115,-53 42,-1 74,14 106,38 2,2 3,3 5,4l293 135c5,2 8,4 12,6 8,5 15,7 24,10 30,9 57,18 86,32 2,1 4,2 6,3l513 272c2,1 3,2 5,3 25,14 49,29 73,44zm-4067 -3802l-496 -452c-52,-47 -65,-120 -32,-182 33,-61 101,-91 169,-74l582 146c273,51 548,83 813,170 62,20 118,45 177,69 140,58 311,184 413,295 17,18 32,39 50,57 125,124 232,307 311,465 1,2 2,4 3,6l145 331c22,48 17,99 -11,142 -29,44 -74,69 -126,69 -56,0 -89,-9 -139,-19l-305 -56c-2,0 -4,0 -6,-1 -34,-7 -70,-13 -104,-22 -39,-10 -75,-25 -112,-41 -64,-27 -121,-46 -186,-67 -114,-37 -226,-106 -328,-167 -6,-4 -10,-7 -15,-11l-477 -372c-4,-3 -7,-6 -11,-10 -18,-17 -38,-30 -57,-46 -1,-1 -2,-2 -3,-2l-129 -116c-3,-2 -5,-4 -8,-7 -37,-37 -80,-68 -118,-105zm-6947 -377l-1034 893c-6,4 -11,8 -17,12 -73,47 -140,98 -211,147 -103,70 -223,123 -337,173 -225,100 -476,138 -718,179 0,0 0,0 -1,0 -4,3 -8,6 -13,9 -59,35 -135,24 -182,-23 -3,-3 -5,-6 -8,-8 0,-1 0,-1 -1,-2 -1,-1 -3,-3 -4,-4 -10,-10 -19,-21 -26,-33 -47,-81 -15,-154 24,-226 44,-80 66,-171 111,-252 11,-21 24,-40 38,-60 19,-28 34,-57 49,-88 59,-119 133,-216 223,-313 22,-24 36,-50 61,-75 25,-25 48,-37 71,-58 133,-118 266,-200 434,-257 111,-37 227,-61 340,-92 1,0 2,0 3,0l144 -36c4,-1 8,-2 12,-3 64,-10 128,-22 191,-35 69,-13 138,-25 207,-38l154 -30c7,-3 14,-6 21,-9 70,-26 138,-30 208,-51 0,0 1,0 2,0l181 -50c63,-18 127,6 164,59 37,54 36,122 -3,175l-44 59c-6,8 -13,15 -20,22 -6,5 -13,10 -19,15z"/>
  </g>
  <g id="_1912065284736">
   <path class="fil1" d="M5002 15619l-384 -17c-50,-4 -19,-30 -54,17 72,6 448,169 562,211 310,117 615,196 944,215 90,5 186,16 292,4 220,-23 360,-20 590,-62 59,-11 113,-11 166,-28 41,-13 7,-9 70,-19 39,-6 48,-6 90,-14 137,-22 582,-72 673,-99l318 -68c120,-20 279,-42 391,-78 368,-117 286,27 460,41l0 26c-106,25 -401,239 -533,304 -25,12 -20,8 -43,21l-233 128c-15,6 -28,10 -46,18 -18,7 -31,13 -53,23 -71,32 -117,70 -187,96 -108,40 -317,135 -424,144 -7,84 -30,117 51,181 191,149 339,-55 550,-186 66,-40 121,-74 184,-112l185 -111c66,-39 128,-69 189,-106 64,-39 124,-69 191,-106 46,-25 339,-195 390,-196 71,-1 758,407 856,460l456 290c117,86 131,117 256,117 101,0 186,-101 177,-191 -4,-40 8,-25 -32,-42l-242 -81c-128,-45 -238,-110 -363,-165l-838 -462c-26,-17 -31,-15 -40,-50 185,-43 118,-134 393,-57l414 86c77,15 230,34 301,59l136 32c247,35 512,56 756,119 167,43 447,79 625,83 224,6 384,19 625,-18 263,-41 343,-75 567,-141l191 -66c31,-16 28,-19 61,-30 96,-31 168,-61 258,-89 51,-17 77,-38 125,-55 33,-12 103,-35 142,-38 -20,-27 -17,-21 -40,-17 -1,0 -5,2 -7,2 -193,51 -727,26 -924,-6l-433 -56c-139,-19 -283,-37 -411,-78 -43,-14 -82,-20 -136,-31 -96,-19 -186,-38 -276,-59l-278 -63c-541,-118 -571,-99 -1125,-92 -261,4 -334,72 -506,124l-346 111c-98,40 -195,72 -287,132 -29,19 -25,33 -57,33 -19,0 -201,-114 -266,-134l-554 -192c-232,-93 -443,-53 -706,-81 -242,-25 -534,32 -769,94 -7,2 -18,5 -25,7l-87 21c-184,45 -393,65 -575,122 -246,76 -486,91 -744,130l-611 45z"/>
   <path class="fil1" d="M12685 14912l170 62c181,51 519,105 543,112 52,15 -22,19 72,19 40,0 30,-8 51,-6 57,6 -7,19 52,19l437 0c63,0 15,-8 68,-16 232,-37 474,-82 696,-161l115 -39c55,-19 87,-30 143,-50 32,-11 36,-12 65,-25 42,-18 32,-16 68,-35 13,-6 50,-23 62,-28 31,-12 36,-11 66,-24 119,-52 778,-404 841,-498 -41,-9 -66,-23 -109,-33l-508 -54 -896 93c-83,17 -163,28 -239,44 -55,13 -50,19 -111,31 -28,6 -84,19 -119,22 21,-40 30,-58 57,-98l202 -350c8,-17 15,-35 24,-54l241 -518c6,-14 8,-24 13,-38 61,-156 222,-594 222,-743l-373 193c-33,18 -56,33 -89,52 -34,20 -57,26 -95,46 -34,18 -57,38 -87,55 -159,96 -294,174 -446,288 -58,43 -104,78 -162,121 -136,101 -382,285 -451,424 -20,40 -26,57 -50,91 -137,191 -234,498 -281,582 -48,86 -120,339 -164,448l-28 68z"/>
   <path class="fil1" d="M4526 14345l-702 -134c-80,-12 -180,-29 -251,-33l-401 -24c-58,-5 -62,10 -126,12 -90,2 -181,2 -266,17 -84,15 -152,43 -223,59 9,35 14,33 40,50l407 249c159,103 624,307 767,353 50,16 97,25 138,42 38,15 24,13 62,29 107,44 470,101 546,124 139,41 351,29 588,29 67,0 12,-10 67,-16 27,-3 -10,0 27,0 74,-2 533,-97 631,-134 73,-28 65,-34 163,-56 -16,-33 -26,-74 -36,-107l-34 -83c0,-2 -2,-5 -2,-7l-68 -204c-15,-43 -27,-57 -42,-100 -15,-40 -21,-58 -41,-100 -35,-73 -60,-130 -90,-207 -50,-129 -229,-440 -327,-534l-838 -617c-33,-16 -51,-33 -88,-53 -45,-25 -48,-28 -87,-55 -69,-46 -128,-62 -193,-103l-275 -149c-35,-22 -63,-39 -106,-49 0,104 42,207 67,287l24 71c14,39 25,86 40,129 12,37 23,77 37,117 11,33 10,28 23,55 1,1 12,24 12,24 11,25 3,7 11,28l47 109c8,21 11,37 19,58l79 166c29,49 24,67 49,119l320 580c21,38 19,11 32,58z"/>
   <path class="fil1" d="M1244 10086c-6,-74 -60,-138 -84,-212 -27,-83 -52,-135 -92,-205l-109 -187c-80,-115 -174,-245 -273,-344l-146 -125c-95,-79 -271,-205 -390,-214 0,197 44,825 99,969 88,227 57,294 243,580 122,188 230,277 388,436 161,160 342,311 536,429 80,48 398,218 471,224 16,-68 43,-94 66,-153 21,-53 40,-105 63,-156 105,-241 311,-804 295,-1054 -11,-161 -43,-800 -101,-955l-52 -179c-16,-55 -27,-116 -47,-172 -20,-59 -51,-111 -56,-175 -65,17 -284,401 -353,496 -27,36 -33,48 -57,85l-109 187c-21,35 -33,52 -52,89 -35,70 -67,136 -96,200 -29,64 -60,141 -77,206 -25,92 -35,206 -67,230z"/>
   <path class="fil1" d="M16790 11437c104,-9 433,-199 541,-270l230 -170c78,-53 129,-106 203,-170 283,-248 330,-343 509,-623 34,-54 53,-124 80,-190 29,-71 53,-138 72,-211 87,-332 90,-657 90,-1004 -294,68 -631,424 -794,686l-159 278c-34,67 -95,289 -141,323 0,-90 -86,-328 -122,-432 -23,-69 -264,-481 -305,-544l-229 -338c-19,-31 -32,-55 -54,-87 -29,-40 -45,-42 -49,-92l-26 0c-7,28 -15,55 -24,78 -71,175 -90,244 -130,424 -8,37 -9,58 -21,95l-26 115c-34,133 -61,632 -70,781 -7,118 49,326 78,421l5 22c1,1 1,5 2,7l5 15c1,2 2,6 3,8l22 55c20,60 37,119 55,178l188 481c25,53 62,99 67,164z"/>
   <path class="fil1" d="M2454 11887l0 206c0,175 25,317 25,476 -62,-41 -117,-83 -177,-132l-375 -267c-34,-22 -48,-42 -88,-67l-200 -121c-142,-79 -274,-163 -429,-216 -54,-18 -75,-19 -123,-43 -61,-30 -202,-55 -268,-55 11,47 57,166 77,207l197 369c22,31 38,51 58,83l237 329c28,32 33,46 65,78l135 148c95,96 349,313 461,387 219,145 543,279 790,343 103,27 381,90 490,90l36 -196c9,-71 17,-146 25,-207 19,-148 5,-302 21,-454 6,-61 -6,-262 -17,-393 -8,-105 -5,-106 -47,-184l-100 -260c-13,-35 -20,-58 -32,-84 -17,-36 -24,-43 -39,-77 -89,-209 -116,-228 -199,-393 -26,-51 -315,-537 -395,-558 -9,113 -35,148 -54,216 -17,62 -27,168 -38,245 -23,155 -36,352 -36,530z"/>
   <path class="fil1" d="M15349 13702c81,0 182,-14 249,-34 72,-22 158,-41 228,-55 142,-29 502,-158 617,-233 38,-25 49,-31 92,-50 75,-34 106,-70 167,-115l240 -198c26,-27 44,-45 70,-71 14,-14 19,-19 33,-32l27 -24c299,-286 540,-639 709,-1016l90 -206c-152,0 -470,107 -607,191l-209 113c-45,27 -59,40 -101,66 -233,141 -274,183 -473,325 -32,23 -57,47 -93,74 -70,52 -112,91 -190,132 0,-54 5,-72 10,-106 6,-44 1,-82 4,-125 35,-444 6,-797 -65,-1236 -32,-197 -42,-85 -39,-219 -58,16 -178,213 -213,263 -95,136 -344,562 -386,683 -40,116 -85,184 -107,253l-100 271c-1,2 -2,5 -3,7 -38,113 -31,356 -27,492 2,76 -4,157 0,232l13 167c7,65 14,20 15,82 1,28 -2,22 2,54 13,91 45,218 47,315z"/>
   <path class="fil1" d="M1128 8696c45,-30 58,-59 92,-101l18 -21c2,-2 4,-5 6,-7 2,-2 4,-5 6,-7 2,-2 4,-5 6,-7 2,-3 9,-11 11,-14 134,-161 466,-632 514,-799 16,-54 27,-100 37,-157l108 -483c26,-101 36,-212 49,-323l22 -272c5,-178 -7,-158 -7,-293l-209 190c-253,223 -503,513 -701,791 -39,55 -56,140 -106,177 0,-113 -29,-342 -59,-430l-26 -90c-11,-45 -19,-66 -30,-99 -22,-71 -31,-117 -61,-183 -69,-154 -262,-517 -429,-562 -53,111 -76,350 -105,487 -20,94 -48,158 -50,310 -3,260 -18,264 17,525 0,2 6,38 7,44l20 57c1,3 2,7 3,10l5 21c46,219 103,291 199,470 18,33 22,44 41,75l149 211c110,122 72,98 225,251l248 229z"/>
   <path class="fil1" d="M17704 7357c-35,-23 -38,-39 -43,-47 -202,-332 -137,-229 -416,-562l-412 -398c-50,-41 -81,-108 -146,-125 0,85 -15,114 -13,193 2,89 31,463 53,539l40 166c50,210 92,534 179,722 5,10 8,20 16,36l123 198c17,31 14,36 34,69 19,29 28,37 50,66 70,92 206,288 281,363 87,86 36,76 100,119l184 -164c23,-25 39,-41 63,-65l137 -146c106,-125 198,-227 281,-389 76,-150 176,-315 213,-507 12,-63 24,-143 30,-193 26,-240 9,-634 -61,-864l-11 -57c-20,-82 -64,-242 -64,-305 -97,8 -252,216 -305,300 -147,232 -204,444 -261,717 -23,110 -52,139 -52,334z"/>
   <path class="fil1" d="M16082 2621c-37,-10 -112,-58 -154,-77 -135,-60 -404,-144 -546,-175 -170,-37 -489,-76 -609,-111 -46,-14 -160,-32 -209,-36l73 146c28,46 67,86 101,130 160,205 384,372 581,539 387,327 317,338 802,549l165 67c64,26 282,101 350,101 62,-266 141,-368 141,-747 0,-232 3,-436 -104,-641 -86,-165 -30,-124 -184,-357 -127,-193 -156,-265 -352,-459 -40,-40 -89,-111 -145,-126 -87,165 -89,454 -78,618 11,163 49,306 113,442 17,36 48,104 55,137z"/>
   <path class="fil1" d="M1900 2788c0,295 -2,472 72,721l26 82c16,62 34,128 57,176l336 -114c110,-45 209,-86 319,-132l288 -162c66,-39 241,-217 358,-311 25,-20 36,-35 60,-57 27,-24 36,-25 64,-51 116,-108 618,-533 634,-718l-938 182c-24,9 -17,7 -50,15 -163,42 -210,56 -364,125l-167 77c6,-70 35,-45 73,-159 106,-318 70,-339 109,-488 18,-68 10,-74 4,-127l-9 -48c-17,-67 -12,-218 -87,-375 -62,17 -220,205 -266,262 -219,272 -519,745 -519,1102z"/>
   <path class="fil1" d="M768 4951c0,358 45,316 100,517 31,115 96,255 153,362 42,79 93,139 133,214 98,-22 750,-492 847,-671l351 -524c165,-229 306,-440 372,-722l-311 127c-141,75 -214,91 -392,186l-88 42c-98,44 -400,241 -467,304 -29,27 -36,40 -68,62 0,-104 55,-245 32,-460 -21,-199 -21,-258 -101,-436 -22,-47 -39,-80 -59,-121 -37,-74 -53,-73 -65,-116 -35,10 -37,20 -54,48 -113,183 -109,214 -183,346 -35,64 -36,89 -60,158l-85 273c-37,133 -55,253 -55,411z"/>
   <path class="fil1" d="M17292 4860c-77,-51 -89,-110 -345,-260l-512 -272c-49,-23 -77,-22 -121,-47l-301 -139c-41,-23 -32,-33 -49,-15 -15,15 39,169 48,187 168,353 151,300 361,603l288 421c44,74 92,131 159,188 128,109 595,508 717,518 13,-49 146,-248 180,-321l136 -366c76,-303 80,-448 13,-787 -6,-29 -13,-67 -18,-86l-28 -78c-55,-146 -61,-207 -139,-359 -37,-73 -47,-113 -108,-214 -39,-64 -47,-104 -101,-118 -1,20 -105,182 -158,331 -10,28 -3,6 -15,37 -18,48 -25,90 -35,145 -36,211 -18,434 28,632z"/>
   <path class="fil1" d="M15027 1605l-145 -331c-71,-142 -173,-317 -283,-426 -25,-24 -32,-37 -54,-61 -84,-91 -240,-209 -360,-258 -64,-27 -97,-43 -166,-65 -260,-85 -528,-116 -799,-167l-587 -147 499 454c45,44 78,64 122,109l130 115c28,24 35,25 63,53l477 372c326,197 250,120 496,225 94,41 86,32 190,55l305 55c46,9 61,17 112,17z"/>
   <path class="fil1" d="M6044 150l-181 50c-65,19 -135,24 -198,48 -39,15 -2,4 -37,14l-162 31c-66,13 -137,25 -206,39 -60,12 -136,26 -196,35l-144 36c-279,76 -457,88 -713,317 -29,25 -38,24 -65,51 -27,28 -29,40 -57,71 -81,87 -146,171 -199,278 -56,115 -56,92 -90,154 -39,70 -62,163 -110,251 -13,24 -40,65 -24,81 29,29 -3,6 25,-1 24,-5 9,-5 53,-13 226,-38 473,-75 682,-168 346,-153 273,-145 528,-309l1036 -894c3,-2 12,-9 14,-12l44 -59z"/>
   <path class="fil1" d="M8902 1575c579,-67 1510,23 2065,191 529,160 1238,505 1666,792l658 475c584,457 1041,1161 1393,1811 131,242 364,768 455,1052 255,790 252,1921 139,2745 -61,445 -156,773 -329,1173 -302,698 -676,1300 -1150,1874 -336,407 -912,817 -1374,1097 -351,212 -1043,534 -1412,650 -327,102 -925,197 -1301,201 -128,1 -245,13 -373,12 -350,-4 -713,-27 -1055,-77 -600,-86 -635,-93 -1178,-326 -409,-175 -1000,-476 -1355,-742 -229,-172 -278,-186 -522,-405 -72,-64 -136,-120 -203,-184 -191,-180 -203,-224 -352,-407 -490,-602 -966,-1458 -1195,-2189 -237,-756 -265,-1954 -147,-2744 92,-619 130,-644 335,-1169 227,-580 605,-1184 976,-1676l354 -405c183,-178 406,-368 616,-516 777,-546 1636,-1023 2605,-1165 261,-39 456,-41 684,-68zm-1249 -125c-255,-21 -282,-90 -656,-90 -335,0 -577,15 -889,129l-269 129c-242,133 -462,339 -613,571l-280 505c-55,112 -95,279 -147,381 -20,39 -34,37 -76,52 -123,46 -248,84 -362,141 -32,16 -48,28 -85,43l-173 84c-327,186 -623,446 -804,779 -92,171 -129,280 -179,474 0,4 -2,12 -3,15 -1,2 -2,6 -2,7l-5 14c-6,19 -5,7 -14,46 -19,79 -16,150 -28,243 -33,254 -9,541 32,774l15 88c11,52 21,8 21,119 0,34 -193,240 -226,289l-142 206c-27,44 -45,71 -70,110 -15,23 -14,22 -28,49 -11,22 -18,32 -32,59l-160 367c-39,113 -110,472 -100,591 24,289 87,581 217,839 9,18 17,34 26,52l463 682c105,132 62,84 28,246l-41 320c-4,135 -25,297 -6,420l92 511c17,57 35,128 56,176 11,24 23,54 37,78 10,17 7,10 20,32 117,196 107,201 261,382 89,106 192,206 307,285 29,20 42,29 68,48l215 133c127,76 336,169 477,218 184,63 192,35 261,215 83,218 163,438 295,632 21,30 26,38 42,73 57,123 181,224 263,329 57,72 171,163 248,215l386 207 269 78c283,88 800,82 1084,20 63,-14 176,-64 228,-33l98 83c170,149 367,276 564,389 433,250 1037,336 1529,179 107,-34 309,-119 405,-175l591 -412c16,-16 23,-22 39,-38 36,-34 19,1 35,-43 52,1 132,18 191,28 57,9 113,30 183,36 295,22 649,52 928,-35l273 -75c171,-59 336,-164 476,-271l14 -11c2,-2 5,-4 7,-6l14 -12c94,-82 182,-168 262,-265 231,-285 391,-630 503,-977 21,-65 77,-72 135,-98 108,-47 227,-73 331,-131l303 -161c107,-63 218,-136 312,-215l28 -24c250,-198 419,-467 539,-761 23,-58 104,-403 106,-471 2,-41 -4,-24 0,-48 7,-47 15,17 15,-42 0,-140 9,-421 -17,-550l-42 -241c-10,-64 -27,-119 -31,-174 67,-45 110,-113 155,-179l32 -45c33,-45 58,-71 90,-116 35,-49 55,-80 89,-131 30,-44 61,-77 84,-122 14,-27 14,-40 31,-71l137 -276c8,-21 7,-19 12,-34l5 -14c111,-291 173,-720 80,-1079 -40,-157 -90,-299 -162,-443 -112,-223 -248,-440 -415,-627 -24,-26 -25,-28 -46,-57 -74,-99 -86,-88 -63,-226l45 -313c16,-166 42,-209 18,-413 -8,-66 3,-132 -7,-199 -49,-330 -146,-641 -340,-908 -84,-116 -181,-247 -299,-333 -252,-182 -498,-358 -796,-464l-262 -99c-21,-14 -11,-5 -27,-24 -34,-42 -43,-96 -58,-148 -46,-151 -125,-295 -193,-438 -65,-136 -149,-260 -241,-377l-47 -69c-92,-144 -250,-255 -383,-350 -41,-28 -74,-56 -121,-84 -200,-121 -436,-176 -656,-233l-137 -17c-206,-13 -442,-10 -644,12 -104,12 -231,54 -338,63 -62,5 -79,-30 -122,-65l-222 -177c-117,-89 -234,-170 -364,-240 -239,-130 -473,-224 -746,-258 -39,-5 -56,-4 -91,-13 -74,-18 -159,-17 -240,-17l-483 96c-76,25 -148,52 -212,84 -355,182 -251,132 -553,322 -83,53 -269,191 -322,270z"/>
   <g>
    <path class="fil2" d="M9301 1534c3348,0 6062,2714 6062,6061 0,3348 -2714,6062 -6062,6062 -3348,0 -6061,-2714 -6061,-6062 0,-3347 2713,-6061 6061,-6061z"/>
    <path class="fil3" d="M7221 11639l135 -174 575 214c15,5 27,20 36,44 9,24 11,44 4,61l-252 679c-7,20 -19,37 -36,53 -17,16 -34,20 -52,14l-218 -81 80 -217 -149 191 -334 -124 157 -188 292 109c3,1 8,1 14,-1 5,-2 10,-7 12,-14l147 -394c4,-11 -1,-20 -14,-25l-397 -147zm-791 -785l258 175 -43 144 227 153 116 -94 245 165 -547 435 50 33 -200 138 -361 -244 255 -905zm148 521l-99 302 374 -342 -203 89 -72 -49zm-856 -1020l196 -83 419 449 -491 458 54 58 -218 89 -201 -215 505 -473 -264 -283zm-443 -937c14,-8 36,-8 66,2 29,9 50,24 62,45l372 633 -579 340 37 63 -236 33 -139 -236 190 -112 -239 39 -189 -321c-9,-16 -9,-38 1,-67 9,-28 22,-48 39,-58l615 -361zm32 344l-348 204c-5,3 -9,8 -12,13 -2,6 -3,11 0,15l90 154c2,3 7,6 14,7 7,0 13,0 17,-3l545 -320 -216 27 -53 -90c-4,-7 -12,-11 -23,-11 -5,0 -9,1 -14,4zm-331 -1829l55 279 -223 44 240 42 74 371c2,11 -2,23 -12,36 -9,12 -21,20 -33,22l-157 31 227 40 71 358c2,11 -3,24 -15,41 -12,16 -24,26 -36,28l-602 119 17 84 -226 -30 -56 -286 632 -125c7,-1 14,-5 22,-12 8,-6 11,-13 10,-19l-33 -167c-1,-5 -5,-9 -12,-13 -6,-3 -12,-5 -15,-4l-646 127 -57 -285 630 -125c7,-1 14,-5 21,-11 7,-7 10,-14 8,-22l-36 -182 -30 -10 -637 126 -56 -284 875 -173zm-192 -897l205 74 -3 659 -682 -3 0 70 -215 -83 3 -707 231 69 -2 337 312 1 -194 -78 2 -316 205 66 -2 328 138 1 2 -418zm196 -849l179 115 -134 599 -655 -146 -17 76 -197 -129 64 -288 676 151 84 -378zm372 -788l145 155 -276 548 -600 -302 -35 70 -159 -174 132 -263 618 312 175 -346zm1260 -1191l-228 212 -130 -74 -201 187 66 135 -215 201 -302 -630 -44 41 -89 -225 319 -298 824 451zm-540 28l-272 -164 248 441 -40 -218 64 -59zm1344 -625c8,15 7,37 -3,67 -10,29 -26,49 -47,60l-644 354 -323 -589 -64 35 -26 -237 240 -132 106 194 -32 -240 327 -180c16,-8 38,-7 66,3 29,10 48,24 57,41l343 624zm-344 23l-195 -354c-2,-5 -7,-9 -12,-12 -6,-3 -11,-3 -15,-1l-156 86c-4,2 -6,7 -7,14 -1,6 -1,12 2,17l304 553 -21 -216 92 -51c7,-3 10,-11 11,-22 0,-5 -1,-10 -3,-14zm1168 -1146l-14 935 -363 108 -411 -578 -92 27 19 -236 261 -77 325 505 -24 -595 299 -89zm1112 572l-57 210 -657 49 -51 -680 -71 6 66 -221 705 -53 -50 235 -336 25 23 311 63 -199 315 -24 -50 209 -327 25 11 138 416 -31zm980 339l-298 -44 92 -625c3,-18 -3,-27 -16,-29l-185 -28c-10,-1 -17,6 -19,21l-93 629 -304 -45 97 -660 -72 -10 105 -213 287 43 -34 228 111 -217 375 55c18,3 35,18 50,46 15,28 21,53 18,76l-114 773zm1164 -535l-128 187 -184 -68 -234 629 -283 -105 232 -625 -250 -93 161 -180 686 255zm98 1087l-272 -154 333 -589 -70 -40 194 -149 259 146 -444 786zm762 523c-6,8 -16,13 -31,15 -15,3 -27,0 -36,-7l-188 -155 123 -149 -184 100 -353 -291 183 -100 323 266c4,3 9,3 15,2 6,-2 10,-5 14,-10l60 -72c2,-3 4,-8 4,-15 0,-7 -2,-11 -5,-14l-313 -257c-9,-8 -15,-21 -16,-39 -1,-18 3,-32 11,-42l277 -337c9,-11 23,-19 42,-21 19,-2 33,1 44,9l178 147 -151 184 207 -138 329 271 -200 127 -295 -242c-5,-5 -11,-6 -18,-3 -7,2 -12,5 -15,9l-56 68c-3,3 -4,8 -3,14 0,6 2,10 6,13l324 267c8,6 10,18 7,35 -2,17 -7,30 -15,40l-268 325zm1253 193l-208 92 -120 -155 -530 413 -186 -238 526 -410 -164 -210 232 -69 450 577zm-48 2083l-97 -296 122 -88 -86 -260 -150 3 -92 -280 699 -9 -19 -57 242 14 136 414 -755 559zm202 -502l262 -179 -504 41 215 55 27 83zm61 1349l-215 -49 -46 -613c-1,-16 7,-33 25,-51 18,-18 36,-28 54,-29l722 -55c21,-1 42,2 63,11 22,8 33,22 34,41l18 233 -230 17 236 55 26 356 -236 -65 -23 -310c-1,-4 -3,-8 -7,-12 -4,-4 -10,-6 -18,-6l-419 32c-12,1 -17,9 -16,23l32 422zm-315 1042l36 -310 148 -28 31 -272 -137 -60 34 -293 637 286 7 -60 214 114 -50 433 -920 190zm394 -371l313 -52 -475 -175 172 140 -10 87zm-675 1345c-15,-6 -29,-24 -39,-53 -10,-29 -11,-55 -2,-77l276 -681 623 253 27 -68 170 167 -103 255 -204 -83 176 165 -140 346c-7,17 -25,30 -53,40 -29,10 -52,11 -70,4l-661 -268zm253 -235l374 152c6,2 12,3 18,2 6,-2 10,-5 12,-9l67 -165c1,-4 0,-9 -3,-15 -4,-7 -8,-11 -13,-12l-585 -238 153 155 -40 97c-3,7 -1,15 6,24 3,4 7,7 11,9zm-657 1071l-131 -174 361 -551 570 375 39 -59 135 187 -389 591 -155 -183 185 -282 -260 -171 119 170 -174 265 -135 -167 180 -275 -116 -76 -229 350zm-1246 874l219 -195 416 463c4,6 12,9 21,9 10,0 16,-1 20,-4l119 -107c6,-6 9,-14 8,-24 0,-6 -2,-10 -5,-13l-419 -468 223 -199 415 463c5,5 11,8 19,10 9,2 16,1 21,-4l116 -104c5,-5 8,-11 9,-20 0,-10 -2,-17 -7,-23l-416 -464 218 -195 436 487 58 -52 95 235 -212 190 -140 -157 100 193 -283 254c-15,13 -35,18 -60,13 -24,-5 -44,-16 -59,-32l-78 -87 80 210 -254 228c-13,11 -34,15 -65,11 -30,-3 -52,-11 -64,-25l-531 -593zm-610 1217l40 -625 -139 -309 291 -131 137 304 331 233 114 -52 19 222 -224 101 -290 -226 -11 362 -268 121z"/>
    <path class="fil1" d="M8178 12160c77,0 139,63 139,139 0,77 -62,139 -139,139 -77,0 -139,-62 -139,-139 0,-76 62,-139 139,-139z"/>
    <path class="fil1" d="M10478 12160c77,0 139,63 139,139 0,77 -62,139 -139,139 -77,0 -139,-62 -139,-139 0,-76 62,-139 139,-139z"/>
    <path class="fil3" d="M8559 12650l-167 -29 71 -416 -49 -8 69 -125 170 30 -94 548zm659 21c-1,7 -6,15 -16,25 -9,9 -16,13 -22,13l-429 -33 54 -127 220 17c8,0 13,-6 14,-20l14 -190 -41 125 -206 -15c-6,-1 -14,-6 -22,-15 -8,-9 -12,-18 -12,-26l20 -259c0,-6 6,-15 16,-26 10,-11 18,-16 24,-15l350 26c14,1 30,8 47,21 17,13 24,25 24,36l-35 463zm-164 -328l4 -48c0,-3 -1,-6 -3,-8 -2,-3 -4,-5 -7,-5l-75 -6c-2,0 -5,2 -8,5 -3,3 -4,5 -5,8l-3 46c0,3 1,6 3,9 3,4 5,5 8,6l73 5c2,0 5,-1 8,-4 3,-4 5,-6 5,-8zm746 -217l-39 135 -208 15 13 184 34 -115 170 -13c7,0 15,3 24,10 9,8 13,15 14,23l20 271c1,10 -2,21 -7,31 -5,11 -12,16 -20,17l-403 30 41 -138 185 -13c4,-1 8,-3 12,-7 4,-5 6,-9 6,-13l-6 -69c0,-3 -2,-5 -6,-8 -4,-3 -7,-4 -9,-4l-225 17 -24 -321 428 -32zm447 495l-167 28 -70 -416 -49 8 24 -140 170 -28 92 548z"/>
   </g>
   <path class="fil1" d="M9301 3576c2220,0 4019,1800 4019,4019 0,2220 -1799,4020 -4019,4020 -2220,0 -4019,-1800 -4019,-4020 0,-2219 1799,-4019 4019,-4019zm0 -73c2260,0 4092,1832 4092,4092 0,2260 -1832,4093 -4092,4093 -2260,0 -4092,-1833 -4092,-4093 0,-2260 1832,-4092 4092,-4092z"/>
   <g>
    <path class="fil1" d="M8123 7074c418,-171 801,-106 1179,0 384,-101 754,-76 1118,0l1808 2579c-1065,-351 -2051,-400 -2919,0 -596,-469 -1469,-598 -2934,0l1748 -2579z"/>
    <path class="fil1" d="M9302 6631c380,-96 753,-76 1133,4l13 3 22 15 1845 2631 -61 81 -48 -16c-937,-309 -1947,-428 -2868,-3l-18 8 -39 -4 -15 -13c-324,-254 -691,-371 -1100,-385 -591,-20 -1224,174 -1765,395l-48 20 -65 -81 1783 -2630 16 -13 10 -4c410,-168 794,-122 1205,-8z"/>
    <path class="fil4" d="M8123 6704c418,-171 801,-107 1179,0 384,-102 754,-77 1118,0l1808 2578c-1065,-350 -2051,-400 -2919,0 -596,-469 -1469,-598 -2934,0l1748 -2578z"/>
    <path class="fil1" d="M9205 4011c775,0 1404,628 1404,1403 0,776 -629,1404 -1404,1404 -775,0 -1404,-628 -1404,-1404 0,-775 629,-1403 1404,-1403z"/>
    <path class="fil5" d="M9205 4081c737,0 1334,597 1334,1333 0,737 -597,1334 -1334,1334 -736,0 -1334,-597 -1334,-1334 0,-736 598,-1333 1334,-1333z"/>
    <path class="fil1" d="M11110 10669c22,70 36,157 -19,217 -67,73 -187,46 -270,19l-5 -2 -9 -4 -4 -3c-341,-234 -665,-495 -949,-797 -363,-386 -643,-823 -827,-1321 -215,-585 -279,-1214 -247,-1833l1 -28 41 -39 762 8 41 44 -2 30c-18,315 -22,633 -1,948 17,261 52,521 113,774 103,428 276,811 542,1163 229,302 510,558 809,790l8 6 12 18 4 10z"/>
    <path class="fil2" d="M8850 6948l703 8c-120,2031 449,2925 1490,3734 50,156 -13,210 -200,148 -1185,-812 -2093,-1911 -1993,-3890z"/>
    <path class="fil6" d="M9205 5055c111,287 333,821 333,1136 0,314 -222,453 -333,740 -111,-287 -333,-426 -333,-740 0,-315 222,-849 333,-1136z"/>
    <path class="fil1" d="M8779 6759l852 0c45,0 82,37 82,82l0 52c0,45 -37,81 -82,81l-852 0c-45,0 -81,-36 -81,-81l0 -52c0,-45 36,-82 81,-82z"/>
   </g>
  </g>
 </g>
</svg>
