<?xml version="1.0" encoding="UTF-8"?>
<!DOCTYPE svg PUBLIC "-//W3C//DTD SVG 1.1//EN" "http://www.w3.org/Graphics/SVG/1.1/DTD/svg11.dtd">
<!-- Creator: CorelDRAW X7 -->
<svg xmlns="http://www.w3.org/2000/svg" xml:space="preserve" width="188.618mm" height="170.619mm" version="1.1" style="shape-rendering:geometricPrecision; text-rendering:geometricPrecision; image-rendering:optimizeQuality; fill-rule:evenodd; clip-rule:evenodd"
viewBox="0 0 18862 17062"
 xmlns:xlink="http://www.w3.org/1999/xlink">
 <defs>
  <style type="text/css">
   <![CDATA[
    .fil1 {fill:#FEFEFE}
    .fil3 {fill:#FEFEFE}
    .fil0 {fill:#0061F2}
    .fil5 {fill:#FB7306}
    .fil4 {fill:#FBF206}
    .fil2 {fill:#0061F2;fill-rule:nonzero}
   ]]>
  </style>
    <clipPath id="id0">
     <path d="M0 0l18862 0 0 17062 -18862 0 0 -17062z"/>
    </clipPath>
 </defs>
 <g id="Layer_x0020_1">
  <metadata id="CorelCorpID_0Corel-Layer"/>
  <g id="_1912244010160">
   <g style="clip-path:url(#id0)">
    <image x="0" y="0" width="18862" height="17062" xlink:href="caa-logo-shadow_Images\caa-logo-shadow_ImgID1.png"/>
   </g>
  </g>
  <g id="_1912244010800">
   <path class="fil0" d="M5100 15589l-383 -18c-50,-3 -19,-30 -54,18 72,6 448,168 561,211 310,116 615,195 944,215 91,5 187,15 293,4 220,-24 360,-20 590,-63 58,-10 113,-11 165,-27 41,-13 7,-10 71,-20 39,-6 48,-6 89,-13 137,-23 582,-73 673,-99l318 -68c121,-20 280,-43 392,-78 367,-117 285,26 460,41l0 25c-107,25 -402,240 -533,304 -25,12 -21,9 -44,21l-232 128c-15,6 -28,11 -46,18 -19,8 -32,14 -54,24 -70,31 -116,70 -187,96 -107,40 -316,134 -423,143 -7,85 -31,118 50,181 191,149 339,-55 551,-185 65,-41 120,-75 183,-113l185 -111c66,-39 128,-69 190,-106 64,-38 123,-69 190,-105 47,-26 339,-196 390,-197 71,-1 759,407 856,460l457 290c116,86 131,118 255,118 101,0 187,-101 178,-192 -5,-39 7,-25 -33,-42l-242 -81c-128,-45 -238,-109 -362,-165l-839 -461c-25,-17 -31,-16 -40,-50 185,-43 119,-135 393,-58l414 87c77,15 230,33 302,59l136 31c246,35 511,57 755,120 168,42 448,78 625,83 225,6 385,18 625,-19 263,-40 344,-75 568,-141l190 -66c32,-16 29,-18 61,-29 96,-32 169,-62 258,-90 52,-16 78,-37 126,-55 32,-12 103,-35 141,-38 -19,-27 -16,-20 -39,-16 -2,0 -6,1 -7,2 -193,50 -728,25 -924,-7l-433 -56c-140,-18 -284,-37 -411,-78 -44,-13 -83,-20 -136,-31 -96,-18 -186,-37 -276,-59l-279 -62c-540,-119 -570,-99 -1125,-92 -260,3 -334,71 -506,124l-345 110c-98,40 -196,72 -287,132 -29,20 -25,33 -58,33 -18,0 -200,-114 -266,-133l-553 -193c-233,-92 -444,-53 -707,-80 -242,-26 -534,32 -768,94 -8,2 -19,5 -25,6l-88 22c-184,45 -392,65 -574,121 -246,76 -486,91 -745,130l-611 46z"/>
   <path class="fil0" d="M12783 14881l170 62c181,52 519,105 544,112 51,16 -23,19 71,19 40,0 31,-8 51,-6 58,6 -6,19 52,19l438 0c62,0 15,-7 67,-16 232,-37 474,-82 696,-161l115 -39c56,-18 87,-30 144,-49 31,-11 35,-13 65,-25 41,-19 32,-17 68,-35 12,-6 49,-23 62,-28 30,-12 36,-11 66,-24 118,-53 778,-405 840,-498 -41,-10 -65,-23 -108,-33l-508 -55 -897 93c-83,17 -163,28 -238,45 -55,12 -51,18 -111,31 -29,6 -84,19 -120,22 22,-40 30,-58 57,-98l203 -351c8,-17 14,-35 23,-53l242 -519c5,-14 7,-24 13,-38 60,-155 222,-594 222,-743l-373 193c-34,18 -56,33 -90,52 -34,20 -57,26 -95,47 -34,18 -57,37 -86,55 -160,96 -295,173 -446,287 -58,44 -104,78 -162,122 -136,101 -382,285 -451,424 -20,39 -26,56 -51,90 -137,192 -233,499 -280,583 -48,86 -121,338 -164,448l-29 67z"/>
   <path class="fil0" d="M4624 14315l-702 -135c-80,-11 -179,-29 -250,-32l-401 -25c-59,-5 -62,10 -126,12 -91,2 -182,2 -266,17 -85,16 -152,43 -224,60 9,34 15,33 40,50l408 248c158,103 624,307 767,353 50,17 97,25 138,42 37,15 24,14 61,29 107,44 470,102 546,124 140,42 351,29 588,29 67,0 12,-9 68,-16 27,-3 -10,1 26,0 75,-1 534,-96 632,-134 73,-27 65,-33 162,-56 -15,-32 -26,-73 -35,-106l-34 -84c-1,-1 -2,-5 -3,-6l-67 -205c-16,-42 -27,-57 -43,-99 -14,-41 -21,-59 -41,-101 -35,-72 -59,-130 -89,-206 -51,-130 -229,-440 -328,-535l-837 -617c-34,-16 -52,-32 -89,-53 -44,-24 -48,-28 -87,-54 -68,-47 -127,-63 -192,-104l-276 -149c-35,-22 -62,-39 -105,-49 0,105 42,208 66,287l25 72c14,38 25,86 39,128 13,37 24,77 37,118 11,33 11,28 24,54 0,1 12,25 12,25 11,24 3,6 10,27l48 109c8,21 11,38 19,59l78 166c29,48 25,66 49,118l321 580c21,39 19,12 31,59z"/>
   <path class="fil0" d="M1342 10055c-6,-73 -59,-138 -84,-212 -27,-82 -51,-135 -91,-204l-109 -187c-80,-115 -175,-245 -274,-344l-145 -125c-95,-80 -271,-205 -390,-215 0,197 43,825 99,969 88,228 57,294 243,581 121,187 230,277 388,435 160,160 341,312 536,429 80,49 397,218 471,224 16,-67 42,-94 66,-153 21,-52 40,-105 62,-156 106,-241 312,-804 295,-1053 -10,-162 -43,-801 -100,-956l-53 -178c-15,-55 -26,-117 -46,-173 -20,-58 -51,-111 -57,-175 -65,17 -284,402 -353,496 -26,37 -33,48 -56,86l-109 186c-21,36 -33,52 -52,90 -36,69 -67,135 -97,200 -29,63 -59,141 -77,206 -24,91 -34,205 -67,229z"/>
   <path class="fil0" d="M16889 11406c103,-8 432,-198 540,-270l230 -169c79,-53 130,-107 203,-170 284,-249 331,-343 509,-623 35,-54 54,-125 80,-191 29,-70 53,-138 72,-211 87,-331 90,-657 90,-1004 -293,68 -630,424 -794,686l-159 279c-34,66 -94,288 -141,322 0,-89 -86,-328 -121,-432 -24,-69 -264,-481 -306,-544l-228 -337c-20,-31 -33,-56 -55,-87 -28,-41 -45,-42 -49,-93l-26 0c-6,29 -15,56 -24,79 -71,174 -90,243 -129,424 -8,37 -10,58 -22,95l-26 114c-33,133 -61,632 -69,781 -7,119 48,326 77,421l6 22c0,2 1,6 1,7l5 16c1,2 2,5 3,8l22 55c20,59 37,118 55,177l188 481c25,53 62,99 68,164z"/>
   <path class="fil0" d="M2552 11857l0 206c0,174 26,317 26,476 -62,-42 -117,-84 -177,-132l-376 -268c-34,-22 -48,-41 -88,-66l-200 -122c-142,-78 -273,-162 -428,-215 -54,-19 -75,-20 -124,-44 -60,-30 -201,-54 -267,-54 11,46 57,165 77,206l197 369c22,31 38,52 58,84l237 329c28,31 33,45 64,77l135 148c96,96 350,313 462,388 218,145 542,279 790,342 103,27 381,90 489,90l37 -195c8,-71 16,-147 24,-207 20,-148 5,-303 21,-455 6,-60 -6,-261 -16,-392 -9,-105 -6,-107 -47,-185l-101 -260c-12,-34 -20,-58 -32,-84 -16,-36 -24,-42 -38,-77 -89,-208 -116,-228 -199,-393 -26,-50 -316,-536 -395,-557 -9,112 -35,147 -55,216 -17,62 -26,167 -38,245 -22,154 -36,351 -36,530z"/>
   <path class="fil0" d="M15447 13671c81,0 183,-14 249,-34 73,-21 159,-40 229,-55 141,-29 502,-158 616,-232 39,-25 49,-31 92,-50 76,-34 106,-70 167,-116l240 -198c26,-27 44,-44 71,-71 13,-13 18,-19 32,-32l28 -24c298,-286 540,-639 708,-1015l91 -206c-152,0 -471,107 -608,190l-209 113c-44,27 -59,40 -101,66 -233,141 -273,183 -472,326 -32,23 -58,47 -94,73 -69,52 -111,91 -189,133 0,-55 4,-72 9,-107 6,-44 1,-81 4,-124 35,-445 7,-798 -65,-1236 -32,-198 -41,-86 -38,-219 -59,15 -179,213 -214,262 -95,136 -343,563 -385,683 -41,116 -85,184 -108,253l-100 271c0,2 -2,5 -2,7 -39,113 -32,356 -28,492 2,76 -4,158 0,233l14 167c7,64 14,20 15,81 0,29 -3,23 2,55 13,91 44,218 46,314z"/>
   <path class="fil0" d="M1227 8665c44,-30 58,-59 92,-101l18 -21c1,-2 4,-5 5,-7 2,-2 5,-5 6,-7 2,-2 5,-5 6,-7 3,-2 10,-11 12,-14 134,-160 466,-632 514,-798 15,-54 26,-100 36,-157l109 -483c26,-102 35,-212 49,-324l22 -271c5,-178 -7,-158 -7,-294l-209 190c-254,224 -503,514 -702,792 -39,55 -55,139 -106,177 0,-114 -29,-343 -59,-431l-26 -89c-10,-45 -18,-66 -29,-100 -23,-70 -31,-116 -61,-183 -69,-154 -263,-517 -430,-562 -53,111 -76,350 -105,487 -20,95 -48,158 -50,311 -3,259 -18,264 17,525 0,2 7,37 8,43l20 58c1,3 2,6 3,9l4 22c47,219 104,291 200,470 18,33 22,44 41,74l149 212c110,122 72,97 225,251l248 228z"/>
   <path class="fil0" d="M17802 7327c-34,-24 -37,-40 -42,-48 -203,-331 -138,-229 -417,-561l-412 -399c-49,-41 -80,-107 -145,-125 0,86 -15,114 -14,194 2,89 32,463 53,539l40 166c50,210 92,534 180,721 4,11 8,21 15,36l124 198c16,31 13,36 34,69 19,30 27,37 49,66 70,93 206,288 281,363 87,87 37,77 100,119l184 -163c23,-26 39,-42 64,-66l137 -145c106,-125 198,-227 280,-390 76,-150 176,-314 213,-507 13,-63 25,-143 30,-192 26,-240 10,-635 -60,-865l-12 -56c-19,-82 -64,-242 -64,-306 -96,8 -251,216 -305,300 -147,232 -204,445 -261,717 -23,111 -52,139 -52,335z"/>
   <path class="fil0" d="M16181 2591c-38,-10 -112,-58 -155,-77 -135,-61 -404,-144 -545,-175 -171,-38 -490,-77 -610,-112 -46,-14 -159,-31 -209,-35l73 146c28,46 68,86 102,130 159,205 384,372 581,538 387,327 316,338 802,550l165 66c63,27 281,101 349,101 62,-266 142,-367 142,-746 0,-232 3,-437 -105,-642 -86,-165 -30,-123 -184,-357 -127,-193 -156,-264 -351,-459 -41,-40 -90,-110 -145,-125 -88,165 -90,454 -79,618 11,163 49,305 113,441 17,37 48,104 56,138z"/>
   <path class="fil0" d="M1999 2758c0,295 -2,471 71,721l27 82c16,61 33,127 56,175l337 -114c110,-44 209,-86 318,-132l289 -162c65,-38 241,-217 358,-311 25,-20 35,-35 59,-56 28,-25 36,-26 64,-52 116,-108 619,-532 634,-717l-937 182c-24,9 -18,6 -50,14 -164,42 -211,56 -364,125l-167 78c6,-70 34,-46 72,-159 107,-318 71,-339 110,-489 17,-68 10,-74 4,-127l-9 -47c-17,-68 -12,-219 -87,-375 -63,17 -220,204 -266,261 -219,273 -519,746 -519,1103z"/>
   <path class="fil0" d="M866 4920c0,359 46,316 101,518 31,114 96,255 152,361 42,80 93,140 133,215 98,-23 750,-492 847,-672l352 -523c165,-229 306,-440 371,-723l-310 127c-141,75 -215,91 -393,187l-87 41c-99,44 -400,242 -468,305 -28,26 -35,40 -67,61 0,-103 54,-244 31,-460 -21,-198 -20,-258 -101,-435 -21,-47 -38,-80 -59,-122 -36,-74 -53,-72 -64,-115 -36,9 -37,19 -55,48 -112,183 -109,214 -182,345 -36,64 -36,89 -61,158l-85 274c-36,133 -55,252 -55,410z"/>
   <path class="fil0" d="M17391 4830c-78,-52 -89,-110 -345,-260l-513 -272c-48,-23 -77,-23 -120,-47l-301 -139c-41,-24 -32,-33 -49,-16 -15,15 39,170 47,187 169,353 152,300 362,604l287 420c45,75 93,131 159,188 128,109 595,509 717,519 13,-50 146,-248 180,-322l137 -365c75,-304 80,-448 12,-788 -5,-29 -12,-67 -17,-86l-29 -77c-54,-147 -61,-207 -138,-360 -38,-72 -47,-112 -109,-213 -38,-64 -47,-104 -100,-118 -2,19 -105,182 -158,330 -11,29 -4,6 -15,37 -19,48 -26,91 -35,145 -36,212 -19,434 28,633z"/>
   <path class="fil0" d="M15126 1574l-146 -331c-71,-141 -173,-317 -282,-425 -25,-25 -32,-37 -55,-62 -84,-91 -239,-208 -359,-258 -64,-26 -98,-42 -167,-65 -259,-84 -528,-116 -799,-166l-586 -147 499 453c44,44 77,64 122,110l129 115c28,24 35,25 64,52l477 373c325,196 249,120 495,225 94,40 87,31 190,54l305 56c46,9 61,16 113,16z"/>
   <path class="fil0" d="M6143 120l-182 50c-65,19 -134,24 -197,47 -40,15 -3,5 -37,14l-162 32c-67,13 -137,25 -206,38 -61,12 -137,26 -196,36l-144 36c-280,76 -457,88 -714,316 -28,25 -37,24 -64,51 -28,28 -29,41 -58,71 -81,88 -145,171 -198,278 -57,115 -56,92 -90,154 -39,71 -63,164 -110,251 -14,24 -40,65 -25,81 29,29 -2,6 26,0 24,-5 8,-6 53,-13 226,-38 473,-76 682,-168 346,-153 273,-145 527,-309l1037 -894c3,-3 11,-10 14,-12l44 -59z"/>
   <path class="fil0" d="M9001 1545c579,-68 1509,23 2065,191 528,160 1238,504 1665,792l658 474c584,457 1042,1162 1393,1811 132,243 364,769 456,1052 254,790 252,1921 138,2745 -61,445 -155,774 -328,1174 -302,697 -676,1299 -1151,1874 -335,406 -912,816 -1374,1096 -351,212 -1042,534 -1411,650 -327,103 -926,197 -1301,201 -129,2 -245,13 -374,12 -349,-4 -713,-27 -1055,-76 -599,-87 -634,-94 -1177,-326 -409,-176 -1001,-476 -1356,-743 -228,-171 -278,-186 -522,-404 -71,-65 -135,-120 -202,-184 -192,-181 -203,-225 -352,-408 -490,-602 -966,-1458 -1195,-2188 -237,-756 -265,-1954 -148,-2744 92,-619 131,-645 336,-1170 226,-580 604,-1184 976,-1675l353 -406c183,-177 407,-367 617,-515 776,-547 1636,-1024 2605,-1166 261,-38 456,-41 684,-67zm-1250 -125c-255,-22 -281,-90 -656,-90 -335,0 -576,14 -888,128l-269 130c-243,132 -463,338 -613,571l-281 504c-55,113 -95,279 -147,381 -20,39 -33,37 -76,53 -122,45 -248,84 -362,141 -31,15 -48,27 -85,42l-172 85c-328,186 -624,445 -804,779 -93,170 -130,280 -179,474 -1,3 -3,12 -4,15 0,2 -1,5 -2,7l-4 14c-7,19 -5,7 -15,45 -19,79 -16,151 -28,243 -33,255 -9,542 32,774l16 88c10,52 20,8 20,120 0,33 -192,240 -226,289l-142 205c-26,45 -45,72 -70,111 -14,23 -13,22 -27,49 -12,21 -18,31 -32,58l-161 367c-38,114 -109,473 -100,592 24,288 87,580 218,838 9,18 17,34 25,52l464 682c104,133 61,84 27,246l-40 320c-5,135 -26,298 -7,420l92 512c17,57 36,128 57,175 10,24 23,54 37,78 9,17 7,10 20,32 116,196 107,201 260,383 90,106 193,205 308,284 29,20 41,30 67,49l216 132c126,76 335,169 476,218 185,64 193,36 261,216 83,218 164,438 295,631 21,31 27,39 43,73 57,123 181,224 263,329 56,72 171,164 248,216l385 206 269 79c284,88 800,81 1084,20 63,-14 176,-65 228,-33l98 83c171,149 368,275 564,388 434,250 1038,337 1529,179 108,-34 309,-118 405,-174l591 -413c17,-16 23,-21 40,-37 35,-35 18,1 34,-43 52,1 133,18 191,27 57,9 114,31 183,36 295,23 650,53 929,-35l272 -75c171,-59 336,-164 476,-270l14 -12c2,-2 5,-4 7,-6l14 -12c95,-81 183,-167 262,-265 232,-284 391,-629 504,-977 21,-65 77,-72 134,-97 109,-48 227,-74 332,-132l303 -160c107,-64 217,-136 311,-216l28 -24c250,-197 420,-467 539,-760 24,-58 104,-403 107,-472 1,-41 -5,-24 -1,-47 8,-48 15,17 15,-42 0,-141 10,-422 -16,-550l-43 -241c-9,-64 -26,-120 -31,-175 67,-45 110,-113 155,-179l33 -45c32,-44 57,-70 90,-116 35,-48 55,-80 88,-130 30,-45 61,-78 84,-122 14,-28 15,-41 32,-72l137 -275c7,-21 6,-19 12,-35l5 -14c110,-290 172,-720 80,-1079 -41,-157 -90,-299 -162,-442 -113,-224 -248,-440 -416,-628 -23,-26 -25,-28 -46,-56 -74,-100 -86,-89 -62,-226l45 -314c15,-165 41,-209 17,-412 -8,-66 3,-132 -7,-200 -49,-330 -146,-641 -340,-908 -84,-115 -180,-247 -298,-332 -253,-182 -499,-358 -797,-465l-261 -99c-22,-14 -11,-4 -27,-24 -35,-41 -43,-95 -59,-147 -45,-152 -125,-296 -192,-438 -65,-137 -150,-260 -241,-377l-47 -69c-93,-145 -250,-255 -384,-350 -40,-29 -74,-56 -121,-85 -200,-121 -436,-176 -656,-232l-137 -18c-206,-12 -441,-9 -643,13 -104,11 -231,54 -339,62 -62,6 -79,-29 -121,-65l-222 -177c-118,-88 -235,-169 -365,-240 -238,-129 -473,-223 -746,-258 -39,-5 -55,-3 -91,-12 -73,-18 -159,-18 -240,-18l-483 96c-76,26 -148,52 -211,85 -356,181 -251,131 -553,322 -84,53 -270,191 -323,270z"/>
   <g>
    <path class="fil1" d="M9400 1504c3347,0 6061,2713 6061,6061 0,3348 -2714,6061 -6061,6061 -3348,0 -6062,-2713 -6062,-6061 0,-3348 2714,-6061 6062,-6061z"/>
    <path class="fil2" d="M7320 11608l134 -174 576 214c15,6 27,20 36,44 9,24 10,44 4,61l-252 679c-8,20 -20,38 -37,54 -17,15 -34,20 -51,13l-219 -81 80 -216 -148 190 -334 -124 157 -187 292 108c3,1 7,1 13,-1 6,-2 10,-7 13,-14l146 -394c4,-11 0,-19 -14,-24l-396 -148zm-792 -784l258 174 -43 144 227 154 117 -95 244 165 -547 435 50 34 -200 137 -361 -244 255 -904zm148 520l-98 302 374 -341 -204 88 -72 -49zm-855 -1019l196 -83 419 448 -491 459 53 57 -218 90 -201 -216 506 -472 -264 -283zm-444 -937c15,-9 37,-9 66,1 30,9 50,25 63,45l372 633 -580 341 37 63 -236 33 -139 -237 190 -111 -238 39 -189 -322c-9,-15 -9,-38 0,-66 10,-29 23,-48 40,-58l614 -361zm33 343l-348 205c-6,3 -10,7 -12,13 -3,5 -3,10 0,15l90 153c2,4 7,6 14,7 6,1 12,0 17,-3l544 -320 -216 28 -53 -91c-4,-7 -11,-10 -22,-11 -5,0 -10,2 -14,4zm-331 -1829l55 280 -224 44 241 41 73 371c2,12 -1,24 -11,36 -10,13 -21,20 -34,23l-157 31 228 40 70 358c2,10 -3,23 -15,40 -12,17 -23,26 -35,29l-602 119 16 84 -225 -30 -57 -287 633 -125c6,-1 14,-5 22,-11 7,-7 11,-13 9,-20l-33 -167c0,-4 -4,-8 -11,-12 -7,-4 -12,-6 -15,-5l-647 128 -56 -286 630 -124c7,-1 13,-5 20,-12 7,-7 10,-14 9,-21l-36 -183 -31 -9 -636 125 -56 -284 875 -173zm-192 -897l205 74 -3 659 -682 -3 -1 71 -214 -83 3 -708 230 69 -1 337 311 2 -193 -78 1 -317 205 67 -1 328 138 0 2 -418zm196 -848l179 114 -134 600 -655 -147 -17 76 -197 -129 64 -288 675 151 85 -377zm371 -788l146 155 -277 548 -599 -302 -36 69 -159 -173 133 -264 618 312 174 -345zm1261 -1192l-228 213 -131 -74 -200 187 66 134 -216 202 -301 -631 -44 41 -89 -225 318 -297 825 450zm-541 28l-272 -163 249 441 -41 -218 64 -60zm1345 -624c8,15 7,37 -3,66 -11,29 -27,49 -47,61l-644 353 -323 -588 -64 35 -27 -237 241 -132 106 193 -32 -240 326 -179c16,-9 38,-8 67,2 28,10 47,24 57,41l343 625zm-345 22l-194 -353c-3,-6 -7,-10 -13,-13 -5,-2 -10,-3 -15,0l-156 86c-3,2 -6,6 -7,13 -1,7 0,13 2,17l304 554 -21 -217 92 -50c7,-4 11,-11 12,-22 0,-5 -1,-10 -4,-15zm1169 -1145l-15 935 -362 108 -412 -579 -92 28 20 -236 260 -78 326 505 -25 -594 300 -89zm1112 571l-58 210 -656 50 -52 -680 -70 5 65 -221 706 -53 -50 235 -337 26 24 310 62 -199 316 -23 -50 209 -327 25 10 138 417 -32zm979 340l-298 -44 93 -625c2,-18 -3,-28 -17,-30l-185 -27c-10,-2 -16,5 -18,20l-93 629 -305 -45 98 -659 -73 -11 106 -212 286 42 -33 228 111 -216 375 55c18,3 34,18 50,46 15,27 21,53 17,75l-114 774zm1165 -536l-129 188 -183 -69 -234 630 -284 -105 232 -625 -250 -93 162 -181 686 255zm97 1087l-272 -154 333 -589 -70 -40 195 -149 259 147 -445 785zm763 524c-6,7 -17,12 -32,15 -15,2 -27,0 -36,-8l-188 -154 123 -150 -183 100 -354 -291 184 -99 322 265c4,3 9,4 15,2 6,-2 11,-5 15,-9l59 -73c3,-3 4,-8 4,-15 0,-6 -2,-11 -5,-14l-313 -257c-9,-8 -14,-20 -15,-39 -1,-18 2,-32 10,-42l277 -336c10,-12 24,-19 42,-22 19,-2 34,1 44,10l178 146 -151 185 208 -138 328 270 -199 128 -295 -243c-6,-4 -12,-5 -18,-3 -7,2 -12,5 -15,9l-57 69c-2,3 -3,8 -3,14 1,6 3,10 6,13l325 267c7,6 9,17 7,34 -3,18 -8,31 -15,40l-268 326zm1252 192l-207 92 -121 -154 -530 413 -186 -239 526 -410 -164 -210 232 -69 450 577zm-47 2083l-98 -296 122 -87 -85 -261 -150 4 -92 -280 698 -9 -19 -57 242 13 137 414 -755 559zm201 -502l263 -178 -505 40 215 55 27 83zm61 1349l-214 -49 -47 -612c-1,-16 7,-33 25,-52 18,-18 36,-27 54,-29l722 -54c21,-2 43,2 64,10 21,9 32,23 34,41l17 233 -230 17 236 56 27 355 -236 -64 -24 -311c0,-3 -2,-7 -7,-12 -4,-4 -10,-6 -17,-5l-420 31c-11,1 -17,9 -16,24l32 421zm-315 1042l36 -309 148 -28 32 -273 -138 -59 34 -293 638 285 7 -60 214 114 -51 433 -920 190zm394 -371l313 -51 -475 -175 172 140 -10 86zm-674 1346c-16,-7 -29,-25 -39,-54 -11,-29 -11,-54 -2,-77l276 -680 622 252 27 -67 171 167 -104 254 -204 -83 176 166 -140 345c-7,17 -24,30 -53,40 -28,11 -52,12 -70,4l-660 -267zm253 -235l374 151c5,3 11,3 17,2 6,-1 10,-4 12,-9l67 -165c2,-4 1,-9 -3,-15 -3,-6 -7,-10 -12,-12l-586 -238 153 155 -39 98c-3,7 -1,15 5,24 3,4 7,7 12,9zm-658 1070l-131 -174 362 -550 570 374 38 -59 135 187 -388 591 -156 -183 185 -282 -260 -171 119 171 -173 264 -136 -167 180 -274 -115 -76 -230 349zm-1245 875l218 -196 416 464c5,5 12,8 21,8 10,1 17,-1 21,-4l119 -107c6,-5 8,-13 8,-24 -1,-6 -2,-10 -5,-13l-419 -468 222 -199 416 464c4,5 10,8 19,10 8,2 15,0 20,-4l117 -105c5,-4 8,-11 8,-20 1,-9 -2,-17 -7,-22l-415 -464 217 -195 436 487 59 -53 95 235 -212 190 -140 -156 100 192 -284 254c-15,14 -35,18 -59,13 -25,-5 -45,-16 -59,-32l-78 -87 80 210 -255 229c-12,11 -33,14 -64,11 -31,-4 -52,-12 -64,-25l-531 -593zm-610 1216l40 -625 -140 -308 291 -132 137 304 332 233 113 -51 20 221 -224 102 -291 -226 -11 362 -267 120z"/>
    <path class="fil0" d="M8277 12130c77,0 139,62 139,139 0,77 -62,139 -139,139 -77,0 -139,-62 -139,-139 0,-77 62,-139 139,-139z"/>
    <path class="fil0" d="M10576 12130c77,0 140,62 140,139 0,77 -63,139 -140,139 -76,0 -139,-62 -139,-139 0,-77 63,-139 139,-139z"/>
    <path class="fil2" d="M8657 12619l-166 -29 71 -415 -49 -9 68 -124 170 29 -94 548zm659 21c-1,7 -6,16 -15,25 -10,9 -17,13 -22,13l-430 -33 54 -127 221 17c8,1 12,-6 13,-20l15 -189 -42 125 -205 -16c-7,-1 -14,-5 -23,-15 -8,-9 -12,-17 -11,-25l19 -259c1,-7 6,-15 16,-26 11,-11 19,-16 24,-16l350 27c15,1 31,8 47,21 17,13 25,25 24,35l-35 463zm-163 -327l3 -49c0,-2 0,-5 -2,-8 -2,-3 -5,-4 -8,-5l-74 -5c-3,0 -6,1 -8,4 -3,3 -5,6 -5,8l-4 47c0,2 1,5 4,9 2,3 5,5 7,5l74 6c2,0 4,-2 8,-5 3,-3 4,-6 5,-7zm746 -217l-39 134 -209 16 14 183 33 -115 170 -12c8,-1 16,2 24,10 9,7 14,15 14,23l20 271c1,10 -1,20 -6,31 -6,10 -12,16 -20,16l-404 30 41 -137 185 -14c4,0 8,-3 12,-7 4,-4 6,-9 6,-13l-5 -69c0,-2 -2,-5 -6,-8 -4,-3 -7,-4 -9,-4l-225 17 -24 -320 428 -32zm447 494l-167 29 -70 -416 -49 8 23 -140 170 -29 93 548z"/>
   </g>
   <path class="fil0" d="M9400 3546c2219,0 4019,1799 4019,4019 0,2220 -1800,4019 -4019,4019 -2220,0 -4020,-1799 -4020,-4019 0,-2220 1800,-4019 4020,-4019zm0 -73c2260,0 4092,1832 4092,4092 0,2260 -1832,4092 -4092,4092 -2260,0 -4093,-1832 -4093,-4092 0,-2260 1833,-4092 4093,-4092z"/>
   <g>
    <path class="fil0" d="M8222 7044c417,-171 800,-107 1178,0 384,-102 754,-77 1119,0l1808 2578c-1066,-350 -2052,-400 -2920,0 -596,-469 -1468,-598 -2934,0l1749 -2578z"/>
    <path class="fil0" d="M9401 6601c379,-97 752,-76 1132,4l13 2 23 15 1844 2631 -60 81 -48 -16c-937,-308 -1947,-427 -2868,-3l-18 9 -39 -5 -16 -12c-324,-255 -690,-372 -1100,-385 -591,-21 -1223,174 -1764,395l-48 19 -66 -81 1784 -2630 16 -13 9 -4c411,-168 794,-122 1206,-7z"/>
    <path class="fil3" d="M8222 6673c417,-171 800,-106 1178,0 384,-101 754,-76 1119,0l1808 2579c-1066,-351 -2052,-400 -2920,0 -596,-469 -1468,-599 -2934,0l1749 -2579z"/>
    <path class="fil0" d="M9304 3980c775,0 1403,629 1403,1404 0,775 -628,1404 -1403,1404 -776,0 -1404,-629 -1404,-1404 0,-775 628,-1404 1404,-1404z"/>
    <path class="fil4" d="M9304 4050c736,0 1333,597 1333,1334 0,737 -597,1334 -1333,1334 -737,0 -1334,-597 -1334,-1334 0,-737 597,-1334 1334,-1334z"/>
    <path class="fil0" d="M11208 10638c22,70 36,158 -18,217 -68,74 -188,46 -271,19l-4 -1 -9 -5 -4 -2c-342,-234 -666,-496 -949,-798 -363,-386 -644,-822 -827,-1321 -215,-584 -279,-1213 -248,-1833l2 -28 41 -39 762 8 41 44 -2 30c-19,316 -23,633 -2,949 17,260 52,520 113,774 103,428 276,811 542,1162 230,302 511,558 809,790l9 7 12 17 3 10z"/>
    <path class="fil1" d="M8948 6918l704 7c-120,2032 448,2925 1489,3735 50,156 -12,209 -200,148 -1185,-812 -2093,-1912 -1993,-3890z"/>
    <path class="fil5" d="M9304 5025c111,286 333,821 333,1135 0,315 -222,454 -333,740 -111,-286 -333,-425 -333,-740 0,-314 222,-849 333,-1135z"/>
    <path class="fil0" d="M8878 6729l852 0c45,0 81,36 81,81l0 52c0,45 -36,82 -81,82l-852 0c-45,0 -82,-37 -82,-82l0 -52c0,-45 37,-81 82,-81z"/>
   </g>
  </g>
 </g>
</svg>
