<?xml version="1.0" encoding="UTF-8"?>
<!DOCTYPE svg PUBLIC "-//W3C//DTD SVG 1.1//EN" "http://www.w3.org/Graphics/SVG/1.1/DTD/svg11.dtd">
<!-- Creator: CorelDRAW X7 -->
<svg xmlns="http://www.w3.org/2000/svg" xml:space="preserve" width="197.372mm" height="62.7312mm" version="1.1" style="shape-rendering:geometricPrecision; text-rendering:geometricPrecision; image-rendering:optimizeQuality; fill-rule:evenodd; clip-rule:evenodd"
viewBox="0 0 19737 6273"
 xmlns:xlink="http://www.w3.org/1999/xlink">
 <defs>
  <style type="text/css">
   <![CDATA[
    .fil0 {fill:url(#id0);fill-rule:nonzero}
   ]]>
  </style>
  <linearGradient id="id0" gradientUnits="userSpaceOnUse" x1="9868.58" y1="0" x2="9868.58" y2="6273.12">
   <stop offset="0" style="stop-opacity:1; stop-color:#0061F2"/>
   <stop offset="1" style="stop-opacity:1; stop-color:#5315D1"/>
  </linearGradient>
 </defs>
 <g id="Layer_x0020_1">
  <metadata id="CorelCorpID_0Corel-Layer"/>
  <path class="fil0" d="M5239 4812l-454 1461 -4268 0c-113,0 -227,-67 -343,-200 -116,-134 -174,-263 -174,-388l0 -5035c0,-148 36,-294 107,-436 71,-143 172,-214 303,-214l1622 0 0 1604 508 -1604 2477 0 -571 1604 -2165 0c-24,0 -52,13 -85,40 -32,27 -49,67 -49,120l0 2923c0,83 51,125 152,125l2940 0zm7209 1461l-2165 0 -312 -998 -1907 0 -303 998 -2049 0 1460 -4633 -419 0 616 -1569 3030 0 2049 6202zm-2878 -2424l-606 -2120 -829 3421 829 -1301 606 0zm10167 2424l-2165 0 -312 -998 -1907 0 -303 998 -2049 0 1460 -4633 -419 0 616 -1569 3030 0 2049 6202zm-2878 -2424l-606 -2120 -829 3421 829 -1301 606 0z"/>
 </g>
</svg>
