<?xml version="1.0" encoding="UTF-8"?>
<!DOCTYPE svg PUBLIC "-//W3C//DTD SVG 1.1//EN" "http://www.w3.org/Graphics/SVG/1.1/DTD/svg11.dtd">
<!-- Creator: CorelDRAW X7 -->
<svg xmlns="http://www.w3.org/2000/svg" xml:space="preserve" width="113.535mm" height="37.255mm" version="1.1" style="shape-rendering:geometricPrecision; text-rendering:geometricPrecision; image-rendering:optimizeQuality; fill-rule:evenodd; clip-rule:evenodd"
viewBox="0 0 11354 3726"
 xmlns:xlink="http://www.w3.org/1999/xlink">
 <defs>
  <style type="text/css">
   <![CDATA[
    .fil0 {fill:white}
    .fil1 {fill:#0061F2;fill-rule:nonzero}
   ]]>
  </style>
 </defs>
 <g id="Layer_x0020_1">
  <metadata id="CorelCorpID_0Corel-Layer"/>
  <g id="_2274358732592">
   <path class="fil0" d="M1323 439l120 -379c11,-36 44,-60 82,-60l1403 0c29,0 53,13 70,36 17,24 20,51 11,79l-323 908c-13,35 -44,57 -81,57l-1216 0c0,0 0,0 -1,1 0,1 0,3 0,4l0 1641c0,0 0,0 0,0l1666 0c28,0 53,12 69,35 17,23 21,49 13,76l-257 828c-12,37 -44,61 -82,61l-2418 0c-106,0 -193,-67 -260,-144 -67,-77 -119,-170 -119,-275l0 -2853c0,-100 25,-196 70,-285 50,-101 132,-169 248,-169l919 0c47,0 86,39 86,86l0 353zm4349 2721l-954 0 -153 505c-11,36 -44,61 -82,61l-1161 0c-28,0 -53,-13 -69,-35 -17,-23 -22,-50 -13,-77l792 -2514 -120 0c-30,0 -55,-13 -71,-37 -17,-24 -20,-52 -9,-80l349 -888c13,-34 44,-55 80,-55l1716 0c38,0 70,24 82,59l1161 3514c9,27 4,54 -12,77 -17,23 -41,36 -70,36l-1227 0c-38,0 -70,-24 -81,-61l-158 -505zm4129 0l-953 0 -154 505c-11,36 -43,61 -82,61l-1161 0c-28,0 -52,-13 -69,-35 -17,-23 -21,-50 -13,-77l792 -2514 -120 0c-29,0 -54,-13 -71,-37 -16,-24 -20,-52 -9,-80l349 -888c14,-34 44,-55 80,-55l1717 0c37,0 69,24 81,59l1161 3514c9,27 5,54 -12,77 -16,23 -41,36 -69,36l-1227 0c-38,0 -71,-24 -82,-61l-158 -505zm-4407 -979l-223 -780 -271 1121 192 -301c16,-26 42,-40 72,-40l230 0zm4129 0l-222 -780 -272 1121 192 -301c17,-26 43,-40 73,-40l229 0z"/>
  </g>
  <path class="fil1" d="M3054 2812l-257 828 -2418 0c-64,0 -129,-38 -195,-114 -65,-76 -98,-149 -98,-219l0 -2853c0,-84 20,-166 60,-247 41,-81 98,-121 172,-121l919 0 0 908 288 -908 1403 0 -323 908 -1227 0c-13,0 -29,8 -48,23 -18,15 -28,38 -28,68l0 1656c0,47 29,71 86,71l1666 0zm4084 828l-1227 0 -176 -566 -1081 0 -171 566 -1161 0 827 -2625 -237 0 349 -889 1716 0 1161 3514zm-1630 -1373l-344 -1202 -469 1939 469 -737 344 0zm5760 1373l-1227 0 -177 -566 -1080 0 -172 566 -1161 0 827 -2625 -237 0 349 -889 1717 0 1161 3514zm-1631 -1373l-343 -1202 -470 1939 470 -737 343 0z"/>
 </g>
</svg>
