<?xml version="1.0" encoding="UTF-8"?>
<!DOCTYPE svg PUBLIC "-//W3C//DTD SVG 1.1//EN" "http://www.w3.org/Graphics/SVG/1.1/DTD/svg11.dtd">
<!-- Creator: CorelDRAW X7 -->
<svg xmlns="http://www.w3.org/2000/svg" xml:space="preserve" width="199.09mm" height="64.4472mm" version="1.1" style="shape-rendering:geometricPrecision; text-rendering:geometricPrecision; image-rendering:optimizeQuality; fill-rule:evenodd; clip-rule:evenodd"
viewBox="0 0 19909 6445"
 xmlns:xlink="http://www.w3.org/1999/xlink">
 <defs>
  <style type="text/css">
   <![CDATA[
    .fil0 {fill:url(#id0)}
    .fil1 {fill:url(#id1);fill-rule:nonzero}
   ]]>
  </style>
  <linearGradient id="id0" gradientUnits="userSpaceOnUse" x1="9954.63" y1="0" x2="9954.63" y2="6444.8">
   <stop offset="0" style="stop-opacity:1; stop-color:white"/>
   <stop offset="1" style="stop-opacity:1; stop-color:white"/>
  </linearGradient>
  <linearGradient id="id1" gradientUnits="userSpaceOnUse" x1="9954.5" y1="85.8011" x2="9954.5" y2="6359">
   <stop offset="0" style="stop-opacity:1; stop-color:#0061F2"/>
   <stop offset="1" style="stop-opacity:1; stop-color:#5315D1"/>
  </linearGradient>
 </defs>
 <g id="Layer_x0020_1">
  <metadata id="CorelCorpID_0Corel-Layer"/>
  <g id="_1912367380720">
   <path class="fil0" d="M2203 1135l341 -1075c11,-36 43,-60 81,-60l2478 0c28,0 53,13 70,36 16,24 20,51 10,79l-570 1603c-12,35 -44,58 -81,58l-2162 -1c-9,2 -27,16 -33,21 -16,13 -18,36 -18,54l0 2923c0,6 1,20 5,26 9,11 48,13 61,13l2940 0c29,0 53,12 69,35 17,22 22,49 13,76l-454 1461c-12,37 -44,61 -82,61l-4268 0c-167,0 -305,-111 -408,-230 -108,-125 -195,-275 -195,-444l0 -5035c0,-167 41,-326 116,-475 78,-155 201,-261 380,-261l1621 0c48,0 86,39 86,86l0 1049zm7791 4312l-1780 0 -285 937c-11,37 -44,61 -82,61l-2049 0c-29,0 -53,-12 -70,-35 -16,-23 -21,-50 -12,-77l1425 -4522 -302 0c-30,0 -55,-13 -71,-37 -17,-24 -20,-53 -9,-80l616 -1568c13,-34 44,-55 80,-55l3030 0c37,0 69,23 81,59l2050 6202c9,27 4,54 -12,77 -17,23 -41,36 -70,36l-2165 0c-38,0 -71,-24 -82,-60l-293 -938zm7289 0l-1780 0 -285 937c-11,37 -43,61 -82,61l-2049 0c-29,0 -53,-12 -70,-35 -16,-23 -21,-50 -12,-77l1425 -4522 -302 0c-30,0 -55,-13 -71,-37 -17,-24 -20,-53 -9,-80l616 -1568c13,-34 44,-55 80,-55l3030 0c37,0 69,23 81,59l2050 6202c9,27 4,54 -12,77 -17,23 -41,36 -70,36l-2165 0c-38,0 -71,-24 -82,-60l-293 -938zm-7741 -1598l-485 -1698 -631 2604 552 -866c16,-25 42,-40 72,-40l492 0zm7289 0l-485 -1698 -631 2604 552 -866c16,-25 42,-40 72,-40l492 0z"/>
  </g>
  <path class="fil1" d="M5325 4898l-454 1461 -4268 0c-113,0 -228,-67 -343,-200 -116,-134 -174,-263 -174,-388l0 -5035c0,-148 35,-294 107,-436 71,-143 172,-214 303,-214l1621 0 0 1604 508 -1604 2478 0 -571 1604 -2165 0c-24,0 -52,13 -85,40 -32,27 -49,67 -49,120l0 2923c0,83 51,125 152,125l2940 0zm7209 1461l-2165 0 -312 -998 -1907 0 -303 998 -2049 0 1460 -4634 -419 0 616 -1568 3030 0 2049 6202zm-2878 -2424l-606 -2121 -829 3422 829 -1301 606 0zm10167 2424l-2165 0 -312 -998 -1907 0 -303 998 -2049 0 1460 -4634 -419 0 616 -1568 3030 0 2049 6202zm-2878 -2424l-606 -2121 -829 3422 829 -1301 606 0z"/>
 </g>
</svg>
