<?xml version="1.0" encoding="UTF-8"?>
<!DOCTYPE svg PUBLIC "-//W3C//DTD SVG 1.1//EN" "http://www.w3.org/Graphics/SVG/1.1/DTD/svg11.dtd">
<!-- Creator: CorelDRAW X7 -->
<svg xmlns="http://www.w3.org/2000/svg" xml:space="preserve" width="205.089mm" height="46.5526mm" version="1.1" style="shape-rendering:geometricPrecision; text-rendering:geometricPrecision; image-rendering:optimizeQuality; fill-rule:evenodd; clip-rule:evenodd"
viewBox="0 0 20549 4664"
 xmlns:xlink="http://www.w3.org/1999/xlink">
 <defs>
  <style type="text/css">
   <![CDATA[
    .fil4 {fill:#0061F2}
    .fil8 {fill:#FB7306}
    .fil7 {fill:#FBF206}
    .fil5 {fill:#FEFEFE}
    .fil1 {fill:white}
    .fil6 {fill:#0061F2;fill-rule:nonzero}
    .fil2 {fill:#373435;fill-opacity:0.329412}
    .fil3 {fill:#373435;fill-rule:nonzero;fill-opacity:0.329412}
    .fil0 {fill:url(#id0)}
   ]]>
  </style>
  <linearGradient id="id0" gradientUnits="userSpaceOnUse" x1="4810.12" y1="5562.3" x2="15740.4" y2="-906.898">
   <stop offset="0" style="stop-opacity:1; stop-color:#1975FF"/>
   <stop offset="1" style="stop-opacity:1; stop-color:#035BE0"/>
  </linearGradient>
 </defs>
 <g id="Layer_x0020_1">
  <metadata id="CorelCorpID_0Corel-Layer"/>
  <g id="_2274475199520">
   <rect class="fil0" x="2" width="20547" height="4655"/>
   <path class="fil1" d="M0 3356l0 -1346c2838,-472 3607,1110 5695,1025 1575,-64 2198,-905 3838,-671 1454,207 2213,801 4025,1239 2659,642 2631,609 6989,-198l0 1259 -18264 0 -2283 0 0 -1308z"/>
  </g>
  <g id="_2274475202400">
   <g id="_1737113028928">
    <path class="fil2" d="M9233 4088l-92 -4c-12,-1 -5,-7 -13,4 17,2 107,40 135,51 74,28 147,47 226,51 22,2 45,4 70,1 53,-5 87,-5 142,-15 14,-2 27,-2 40,-6 10,-3 2,-2 17,-5 9,-1 11,-2 21,-3 33,-6 140,-18 162,-24l76 -16c29,-5 67,-10 94,-19 88,-28 69,6 110,10l0 6c-25,6 -96,57 -128,73 -6,3 -4,2 -10,5l-56 31c-3,1 -7,2 -11,4 -4,2 -7,3 -13,6 -17,7 -28,16 -44,23 -26,9 -77,32 -102,34 -2,20 -7,28 12,44 46,35 81,-14 132,-45 16,-10 29,-18 44,-27l45 -27c15,-9 30,-16 45,-25 15,-9 30,-17 46,-25 11,-6 81,-47 93,-47 17,-1 182,97 206,110l109 69c28,21 32,29 62,29 24,0 44,-25 42,-46 -1,-10 2,-6 -8,-11l-58 -19c-30,-11 -57,-26 -87,-40l-201 -110c-6,-4 -7,-4 -9,-12 44,-11 28,-32 94,-14l99 21c19,3 55,8 72,14l33 8c59,8 123,13 182,28 40,10 107,19 150,20 53,2 92,5 150,-4 63,-10 82,-18 136,-34l45 -16c8,-4 7,-4 15,-7 23,-8 40,-15 62,-22 12,-4 18,-9 30,-13 8,-3 25,-8 34,-9 -5,-6 -4,-5 -10,-4 0,0 -1,1 -1,1 -47,12 -175,6 -222,-2l-104 -13c-33,-5 -68,-9 -99,-19 -10,-3 -19,-5 -32,-7 -23,-5 -45,-10 -66,-15l-67 -15c-130,-28 -137,-23 -270,-22 -63,1 -80,17 -122,30l-83 27c-23,9 -46,17 -68,31 -7,5 -6,8 -14,8 -5,0 -48,-27 -64,-32l-133 -46c-56,-22 -106,-13 -169,-19 -58,-7 -129,7 -185,22 -2,1 -4,1 -6,2l-21 5c-44,11 -94,15 -138,29 -59,18 -116,22 -178,31l-147 11z"/>
    <path class="fil2" d="M11077 3918l41 15c43,13 124,25 130,27 12,4 -5,4 17,4 10,0 7,-1 12,-1 14,1 -1,5 13,5l105 0c15,0 3,-2 16,-4 56,-9 114,-20 167,-39l28 -9c13,-5 21,-7 34,-12 8,-3 9,-3 16,-6 10,-4 7,-4 16,-8 3,-2 12,-6 15,-7 7,-3 9,-3 16,-6 28,-13 186,-97 202,-119 -10,-3 -16,-6 -27,-8l-121 -13 -216 22c-19,4 -39,7 -57,11 -13,3 -12,4 -27,7 -6,1 -20,5 -28,5 5,-9 7,-14 14,-23l48 -84c2,-4 4,-9 6,-13l58 -124c1,-4 2,-6 3,-10 14,-37 53,-142 53,-178l-89 46c-8,5 -14,8 -22,13 -8,5 -13,6 -23,11 -8,4 -13,9 -20,13 -39,23 -71,42 -108,69 -13,11 -24,19 -38,29 -33,25 -92,69 -109,102 -4,10 -6,14 -12,22 -33,46 -56,119 -67,140 -12,20 -29,81 -39,107l-7 16 0 0z"/>
    <path class="fil2" d="M9119 3782l-169 -32c-19,-3 -43,-7 -60,-8l-96 -6c-14,-1 -15,3 -30,3 -22,1 -44,1 -64,4 -20,4 -37,11 -54,15 2,8 4,8 10,12l98 59c38,25 149,74 184,85 12,4 23,6 33,10 9,4 5,3 15,7 25,10 112,24 131,30 33,10 84,7 141,7 16,0 3,-3 16,-4 6,-1 -3,0 6,0 18,0 128,-23 152,-32 17,-7 15,-8 39,-14 -4,-8 -6,-17 -9,-25l-8 -20c0,-1 0,-1 0,-2l-17 -49c-3,-10 -6,-14 -10,-24 -3,-10 -5,-14 -10,-24 -8,-17 -14,-31 -21,-50 -12,-30 -55,-105 -79,-128l-201 -148c-8,-4 -12,-8 -21,-12 -11,-6 -11,-7 -21,-14 -16,-11 -31,-15 -46,-24l-66 -36c-9,-5 -15,-10 -26,-12 0,25 10,50 16,69l6 17c4,9 6,21 10,31 3,9 5,18 9,28 2,8 2,7 5,13 0,1 3,6 3,6 3,6 1,2 3,7l11 26c2,5 3,9 5,14l19 40c7,11 5,16 11,28l77 139c5,10 5,3 8,14l0 0z"/>
    <path class="fil2" d="M8331 2760c-1,-18 -14,-33 -20,-51 -6,-20 -12,-32 -22,-49l-26 -45c-19,-27 -42,-59 -66,-82l-35 -30c-23,-19 -65,-49 -93,-52 0,48 10,198 23,233 21,54 14,70 59,139 29,45 55,67 93,104 38,39 82,75 128,104 20,11 96,52 113,53 4,-16 11,-22 16,-37 5,-12 10,-24 15,-37 26,-58 75,-193 71,-253 -2,-39 -10,-192 -24,-229l-13 -43c-3,-13 -6,-28 -11,-41 -5,-14 -12,-27 -13,-42 -16,4 -68,96 -85,119 -6,9 -8,11 -14,20l-26 45c-5,9 -8,12 -12,22 -9,16 -16,32 -23,48 -7,15 -15,33 -19,49 -6,22 -8,49 -16,55l0 0z"/>
    <path class="fil2" d="M12062 3084c25,-2 104,-47 130,-65l55 -40c19,-13 31,-26 49,-41 68,-59 79,-82 122,-149 8,-13 13,-30 19,-46 7,-17 13,-33 17,-51 21,-79 22,-157 22,-241 -71,17 -151,102 -191,165l-38 67c-8,16 -23,69 -34,77 0,-21 -20,-79 -29,-104 -5,-16 -63,-115 -73,-130l-55 -81c-5,-8 -8,-14 -13,-21 -7,-10 -11,-10 -12,-22l-6 0c-2,7 -4,13 -6,19 -17,42 -21,58 -31,101 -2,9 -2,14 -5,23l-6 28c-8,32 -15,151 -17,187 -2,29 12,78 19,101l1 5c0,1 0,2 0,2l2 4c0,0 0,1 0,2l6 13c4,14 9,28 13,42l45 116c6,13 15,24 16,39l0 0z"/>
    <path class="fil2" d="M8622 3192l0 50c0,42 6,76 6,114 -15,-10 -29,-20 -43,-32l-90 -64c-8,-5 -11,-10 -21,-16l-48 -29c-34,-19 -66,-39 -103,-52 -13,-4 -18,-4 -30,-10 -14,-7 -48,-13 -64,-13 3,11 14,40 19,49l47 89c5,7 9,12 14,20l57 79c6,7 8,11 15,18l33 36c23,23 83,75 110,93 53,35 131,67 190,82 25,7 91,22 118,22l8 -47c2,-17 4,-35 6,-50 5,-35 1,-72 5,-109 2,-14 -1,-63 -4,-94 -2,-25 -1,-25 -11,-44l-24 -63c-3,-8 -5,-13 -8,-20 -4,-8 -6,-10 -9,-18 -22,-50 -28,-55 -48,-94 -6,-13 -76,-129 -95,-134 -2,27 -8,35 -13,51 -4,15 -6,41 -9,59 -5,37 -8,84 -8,127l0 0z"/>
    <path class="fil2" d="M11716 3628c20,0 44,-4 60,-8 17,-5 38,-10 55,-13 34,-7 120,-38 148,-56 9,-6 12,-8 22,-12 18,-8 25,-17 40,-28l58 -48c6,-6 10,-10 16,-17 4,-3 5,-4 8,-7l7 -6c71,-68 129,-153 170,-244l21 -49c-36,0 -112,26 -145,46l-50 27c-11,6 -15,9 -25,15 -56,34 -65,45 -113,79 -8,5 -14,11 -22,17 -17,13 -27,22 -46,32 0,-13 1,-17 2,-25 2,-11 1,-20 1,-30 9,-107 2,-192 -15,-297 -8,-47 -10,-20 -10,-53 -14,4 -42,52 -51,64 -23,32 -82,134 -92,164 -10,27 -21,43 -26,60l-24 65c0,1 -1,1 -1,2 -9,27 -7,85 -6,118 0,18 -1,38 0,56l3 40c2,15 3,5 3,19 1,7 0,6 1,13 3,22 11,53 11,76z"/>
    <path class="fil2" d="M8303 2426c11,-7 14,-14 22,-24l5 -5c0,0 1,-1 1,-1 1,-1 1,-2 2,-2 0,0 1,-1 1,-2 1,0 2,-2 3,-3 32,-39 112,-152 123,-192 4,-13 6,-24 9,-37l26 -116c6,-25 8,-51 12,-78l5 -65c1,-43 -2,-38 -2,-71l-50 46c-61,54 -121,123 -168,190 -10,13 -14,34 -26,42 0,-27 -7,-82 -14,-103l-6 -21c-3,-11 -5,-16 -7,-24 -6,-17 -8,-28 -15,-44 -16,-37 -63,-124 -103,-135 -13,27 -18,84 -25,117 -5,22 -12,38 -12,74 -1,63 -4,64 4,126 0,1 1,9 2,11l5 14c0,0 0,1 0,2l1 5c11,53 25,70 48,113 5,8 5,10 10,18l36 50c26,30 17,24 54,61l59 54 0 0z"/>
    <path class="fil2" d="M12281 2105c-8,-5 -9,-9 -10,-11 -48,-80 -33,-55 -100,-135l-99 -96c-12,-9 -19,-25 -35,-30 0,21 -3,28 -3,47 1,21 8,111 13,129l9 40c13,51 23,128 43,173 2,3 2,5 4,9l30 48c4,7 3,8 8,16 5,7 7,9 12,16 17,22 49,69 67,87 21,21 9,18 24,28l45 -39c5,-6 9,-10 15,-15l33 -35c25,-30 47,-55 67,-94 18,-36 42,-75 51,-121 3,-16 6,-35 7,-47 7,-57 2,-152 -14,-207l-3 -14c-5,-19 -15,-58 -15,-73 -24,2 -61,52 -74,72 -35,55 -48,107 -62,172 -6,27 -13,33 -13,80z"/>
    <path class="fil2" d="M11892 969c-9,-3 -27,-14 -37,-19 -32,-14 -97,-34 -131,-42 -41,-9 -117,-18 -146,-27 -11,-3 -38,-7 -50,-8l17 35c7,11 16,21 25,31 38,49 92,89 139,130 93,78 76,80 192,131l40 16c15,7 68,24 84,24 15,-63 34,-88 34,-179 0,-55 1,-104 -25,-154 -21,-39 -7,-29 -44,-85 -31,-47 -38,-64 -85,-110 -9,-10 -21,-27 -34,-31 -21,40 -22,109 -19,149 2,39 12,73 27,106 4,8 11,25 13,33z"/>
    <path class="fil2" d="M8489 1009c0,71 -1,113 17,173l6 19c4,15 8,31 14,42l80 -27c27,-10 51,-20 77,-32l69 -38c16,-10 58,-53 86,-75 6,-5 9,-8 14,-14 7,-5 9,-6 16,-12 28,-26 148,-128 152,-172l-225 44c-6,2 -4,1 -12,3 -39,10 -51,14 -88,30l-40 19c2,-17 9,-11 18,-38 25,-77 17,-82 26,-118 4,-16 2,-17 1,-30l-2 -12c-4,-16 -3,-52 -21,-90 -15,5 -53,50 -64,63 -52,66 -124,179 -124,265l0 0z"/>
    <path class="fil2" d="M8217 1528c0,86 11,75 24,124 7,28 23,61 37,87 10,19 22,33 32,51 23,-5 180,-118 203,-161l84 -126c40,-55 73,-105 89,-173l-74 31c-34,17 -52,21 -94,44l-22 10c-23,11 -95,58 -112,73 -7,7 -8,10 -16,15 0,-25 13,-59 8,-110 -5,-48 -5,-62 -24,-105 -6,-11 -10,-19 -15,-29 -8,-18 -12,-17 -15,-28 -9,2 -9,5 -13,12 -27,44 -26,51 -44,83 -8,15 -9,21 -14,37l-21 66c-9,32 -13,61 -13,99l0 0z"/>
    <path class="fil2" d="M12182 1506c-18,-12 -21,-26 -82,-62l-123 -66c-12,-5 -19,-5 -29,-11l-72 -33c-10,-6 -8,-8 -12,-4 -4,3 9,41 11,45 41,85 37,72 87,145l69 100c11,19 22,32 38,46 31,26 143,122 172,124 3,-12 35,-59 43,-77l33 -88c18,-73 19,-107 3,-189 -1,-7 -3,-16 -4,-20l-7 -19c-13,-35 -14,-50 -33,-86 -9,-18 -11,-27 -26,-51 -9,-16 -11,-25 -24,-29 -1,5 -26,44 -38,80 -3,6 -1,1 -4,8 -4,12 -6,22 -8,35 -9,51 -5,104 6,152l0 0z"/>
    <path class="fil2" d="M11639 725l-35 -80c-17,-34 -41,-76 -68,-102 -6,-6 -7,-9 -13,-14 -20,-23 -57,-51 -86,-62 -16,-7 -23,-11 -40,-16 -62,-20 -127,-28 -192,-40l-141 -35 120 109c11,10 19,15 29,26l32 27c6,6 8,6 15,13l114 89c78,47 60,29 119,54 23,10 21,8 46,14l73 13c11,2 15,4 27,4l0 0z"/>
    <path class="fil2" d="M9483 376l-43 12c-16,4 -33,5 -48,11 -9,4 0,1 -9,3l-39 8c-15,3 -32,6 -49,9 -14,3 -33,6 -47,9l-35 8c-67,19 -109,22 -171,76 -7,6 -9,6 -15,13 -7,6 -7,9 -14,17 -19,21 -35,41 -48,66 -13,28 -13,23 -21,37 -10,17 -15,40 -27,60 -3,6 -9,16 -6,20 7,7 0,1 6,0 6,-1 3,-1 13,-3 54,-9 114,-18 164,-41 83,-36 65,-34 127,-74l248 -214c1,-1 3,-2 4,-3l10 -14 0 0z"/>
    <path class="fil2" d="M10169 718c139,-16 362,5 496,45 127,39 297,122 399,191l158 113c140,110 250,279 335,435 31,58 87,184 109,252 61,190 60,462 33,659 -14,107 -37,186 -79,282 -72,167 -162,312 -276,450 -80,97 -219,196 -330,263 -84,51 -250,128 -338,156 -79,24 -222,47 -313,48 -30,0 -58,3 -89,3 -84,-1 -171,-6 -253,-18 -144,-21 -153,-23 -283,-79 -98,-42 -240,-114 -325,-178 -55,-41 -67,-44 -126,-97 -17,-15 -32,-29 -48,-44 -46,-44 -49,-54 -85,-98 -117,-144 -232,-350 -286,-525 -57,-182 -64,-469 -36,-659 22,-148 31,-154 81,-280 54,-139 145,-284 234,-402l85 -98c44,-42 97,-88 148,-123 186,-132 392,-246 625,-280 62,-9 109,-10 164,-16l0 0zm-300 -30c-61,-5 -67,-22 -157,-22 -81,0 -139,4 -214,31l-64 31c-58,32 -111,81 -147,137l-67 121c-14,27 -23,67 -36,91 -4,10 -8,9 -18,13 -29,11 -59,20 -87,34 -7,4 -11,6 -20,10l-42 20c-78,45 -149,107 -193,187 -22,41 -31,68 -43,114 0,1 0,3 0,4 -1,0 -1,1 -1,1l-1 4c-1,4 -1,1 -3,11 -5,19 -4,36 -7,58 -8,61 -2,130 8,186l3 21c3,12 5,2 5,29 0,8 -46,57 -54,69l-34 49c-7,11 -11,17 -17,27 -4,5 -3,5 -7,12 -2,5 -4,7 -7,13l-39 89c-9,27 -26,113 -24,142 6,69 21,139 52,201 3,4 4,8 7,12l111 164c25,32 15,20 6,59l-9 77c-1,32 -6,71 -2,101l22 122c4,14 9,31 14,42 2,6 5,14 9,19 2,4 1,2 4,8 28,47 26,48 63,92 21,25 46,49 74,68 7,5 10,7 16,12l52 31c30,19 80,41 114,53 44,15 46,8 63,51 20,53 39,106 71,152 5,7 6,9 10,18 13,29 43,53 63,78 13,18 41,40 59,52l93 50 64 19c68,21 192,19 261,4 15,-3 42,-15 54,-8l24 20c41,36 88,66 135,94 104,59 249,80 367,43 26,-9 74,-29 97,-42l142 -99c4,-4 6,-5 9,-9 9,-8 5,0 9,-11 12,1 32,5 46,7 13,2 27,7 44,9 70,5 155,12 222,-9l66 -18c41,-14 81,-39 114,-65l3 -3c1,0 2,-1 2,-1l4 -3c22,-19 43,-40 62,-63 56,-69 94,-151 121,-235 5,-16 19,-17 32,-23 26,-12 55,-18 80,-32l73 -38c25,-15 52,-33 75,-52l6 -6c60,-47 101,-112 130,-182 5,-14 25,-97 25,-114 1,-9 -1,-5 0,-11 2,-11 4,4 4,-10 0,-34 2,-101 -4,-132l-11 -58c-2,-15 -6,-29 -7,-42 16,-10 26,-27 37,-43l8 -10c8,-11 14,-17 22,-28 8,-12 13,-19 21,-32 7,-10 15,-18 20,-29 3,-7 3,-9 7,-17l33 -66c2,-5 2,-5 3,-9l1 -3c27,-69 42,-173 20,-259 -10,-38 -22,-71 -39,-106 -27,-54 -60,-106 -100,-150 -6,-7 -6,-7 -11,-14 -18,-24 -21,-21 -15,-54l11 -75c4,-40 10,-51 4,-100 -2,-15 1,-31 -2,-47 -11,-80 -35,-154 -81,-218 -20,-28 -44,-60 -72,-80 -60,-44 -119,-86 -191,-112l-63 -23c-5,-4 -2,-1 -6,-6 -8,-10 -11,-23 -14,-36 -11,-36 -30,-71 -47,-105 -15,-32 -35,-62 -57,-90l-12 -17c-22,-34 -60,-61 -92,-84 -9,-7 -17,-13 -29,-20 -48,-29 -104,-42 -157,-56l-33 -4c-49,-3 -106,-2 -154,3 -25,3 -56,13 -82,15 -14,1 -19,-7 -29,-15l-53 -43c-28,-21 -56,-41 -88,-58 -57,-31 -113,-53 -179,-62 -9,-1 -13,0 -21,-3 -18,-4 -39,-4 -58,-4l-116 23c-18,6 -35,13 -51,21 -85,43 -60,31 -132,77 -20,13 -65,46 -78,65l0 0z"/>
    <g>
     <path class="fil2" d="M10265 708c803,0 1455,651 1455,1454 0,804 -652,1455 -1455,1455 -804,0 -1455,-651 -1455,-1455 0,-803 651,-1454 1455,-1454z"/>
     <path class="fil3" d="M9766 3133l32 -42 138 51c4,2 6,5 9,11 2,6 2,11 1,15l-61 162c-2,5 -4,10 -9,13 -4,4 -8,5 -12,4l-52 -20 19 -52 -36 46 -80 -30 38 -45 70 26c0,1 2,0 3,0 1,-1 2,-2 3,-3l35 -95c1,-3 0,-5 -3,-6l-95 -35 0 0zm-190 -188l62 41 -11 35 55 37 28 -23 58 40 -131 104 12 8 -48 33 -86 -59 61 -216 0 0zm35 125l-24 72 90 -82 -48 21 -18 -11zm-205 -245l47 -20 100 108 -117 110 13 13 -53 22 -48 -52 121 -113 -63 -68zm-106 -225c3,-2 8,-2 15,0 7,3 12,6 15,11l89 152 -138 82 8 15 -56 8 -34 -57 46 -27 -57 10 -46 -78c-2,-3 -2,-9 1,-16 2,-7 5,-11 9,-13l148 -87 0 0zm7 82l-83 49c-2,1 -2,2 -3,4 -1,1 -1,2 0,3l21 37c1,1 2,2 4,2 1,0 3,0 4,-1l131 -77 -52 7 -13 -22c-1,-2 -3,-3 -5,-3 -2,0 -3,1 -4,1l0 0zm-79 -438l13 66 -54 11 58 10 18 89c0,3 -1,6 -3,9 -2,3 -5,4 -8,5l-38 8 55 9 17 86c0,2 -1,6 -4,10 -3,4 -6,6 -8,7l-145 28 4 20 -54 -7 -13 -69 151 -30c2,0 4,-1 5,-2 2,-2 3,-4 3,-5l-8 -40c0,-1 -1,-2 -3,-3 -1,-1 -3,-1 -4,-1l-155 30 -13 -68 151 -30c2,0 3,-1 5,-3 2,-1 2,-3 2,-5l-9 -44 -7 -2 -153 30 -13 -68 210 -41zm-46 -216l49 18 -1 158 -164 -1 0 17 -51 -20 1 -170 55 17 0 81 74 0 -46 -18 0 -76 50 16 -1 78 33 1 1 -101 0 0zm47 -204l43 28 -32 144 -158 -35 -4 18 -47 -31 15 -69 163 36 20 -91 0 0zm89 -189l35 38 -66 131 -144 -72 -9 16 -38 -41 32 -63 148 74 42 -83 0 0zm302 -286l-54 51 -32 -17 -48 45 16 32 -52 48 -72 -151 -11 10 -21 -54 77 -72 197 108 0 0zm-129 7l-66 -39 60 106 -10 -53 16 -14zm322 -150c2,4 2,9 0,16 -3,7 -7,12 -12,15l-154 85 -78 -142 -15 9 -6 -57 57 -32 26 47 -8 -58 78 -43c4,-2 10,-2 16,0 7,3 12,6 14,11l82 149 0 0zm-82 6l-47 -85c-1,-1 -2,-3 -3,-3 -1,-1 -3,-1 -4,0l-37 20c-1,1 -1,2 -2,3 0,2 0,4 1,5l73 133 -5 -52 22 -13c2,-1 2,-2 2,-5 0,-1 0,-2 0,-3l0 0zm280 -275l-3 224 -87 26 -99 -139 -22 7 4 -57 63 -18 78 121 -6 -143 72 -21zm267 137l-14 50 -157 12 -13 -163 -17 1 16 -53 169 -13 -12 57 -80 6 5 74 15 -47 76 -6 -12 50 -79 6 3 33 100 -7 0 0zm235 81l-71 -10 22 -150c0,-4 -1,-7 -4,-7l-45 -7c-2,0 -4,1 -4,5l-22 151 -73 -11 23 -158 -17 -3 25 -51 69 11 -8 54 26 -52 90 14c4,0 9,4 12,11 4,6 5,12 4,18l-27 185zm279 -128l-30 45 -44 -16 -57 151 -67 -26 55 -150 -60 -22 39 -43 164 61 0 0zm24 261l-65 -37 80 -142 -17 -9 46 -36 63 35 -107 189zm183 125c-2,2 -4,3 -8,4 -3,1 -6,0 -8,-2l-45 -37 29 -36 -44 24 -85 -69 44 -24 78 63c1,1 2,1 3,1 2,-1 3,-2 4,-3l14 -17c1,-1 1,-2 1,-3 0,-2 0,-3 -1,-4l-75 -62c-2,-1 -4,-5 -4,-9 0,-4 1,-8 3,-10l66 -81c2,-3 6,-4 10,-5 5,-1 8,0 11,2l42 36 -36 44 50 -33 79 64 -48 31 -71 -58c-1,-1 -3,-1 -4,-1 -2,1 -3,2 -4,3l-13 16c-1,1 -1,2 -1,3 0,2 0,3 1,3l78 64c2,2 3,5 2,9 -1,4 -2,7 -4,9l-64 78zm301 46l-50 23 -29 -37 -127 99 -45 -58 126 -98 -39 -50 56 -17 108 138 0 0zm-12 501l-23 -71 29 -22 -21 -62 -36 1 -22 -67 168 -3 -4 -13 58 3 32 99 -181 135 0 0zm49 -121l62 -43 -121 10 52 13 7 20 0 0zm14 324l-51 -12 -11 -147c-1,-4 1,-8 6,-12 4,-5 8,-7 12,-7l174 -13c5,-1 10,0 15,2 5,2 8,6 8,10l4 56 -55 4 57 13 6 85 -57 -15 -5 -75c0,0 -1,-1 -2,-2 -1,-1 -2,-2 -4,-2l-101 8c-3,0 -4,2 -4,6l8 101 0 0zm-75 250l8 -74 36 -7 7 -65 -33 -15 8 -70 153 68 2 -14 51 27 -12 104 -220 46zm94 -89l75 -13 -114 -42 42 34 -3 21 0 0zm-162 323c-3,-2 -7,-6 -9,-13 -3,-7 -3,-13 -1,-19l67 -163 149 61 7 -17 40 41 -24 61 -49 -20 42 39 -34 83c-1,4 -6,8 -12,10 -7,2 -13,3 -17,1l-159 -64 0 0zm61 -57l90 37c1,0 2,1 4,0 1,0 2,-1 3,-2l16 -40c0,-1 0,-2 -1,-3 -1,-2 -2,-3 -3,-3l-140 -57 36 37 -9 23c-1,2 0,4 1,6 1,1 2,2 3,2l0 0zm-158 257l-31 -41 86 -133 137 90 10 -14 32 45 -93 142 -38 -44 45 -68 -63 -41 29 41 -42 64 -32 -41 43 -65 -28 -19 -55 84 0 0zm-299 210l53 -47 100 111c1,2 2,2 5,3 2,0 3,-1 4,-2l29 -25c1,-2 2,-3 2,-6 0,-1 -1,-2 -1,-3l-101 -112 54 -48 99 111c1,1 3,2 5,2 2,1 4,1 5,0l28 -25c1,-2 2,-3 2,-5 0,-3 -1,-4 -2,-6l-100 -111 53 -47 104 117 14 -13 23 57 -51 45 -33 -37 24 46 -68 61c-4,3 -9,4 -15,3 -6,-1 -10,-4 -14,-8l-19 -21 20 51 -61 55c-4,2 -9,3 -16,2 -7,0 -13,-2 -15,-6l-128 -142 0 0zm-146 292l9 -150 -33 -74 70 -31 33 72 79 56 28 -12 4 53 -54 24 -69 -54 -3 87 -64 29 0 0z"/>
     <path class="fil2" d="M9995 3258c19,0 34,15 34,33 0,19 -15,34 -34,34 -18,0 -33,-15 -33,-34 0,-18 15,-33 33,-33z"/>
     <path class="fil2" d="M10547 3258c19,0 34,15 34,33 0,19 -15,34 -34,34 -18,0 -33,-15 -33,-34 0,-18 15,-33 33,-33z"/>
     <path class="fil3" d="M10087 3375l-40 -6 17 -100 -12 -2 16 -30 41 7 -22 131 0 0zm158 5c0,2 -2,4 -4,6 -2,3 -4,4 -5,3l-103 -7 13 -31 53 4c1,0 3,-1 3,-5l3 -45 -10 30 -49 -4c-1,0 -3,-1 -5,-3 -2,-2 -3,-5 -3,-6l5 -63c0,-1 1,-3 3,-6 3,-2 5,-4 6,-4l84 7c4,0 7,2 11,5 5,3 6,6 6,8l-8 111 0 0zm-40 -78l1 -12c0,0 0,-1 0,-2 -1,0 -1,-1 -2,-1l-18 -1c0,0 -1,0 -2,1 -1,0 -1,1 -1,2l-1 11c0,1 0,1 1,2 1,1 1,1 2,1l17 2c1,0 2,0 2,-1 1,-1 1,-2 1,-2zm179 -52l-9 32 -50 4 3 44 8 -28 41 -3c2,0 4,1 6,3 2,2 3,3 3,5l5 65c0,3 0,5 -1,8 -2,2 -3,3 -5,4l-97 7 10 -33 44 -4c1,0 2,0 3,-1 1,-1 2,-2 2,-3l-2 -17c0,0 0,-1 -1,-2 -1,0 -2,-1 -2,-1l-54 4 -6 -77 102 -7zm108 119l-40 6 -17 -100 -12 2 6 -33 41 -7 22 132 0 0z"/>
    </g>
    <path class="fil2" d="M10265 1198c533,0 964,432 964,964 0,533 -431,965 -964,965 -533,0 -965,-432 -965,-965 0,-532 432,-964 965,-964zm0 -18c542,0 982,440 982,982 0,543 -440,982 -982,982 -543,0 -982,-439 -982,-982 0,-542 439,-982 982,-982z"/>
    <g>
     <path class="fil2" d="M9982 2037c100,-41 192,-25 283,0 92,-24 181,-18 268,0l434 619c-255,-84 -492,-96 -700,0 -143,-112 -353,-143 -704,0l419 -619z"/>
     <path class="fil2" d="M10265 1931c91,-23 181,-18 272,1l3 1 5 3 443 631 -15 20 -11 -4c-225,-74 -467,-102 -688,0l-5 2 -9 -2 -4 -3c-77,-61 -165,-89 -264,-92 -141,-5 -293,42 -423,95l-12 5 -15 -20 428 -631 3 -3 3 -1c98,-41 190,-29 289,-2z"/>
     <path class="fil2" d="M9982 1948c100,-41 192,-25 283,0 92,-24 181,-18 268,0l434 619c-255,-84 -492,-96 -700,0 -143,-112 -353,-143 -704,0l419 -619z"/>
     <path class="fil2" d="M10242 1302c186,0 337,151 337,337 0,186 -151,337 -337,337 -186,0 -337,-151 -337,-337 0,-186 151,-337 337,-337z"/>
     <path class="fil2" d="M10242 1319c177,0 320,143 320,320 0,177 -143,320 -320,320 -177,0 -320,-143 -320,-320 0,-177 143,-320 320,-320z"/>
     <path class="fil2" d="M10699 2900c5,17 9,38 -5,52 -16,18 -45,11 -64,5l-2 -1 -2 -1 -1 0c-82,-57 -159,-119 -228,-192 -87,-93 -154,-197 -198,-317 -52,-140 -67,-291 -59,-440l0 -7 10 -9 183 2 9 11 0 7c-4,76 -5,152 0,228 4,62 12,124 27,185 25,103 66,195 130,279 55,73 122,134 194,190l2 1 3 5 1 2 0 0z"/>
     <path class="fil2" d="M10157 2007l168 2c-29,487 108,702 358,896 12,38 -3,50 -48,36 -285,-195 -502,-459 -478,-934l0 0z"/>
     <path class="fil2" d="M10242 1553c26,69 80,197 80,272 0,76 -54,109 -80,178 -27,-69 -80,-102 -80,-178 0,-75 53,-203 80,-272z"/>
     <path class="fil2" d="M10139 1962l205 0c11,0 20,9 20,19l0 13c0,10 -9,19 -20,19l-205 0c-10,0 -19,-9 -19,-19l0 -13c0,-10 9,-19 19,-19z"/>
    </g>
   </g>
   <g id="_1737113028928_0">
    <path class="fil4" d="M9197 4026l-92 -5c-12,0 -4,-7 -13,5 17,1 108,40 135,50 74,28 148,47 227,52 21,1 44,4 70,1 53,-6 86,-5 141,-15 14,-3 27,-3 40,-7 10,-3 2,-2 17,-4 9,-2 11,-2 22,-4 32,-5 139,-17 161,-23l76 -17c29,-5 67,-10 94,-19 89,-28 69,7 111,10l0 7c-26,6 -97,57 -128,73 -6,2 -5,1 -11,4l-56 31c-3,2 -6,3 -11,4 -4,2 -7,4 -12,6 -17,8 -28,17 -45,23 -26,10 -76,33 -102,34 -2,21 -7,29 12,44 46,36 82,-13 132,-44 16,-10 29,-18 44,-27l45 -27c16,-10 31,-17 45,-25 16,-10 30,-17 46,-26 11,-6 81,-47 94,-47 17,0 182,98 205,110l110 70c28,20 31,28 61,28 24,0 45,-24 42,-46 -1,-9 2,-6 -7,-10l-58 -19c-31,-11 -57,-27 -87,-40l-202 -111c-6,-4 -7,-4 -9,-12 44,-10 28,-32 94,-14l100 21c18,4 55,8 72,14l32 8c60,9 123,14 182,29 40,10 107,18 150,20 54,1 92,4 150,-5 63,-10 82,-18 136,-34l46 -16c7,-3 6,-4 14,-7 23,-7 41,-14 62,-21 13,-4 19,-9 30,-13 8,-3 25,-9 34,-10 -4,-6 -4,-4 -9,-3 0,0 -1,0 -2,0 -46,12 -174,6 -222,-1l-104 -14c-33,-4 -68,-9 -98,-18 -11,-4 -20,-6 -33,-8 -23,-4 -45,-9 -66,-14l-67 -15c-130,-29 -137,-24 -270,-22 -62,0 -80,17 -121,29l-83 27c-24,9 -47,17 -69,32 -7,4 -6,7 -14,7 -4,0 -48,-27 -64,-31l-133 -47c-55,-22 -106,-12 -169,-19 -58,-6 -128,8 -185,23 -1,0 -4,1 -6,1l-21 5c-44,11 -94,16 -137,29 -60,19 -117,22 -179,32l-147 11z"/>
    <path class="fil4" d="M11041 3856l41 15c43,12 125,25 130,27 13,3 -5,4 18,4 9,0 7,-2 12,-1 13,1 -2,4 12,4l105 0c15,0 4,-2 16,-3 56,-9 114,-20 167,-39l28 -9c13,-5 21,-8 34,-12 8,-3 9,-3 16,-6 10,-5 8,-5 16,-9 3,-1 12,-5 15,-7 8,-2 9,-2 16,-5 29,-13 187,-97 202,-120 -10,-2 -16,-5 -26,-8l-122 -13 -215 22c-20,5 -39,7 -58,11 -13,3 -12,4 -26,8 -7,1 -20,4 -29,5 5,-10 7,-14 14,-24l48 -84c2,-4 4,-8 6,-13l58 -124c1,-4 2,-6 3,-9 15,-38 53,-143 53,-179l-89 47c-8,4 -14,8 -21,12 -9,5 -14,7 -23,11 -8,5 -14,10 -21,14 -38,23 -71,41 -107,69 -14,10 -25,19 -39,29 -33,24 -92,68 -108,102 -5,9 -7,13 -12,21 -33,46 -56,120 -68,140 -11,21 -29,81 -39,108l-7 16 0 0z"/>
    <path class="fil4" d="M9083 3720l-168 -32c-20,-3 -44,-8 -61,-8l-96 -6c-14,-1 -15,2 -30,3 -22,0 -44,0 -64,4 -20,4 -36,10 -53,14 2,9 3,8 9,12l98 60c38,25 150,74 184,85 12,3 23,6 33,10 9,3 6,3 15,6 26,11 113,25 131,30 33,10 84,7 141,7 16,0 3,-2 16,-3 7,-1 -2,0 7,-1 17,0 128,-23 151,-32 18,-6 16,-8 39,-13 -4,-8 -6,-18 -8,-26l-9 -20c0,0 0,-1 0,-1l-16 -49c-4,-11 -7,-14 -11,-24 -3,-10 -5,-14 -9,-24 -9,-18 -15,-32 -22,-50 -12,-31 -55,-106 -78,-128l-202 -148c-7,-4 -12,-8 -21,-13 -10,-6 -11,-7 -21,-13 -16,-11 -30,-15 -46,-25l-66 -36c-8,-5 -15,-9 -25,-12 0,26 10,50 16,69l6 18c3,9 6,20 9,30 3,9 6,19 9,29 3,7 2,6 6,13 0,0 2,6 2,6 3,6 1,1 3,6l11 26c2,5 3,9 5,14l19 40c7,12 6,16 12,28l76 140c5,9 5,3 8,14l0 0z"/>
    <path class="fil4" d="M8295 2697c-1,-17 -14,-32 -20,-50 -6,-20 -12,-33 -22,-49l-26 -45c-19,-28 -42,-59 -65,-83l-36 -30c-22,-19 -65,-49 -93,-51 0,47 10,198 24,232 21,55 13,71 58,140 29,44 55,66 93,104 39,39 82,75 129,103 19,12 95,52 113,54 4,-16 10,-23 16,-37 5,-12 9,-25 15,-37 25,-58 74,-193 71,-253 -3,-39 -11,-192 -25,-229l-12 -43c-4,-14 -7,-28 -11,-42 -5,-14 -13,-26 -14,-42 -16,4 -68,97 -85,119 -6,9 -8,12 -13,21l-26 45c-6,8 -8,12 -13,21 -8,17 -16,32 -23,48 -7,15 -14,34 -18,50 -6,21 -9,49 -17,54l0 0z"/>
    <path class="fil4" d="M12026 3022c25,-2 104,-48 130,-65l55 -41c19,-12 31,-25 49,-40 68,-60 79,-83 122,-150 8,-13 13,-30 19,-46 7,-17 13,-33 18,-50 21,-80 21,-158 21,-241 -70,16 -151,101 -190,164l-38 67c-9,16 -23,69 -34,77 0,-21 -21,-78 -30,-103 -5,-17 -63,-115 -73,-130l-55 -82c-4,-7 -7,-13 -13,-20 -7,-10 -10,-11 -11,-23l-7 0c-1,7 -3,14 -5,19 -17,42 -22,59 -32,102 -2,9 -2,14 -5,23l-6 27c-8,32 -15,152 -17,188 -1,28 12,78 19,101l1 5c0,0 0,1 1,2l1 3c0,1 0,2 1,2l5 13c5,15 9,29 13,43l45 116c6,12 15,23 16,39l0 0z"/>
    <path class="fil4" d="M8586 3130l0 49c0,42 6,76 6,115 -15,-10 -28,-20 -43,-32l-90 -64c-8,-6 -11,-10 -21,-16l-48 -29c-34,-19 -66,-39 -103,-52 -13,-5 -18,-5 -29,-10 -15,-8 -49,-14 -65,-14 3,12 14,40 19,50l47 89c5,7 9,12 14,20l57 79c7,7 8,11 16,18l32 35c23,24 84,76 111,94 52,34 130,67 189,82 25,6 92,22 118,22l8 -48c3,-17 5,-35 6,-49 5,-36 2,-73 5,-109 2,-15 -1,-63 -4,-94 -2,-26 -1,-26 -11,-45l-24 -62c-3,-8 -5,-14 -8,-20 -4,-9 -5,-10 -9,-19 -21,-50 -28,-55 -48,-94 -6,-12 -75,-129 -94,-134 -3,27 -9,35 -13,52 -5,15 -7,40 -10,59 -5,37 -8,84 -8,127l0 0z"/>
    <path class="fil4" d="M11680 3566c20,0 44,-4 60,-9 18,-5 38,-9 55,-13 34,-7 120,-38 148,-56 9,-6 12,-7 22,-12 18,-8 26,-17 40,-28l58 -47c6,-6 10,-11 17,-17 3,-3 4,-4 8,-8l6 -5c72,-69 130,-154 170,-244l22 -50c-37,0 -113,26 -146,46l-50 27c-11,7 -14,10 -24,16 -56,34 -66,44 -114,78 -8,6 -14,11 -22,18 -17,12 -27,22 -46,32 0,-13 1,-18 3,-26 1,-10 0,-19 1,-30 8,-106 1,-191 -16,-296 -8,-48 -10,-21 -9,-53 -14,4 -43,51 -51,63 -23,33 -83,135 -93,164 -10,28 -21,44 -26,61l-24 65c0,0 0,1 -1,1 -9,28 -7,86 -6,118 0,19 -1,38 0,56l3 40c2,16 3,5 4,20 0,7 -1,5 0,13 3,22 11,52 11,76z"/>
    <path class="fil4" d="M8268 2364c10,-7 14,-14 22,-24l4 -5c0,-1 1,-1 1,-2 1,0 1,-1 2,-1 0,-1 1,-2 1,-2 1,-1 2,-3 3,-4 32,-38 112,-151 123,-191 4,-13 7,-24 9,-38l26 -116c6,-24 9,-51 12,-78l5 -65c1,-42 -2,-38 -2,-70l-50 45c-60,54 -120,124 -168,190 -9,14 -13,34 -25,43 0,-27 -7,-82 -15,-103l-6 -22c-2,-11 -4,-16 -7,-24 -5,-17 -7,-28 -15,-44 -16,-37 -62,-124 -103,-134 -12,26 -18,84 -25,116 -5,23 -11,38 -12,75 0,62 -4,63 4,126 0,0 2,9 2,10l5 14c0,1 0,2 1,2l1 6c11,52 24,69 47,112 5,8 6,11 10,18l36 51c26,29 17,23 54,60l60 55 0 0z"/>
    <path class="fil4" d="M12246 2043c-9,-6 -9,-10 -11,-12 -48,-79 -33,-55 -99,-134l-99 -96c-12,-10 -20,-26 -35,-30 0,21 -4,27 -4,46 1,22 8,112 13,130l10 40c12,50 22,128 43,173 1,2 2,5 4,8l29 48c4,8 3,8 8,16 5,8 7,10 12,16 17,23 50,70 68,87 21,21 8,19 24,29l44 -39c5,-6 9,-10 15,-16l33 -35c25,-30 47,-54 67,-93 19,-36 43,-76 51,-122 3,-15 6,-34 8,-46 6,-58 2,-153 -15,-208l-3 -13c-4,-20 -15,-58 -15,-73 -23,1 -60,51 -73,72 -35,55 -49,106 -63,172 -5,26 -12,33 -12,80z"/>
    <path class="fil4" d="M11856 906c-8,-2 -26,-14 -37,-18 -32,-15 -97,-35 -131,-42 -40,-9 -117,-19 -146,-27 -11,-3 -38,-8 -50,-9l18 35c6,12 16,21 24,32 38,49 92,89 139,129 93,79 76,81 193,132l39 16c16,6 68,24 84,24 15,-64 34,-88 34,-179 0,-56 1,-105 -25,-154 -20,-40 -7,-30 -44,-86 -30,-46 -37,-63 -84,-110 -10,-9 -22,-26 -35,-30 -21,40 -22,109 -19,148 3,39 12,73 27,106 4,9 12,25 13,33z"/>
    <path class="fil4" d="M8453 946c0,71 -1,113 17,173l6 20c4,15 9,31 14,42l81 -27c26,-11 50,-21 76,-32l69 -39c16,-9 58,-52 86,-74 6,-5 9,-9 15,-14 6,-6 8,-6 15,-12 28,-26 148,-128 152,-173l-225 44c-6,2 -4,2 -12,4 -39,10 -50,13 -87,30l-40 18c1,-17 8,-11 17,-38 26,-76 17,-81 26,-117 5,-16 3,-18 1,-31l-2 -11c-4,-16 -3,-53 -21,-90 -15,4 -53,49 -64,63 -52,65 -124,179 -124,264l0 0z"/>
    <path class="fil4" d="M8181 1465c0,86 11,76 24,124 8,28 23,62 37,87 10,19 22,34 32,52 23,-6 180,-118 203,-162l84 -125c40,-55 74,-106 90,-173l-75 30c-34,18 -51,22 -94,45l-21 10c-24,10 -96,58 -112,73 -7,6 -9,9 -17,14 0,-24 14,-58 8,-110 -5,-47 -5,-62 -24,-104 -5,-12 -10,-20 -14,-29 -9,-18 -13,-18 -16,-28 -8,2 -9,4 -13,11 -27,44 -26,52 -44,83 -8,15 -8,21 -14,38l-21 66c-8,32 -13,60 -13,98l0 0z"/>
    <path class="fil4" d="M12147 1444c-19,-13 -22,-27 -83,-63l-123 -65c-12,-6 -18,-5 -29,-11l-72 -34c-10,-5 -8,-8 -12,-4 -4,4 9,41 12,45 40,85 36,72 86,145l69 101c11,18 22,31 39,45 30,27 142,122 172,125 3,-12 35,-60 43,-77l32 -88c19,-73 20,-108 4,-189 -2,-7 -4,-16 -5,-21l-6 -18c-14,-35 -15,-50 -34,-87 -9,-17 -11,-27 -26,-51 -9,-15 -11,-25 -24,-28 0,4 -25,43 -38,79 -2,7 -1,1 -4,9 -4,11 -6,22 -8,35 -9,51 -4,104 7,152l0 0z"/>
    <path class="fil4" d="M11603 662l-35 -79c-17,-34 -41,-76 -67,-102 -6,-6 -8,-9 -13,-15 -21,-22 -58,-50 -87,-62 -15,-6 -23,-10 -40,-15 -62,-21 -126,-28 -191,-41l-141 -35 119 109c11,11 19,15 30,26l31 28c7,6 8,6 15,12l115 90c78,47 60,29 119,54 22,10 20,8 45,13l73 13c11,2 15,4 27,4l0 0z"/>
    <path class="fil4" d="M9447 313l-43 12c-16,5 -32,6 -48,11 -9,4 0,2 -8,4l-39 8c-16,3 -33,6 -50,9 -14,3 -32,6 -47,8l-34 9c-67,18 -110,21 -171,76 -7,6 -10,6 -16,12 -7,7 -7,10 -14,17 -19,21 -35,41 -48,67 -13,27 -13,22 -21,37 -9,17 -15,39 -27,60 -3,6 -9,16 -5,19 7,7 -1,2 6,0 5,-1 2,-1 12,-3 55,-9 114,-18 164,-40 83,-37 66,-35 127,-74l248 -215c1,0 3,-2 4,-3l10 -14 0 0z"/>
    <path class="fil4" d="M10133 655c139,-16 363,6 496,46 127,38 297,121 400,190l158 114c140,110 249,279 334,434 31,59 87,185 109,253 61,190 61,461 33,659 -14,107 -37,185 -79,281 -72,168 -162,312 -275,450 -81,98 -219,196 -330,263 -84,51 -251,128 -339,156 -79,25 -222,48 -312,49 -31,0 -59,3 -90,2 -84,0 -171,-6 -253,-18 -144,-21 -152,-22 -283,-78 -98,-42 -240,-114 -325,-178 -55,-41 -67,-45 -125,-97 -17,-16 -33,-29 -49,-45 -46,-43 -49,-53 -84,-97 -118,-145 -232,-350 -287,-526 -57,-181 -64,-469 -35,-658 22,-149 31,-155 80,-281 54,-139 145,-284 234,-402l85 -97c44,-43 98,-88 148,-124 186,-131 393,-246 625,-280 63,-9 110,-10 164,-16l0 0zm-299 -30c-62,-5 -68,-21 -158,-21 -80,0 -138,3 -213,30l-65 31c-58,32 -111,82 -147,138l-67 121c-13,27 -23,67 -35,91 -5,10 -9,9 -19,13 -29,11 -59,20 -87,33 -7,4 -11,7 -20,11l-41 20c-79,45 -150,107 -193,187 -22,41 -31,67 -43,114 0,0 -1,3 -1,3 0,1 -1,1 -1,2l-1 3c-1,5 -1,2 -3,11 -5,19 -4,36 -7,58 -8,62 -2,131 8,186l3 21c3,13 6,2 6,29 0,8 -47,58 -55,69l-34 50c-6,10 -11,17 -17,26 -3,6 -3,6 -6,12 -3,5 -5,8 -8,14l-38 88c-10,27 -27,114 -24,142 5,69 20,140 52,201 2,5 4,8 6,13l111 163c25,32 15,21 7,59l-10 77c-1,33 -6,72 -2,101l23 123c4,14 8,31 13,42 3,6 5,13 9,19 2,4 2,2 5,7 28,48 25,49 62,92 22,26 46,49 74,69 7,4 10,7 16,11l52 32c30,18 81,41 114,52 45,15 46,9 63,52 20,52 39,105 71,151 5,8 6,10 10,18 14,29 43,54 63,79 14,17 41,39 60,52l92 49 65 19c68,21 192,20 260,5 15,-3 42,-15 55,-8l23 20c41,36 88,66 135,93 104,60 249,81 367,43 26,-8 75,-28 98,-42l141 -99c4,-3 6,-5 10,-9 8,-8 4,0 8,-10 13,0 32,4 46,7 14,2 27,7 44,8 71,6 156,13 223,-8l65 -18c41,-14 81,-39 114,-65l4 -3c0,0 1,-1 1,-1l4 -3c22,-20 43,-40 63,-64 55,-68 94,-151 120,-234 5,-16 19,-18 33,-24 26,-11 54,-17 79,-31l73 -39c26,-15 52,-32 75,-52l7 -5c60,-48 100,-112 129,-183 5,-14 25,-97 25,-113 1,-10 -1,-6 0,-11 2,-12 4,4 4,-10 0,-34 2,-102 -4,-132l-10 -58c-3,-16 -7,-29 -8,-42 16,-11 27,-27 38,-43l7 -11c8,-11 14,-17 22,-28 8,-11 13,-19 21,-31 7,-11 15,-19 20,-29 4,-7 4,-10 8,-17l33 -67c2,-5 1,-4 3,-8l1 -3c26,-70 41,-173 19,-259 -10,-38 -22,-72 -39,-106 -27,-54 -59,-106 -100,-151 -5,-6 -6,-7 -11,-14 -17,-23 -20,-21 -15,-54l11 -75c4,-40 10,-50 4,-99 -2,-16 1,-32 -1,-48 -12,-79 -35,-154 -82,-218 -20,-28 -43,-59 -72,-80 -60,-43 -119,-86 -191,-111l-63 -24c-5,-3 -2,-1 -6,-6 -8,-10 -10,-23 -14,-35 -11,-36 -30,-71 -46,-105 -16,-33 -36,-63 -58,-91l-11 -16c-22,-35 -60,-61 -92,-84 -10,-7 -18,-14 -29,-21 -48,-28 -105,-42 -158,-55l-33 -4c-49,-3 -106,-3 -154,3 -25,2 -56,13 -81,15 -15,1 -19,-8 -30,-16l-53 -43c-28,-21 -56,-40 -87,-57 -58,-31 -114,-54 -179,-62 -10,-1 -14,-1 -22,-3 -18,-4 -38,-4 -58,-4l-116 23c-18,6 -35,12 -50,20 -86,44 -61,32 -133,77 -20,13 -65,46 -77,65l0 0z"/>
    <g>
     <path class="fil5" d="M10229 645c804,0 1455,652 1455,1455 0,803 -651,1455 -1455,1455 -803,0 -1455,-652 -1455,-1455 0,-803 652,-1455 1455,-1455z"/>
     <path class="fil6" d="M9730 3070l32 -41 138 51c4,1 7,5 9,11 2,5 3,10 1,14l-61 163c-1,5 -4,9 -8,13 -4,4 -8,5 -13,3l-52 -19 19 -52 -36 46 -80 -30 38 -45 70 26c1,0 2,0 3,-1 2,0 3,-1 3,-3l35 -94c1,-3 0,-5 -3,-6l-95 -36 0 0zm-190 -188l62 42 -10 35 54 36 28 -22 59 39 -132 105 12 8 -48 33 -86 -59 61 -217 0 0zm36 125l-24 72 90 -82 -49 22 -17 -12zm-206 -245l47 -20 101 108 -118 110 13 14 -52 21 -49 -52 121 -113 -63 -68zm-106 -225c3,-2 8,-2 16,1 7,2 12,6 15,10l89 153 -139 81 9 15 -57 8 -33 -56 45 -27 -57 9 -45 -77c-3,-4 -3,-9 0,-16 2,-7 5,-12 9,-14l148 -87 0 0zm7 83l-83 49c-1,1 -2,2 -3,3 0,1 -1,3 0,4l22 37c0,0 1,1 3,1 2,0 3,0 4,0l131 -77 -52 6 -13 -22c-1,-1 -3,-2 -5,-2 -1,0 -2,0 -4,1l0 0zm-79 -439l13 67 -53 11 57 9 18 89c1,3 0,6 -3,9 -2,3 -5,5 -8,6l-37 7 54 10 17 86c1,2 -1,5 -3,9 -3,4 -6,7 -9,7l-145 29 4 20 -54 -7 -13 -69 151 -30c2,0 4,-1 6,-3 2,-1 2,-3 2,-4l-8 -41c0,-1 -1,-2 -3,-3 -1,-1 -3,-1 -3,-1l-155 31 -14 -69 151 -30c2,0 4,-1 5,-2 2,-2 3,-4 2,-5l-8 -44 -8 -3 -153 31 -13 -69 210 -41zm-46 -215l49 18 -1 158 -163 -1 0 17 -52 -20 1 -170 55 16 0 81 75 1 -47 -19 1 -76 49 16 -1 79 33 0 1 -100 0 0zm47 -204l43 28 -32 143 -157 -35 -4 19 -48 -32 16 -69 162 37 20 -91 0 0zm89 -189l35 37 -66 132 -144 -73 -9 17 -38 -42 32 -63 148 75 42 -83 0 0zm303 -286l-55 51 -31 -18 -48 45 15 32 -51 49 -73 -151 -10 9 -22 -54 77 -71 198 108 0 0zm-130 7l-65 -40 59 106 -9 -52 15 -14zm323 -150c2,3 1,9 -1,16 -3,7 -6,12 -11,14l-155 85 -77 -141 -16 8 -6 -57 58 -31 25 46 -8 -57 79 -44c4,-2 9,-1 16,1 7,3 11,6 13,10l83 150 0 0zm-83 5l-47 -85c0,-1 -1,-2 -3,-3 -1,0 -2,0 -3,0l-38 21c-1,0 -1,1 -1,3 -1,2 -1,3 0,4l73 133 -5 -52 22 -12c2,-1 3,-3 3,-5 0,-2 0,-3 -1,-4l0 0zm280 -275l-3 225 -87 26 -99 -139 -22 6 5 -56 62 -19 78 121 -5 -142 71 -22zm267 137l-13 51 -158 12 -12 -163 -17 1 15 -53 170 -13 -12 56 -81 7 6 74 15 -48 75 -5 -12 50 -78 6 2 33 100 -8 0 0zm235 82l-71 -11 22 -150c1,-4 -1,-6 -4,-7l-44 -6c-3,-1 -4,1 -5,5l-22 150 -73 -10 23 -159 -17 -2 25 -51 69 10 -8 55 26 -52 90 13c5,1 9,4 12,11 4,7 6,13 5,18l-28 186zm280 -129l-31 45 -44 -16 -56 151 -68 -25 55 -150 -60 -22 39 -44 165 61 0 0zm23 261l-65 -37 80 -141 -17 -10 47 -35 62 35 -107 188zm183 126c-1,2 -4,3 -7,4 -4,0 -7,0 -9,-2l-45 -37 29 -36 -44 24 -84 -70 44 -24 77 64c1,1 2,1 4,0 1,0 2,-1 3,-2l14 -17c1,-1 1,-2 1,-4 0,-2 0,-3 -1,-3l-75 -62c-2,-2 -4,-5 -4,-9 0,-5 1,-8 3,-10l66 -81c2,-3 6,-5 10,-5 5,-1 8,0 11,2l43 35 -37 44 50 -33 79 65 -48 31 -71 -58c-1,-2 -2,-2 -4,-1 -2,0 -3,1 -4,2l-13 16c-1,1 -1,2 -1,4 0,1 1,2 2,3l77 64c2,1 3,4 2,8 0,4 -2,8 -4,10l-64 78zm301 46l-50 22 -29 -37 -127 99 -45 -57 127 -98 -40 -51 56 -16 108 138 0 0zm-12 500l-23 -71 29 -21 -20 -62 -36 0 -22 -67 167 -2 -4 -14 58 4 33 99 -182 134 0 0zm49 -121l63 -42 -121 10 51 13 7 19 0 0zm14 324l-51 -12 -11 -146c0,-4 2,-8 6,-13 4,-4 8,-6 13,-7l173 -13c5,0 10,1 15,3 5,2 8,5 8,10l5 55 -56 5 57 13 6 85 -56 -15 -6 -75c0,-1 -1,-2 -1,-3 -1,-1 -3,-1 -5,-1l-100 8c-3,0 -4,2 -4,5l7 101 0 0zm-75 250l9 -74 35 -7 7 -65 -32 -14 8 -71 153 69 1 -14 52 27 -12 104 -221 45zm94 -89l76 -12 -114 -42 41 34 -3 20 0 0zm-162 323c-3,-1 -7,-6 -9,-13 -2,-7 -3,-13 0,-18l66 -163 149 60 7 -16 41 40 -25 61 -49 -20 42 40 -33 83c-2,4 -6,7 -13,10 -7,2 -13,2 -17,1l-159 -65 0 0zm61 -56l90 36c1,1 3,1 4,1 2,-1 3,-1 3,-3l16 -39c0,-1 0,-2 -1,-4 0,-1 -1,-2 -3,-3l-140 -57 37 37 -10 24c-1,2 0,4 2,6 0,1 1,1 2,2l0 0zm-158 257l-31 -42 87 -132 136 90 10 -14 32 44 -93 142 -37 -44 44 -67 -62 -41 28 41 -42 63 -32 -40 43 -66 -28 -18 -55 84 0 0zm-299 210l53 -47 100 111c1,1 3,2 5,2 2,0 4,0 5,-1l28 -26c2,-1 2,-3 2,-6 0,-1 0,-2 -1,-3l-101 -112 54 -48 100 112c1,1 2,2 4,2 2,0 4,0 5,-1l28 -25c1,-1 2,-3 2,-5 0,-2 0,-4 -2,-5l-99 -112 52 -46 105 116 13 -12 23 56 -51 46 -33 -38 24 46 -68 61c-4,4 -9,5 -15,4 -5,-1 -10,-4 -14,-8l-18 -21 19 51 -61 54c-3,3 -8,4 -16,3 -7,-1 -12,-3 -15,-6l-128 -142 0 0zm-146 292l10 -151 -34 -73 70 -32 33 73 79 56 28 -13 4 54 -53 24 -70 -54 -3 87 -64 29 0 0z"/>
     <path class="fil4" d="M9960 3195c18,0 33,15 33,34 0,18 -15,33 -33,33 -19,0 -34,-15 -34,-33 0,-19 15,-34 34,-34z"/>
     <path class="fil4" d="M10512 3195c18,0 33,15 33,34 0,18 -15,33 -33,33 -19,0 -34,-15 -34,-33 0,-19 15,-34 34,-34z"/>
     <path class="fil6" d="M10051 3313l-40 -7 17 -100 -12 -2 17 -30 41 7 -23 132 0 0zm158 5c0,2 -1,4 -4,6 -2,2 -4,3 -5,3l-103 -8 13 -30 53 4c2,0 3,-2 3,-5l4 -45 -10 30 -50 -4c-1,0 -3,-2 -5,-4 -2,-2 -3,-4 -3,-6l5 -62c0,-2 1,-4 4,-6 2,-3 4,-4 5,-4l84 6c4,1 8,2 12,5 4,3 6,6 6,9l-9 111 0 0zm-39 -79l1 -11c0,-1 -1,-2 -1,-2 0,-1 -1,-1 -2,-1l-18 -2c0,0 -1,1 -2,1 0,1 -1,2 -1,2l-1 11c0,1 1,2 1,3 1,0 1,1 2,1l18 1c0,0 1,0 2,-1 0,-1 1,-1 1,-2zm179 -52l-10 32 -49 4 3 44 8 -27 41 -3c1,0 3,0 5,2 3,2 3,4 4,6l5 65c0,2 -1,5 -2,7 -1,3 -3,4 -5,4l-97 7 10 -33 45 -3c1,0 1,-1 2,-2 1,-1 2,-2 2,-3l-2 -16c0,-1 0,-1 -1,-2 -1,-1 -2,-1 -2,-1l-54 4 -6 -77 103 -8zm107 119l-40 7 -17 -100 -12 2 6 -34 41 -7 22 132 0 0z"/>
    </g>
    <path class="fil4" d="M10229 1135c533,0 965,432 965,965 0,533 -432,964 -965,964 -533,0 -964,-431 -964,-964 0,-533 431,-965 964,-965zm0 -17c542,0 982,440 982,982 0,542 -440,982 -982,982 -542,0 -982,-440 -982,-982 0,-542 440,-982 982,-982z"/>
    <g>
     <path class="fil4" d="M9946 1975c101,-41 193,-26 283,0 92,-24 181,-19 269,0l433 619c-255,-84 -492,-96 -700,0 -143,-113 -353,-144 -704,0l419 -619z"/>
     <path class="fil4" d="M10229 1869c91,-23 181,-19 272,1l3 0 6 4 442 631 -14 19 -12 -3c-225,-74 -467,-103 -688,-1l-4 2 -10 -1 -3 -3c-78,-61 -166,-89 -264,-92 -142,-5 -294,41 -424,94l-11 5 -16 -19 428 -631 4 -4 2 -1c98,-40 191,-29 289,-1z"/>
     <path class="fil5" d="M9946 1886c101,-41 193,-26 283,0 92,-24 181,-18 269,0l433 619c-255,-84 -492,-96 -700,0 -143,-113 -353,-144 -704,0l419 -619z"/>
     <path class="fil4" d="M10206 1240c186,0 337,151 337,336 0,186 -151,337 -337,337 -186,0 -337,-151 -337,-337 0,-185 151,-336 337,-336z"/>
     <path class="fil7" d="M10206 1256c177,0 320,144 320,321 0,176 -143,320 -320,320 -177,0 -320,-144 -320,-320 0,-177 143,-321 320,-321z"/>
     <path class="fil4" d="M10663 2838c5,16 9,37 -4,51 -16,18 -45,12 -65,5l-1 0 -3 -1 -1 -1c-81,-56 -159,-119 -227,-191 -87,-93 -155,-198 -199,-317 -51,-141 -67,-292 -59,-440l0 -7 10 -9 183 2 10 10 -1 8c-4,75 -5,151 0,227 4,62 13,125 27,186 25,103 66,194 130,279 55,72 123,134 194,189l2 2 3 4 1 3 0 0z"/>
     <path class="fil5" d="M10121 1945l169 1c-29,488 107,703 357,897 12,37 -3,50 -48,35 -284,-195 -502,-459 -478,-933l0 0z"/>
     <path class="fil8" d="M10206 1490c27,69 80,197 80,273 0,75 -53,109 -80,178 -27,-69 -80,-103 -80,-178 0,-76 53,-204 80,-273z"/>
     <path class="fil4" d="M10104 1899l204 0c11,0 20,9 20,20l0 12c0,11 -9,20 -20,20l-204 0c-11,0 -20,-9 -20,-20l0 -12c0,-11 9,-20 20,-20z"/>
    </g>
   </g>
  </g>
 </g>
</svg>
