<?xml version="1.0" encoding="UTF-8"?>
<!DOCTYPE svg PUBLIC "-//W3C//DTD SVG 1.1//EN" "http://www.w3.org/Graphics/SVG/1.1/DTD/svg11.dtd">
<!-- Creator: CorelDRAW X7 -->
<svg xmlns="http://www.w3.org/2000/svg" xml:space="preserve" width="20.242mm" height="20.2416mm" version="1.1" style="shape-rendering:geometricPrecision; text-rendering:geometricPrecision; image-rendering:optimizeQuality; fill-rule:evenodd; clip-rule:evenodd"
viewBox="0 0 854 853"
 xmlns:xlink="http://www.w3.org/1999/xlink">
 <defs>
  <style type="text/css">
   <![CDATA[
    .fil2 {fill:none}
    .fil0 {fill:#FAC16B}
    .fil1 {fill:#EA5B8B}
    .fil3 {fill:#FEFEFE;fill-rule:nonzero}
   ]]>
  </style>
 </defs>
 <g id="Layer_x0020_1">
  <metadata id="CorelCorpID_0Corel-Layer"/>
  <g id="_2219087177392">
   <path class="fil0" d="M69 63c40,-39 94,-63 154,-63l407 0c123,0 224,100 224,223l0 407c0,60 -24,114 -62,154l-722 -722 -1 1z"/>
   <path class="fil1" d="M0 630l0 -407c0,-63 27,-121 70,-161l722 722c-41,43 -98,69 -162,69l-407 0c-123,0 -223,-100 -223,-223z"/>
   <line class="fil2" x1="57" y1="74" x2="787" y2= "789" />
   <path class="fil3" d="M559 266c-16,0 -29,13 -29,29 0,16 13,30 29,30 16,0 30,-14 30,-30 0,-16 -14,-29 -30,-29z"/>
   <path class="fil3" d="M429 506c-44,0 -79,-36 -79,-79 0,-44 35,-79 79,-79 43,0 79,35 79,79 0,43 -36,79 -79,79zm0 -202c-68,0 -123,55 -123,123 0,68 55,123 123,123 68,0 123,-55 123,-123 0,-68 -55,-123 -123,-123z"/>
   <path class="fil3" d="M327 224c-57,0 -103,46 -103,103l0 200c0,57 46,103 103,103l200 0c57,0 103,-46 103,-103l0 -200c0,-57 -46,-103 -103,-103l-200 0zm200 453l-200 0c-83,0 -150,-68 -150,-150l0 -200c0,-83 67,-150 150,-150l200 0c83,0 150,67 150,150l0 200c0,82 -67,150 -150,150z"/>
  </g>
 </g>
</svg>
