<?xml version="1.0" encoding="UTF-8"?>
<!DOCTYPE svg PUBLIC "-//W3C//DTD SVG 1.1//EN" "http://www.w3.org/Graphics/SVG/1.1/DTD/svg11.dtd">
<!-- Creator: CorelDRAW X7 -->
<svg xmlns="http://www.w3.org/2000/svg" xml:space="preserve" width="65.8545mm" height="59.8497mm" version="1.1" style="shape-rendering:geometricPrecision; text-rendering:geometricPrecision; image-rendering:optimizeQuality; fill-rule:evenodd; clip-rule:evenodd"
viewBox="0 0 815 740"
 xmlns:xlink="http://www.w3.org/1999/xlink">
 <defs>
  <style type="text/css">
   <![CDATA[
    .fil2 {fill:#0061F2}
    .fil6 {fill:#FB7306}
    .fil5 {fill:#FBF206}
    .fil3 {fill:#FEFEFE}
    .fil4 {fill:#0061F2;fill-rule:nonzero}
    .fil0 {fill:#373435;fill-opacity:0.329412}
    .fil1 {fill:#373435;fill-rule:nonzero;fill-opacity:0.329412}
   ]]>
  </style>
 </defs>
 <g id="Layer_x0020_1">
  <metadata id="CorelCorpID_0Corel-Layer"/>
  <g id="_2219087968944">
   <g id="_1737113028928">
    <path class="fil0" d="M220 692l-17 -1c-2,0 -1,-1 -2,1 3,0 20,8 25,9 13,6 27,9 41,10 4,0 8,1 13,0 10,-1 16,-1 26,-3 2,0 5,0 7,-1 2,0 0,0 3,-1 2,0 2,0 4,0 6,-1 26,-3 30,-5l14 -3c5,-1 12,-1 17,-3 16,-5 13,1 20,2l0 1c-4,1 -17,10 -23,13 -1,1 -1,1 -2,1l-10 6c-1,0 -2,0 -2,1 -1,0 -2,0 -3,1 -3,1 -5,3 -8,4 -5,2 -14,6 -19,6 0,4 -1,5 3,8 8,7 15,-2 24,-8 3,-2 5,-3 8,-5l8 -5c3,-2 6,-3 8,-5 3,-1 6,-3 9,-4 2,-1 15,-9 17,-9 3,0 33,18 38,20l20 13c5,4 6,5 11,5 4,0 8,-4 8,-8 0,-2 0,-1 -2,-2l-10 -4c-6,-1 -11,-4 -16,-7l-37 -20c-1,-1 -1,-1 -2,-2 8,-2 5,-6 17,-3l19 4c3,1 10,2 13,3l6 1c11,2 22,2 33,5 7,2 20,4 28,4 10,0 17,1 27,-1 12,-2 15,-3 25,-6l9 -3c1,-1 1,-1 2,-1 4,-2 8,-3 12,-4 2,-1 3,-2 5,-3 2,0 5,-1 6,-1 -1,-2 0,-1 -1,-1 -1,0 -1,0 -1,0 -8,2 -32,1 -40,0l-19 -3c-7,-1 -13,-1 -19,-3 -1,-1 -3,-1 -6,-2 -4,0 -8,-1 -12,-2l-12 -3c-24,-5 -25,-4 -49,-4 -12,0 -15,3 -23,6l-15 4c-4,2 -9,4 -13,6 -1,1 -1,2 -2,2 -1,0 -9,-5 -12,-6l-24 -9c-10,-4 -20,-2 -31,-3 -11,-1 -24,1 -34,4 0,0 -1,0 -1,0l-4 1c-8,2 -17,3 -25,5 -11,4 -22,4 -33,6l-27 2z"/>
    <path class="fil0" d="M558 661l8 3c8,2 22,4 24,5 2,0 -1,1 3,1 1,0 1,-1 2,-1 2,1 0,1 2,1l19 0c3,0 1,0 3,-1 11,-1 21,-3 31,-7l5 -1c3,-1 4,-2 6,-3 2,0 2,0 3,-1 2,0 2,0 3,-1 1,0 3,-1 3,-1 1,-1 2,-1 3,-1 5,-3 34,-18 37,-22 -2,-1 -3,-1 -5,-2l-22 -2 -40 4c-3,1 -7,1 -10,2 -3,0 -2,1 -5,1 -1,0 -4,1 -5,1 1,-2 1,-2 2,-4l9 -16c0,0 1,-1 1,-2l11 -23c0,0 0,-1 0,-1 3,-7 10,-27 10,-33l-16 8c-2,1 -3,2 -4,3 -2,1 -3,1 -4,2 -2,0 -3,1 -4,2 -7,4 -13,8 -20,13 -2,2 -4,3 -7,5 -6,5 -17,13 -20,19 -1,2 -1,2 -2,4 -6,8 -10,22 -12,25 -2,4 -6,15 -8,20l-1 3 0 0z"/>
    <path class="fil0" d="M199 636l-31 -6c-3,0 -8,-1 -11,-1l-17 -1c-3,0 -3,0 -6,0 -4,0 -8,0 -12,1 -3,1 -6,2 -10,3 1,1 1,1 2,2l18 11c7,4 28,13 34,15 2,1 4,1 6,2 2,1 1,1 3,1 4,2 20,5 24,6 6,2 15,1 26,1 3,0 0,0 3,-1 1,0 -1,0 1,0 3,0 23,-4 28,-5 3,-2 2,-2 7,-3 -1,-1 -1,-3 -2,-5l-1 -3c0,0 0,0 0,-1l-3 -9c-1,-1 -2,-2 -2,-4 -1,-2 -1,-3 -2,-4 -2,-4 -3,-6 -4,-9 -2,-6 -10,-20 -14,-24l-37 -27c-2,-1 -3,-2 -4,-2 -2,-2 -2,-2 -4,-3 -3,-2 -6,-3 -9,-4l-12 -7c-1,-1 -2,-2 -4,-2 0,4 2,9 3,12l1 4c0,1 1,3 1,5 1,2 1,4 2,5 1,2 1,2 1,3 0,0 1,1 1,1 0,1 0,0 0,1l2 5c1,1 1,2 1,3l3 7c2,2 2,3 3,5l14 26c1,1 1,0 1,2l0 0z"/>
    <path class="fil0" d="M55 449c-1,-4 -3,-6 -4,-10 -1,-3 -2,-6 -4,-9l-5 -8c-3,-5 -8,-11 -12,-15l-6 -6c-4,-3 -12,-9 -17,-9 0,9 1,36 4,43 4,10 2,13 11,25 5,8 10,12 17,19 7,7 15,14 23,19 4,2 18,10 21,10 1,-3 2,-4 3,-7 1,-2 2,-4 3,-6 4,-11 13,-36 13,-47 -1,-7 -2,-35 -5,-42l-2 -8c-1,-2 -1,-5 -2,-7 -1,-3 -2,-5 -3,-8 -2,1 -12,18 -15,22 -1,1 -2,2 -3,4l-4 8c-1,1 -2,2 -3,4 -1,3 -3,6 -4,9 -1,2 -3,6 -3,9 -1,4 -2,9 -3,10l0 0z"/>
    <path class="fil0" d="M739 508c4,0 19,-9 24,-12l10 -7c3,-3 5,-5 9,-8 12,-11 14,-15 22,-27 2,-2 2,-6 4,-8 1,-4 2,-7 3,-10 4,-14 4,-29 4,-44 -13,3 -28,19 -35,30l-7 12c-2,3 -4,13 -6,15 0,-4 -4,-15 -6,-19 -1,-3 -11,-21 -13,-24l-10 -15c-1,-1 -2,-3 -3,-4 -1,-2 -2,-2 -2,-4l-1 0c0,1 -1,2 -1,3 -3,8 -4,11 -6,19 0,2 0,3 -1,4l-1 5c-1,6 -2,28 -3,35 0,5 2,14 4,18l0 1c0,0 0,0 0,1l0 0c0,0 0,0 0,1l1 2c1,3 2,5 3,8l8 21c1,2 3,4 3,7l0 0z"/>
    <path class="fil0" d="M108 528l0 9c0,8 1,14 1,21 -3,-2 -5,-4 -8,-6l-16 -12c-2,-1 -2,-1 -4,-3l-9 -5c-6,-3 -12,-7 -19,-9 -2,-1 -3,-1 -5,-2 -3,-2 -9,-3 -12,-3 0,2 2,8 3,9l9 17c1,1 2,2 3,3l10 15c1,1 1,2 3,3l6 7c4,4 15,14 20,17 10,6 24,12 35,15 4,1 17,4 21,4l2 -9c0,-3 1,-6 1,-9 1,-6 0,-13 1,-20 0,-3 0,-11 -1,-17 0,-5 0,-5 -2,-8l-4 -12c-1,-1 -1,-2 -2,-3 0,-2 -1,-2 -1,-4 -4,-9 -5,-10 -9,-17 -1,-2 -14,-24 -17,-25 -1,5 -2,7 -3,10 -1,3 -1,7 -1,11 -1,6 -2,15 -2,23l0 0z"/>
    <path class="fil0" d="M675 608c4,0 8,-1 11,-2 4,-1 7,-1 10,-2 7,-1 22,-7 28,-10 1,-1 2,-2 4,-3 3,-1 4,-3 7,-5l11 -8c1,-1 1,-2 3,-3 0,-1 0,-1 1,-2l1 -1c13,-12 24,-28 31,-45l4 -9c-6,0 -20,5 -26,9l-10 5c-2,1 -2,1 -4,3 -10,6 -12,8 -21,14 -1,1 -2,2 -4,3 -3,2 -5,4 -8,6 0,-2 0,-3 0,-5 0,-2 0,-3 0,-5 2,-20 1,-35 -2,-55 -2,-8 -2,-3 -2,-9 -3,0 -8,9 -10,11 -4,6 -15,25 -17,30 -1,6 -3,8 -4,12l-5 11c0,1 0,1 0,1 -1,5 -1,15 -1,21 0,4 0,7 0,11l1 7c0,3 0,1 0,4 0,1 0,1 0,2 1,4 2,10 2,14z"/>
    <path class="fil0" d="M50 387c2,-1 2,-2 4,-4l0 -1c1,0 1,0 1,0 0,0 0,0 0,0 0,-1 0,-1 0,-1 0,0 1,0 1,0 6,-7 20,-28 22,-36 1,-2 2,-4 2,-6l5 -22c1,-4 1,-9 2,-14l1 -12c0,-8 0,-7 0,-13l-10 9c-11,9 -22,22 -31,34 -1,3 -2,7 -4,8 0,-5 -1,-15 -3,-19l-1 -4c0,-2 -1,-3 -1,-4 -1,-3 -2,-5 -3,-8 -3,-7 -11,-23 -19,-25 -2,5 -3,16 -4,22 -1,4 -3,7 -3,13 0,12 0,12 1,23 0,0 0,2 0,2l1 3c0,0 0,0 0,0l1 1c2,10 4,13 8,21 1,1 1,2 2,3l7 9c5,6 3,5 10,11l11 10 0 0z"/>
    <path class="fil0" d="M779 329c-2,-1 -2,-2 -2,-2 -9,-15 -6,-11 -18,-25l-18 -18c-2,-2 -4,-4 -7,-5 0,4 0,5 0,8 0,4 1,21 2,24l2 7c2,10 4,24 8,32 0,1 0,1 0,2l6 8c1,2 0,2 1,3 1,2 2,2 2,3 4,4 10,13 13,16 4,4 1,4 4,5l8 -7c1,-1 2,-1 3,-3l6 -6c5,-5 9,-10 13,-17 3,-7 7,-14 9,-22 0,-3 1,-7 1,-9 1,-10 1,-28 -2,-38l-1 -2c-1,-4 -3,-11 -3,-14 -4,1 -11,10 -13,13 -7,11 -9,20 -12,32 -1,5 -2,6 -2,15z"/>
    <path class="fil0" d="M708 120c-2,0 -5,-2 -7,-3 -6,-3 -18,-7 -24,-8 -8,-2 -22,-3 -27,-5 -2,0 -7,-1 -9,-1l3 6c1,2 3,4 5,6 7,9 16,16 25,24 17,14 14,14 35,24l8 3c2,1 12,4 15,4 3,-12 6,-16 6,-33 0,-10 0,-19 -4,-28 -4,-7 -2,-5 -8,-16 -6,-8 -7,-11 -16,-20 -2,-2 -4,-5 -6,-5 -4,7 -4,20 -4,27 1,7 2,13 5,19 1,2 2,5 3,6z"/>
    <path class="fil0" d="M84 128c0,13 -1,20 3,31l1 4c1,3 1,6 2,8l15 -5c5,-2 9,-4 14,-6l13 -7c3,-2 10,-10 16,-14 1,-1 1,-2 2,-3 1,-1 2,-1 3,-2 5,-5 27,-23 28,-31l-41 8c-1,0 -1,0 -2,0 -8,2 -10,3 -17,6l-7 3c0,-3 2,-2 3,-7 5,-14 3,-15 5,-21 1,-3 1,-4 0,-6l0 -2c-1,-3 -1,-10 -4,-16 -3,0 -10,9 -12,11 -9,12 -22,33 -22,49l0 0z"/>
    <path class="fil0" d="M34 223c0,15 2,14 4,22 2,6 4,12 7,16 2,4 4,7 6,10 4,-1 33,-22 37,-30l15 -23c8,-10 14,-19 17,-32l-14 6c-6,3 -9,4 -17,8l-4 2c-4,2 -18,11 -21,13 -1,2 -1,2 -3,3 0,-4 3,-11 2,-20 -1,-9 -1,-11 -5,-19 -1,-2 -1,-4 -2,-6 -2,-3 -2,-3 -3,-5 -2,1 -2,1 -2,2 -5,9 -5,10 -8,16 -2,2 -2,4 -3,7l-4 12c-1,6 -2,11 -2,18l0 0z"/>
    <path class="fil0" d="M761 219c-3,-3 -4,-5 -15,-12l-23 -12c-2,-1 -3,-1 -5,-2l-13 -6c-2,-1 -2,-1 -3,-1 0,1 2,8 3,9 7,15 6,13 15,26l13 19c2,3 4,5 7,8 6,5 26,22 32,23 0,-2 6,-11 8,-14l6 -16c3,-14 3,-20 0,-35 0,-1 0,-3 -1,-4l-1 -3c-2,-7 -3,-9 -6,-16 -2,-3 -2,-5 -5,-9 -1,-3 -2,-5 -4,-6 0,1 -5,8 -7,15 -1,1 0,0 -1,1 -1,3 -1,4 -1,7 -2,9 -1,19 1,28l0 0z"/>
    <path class="fil0" d="M661 75l-6 -14c-3,-6 -8,-14 -13,-19 -1,-1 -1,-1 -2,-3 -4,-4 -11,-9 -16,-11 -3,-1 -4,-2 -7,-3 -12,-3 -23,-5 -35,-7l-26 -7 22 20c2,2 3,3 5,5l6 5c1,1 1,1 3,3l21 16c14,9 11,5 22,10 4,2 3,1 8,2l13 3c2,0 3,0 5,0l0 0z"/>
    <path class="fil0" d="M266 11l-8 3c-3,0 -6,1 -9,2 -1,0 0,0 -1,0l-8 2c-2,0 -6,1 -9,1 -2,1 -6,2 -8,2l-7 2c-12,3 -20,3 -31,13 -1,2 -2,2 -3,3 -1,1 -1,2 -2,3 -4,4 -7,7 -9,12 -3,5 -3,4 -4,7 -2,3 -3,7 -5,11 0,1 -2,3 -1,3 1,2 0,1 1,0 1,0 1,0 3,0 9,-2 20,-3 30,-7 15,-7 12,-7 23,-14l45 -39c1,-1 1,-1 1,-1l2 -3 0 0z"/>
    <path class="fil0" d="M392 74c25,-3 66,1 91,9 23,7 54,22 73,34l29 21c26,20 46,51 61,80 6,11 16,34 20,46 11,35 11,85 6,121 -2,20 -7,34 -14,52 -13,30 -30,57 -51,82 -15,18 -40,36 -60,48 -16,10 -46,24 -62,29 -15,5 -41,9 -58,9 -5,0 -10,1 -16,0 -15,0 -31,-1 -47,-3 -26,-4 -27,-4 -51,-14 -18,-8 -44,-21 -60,-33 -10,-7 -12,-8 -23,-18 -3,-3 -6,-5 -9,-8 -8,-8 -9,-10 -15,-18 -22,-26 -43,-64 -53,-96 -10,-33 -12,-86 -6,-121 4,-27 5,-28 14,-51 10,-26 27,-52 43,-74l16 -18c8,-8 18,-16 27,-23 34,-24 72,-45 115,-51 11,-2 20,-2 30,-3l0 0zm-55 -5c-11,-1 -13,-4 -29,-4 -15,0 -26,0 -39,5l-12 6c-11,6 -20,15 -27,25l-12 22c-3,5 -5,13 -7,17 -1,2 -1,2 -3,2 -6,2 -11,4 -16,7 -2,0 -2,1 -4,2l-7 3c-15,8 -28,20 -36,35 -4,7 -6,12 -8,20 0,1 0,1 0,1 0,0 0,0 0,0l0 1c0,1 0,0 -1,2 -1,3 -1,7 -1,11 -1,11 0,24 1,34l1 4c1,2 1,0 1,5 0,1 -9,10 -10,13l-6 9c-1,2 -2,3 -3,4 -1,2 -1,1 -2,3 0,1 0,1 -1,2l-7 16c-2,5 -5,21 -4,26 1,13 3,26 9,37 1,1 1,2 1,3l21 30c4,5 2,3 1,10l-2 15c0,5 -1,13 0,18l4 23c1,2 1,5 2,7 1,1 1,3 2,4 0,0 0,0 1,1 5,9 5,9 11,17 4,5 9,9 14,12 1,1 2,2 3,3l9 5c6,4 15,8 21,10 8,3 9,2 12,9 3,10 7,20 13,28 1,2 1,2 2,3 2,6 8,10 11,15 3,3 8,7 11,9l17 10 12 3c12,4 35,4 48,1 2,-1 7,-3 10,-2l4 4c7,7 16,12 25,17 19,11 45,15 67,8 5,-1 14,-5 18,-8l26 -18c1,0 1,-1 2,-1 1,-2 0,0 1,-2 2,0 6,0 9,1 2,0 5,1 8,1 13,1 28,3 40,-1l12 -3c8,-3 15,-8 21,-12l1 -1c0,0 0,0 0,0l1 -1c4,-3 8,-7 11,-11 11,-13 18,-28 23,-43 1,-3 3,-3 6,-5 4,-2 10,-3 14,-5l13 -7c5,-3 10,-6 14,-10l1 -1c11,-9 19,-21 24,-33 1,-3 5,-18 5,-21 0,-2 0,-1 0,-2 0,-2 0,1 0,-2 0,-6 1,-19 0,-24l-2 -11c-1,-3 -1,-5 -1,-8 2,-2 4,-5 6,-7l2 -2c1,-2 2,-4 4,-6 1,-2 2,-3 4,-5 1,-2 2,-4 3,-6 1,-1 1,-1 2,-3l6 -12c0,-1 0,-1 0,-1l0 -1c5,-13 8,-32 4,-48 -2,-6 -4,-13 -7,-19 -5,-10 -11,-19 -18,-28 -1,-1 -2,-1 -2,-2 -4,-4 -4,-4 -3,-10l2 -14c0,-7 2,-9 1,-18 -1,-3 0,-6 -1,-9 -2,-14 -6,-28 -15,-40 -3,-5 -8,-11 -13,-14 -11,-8 -22,-16 -35,-21l-11 -4c-1,-1 -1,0 -2,-1 -1,-2 -2,-4 -2,-7 -2,-6 -6,-13 -9,-19 -3,-6 -6,-11 -10,-17l-2 -3c-4,-6 -11,-11 -17,-15 -2,-1 -3,-2 -6,-4 -8,-5 -19,-8 -28,-10l-6 -1c-9,0 -20,0 -29,1 -4,0 -10,2 -15,3 -2,0 -3,-2 -5,-3l-10 -8c-5,-4 -10,-8 -16,-11 -10,-5 -21,-9 -33,-11 -1,0 -2,0 -4,-1 -3,0 -7,0 -10,0l-21 4c-4,1 -7,2 -10,4 -15,8 -11,5 -24,14 -4,2 -12,8 -14,12l0 0z"/>
    <g>
     <path class="fil0" d="M409 72c148,0 267,120 267,267 0,147 -119,267 -267,267 -147,0 -266,-120 -266,-267 0,-147 119,-267 266,-267z"/>
     <path class="fil1" d="M318 517l6 -8 25 10c1,0 1,1 2,2 0,1 0,2 0,2l-11 30c-1,1 -1,2 -2,3 -1,0 -1,1 -2,0l-10 -3 4 -10 -7 9 -15 -6 7 -8 13 5c0,0 1,0 1,0 0,-1 0,-1 0,-1l7 -17c0,-1 0,-1 -1,-1l-17 -7 0 0zm-35 -34l11 7 -2 7 10 6 5 -4 11 7 -24 19 2 2 -8 6 -16 -11 11 -39 0 0zm6 22l-4 14 17 -15 -9 4 -4 -3zm-37 -44l8 -4 19 20 -22 20 3 2 -10 4 -9 -9 22 -21 -11 -12zm-20 -42c1,0 2,0 3,0 1,1 2,1 3,2l16 28 -25 15 1 3 -10 1 -6 -10 8 -5 -10 2 -9 -14c0,-1 0,-2 0,-3 1,-2 1,-2 2,-3l27 -16 0 0zm2 15l-16 9c0,1 0,1 0,1 0,0 0,0 0,1l4 6c0,1 0,1 0,1 1,0 1,0 1,0l24 -14 -9 1 -3 -4c0,-1 0,-1 -1,-1 0,0 0,0 0,0l0 0zm-15 -80l3 12 -10 2 10 2 4 16c0,1 -1,1 -1,2 0,0 -1,1 -1,1l-7 1 10 2 3 16c0,0 0,1 -1,2 0,0 -1,1 -1,1l-27 5 1 4 -10 -2 -3 -12 28 -6c0,0 1,0 1,0 0,0 1,-1 1,-1l-2 -7c0,-1 0,-1 0,-1 -1,0 -1,0 -1,0l-28 5 -3 -12 28 -6c0,0 0,0 1,0 0,0 0,-1 0,-1l-2 -8 -1 0 -28 5 -2 -12 38 -8zm-8 -40l9 4 0 29 -30 0 0 3 -10 -4 0 -31 10 3 0 15 14 0 -9 -4 1 -13 9 2 -1 15 7 0 0 -19 0 0zm8 -37l8 5 -6 27 -29 -7 0 3 -9 -5 3 -13 30 7 3 -17 0 0zm17 -35l6 7 -12 24 -27 -13 -1 3 -7 -7 6 -12 27 14 8 -16 0 0zm55 -52l-10 9 -6 -3 -9 8 3 6 -9 9 -13 -28 -2 2 -4 -10 14 -13 36 20 0 0zm-24 1l-12 -7 11 19 -1 -9 2 -3zm59 -27c1,0 1,1 0,3 0,1 -1,2 -2,2l-28 16 -14 -26 -3 2 -1 -11 10 -6 5 9 -1 -11 14 -8c1,0 2,0 3,0 1,1 2,2 2,2l15 28 0 0zm-15 1l-8 -16c0,0 -1,0 -1,0 0,0 0,0 0,0l-7 3c0,1 -1,1 -1,1 0,0 0,1 0,1l14 24 -1 -9 4 -3c0,0 0,0 0,-1 0,0 0,0 0,0l0 0zm52 -51l-1 41 -16 5 -18 -25 -4 1 1 -10 11 -4 15 22 -1 -26 13 -4zm49 25l-3 10 -29 2 -2 -30 -3 0 3 -9 31 -3 -2 10 -15 2 1 13 3 -8 13 -1 -2 9 -14 1 0 6 19 -2 0 0zm43 15l-13 -1 4 -28c0,-1 0,-1 -1,-1l-8 -2c-1,0 -1,1 -1,1l-4 28 -13 -2 4 -29 -3 0 4 -10 13 2 -2 10 5 -9 17 2c1,0 1,1 2,2 1,1 1,2 1,3l-5 34zm51 -23l-6 8 -8 -3 -10 28 -12 -5 10 -27 -11 -4 7 -8 30 11 0 0zm4 48l-12 -7 15 -26 -3 -2 8 -6 12 6 -20 35zm34 23c0,0 -1,0 -1,0 -1,1 -2,0 -2,0l-8 -7 5 -6 -8 4 -16 -13 8 -4 15 12c0,0 0,0 0,0 1,0 1,-1 1,-1l3 -3c0,0 0,0 0,-1 0,0 0,0 0,0l-14 -12c-1,0 -1,0 -1,-1 0,-1 0,-2 1,-2l12 -15c0,0 1,-1 2,-1 0,0 1,0 2,1l7 6 -6 8 9 -6 14 12 -8 6 -13 -11c-1,0 -1,0 -1,0 -1,0 -1,0 -1,0l-2 3c-1,0 -1,1 -1,1 0,0 1,0 1,0l14 12c0,0 0,1 0,2 0,0 0,1 0,1l-12 15zm55 8l-9 4 -5 -7 -24 19 -8 -11 23 -18 -7 -9 10 -3 20 25 0 0zm-2 92l-4 -13 5 -4 -4 -11 -6 0 -4 -13 30 0 -1 -3 11 1 6 18 -33 25 0 0zm9 -22l11 -8 -22 2 10 2 1 4 0 0zm2 59l-9 -2 -2 -27c0,-1 0,-1 1,-2 1,-1 2,-1 2,-1l32 -3c1,0 2,0 3,1 1,0 1,1 2,1l0 11 -10 0 11 3 1 15 -11 -2 -1 -14c0,0 0,0 0,-1 0,0 0,0 -1,0l-18 2c-1,0 -1,0 -1,1l1 18 0 0zm-13 46l1 -14 7 -1 1 -12 -6 -2 2 -13 28 12 0 -2 9 5 -2 19 -40 8zm17 -16l14 -3 -21 -7 7 6 0 4 0 0zm-30 59c0,0 -1,-1 -1,-2 -1,-2 -1,-3 -1,-4l13 -30 27 11 1 -3 8 8 -5 11 -9 -4 8 8 -6 15c-1,0 -1,1 -3,2 -1,0 -2,0 -3,0l-29 -12 0 0zm11 -10l17 6c0,0 0,0 1,0 0,0 0,0 0,0l3 -7c0,-1 0,-1 0,-1 0,0 0,0 -1,-1l-25 -10 6 7 -1 4c-1,0 0,1 0,1 0,0 0,0 0,1l0 0zm-29 47l-5 -8 16 -24 25 16 1 -2 6 8 -17 26 -7 -8 9 -13 -12 -7 5 7 -7 12 -6 -7 8 -12 -5 -4 -11 16 0 0zm-54 38l9 -8 19 20c0,0 0,0 0,0 1,0 1,0 1,0l6 -5c0,0 0,0 0,-1 0,0 0,0 0,0l-19 -21 10 -9 18 21c1,0 1,0 1,0 1,0 1,0 1,0l5 -4c0,-1 1,-1 1,-1 0,-1 0,-1 -1,-1l-18 -21 10 -8 19 21 2 -2 5 10 -10 8 -6 -6 4 8 -12 11c-1,1 -2,1 -3,1 -1,0 -2,-1 -2,-2l-4 -3 4 9 -11 10c-1,0 -2,1 -3,0 -2,0 -2,0 -3,-1l-23 -26 0 0zm-27 54l2 -28 -7 -13 13 -6 6 13 15 10 5 -2 1 10 -10 4 -13 -10 0 16 -12 6 0 0z"/>
     <path class="fil0" d="M360 540c3,0 6,3 6,6 0,3 -3,6 -6,6 -4,0 -6,-3 -6,-6 0,-3 2,-6 6,-6z"/>
     <path class="fil0" d="M461 540c3,0 6,3 6,6 0,3 -3,6 -6,6 -3,0 -6,-3 -6,-6 0,-3 3,-6 6,-6z"/>
     <path class="fil1" d="M377 561l-8 -1 3 -18 -2 0 3 -6 8 1 -4 24 0 0zm29 1c0,1 -1,1 -1,2 -1,0 -1,0 -1,0l-19 -1 2 -6 10 1c0,0 1,0 1,-1l0 -8 -1 5 -10 -1c0,0 0,0 -1,0 0,-1 0,-1 0,-1l1 -12c0,0 0,0 1,-1 0,0 0,-1 1,-1l15 2c1,0 1,0 2,1 1,0 1,1 1,1l-1 20 0 0zm-8 -14l1 -2c0,0 0,0 -1,0 0,-1 0,-1 0,-1l-3 0c0,0 0,0 -1,0 0,0 0,1 0,1l0 2c0,0 0,0 0,0 0,0 0,0 1,0l3 1c0,0 0,0 0,-1 0,0 0,0 0,0zm33 -10l-2 6 -9 1 1 8 1 -5 8 0c0,0 1,0 1,0 0,0 1,1 1,1l0 12c0,0 0,1 0,1 0,1 0,1 -1,1l-17 1 1 -6 8 0c1,0 1,0 1,-1 0,0 0,0 0,0l0 -3c0,0 0,0 0,-1 0,0 -1,0 -1,0l-10 1 -1 -14 19 -2zm20 22l-7 1 -4 -18 -2 1 1 -7 8 -1 4 24 0 0z"/>
    </g>
    <path class="fil0" d="M409 162c98,0 177,79 177,177 0,98 -79,177 -177,177 -97,0 -177,-79 -177,-177 0,-98 80,-177 177,-177zm0 -3c100,0 180,81 180,180 0,100 -80,180 -180,180 -99,0 -180,-80 -180,-180 0,-99 81,-180 180,-180z"/>
    <g>
     <path class="fil0" d="M357 316c19,-7 36,-5 52,0 17,-4 33,-3 49,0l80 114c-47,-16 -90,-18 -128,0 -27,-21 -65,-27 -130,0l77 -114z"/>
     <path class="fil0" d="M409 297c17,-5 33,-4 50,0l1 0 1 1 81 115 -3 4 -2 -1c-41,-13 -86,-19 -126,0l-1 0 -2 0 0 0c-15,-11 -31,-17 -49,-17 -26,-1 -54,7 -77,17l-2 1 -3 -3 78 -116 1 -1 0 0c18,-7 35,-5 53,0z"/>
     <path class="fil0" d="M357 300c19,-8 36,-5 52,0 17,-5 33,-4 49,0l80 113c-47,-15 -90,-17 -128,0 -27,-20 -65,-26 -130,0l77 -113z"/>
     <path class="fil0" d="M405 181c34,0 62,28 62,62 0,34 -28,62 -62,62 -34,0 -62,-28 -62,-62 0,-34 28,-62 62,-62z"/>
     <path class="fil0" d="M405 184c32,0 59,27 59,59 0,33 -27,59 -59,59 -32,0 -59,-26 -59,-59 0,-32 27,-59 59,-59z"/>
     <path class="fil0" d="M489 474c1,3 1,7 -1,10 -3,3 -8,2 -12,1l0 0 0 -1 -1 0c-15,-10 -29,-21 -41,-35 -16,-17 -29,-36 -37,-58 -9,-26 -12,-53 -11,-81l0 -1 2 -1 34 0 2 2 -1 1c0,14 -1,28 0,42 1,11 3,23 5,34 5,19 12,36 24,51 10,13 23,25 36,35l0 0 1 1 0 0 0 0z"/>
     <path class="fil0" d="M389 311l31 0c-5,89 20,129 66,164 2,7 -1,9 -9,7 -52,-36 -92,-84 -88,-171l0 0z"/>
     <path class="fil0" d="M405 227c5,13 15,36 15,50 0,14 -10,20 -15,33 -5,-13 -15,-19 -15,-33 0,-14 10,-37 15,-50z"/>
     <path class="fil0" d="M386 302l38 0c2,0 3,2 3,4l0 2c0,2 -1,4 -3,4l-38 0c-2,0 -3,-2 -3,-4l0 -2c0,-2 1,-4 3,-4z"/>
    </g>
   </g>
   <g id="_1737113028928_0">
    <path class="fil2" d="M214 681l-17 -1c-3,0 -1,-1 -3,1 3,0 20,7 25,9 14,5 27,9 42,9 3,1 8,1 12,1 10,-1 16,-1 26,-3 3,-1 5,-1 8,-1 1,-1 0,-1 3,-1 1,0 2,0 4,-1 6,-1 25,-3 29,-4l14 -3c6,-1 13,-2 17,-4 17,-5 13,2 21,2l0 1c-5,2 -18,11 -24,14 -1,0 -1,0 -2,1l-10 5c-1,1 -1,1 -2,1 -1,0 -1,1 -2,1 -3,2 -5,3 -8,4 -5,2 -14,6 -19,7 0,3 -1,5 2,8 9,6 15,-3 24,-9 3,-1 6,-3 8,-4l9 -5c2,-2 5,-3 8,-5 3,-2 5,-3 8,-5 2,-1 15,-8 17,-8 4,0 34,18 38,20l20 13c5,3 6,5 11,5 5,0 9,-5 8,-9 0,-1 1,-1 -1,-1l-11 -4c-5,-2 -10,-5 -16,-7l-37 -21c-1,0 -1,0 -1,-2 8,-2 5,-6 17,-2l18 4c3,0 10,1 13,2l6 2c11,1 23,2 34,5 7,2 19,3 27,3 10,1 17,1 28,0 11,-2 15,-4 25,-7l8 -3c1,0 1,0 3,-1 4,-1 7,-2 11,-4 2,0 3,-1 6,-2 1,-1 4,-2 6,-2 -1,-1 -1,-1 -2,-1 0,0 0,1 0,1 -9,2 -32,1 -41,-1l-19 -2c-6,-1 -12,-2 -18,-4 -2,0 -4,-1 -6,-1 -4,-1 -8,-2 -12,-3l-12 -2c-24,-6 -26,-5 -50,-4 -11,0 -15,3 -22,5l-15 5c-5,2 -9,3 -13,6 -1,1 -1,1 -3,1 0,0 -8,-5 -11,-6l-25 -8c-10,-4 -19,-2 -31,-4 -10,-1 -23,2 -34,4 0,1 0,1 -1,1l-4 1c-8,2 -17,3 -25,5 -11,3 -21,4 -33,6l-26 2z"/>
    <path class="fil2" d="M552 650l7 2c8,3 23,5 24,5 2,1 -1,1 3,1 2,0 1,0 2,0 3,0 0,1 3,1l19 0c3,0 1,-1 3,-1 10,-2 21,-4 31,-7l5 -2c2,-1 3,-1 6,-2 1,0 1,-1 3,-1 2,-1 1,-1 3,-2 0,0 2,-1 2,-1 2,0 2,0 3,-1 6,-2 35,-18 37,-22 -1,0 -3,-1 -4,-1l-23 -3 -39 4c-4,1 -7,2 -11,2 -2,1 -2,1 -5,2 -1,0 -3,1 -5,1 1,-2 2,-3 3,-5l9 -15c0,-1 0,-2 1,-2l10 -23c1,-1 1,-1 1,-2 2,-7 10,-26 10,-33l-17 9c-1,1 -2,1 -4,2 -1,1 -2,1 -4,2 -1,1 -2,2 -4,3 -7,4 -13,7 -19,12 -3,2 -5,4 -8,6 -6,4 -16,12 -19,18 -1,2 -2,3 -3,4 -6,9 -10,22 -12,26 -2,4 -5,15 -7,20l-1 3 0 0z"/>
    <path class="fil2" d="M193 625l-31 -6c-4,-1 -8,-2 -11,-2l-18 -1c-3,0 -3,1 -6,1 -4,0 -8,0 -11,1 -4,0 -7,1 -10,2 0,2 1,2 2,2l18 11c7,5 27,14 33,16 3,1 5,1 6,2 2,0 1,0 3,1 5,2 21,4 24,5 6,2 16,2 26,2 3,0 1,-1 3,-1 1,0 0,0 1,0 3,0 24,-4 28,-6 3,-1 3,-1 7,-2 -1,-2 -1,-4 -1,-5l-2 -4c0,0 0,0 0,0l-3 -9c-1,-2 -1,-3 -2,-4 -1,-2 -1,-3 -2,-5 -1,-3 -2,-6 -4,-9 -2,-6 -10,-19 -14,-23l-37 -28c-1,0 -2,-1 -4,-2 -2,-1 -2,-1 -4,-2 -3,-2 -5,-3 -8,-5l-12 -6c-2,-1 -3,-2 -5,-3 0,5 2,10 3,13l1 3c1,2 1,4 2,6 0,1 1,3 2,5 0,1 0,1 1,2 0,0 0,1 0,1 1,2 0,1 1,2l2 5c0,0 0,1 0,2l4 7c1,3 1,3 2,6l14 25c1,2 1,1 2,3l0 0z"/>
    <path class="fil2" d="M48 437c0,-3 -2,-6 -4,-9 -1,-4 -2,-6 -4,-9l-4 -8c-4,-5 -8,-11 -12,-15l-7 -6c-4,-3 -12,-9 -17,-9 0,8 2,36 4,42 4,10 3,13 11,26 5,8 10,12 17,19 7,7 15,14 24,19 3,2 17,9 20,10 1,-3 2,-4 3,-7 1,-2 2,-5 3,-7 5,-11 14,-35 13,-46 0,-7 -2,-35 -4,-42l-3 -8c0,-3 -1,-5 -2,-8 -1,-2 -2,-5 -2,-7 -3,0 -13,17 -16,21 -1,2 -1,2 -2,4l-5 8c-1,2 -1,3 -2,4 -2,3 -3,6 -5,9 -1,3 -2,6 -3,9 -1,4 -1,9 -3,10l0 0z"/>
    <path class="fil2" d="M732 497c5,-1 19,-9 24,-12l10 -8c4,-2 6,-4 9,-7 13,-11 15,-15 23,-28 1,-2 2,-5 3,-8 1,-3 2,-6 3,-9 4,-15 4,-29 4,-44 -13,3 -28,18 -35,30l-7 12c-1,3 -4,13 -6,14 0,-4 -4,-14 -5,-19 -1,-3 -12,-21 -14,-24l-10 -15c-1,-1 -1,-2 -2,-3 -1,-2 -2,-2 -2,-4l-2 0c0,1 0,2 -1,3 -3,8 -4,11 -5,19 -1,1 -1,2 -1,4l-1 5c-2,6 -3,28 -3,34 -1,5 2,15 3,19l0 1c0,0 0,0 0,0l1 1c0,0 0,0 0,0l1 2c1,3 1,6 2,8l8 21c1,3 3,5 3,8l0 0z"/>
    <path class="fil2" d="M101 517l0 9c0,7 1,14 1,21 -2,-2 -5,-4 -7,-6l-17 -12c-1,-1 -2,-2 -4,-3l-8 -5c-7,-4 -13,-7 -19,-10 -3,-1 -4,-1 -6,-2 -2,-1 -9,-2 -12,-2 1,2 3,7 4,9l8 16c1,2 2,2 3,4l10 14c2,2 2,2 3,4l6 6c4,5 16,14 21,17 9,7 23,13 34,15 5,2 17,4 22,4l1 -8c1,-3 1,-7 2,-9 0,-7 0,-14 1,-20 0,-3 -1,-12 -1,-18 -1,-4 0,-4 -2,-8l-5 -11c0,-2 -1,-3 -1,-4 -1,-1 -1,-2 -2,-3 -4,-9 -5,-10 -9,-18 -1,-2 -13,-23 -17,-24 0,5 -2,6 -2,9 -1,3 -2,8 -2,11 -1,7 -2,16 -2,24l0 0z"/>
    <path class="fil2" d="M669 596c3,0 8,0 11,-1 3,-1 7,-2 10,-3 6,-1 22,-6 27,-10 2,-1 2,-1 4,-2 3,-1 5,-3 7,-5l11 -9c1,-1 2,-2 3,-3 1,-1 1,-1 1,-1l2 -1c13,-13 23,-28 31,-45l4 -9c-7,0 -21,5 -27,8l-9 5c-2,1 -3,2 -5,3 -10,6 -12,8 -20,14 -2,1 -3,3 -4,4 -4,2 -5,4 -9,6 0,-3 0,-4 1,-5 0,-2 0,-4 0,-6 1,-19 0,-35 -3,-54 -1,-9 -2,-4 -2,-10 -2,1 -8,10 -9,12 -4,6 -15,25 -17,30 -2,5 -4,8 -5,11l-4 12c0,0 0,0 0,0 -2,5 -2,16 -2,22 1,3 0,7 0,10l1 8c0,2 1,0 1,3 0,1 0,1 0,3 0,4 2,9 2,13z"/>
    <path class="fil2" d="M43 376c2,-1 3,-3 4,-4l1 -1c0,0 0,-1 0,-1 0,0 0,0 0,0 0,0 1,0 1,0 0,0 0,-1 0,-1 6,-7 21,-28 23,-35 0,-2 1,-4 1,-7l5 -21c1,-5 2,-9 2,-14l1 -12c1,-8 0,-7 0,-13l-9 8c-11,10 -22,23 -31,35 -2,2 -3,6 -5,8 0,-5 -1,-15 -2,-19l-1 -4c-1,-2 -1,-3 -2,-5 -1,-3 -1,-5 -2,-8 -4,-6 -12,-22 -19,-24 -3,5 -4,15 -5,21 -1,4 -2,7 -2,14 0,11 -1,11 1,23 0,0 0,2 0,2l1 2c0,0 0,1 0,1l0 1c2,9 5,12 9,20 1,2 1,2 2,4l6 9c5,5 3,4 10,11l11 10 0 0z"/>
    <path class="fil2" d="M772 317c-1,-1 -1,-2 -1,-2 -9,-15 -6,-10 -19,-25l-18 -17c-2,-2 -3,-5 -6,-6 0,4 -1,5 -1,9 0,4 2,20 2,24l2 7c2,9 4,23 8,32 0,0 0,1 1,1l5 9c1,1 1,1 2,3 1,1 1,2 2,3 3,4 9,13 12,16 4,4 2,3 5,5l8 -7c1,-1 2,-2 3,-3l6 -6c4,-6 8,-10 12,-18 3,-6 8,-13 9,-22 1,-3 1,-6 2,-8 1,-11 0,-28 -3,-38l0 -3c-1,-3 -3,-11 -3,-13 -5,0 -11,9 -14,13 -6,10 -9,19 -11,31 -1,5 -3,7 -3,15z"/>
    <path class="fil2" d="M701 109c-2,-1 -5,-3 -7,-4 -6,-2 -17,-6 -24,-7 -7,-2 -21,-4 -26,-5 -3,-1 -8,-2 -10,-2l4 7c1,2 2,3 4,5 7,9 17,17 26,24 17,14 13,15 35,24l7 3c3,1 12,5 15,5 3,-12 7,-17 7,-33 0,-10 0,-19 -5,-29 -4,-7 -1,-5 -8,-15 -6,-9 -7,-12 -15,-20 -2,-2 -4,-5 -7,-6 -4,7 -4,20 -3,27 0,7 2,14 5,20 0,1 2,4 2,6z"/>
    <path class="fil2" d="M77 116c0,13 0,21 3,32l1 3c1,3 2,6 3,8l15 -5c4,-2 9,-4 14,-6l12 -7c3,-1 11,-9 16,-13 1,-1 2,-2 3,-3 1,-1 1,-1 3,-2 5,-5 27,-24 27,-32l-41 8c-1,1 -1,0 -2,1 -7,2 -9,2 -16,5l-7 4c0,-3 1,-2 3,-7 4,-14 3,-15 5,-22 0,-3 0,-3 0,-5l-1 -2c0,-3 0,-10 -3,-17 -3,1 -10,9 -12,12 -10,12 -23,32 -23,48l0 0z"/>
    <path class="fil2" d="M27 211c0,16 2,14 5,23 1,5 4,11 6,16 2,3 4,6 6,9 4,-1 33,-21 37,-29l16 -23c7,-10 13,-20 16,-32l-13 6c-7,3 -10,4 -18,8l-4 2c-4,2 -17,10 -20,13 -1,1 -2,2 -3,3 0,-5 2,-11 1,-20 -1,-9 -1,-12 -4,-20 -1,-2 -2,-3 -3,-5 -1,-3 -2,-3 -3,-5 -1,0 -1,1 -2,2 -5,8 -5,9 -8,15 -2,3 -2,4 -3,7l-3 12c-2,6 -3,11 -3,18l0 0z"/>
    <path class="fil2" d="M754 207c-3,-2 -4,-5 -15,-11l-22 -12c-3,-1 -4,-1 -6,-2l-13 -6c-2,-1 -1,-2 -2,-1 -1,1 2,7 2,8 7,16 7,13 16,27l13 18c2,4 4,6 7,9 5,4 26,22 31,22 1,-2 7,-11 8,-14l6 -16c3,-13 4,-20 1,-34 -1,-2 -1,-3 -1,-4l-1 -4c-3,-6 -3,-9 -7,-16 -1,-3 -2,-4 -4,-9 -2,-3 -2,-5 -5,-5 0,1 -4,8 -7,14 0,2 0,1 0,2 -1,2 -1,4 -2,6 -1,10 -1,20 1,28l0 0z"/>
    <path class="fil2" d="M655 64l-7 -15c-3,-6 -7,-14 -12,-18 -1,-1 -2,-2 -3,-3 -3,-4 -10,-9 -15,-11 -3,-2 -5,-2 -8,-3 -11,-4 -23,-5 -35,-8l-26 -6 22 20c2,2 4,3 6,5l5 5c2,1 2,1 3,2l21 17c14,8 11,5 22,9 4,2 4,2 8,3l14 2c2,1 2,1 5,1l0 0z"/>
    <path class="fil2" d="M259 0l-8 2c-2,1 -6,1 -8,2 -2,1 0,0 -2,1l-7 1c-3,1 -6,1 -9,2 -3,0 -6,1 -9,2l-6 1c-12,3 -20,4 -31,14 -2,1 -2,1 -3,2 -2,2 -2,2 -3,3 -3,4 -6,8 -9,13 -2,5 -2,4 -4,6 -1,4 -2,8 -4,11 -1,2 -2,3 -1,4 1,1 -1,0 1,0 1,0 0,0 2,-1 10,-1 21,-3 30,-7 15,-7 12,-6 23,-14l46 -39c0,0 0,0 0,0l2 -3 0 0z"/>
    <path class="fil2" d="M385 63c26,-3 67,1 91,8 23,7 54,22 73,35l29 21c26,20 46,51 62,80 5,10 16,33 20,46 11,35 11,84 6,121 -3,19 -7,34 -15,51 -13,31 -29,57 -50,83 -15,18 -40,36 -61,48 -15,9 -46,23 -62,29 -14,4 -41,8 -57,8 -6,1 -11,1 -17,1 -15,0 -31,-1 -46,-3 -26,-4 -28,-5 -52,-15 -18,-7 -44,-21 -60,-32 -10,-8 -12,-9 -22,-18 -4,-3 -6,-5 -9,-8 -9,-8 -9,-10 -16,-18 -21,-27 -42,-64 -53,-97 -10,-33 -11,-86 -6,-120 4,-28 6,-29 15,-52 10,-25 26,-52 43,-74l15 -17c8,-8 18,-17 27,-23 35,-24 72,-45 115,-51 12,-2 20,-2 30,-3l0 0zm-55 -6c-11,-1 -12,-4 -29,-4 -14,0 -25,1 -39,6l-12 6c-10,5 -20,15 -27,25l-12 22c-2,5 -4,12 -6,17 -1,1 -2,1 -4,2 -5,2 -11,4 -16,6 -1,1 -2,1 -3,2l-8 4c-14,8 -27,19 -35,34 -4,8 -6,12 -8,21 0,0 0,0 0,1 0,0 -1,0 -1,0l0 1c0,0 0,0 0,2 -1,3 -1,6 -2,10 -1,11 0,24 2,34l0 4c1,2 1,1 1,5 0,2 -8,11 -10,13l-6 9c-1,2 -2,3 -3,5 -1,1 0,1 -1,2 -1,1 -1,2 -2,3l-7 16c-1,5 -4,21 -4,26 1,13 4,26 10,37 0,1 0,1 1,2l20 30c5,6 3,4 1,11l-1 14c-1,6 -2,13 -1,19l4 22c1,3 2,6 3,8 0,1 1,2 1,3 1,1 1,1 1,2 5,8 5,8 12,16 4,5 8,9 13,13 2,1 2,1 3,2l10 6c5,3 15,7 21,10 8,2 8,1 11,9 4,10 7,19 13,28 1,1 1,1 2,3 3,5 8,10 12,14 2,4 7,8 11,10l17 9 11 4c13,3 36,3 48,0 3,0 8,-2 10,-1l4 4c8,6 17,12 25,17 19,11 46,15 68,8 4,-2 13,-6 17,-8l26 -18c1,-1 1,-1 2,-2 2,-1 1,0 2,-2 2,0 5,1 8,1 3,1 5,2 8,2 13,1 29,2 41,-2l12 -3c7,-2 15,-7 21,-12l0 0c1,0 1,0 1,-1l0 0c5,-4 8,-7 12,-12 10,-12 17,-27 22,-43 1,-3 3,-3 6,-4 5,-2 10,-3 15,-6l13 -7c5,-3 10,-6 14,-9l1 -1c11,-9 18,-21 24,-34 1,-2 4,-18 4,-21 0,-1 0,-1 0,-2 1,-2 1,1 1,-2 0,-6 0,-18 -1,-24l-2 -10c0,-3 -1,-6 -1,-8 3,-2 5,-5 7,-8l1 -2c2,-2 3,-3 4,-5 2,-2 3,-3 4,-6 1,-2 3,-3 4,-5 0,-1 0,-2 1,-3l6 -12c1,-1 0,-1 1,-2l0 0c5,-13 8,-32 3,-48 -1,-7 -4,-13 -7,-19 -5,-10 -11,-20 -18,-28 -1,-1 -1,-1 -2,-3 -3,-4 -4,-3 -3,-10l2 -13c1,-8 2,-9 1,-18 0,-3 0,-6 0,-9 -2,-15 -7,-28 -15,-40 -4,-5 -8,-11 -13,-15 -12,-8 -22,-16 -35,-20l-12 -5c-1,0 0,0 -1,-1 -2,-2 -2,-4 -3,-6 -2,-7 -5,-13 -8,-19 -3,-6 -7,-12 -11,-17l-2 -3c-4,-6 -11,-11 -17,-15 -2,-2 -3,-3 -5,-4 -9,-6 -19,-8 -29,-10l-6 -1c-9,-1 -19,-1 -28,0 -5,1 -10,3 -15,3 -3,0 -4,-1 -6,-3l-9 -8c-5,-3 -11,-7 -16,-10 -11,-6 -21,-10 -33,-11 -2,-1 -3,-1 -4,-1 -3,-1 -7,-1 -11,-1l-21 4c-3,2 -6,3 -9,4 -16,8 -11,6 -25,14 -3,3 -11,9 -14,12l0 0z"/>
    <g>
     <path class="fil3" d="M403 61c147,0 266,119 266,267 0,147 -119,266 -266,266 -148,0 -267,-119 -267,-266 0,-148 119,-267 267,-267z"/>
     <path class="fil4" d="M311 506l6 -8 25 9c1,1 2,1 2,2 0,1 0,2 0,3l-11 30c0,1 -1,1 -1,2 -1,1 -2,1 -3,1l-9 -4 3 -9 -6 8 -15 -5 7 -9 13 5c0,0 0,0 0,0 0,0 1,0 1,0l6 -18c0,0 0,-1 0,-1l-18 -6 0 0zm-35 -35l12 8 -2 6 10 7 5 -4 11 7 -24 19 2 2 -9 6 -16 -11 11 -40 0 0zm7 23l-4 13 16 -15 -9 4 -3 -2zm-38 -45l9 -4 18 20 -21 20 2 3 -10 4 -8 -10 22 -20 -12 -13zm-19 -41c0,-1 1,0 3,0 1,0 2,1 2,2l17 28 -26 15 2 3 -11 1 -6 -10 9 -5 -11 1 -8 -14c-1,0 -1,-1 0,-3 0,-1 1,-2 2,-2l27 -16 0 0zm1 15l-15 9c0,0 -1,0 -1,1 0,0 0,0 0,0l4 7c0,0 1,0 1,0 0,0 0,0 1,0l24 -14 -10 1 -2 -4c0,0 -1,0 -1,0 0,0 -1,0 -1,0l0 0zm-14 -80l2 12 -10 2 11 2 3 16c0,0 0,1 -1,1 0,1 0,1 -1,1l-7 2 10 2 3 15c0,1 0,1 0,2 -1,1 -2,1 -2,1l-27 6 1 3 -10 -1 -2 -13 28 -5c0,0 0,0 1,-1 0,0 0,0 0,0l-1 -8c0,0 -1,0 -1,0 0,-1 0,-1 -1,-1l-28 6 -3 -13 28 -5c0,0 1,0 1,-1 0,0 1,0 0,0l-1 -8 -1 -1 -28 6 -3 -13 39 -7zm-9 -40l9 3 0 29 -30 0 0 3 -9 -3 0 -32 10 3 0 15 13 0 -8 -3 0 -14 9 3 0 14 6 0 0 -18 0 0zm9 -37l8 5 -6 26 -29 -6 -1 3 -9 -6 3 -12 30 6 4 -16 0 0zm16 -35l6 7 -12 24 -26 -13 -2 3 -7 -8 6 -12 27 14 8 -15 0 0zm56 -52l-10 9 -6 -3 -9 8 3 6 -10 9 -13 -28 -2 2 -4 -10 14 -13 37 20 0 0zm-24 1l-12 -7 11 19 -2 -10 3 -2zm59 -28c0,1 0,2 0,3 -1,1 -1,2 -2,3l-29 15 -14 -25 -3 1 -1 -10 11 -6 4 8 -1 -10 14 -8c1,0 2,0 3,0 2,0 2,1 3,2l15 27 0 0zm-15 1l-9 -15c0,0 0,-1 0,-1 -1,0 -1,0 -1,0l-7 4c0,0 0,0 0,1 0,0 0,0 0,0l13 25 -1 -10 4 -2c1,0 1,-1 1,-1 0,0 0,-1 0,-1l0 0zm51 -50l0 41 -16 5 -18 -26 -5 2 1 -11 12 -3 14 22 -1 -26 13 -4zm49 25l-2 9 -29 2 -3 -29 -3 0 3 -10 31 -2 -2 10 -15 1 1 14 3 -9 14 -1 -2 9 -15 1 1 6 18 -1 0 0zm43 15l-13 -2 4 -27c0,-1 0,-2 -1,-2l-8 -1c0,0 0,0 0,1l-5 28 -13 -2 4 -29 -3 -1 5 -9 12 2 -1 10 5 -10 16 3c1,0 2,0 2,2 1,1 1,2 1,3l-5 34zm51 -24l-5 9 -8 -3 -11 27 -12 -4 10 -28 -11 -4 7 -8 30 11 0 0zm5 48l-12 -7 14 -25 -3 -2 9 -7 11 7 -19 34zm33 23c0,1 0,1 -1,1 -1,0 -1,0 -2,0l-8 -7 6 -7 -9 5 -15 -13 8 -5 14 12c0,0 1,0 1,0 0,0 0,0 0,0l3 -3c0,-1 0,-1 0,-1 0,0 0,-1 0,-1l-14 -11c0,0 0,-1 0,-2 -1,0 0,-1 0,-2l12 -14c1,-1 1,-1 2,-1 1,0 2,0 2,0l8 7 -7 8 9 -6 15 12 -9 5 -13 -11c0,0 0,0 -1,0 0,0 0,1 0,1l-3 3c0,0 0,0 0,0 0,1 0,1 0,1l14 12c1,0 1,0 1,1 0,1 -1,2 -1,2l-12 14zm55 9l-9 4 -5 -7 -23 18 -8 -10 23 -18 -8 -10 11 -3 19 26 0 0zm-2 91l-4 -13 5 -3 -3 -12 -7 0 -4 -12 31 0 -1 -3 11 1 6 18 -34 24 0 0zm9 -22l12 -8 -22 2 9 3 1 3 0 0zm3 60l-10 -2 -2 -27c0,-1 1,-2 2,-3 0,0 1,-1 2,-1l32 -2c1,0 2,0 2,0 1,0 2,1 2,2l1 10 -10 1 10 2 1 16 -10 -3 -1 -14c0,0 0,0 -1,0 0,0 0,0 0,0l-19 1c0,0 -1,0 0,1l1 19 0 0zm-14 46l2 -14 6 -1 2 -12 -7 -3 2 -13 28 13 0 -3 10 5 -2 19 -41 9zm17 -17l14 -2 -21 -8 8 6 -1 4 0 0zm-29 59c-1,0 -2,-1 -2,-2 0,-1 -1,-2 0,-3l12 -30 27 11 2 -3 7 7 -4 11 -9 -3 7 7 -6 15c0,1 -1,2 -2,2 -1,0 -2,1 -3,0l-29 -12 0 0zm11 -10l16 7c1,0 1,0 1,0 0,0 1,0 1,-1l3 -7c0,0 0,0 -1,0 0,-1 0,-1 0,-1l-26 -10 7 6 -2 5c0,0 0,0 0,1 0,0 1,0 1,0l0 0zm-29 47l-6 -7 16 -25 25 17 2 -3 6 8 -17 26 -7 -8 8 -12 -11 -8 5 8 -8 12 -6 -8 8 -12 -5 -3 -10 15 0 0zm-55 39l10 -9 18 20c0,1 1,1 1,1 0,0 1,0 1,0l5 -5c0,0 0,-1 0,-1 0,0 0,-1 0,-1l-18 -20 10 -9 18 20c0,1 0,1 1,1 0,0 0,0 1,0l5 -5c0,0 0,0 0,-1 0,0 0,-1 0,-1l-19 -20 10 -9 19 22 3 -3 4 11 -9 8 -6 -7 4 9 -13 11c0,0 -1,1 -2,0 -1,0 -2,0 -3,-1l-3 -4 3 9 -11 10c0,1 -1,1 -3,1 -1,0 -2,-1 -3,-1l-23 -26 0 0zm-27 53l2 -27 -6 -14 13 -6 6 14 14 10 5 -2 1 9 -10 5 -12 -10 -1 16 -12 5 0 0z"/>
     <path class="fil2" d="M353 529c4,0 6,2 6,6 0,3 -2,6 -6,6 -3,0 -6,-3 -6,-6 0,-4 3,-6 6,-6z"/>
     <path class="fil2" d="M455 529c3,0 6,2 6,6 0,3 -3,6 -6,6 -4,0 -7,-3 -7,-6 0,-4 3,-6 7,-6z"/>
     <path class="fil4" d="M370 550l-7 -1 3 -18 -2 -1 3 -5 7 1 -4 24 0 0zm29 1c0,0 0,1 -1,1 0,0 0,1 -1,1l-18 -2 2 -5 10 0c0,0 0,0 0,-1l1 -8 -2 6 -9 -1c0,0 -1,0 -1,-1 0,0 -1,0 -1,-1l1 -11c0,0 1,-1 1,-1 0,-1 1,-1 1,-1l15 1c1,0 2,0 3,1 0,1 1,1 1,2l-2 20 0 0zm-7 -14l0 -3c0,0 0,0 0,0 0,0 0,0 0,0l-4 0c0,0 0,0 0,0 0,0 0,0 0,0l0 2c0,0 0,0 0,1 0,0 0,0 0,0l3 0c0,0 0,0 1,0 0,0 0,0 0,0zm33 -10l-2 6 -9 1 0 8 2 -5 7 -1c1,0 1,0 1,1 1,0 1,0 1,1l1 11c0,1 0,1 0,2 -1,0 -1,1 -1,1l-18 1 2 -6 8 -1c0,0 0,0 0,0 1,0 1,0 1,-1l-1 -3c0,0 0,0 0,0 0,0 0,0 0,0l-10 1 -1 -15 19 -1zm19 22l-7 1 -3 -18 -2 0 1 -6 7 -1 4 24 0 0z"/>
    </g>
    <path class="fil2" d="M403 151c97,0 177,79 177,177 0,97 -80,176 -177,176 -98,0 -177,-79 -177,-176 0,-98 79,-177 177,-177zm0 -3c99,0 180,80 180,180 0,99 -81,180 -180,180 -100,0 -180,-81 -180,-180 0,-100 80,-180 180,-180z"/>
    <g>
     <path class="fil2" d="M351 305c18,-8 35,-5 52,0 17,-5 33,-4 49,0l80 113c-47,-15 -91,-17 -129,0 -26,-20 -65,-26 -129,0l77 -113z"/>
     <path class="fil2" d="M403 285c16,-4 33,-3 50,0l0 1 1 0 81 116 -2 3 -2 0c-42,-14 -86,-19 -127,0l0 0 -2 0 -1 -1c-14,-11 -30,-16 -48,-17 -26,-1 -54,8 -78,18l-2 1 -3 -4 79 -116 0 0 1 0c18,-8 35,-6 53,-1z"/>
     <path class="fil3" d="M351 288c18,-7 35,-4 52,0 17,-4 33,-3 49,0l80 114c-47,-16 -91,-18 -129,0 -26,-21 -65,-26 -129,0l77 -114z"/>
     <path class="fil2" d="M398 170c35,0 62,28 62,62 0,34 -27,61 -62,61 -34,0 -61,-27 -61,-61 0,-34 27,-62 61,-62z"/>
     <path class="fil5" d="M398 173c33,0 59,26 59,59 0,32 -26,58 -59,58 -32,0 -58,-26 -58,-58 0,-33 26,-59 58,-59z"/>
     <path class="fil2" d="M482 463c1,3 2,7 -1,9 -2,4 -8,2 -11,1l-1 0 0 0 0 0c-15,-10 -29,-22 -42,-35 -16,-17 -28,-36 -36,-58 -10,-26 -13,-54 -11,-81l0 -1 2 -2 33 0 2 2 0 2c-1,14 -1,28 0,41 1,12 2,23 5,34 4,19 12,36 24,52 10,13 22,24 35,34l1 1 0 0 0 1 0 0z"/>
     <path class="fil3" d="M383 299l31 0c-5,90 20,129 65,165 3,7 0,9 -8,6 -53,-35 -93,-84 -88,-171l0 0z"/>
     <path class="fil6" d="M398 216c5,12 15,36 15,50 0,14 -10,20 -15,32 -4,-12 -14,-18 -14,-32 0,-14 10,-38 14,-50z"/>
     <path class="fil2" d="M380 291l37 0c2,0 4,1 4,3l0 3c0,2 -2,3 -4,3l-37 0c-2,0 -4,-1 -4,-3l0 -3c0,-2 2,-3 4,-3z"/>
    </g>
   </g>
  </g>
 </g>
</svg>
