<?xml version="1.0" encoding="UTF-8"?>
<!DOCTYPE svg PUBLIC "-//W3C//DTD SVG 1.1//EN" "http://www.w3.org/Graphics/SVG/1.1/DTD/svg11.dtd">
<!-- Creator: CorelDRAW X7 -->
<svg xmlns="http://www.w3.org/2000/svg" xml:space="preserve" width="185.25mm" height="163.558mm" version="1.1" style="shape-rendering:geometricPrecision; text-rendering:geometricPrecision; image-rendering:optimizeQuality; fill-rule:evenodd; clip-rule:evenodd"
viewBox="0 0 18525 16356"
 xmlns:xlink="http://www.w3.org/1999/xlink">
 <defs>
  <style type="text/css">
   <![CDATA[
    .fil0 {fill:#007DFE;fill-rule:nonzero}
    .fil2 {fill:#022DB8;fill-rule:nonzero}
    .fil3 {fill:#70BAF7;fill-rule:nonzero}
    .fil1 {fill:white;fill-rule:nonzero}
   ]]>
  </style>
 </defs>
 <g id="Слой_x0020_1">
  <metadata id="CorelCorpID_0Corel-Layer"/>
  <path class="fil0" d="M3 0l18518 0c0,536 0,1072 0,1608 0,4915 0,9830 0,14745 -4958,0 -9917,0 -14875,0 -1214,0 -2429,1 -3644,0 0,-167 0,-333 0,-499 0,-4627 0,-9254 0,-13881 1,-658 -1,-1315 1,-1973z"/>
  <path class="fil1" d="M0 0l3 0c-2,658 0,1315 -1,1973 0,4627 0,9254 0,13881 0,166 0,332 0,499 1215,1 2430,0 3644,0 4958,0 9917,0 14875,0 0,-4915 0,-9830 0,-14745 0,-536 0,-1072 0,-1608l4 0 0 16356 -18525 0 0 -16356zm7784 3713c251,-92 517,-139 784,-142 414,-7 830,103 1187,315 40,24 82,48 116,80 87,78 138,196 134,312 0,81 -25,161 -71,228 -57,84 -145,145 -243,171 -110,28 -231,11 -327,-51 -199,-125 -430,-201 -665,-217 -251,-18 -506,30 -733,140 -178,86 -339,209 -469,360 -147,170 -254,376 -309,596 -60,242 -56,500 12,741 61,215 172,416 323,581 148,164 335,294 541,376 221,88 464,119 700,91 245,-28 483,-122 682,-268 232,-169 414,-407 511,-677 9,-25 18,-49 23,-75 -287,-1 -575,-1 -862,1 -65,-1 -130,4 -194,-10 -112,-24 -212,-95 -270,-193 -54,-89 -71,-197 -51,-298 20,-102 80,-195 164,-255 69,-52 156,-79 242,-80 458,-1 916,-2 1373,-1 56,0 112,-4 167,8 95,21 182,75 242,152 57,73 89,167 88,261 -1,342 -79,684 -229,992 -142,294 -349,555 -600,763 -266,220 -582,380 -918,461 -473,115 -983,74 -1431,-118 -383,-163 -719,-433 -962,-771 -130,-181 -234,-382 -306,-593 -166,-481 -161,-1017 3,-1498 142,-416 410,-788 759,-1056 178,-137 378,-249 589,-326zm6248 7201c15,-47 61,-82 111,-82 109,0 218,0 327,0 45,0 89,28 108,69 13,27 10,58 10,86 1,297 -1,593 1,890 44,-33 86,-70 133,-98 219,-133 488,-171 739,-131 195,30 381,123 516,269 139,149 219,347 246,548 11,75 15,151 14,227 -5,62 -1,124 -2,186 0,333 0,665 0,998 0,30 1,62 -6,92 -18,42 -61,73 -108,73 -109,0 -218,0 -327,0 -58,-1 -113,-51 -113,-110 0,-313 0,-625 0,-938 -1,-122 4,-244 -8,-365 -12,-120 -49,-239 -120,-336 -56,-77 -135,-137 -224,-169 -115,-39 -242,-42 -359,-8 -102,28 -194,92 -256,179 -91,124 -124,281 -126,432 0,399 0,799 0,1199 0,60 -52,115 -112,115 -111,1 -222,1 -333,1 -64,0 -120,-58 -117,-122 0,-977 0,-1954 0,-2932 0,-24 -1,-49 6,-73zm-10606 104c130,-35 265,-51 400,-53 251,-5 505,46 731,158 211,106 402,259 539,453 33,45 34,110 6,158 -14,24 -35,43 -59,56 -72,42 -145,84 -218,126 -61,36 -148,22 -192,-35 -126,-173 -319,-291 -526,-341 -122,-29 -249,-35 -373,-22 -185,16 -367,84 -513,200 -131,104 -237,241 -300,397 -39,94 -60,194 -70,294 -17,198 9,403 100,581 64,129 159,240 271,328 169,136 384,208 599,217 150,10 299,-26 437,-83 135,-55 261,-136 362,-243 110,-118 189,-269 211,-429 -275,-1 -550,0 -825,0 -33,1 -67,-6 -93,-26 -42,-27 -65,-77 -64,-126 0,-73 0,-146 0,-218 3,-75 71,-139 146,-139 381,0 763,0 1144,0 41,1 83,-4 121,13 70,25 121,95 123,169 1,84 -6,168 -8,252 -3,96 -23,192 -49,285 -63,220 -168,432 -326,599 -147,152 -329,267 -522,350 -110,47 -225,83 -343,105 -132,26 -268,31 -403,20 -251,-18 -501,-90 -716,-223 -212,-131 -391,-314 -519,-527 -91,-153 -153,-322 -185,-497 -33,-194 -34,-393 -2,-588 31,-180 95,-356 191,-512 93,-156 215,-293 355,-408 166,-137 361,-238 570,-291zm3727 -50c173,-10 348,2 517,46 342,88 656,300 852,597 34,54 15,135 -43,166 -93,54 -186,107 -279,162 -41,23 -96,19 -132,-11 -19,-14 -30,-35 -44,-54 -77,-108 -182,-195 -299,-257 -133,-69 -283,-104 -433,-105 -174,-4 -350,29 -506,108 -236,121 -415,348 -480,605 -39,153 -45,313 -23,468 19,132 63,261 133,375 97,158 240,289 409,364 121,55 253,83 386,88 66,1 134,3 200,-6 239,-30 472,-152 612,-351 17,-24 31,-50 56,-65 38,-24 89,-23 127,0 91,53 183,104 274,157 40,22 64,69 59,114 -2,41 -31,72 -53,104 -121,169 -283,307 -465,407 -201,113 -428,175 -658,187 -258,12 -520,-26 -757,-132 -173,-77 -329,-188 -461,-324 -152,-155 -272,-343 -345,-548 -53,-154 -82,-316 -87,-479 -12,-288 46,-582 188,-835 82,-148 189,-281 315,-394 128,-117 277,-211 438,-276 158,-65 328,-99 499,-111zm2664 632c121,-11 245,-9 364,19 116,27 227,76 321,148 98,75 180,178 211,300 5,-27 3,-55 3,-82 1,-80 0,-160 0,-240 0,-61 57,-116 118,-113 113,0 226,0 339,0 60,2 111,58 109,118 0,720 0,1439 0,2158 0,20 0,40 -8,58 -18,45 -64,76 -112,75 -109,0 -218,0 -327,0 -60,1 -116,-50 -119,-110 0,-70 2,-140 -1,-210 -28,23 -53,50 -80,75 -88,81 -188,150 -297,199 -210,96 -453,106 -675,49 -202,-51 -386,-164 -525,-318 -157,-171 -259,-389 -302,-615 -47,-246 -34,-504 45,-742 64,-191 175,-368 326,-502 168,-151 386,-243 610,-267zm176 494c-88,7 -175,30 -252,72 -91,48 -168,121 -225,206 -187,282 -173,677 25,950 59,79 134,147 222,191 200,103 453,86 639,-37 151,-97 254,-260 291,-434 29,-127 30,-260 6,-388 -21,-108 -63,-213 -129,-301 -63,-83 -145,-152 -239,-197 -105,-50 -223,-73 -338,-62zm2019 -332c188,-122 416,-172 638,-168 119,-1 238,15 352,49 114,34 222,89 313,167 142,120 230,297 255,480 9,62 -41,124 -103,131 -93,-3 -185,0 -278,-1 -40,-2 -81,4 -119,-11 -28,-15 -50,-40 -59,-71 -10,-35 -21,-71 -41,-101 -41,-66 -109,-112 -182,-134 -78,-25 -161,-27 -242,-21 -82,9 -168,30 -227,90 -44,45 -61,115 -44,176 22,78 97,124 167,156 105,47 218,75 329,107 112,31 225,63 334,106 101,40 199,90 282,160 78,64 142,147 178,242 38,99 50,207 39,312 -13,108 -53,213 -117,301 -49,69 -111,127 -181,174 -106,74 -229,119 -354,146 -234,47 -481,35 -706,-46 -179,-64 -344,-178 -453,-336 -42,-62 -76,-130 -98,-202 -11,-39 -24,-80 -20,-121 7,-55 58,-100 113,-101 115,0 229,0 344,0 36,-1 73,14 97,43 22,24 24,58 39,86 33,76 99,135 174,169 69,34 147,49 224,48 98,1 200,-13 285,-63 47,-29 87,-75 99,-130 10,-41 6,-85 -15,-121 -27,-50 -79,-81 -128,-106 -94,-44 -195,-71 -294,-98 -135,-37 -272,-71 -402,-122 -81,-31 -160,-68 -231,-118 -81,-53 -152,-123 -200,-208 -56,-98 -79,-213 -77,-325 -2,-124 39,-246 109,-347 53,-77 123,-140 200,-192z"/>
  <path class="fil2" d="M8455 2248c488,-19 980,61 1436,238 308,120 600,283 865,481 40,30 81,61 112,100 57,73 93,165 90,257 2,83 -23,166 -70,234 -54,83 -140,142 -235,168 -91,23 -189,18 -274,-21 -55,-22 -98,-62 -145,-95 -171,-126 -357,-231 -551,-315 -666,-286 -1445,-293 -2118,-25 -335,134 -644,334 -903,585 -34,35 -71,67 -102,105 -70,71 -132,149 -192,228 -58,78 -114,157 -162,241 -53,84 -97,174 -140,263 -151,328 -237,686 -251,1047 -20,452 73,909 269,1317 151,316 365,601 621,840 293,272 645,480 1025,603 231,75 470,119 712,132 206,9 413,1 617,-35 360,-59 708,-195 1017,-390 80,-48 155,-105 230,-162 85,-59 192,-86 294,-70 156,19 291,138 340,285 32,100 26,212 -20,307 -31,63 -79,118 -136,158 -450,346 -983,583 -1542,682 -204,37 -412,57 -620,57 -518,6 -1037,-101 -1509,-314 -193,-88 -380,-190 -554,-311 -169,-115 -327,-246 -474,-387 -451,-435 -786,-989 -959,-1592 -29,-103 -57,-206 -75,-312 -29,-135 -44,-273 -57,-410 -9,-140 -15,-280 -8,-420 16,-453 119,-903 302,-1318 145,-331 341,-637 578,-910 61,-69 123,-138 190,-201 115,-117 240,-223 371,-322 71,-51 141,-104 215,-150 326,-211 687,-367 1064,-462 245,-61 497,-97 749,-106z"/>
  <path class="fil3" d="M12592 3393c101,-12 207,16 289,76 52,37 94,87 124,143 250,493 418,1028 490,1576 37,260 50,523 44,785 -16,712 -188,1421 -503,2060 -24,53 -51,106 -89,150 -50,56 -114,98 -185,120 -114,37 -244,22 -345,-43 -77,-47 -139,-121 -169,-206 -39,-105 -33,-225 15,-326 212,-415 353,-868 413,-1330 83,-632 20,-1284 -188,-1887 -45,-134 -100,-264 -158,-393 -20,-40 -38,-81 -60,-120 -54,-106 -62,-235 -17,-346 53,-141 190,-244 339,-259zm-1150 718c93,-13 191,7 272,57 76,46 137,118 170,200 149,331 248,684 292,1044 37,316 35,636 -9,951 -49,352 -151,696 -301,1017 -70,141 -226,232 -382,225 -150,-1 -293,-94 -358,-227 -47,-93 -57,-203 -28,-302 8,-30 22,-58 34,-87 256,-568 309,-1224 154,-1827 -33,-134 -79,-264 -132,-392 -18,-45 -42,-87 -55,-134 -28,-102 -18,-214 32,-307 60,-117 180,-201 311,-218zm1628 8298c38,15 79,9 119,11 93,1 185,-2 278,1 -6,6 -15,3 -21,4 -115,0 -230,1 -344,-1 -13,1 -24,-5 -32,-15zm3167 283c5,25 2,51 3,77 0,386 0,771 0,1156 -1,15 1,32 -11,43 7,-30 6,-62 6,-92 0,-333 0,-665 0,-998 1,-62 -3,-124 2,-186z"/>
 </g>
</svg>
